G04*
G04 #@! TF.GenerationSoftware,Altium Limited,Altium Designer,26.2.0 (7)*
G04*
G04 Layer_Color=8388736*
%FSLAX44Y44*%
%MOMM*%
G71*
G04*
G04 #@! TF.SameCoordinates,5073EF85-569D-4715-B1C4-D54BA00D27BC*
G04*
G04*
G04 #@! TF.FilePolarity,Negative*
G04*
G01*
G75*
%ADD11C,0.2540*%
%ADD21C,0.1600*%
%ADD22C,1.7600*%
%ADD23R,1.9032X0.9032*%
%ADD24R,1.9032X0.5032*%
%ADD25R,2.7032X1.0032*%
G04:AMPARAMS|DCode=26|XSize=0.7432mm|YSize=0.8032mm|CornerRadius=0.1691mm|HoleSize=0mm|Usage=FLASHONLY|Rotation=0.000|XOffset=0mm|YOffset=0mm|HoleType=Round|Shape=RoundedRectangle|*
%AMROUNDEDRECTD26*
21,1,0.7432,0.4650,0,0,0.0*
21,1,0.4050,0.8032,0,0,0.0*
1,1,0.3382,0.2025,-0.2325*
1,1,0.3382,-0.2025,-0.2325*
1,1,0.3382,-0.2025,0.2325*
1,1,0.3382,0.2025,0.2325*
%
%ADD26ROUNDEDRECTD26*%
%ADD27C,1.2032*%
%ADD28C,4.0000*%
G36*
X753025Y146343D02*
X753739Y145629D01*
X754126Y144695D01*
Y144190D01*
Y138602D01*
X728980D01*
X728336Y138539D01*
X727145Y138046D01*
X726235Y137135D01*
X725741Y135944D01*
X725678Y135300D01*
X725741Y134656D01*
X726235Y133465D01*
X727145Y132554D01*
X728336Y132061D01*
X728980Y131998D01*
X754126D01*
Y126410D01*
Y125905D01*
X753739Y124971D01*
X753025Y124257D01*
X752091Y123870D01*
X751586D01*
Y123870D01*
X722630Y123870D01*
X721504D01*
X719296Y124309D01*
X717216Y125171D01*
X715344Y126422D01*
X713752Y128014D01*
X712501Y129886D01*
X711639Y131966D01*
X711200Y134174D01*
Y135300D01*
Y136426D01*
X711639Y138634D01*
X712501Y140714D01*
X713752Y142586D01*
X715344Y144178D01*
X717216Y145429D01*
X719296Y146291D01*
X721504Y146730D01*
X752091D01*
X753025Y146343D01*
D02*
G37*
G36*
Y171743D02*
X753739Y171029D01*
X754126Y170095D01*
Y169590D01*
Y164002D01*
X728980Y164002D01*
X728336Y163939D01*
X727145Y163445D01*
X726235Y162534D01*
X725741Y161344D01*
X725678Y160700D01*
X725741Y160056D01*
X726235Y158865D01*
X727145Y157954D01*
X728336Y157461D01*
X728980Y157398D01*
Y157398D01*
X754126Y157398D01*
Y151810D01*
Y151305D01*
X753739Y150371D01*
X753025Y149657D01*
X752091Y149270D01*
X751586D01*
Y149270D01*
X722630Y149270D01*
X721504D01*
X719296Y149709D01*
X717216Y150571D01*
X715344Y151822D01*
X713752Y153414D01*
X712501Y155286D01*
X711639Y157366D01*
X711200Y159574D01*
Y160700D01*
Y161826D01*
X711639Y164034D01*
X712501Y166114D01*
X713752Y167986D01*
X715344Y169578D01*
X717216Y170829D01*
X719296Y171691D01*
X721504Y172130D01*
X752091D01*
X753025Y171743D01*
D02*
G37*
G36*
Y197143D02*
X753739Y196429D01*
X754126Y195495D01*
Y194990D01*
Y194990D01*
Y189402D01*
X728980D01*
X728336Y189338D01*
X727145Y188846D01*
X726235Y187934D01*
X725741Y186744D01*
X725678Y186100D01*
X725741Y185456D01*
X726235Y184265D01*
X727145Y183354D01*
X728336Y182861D01*
X728980Y182798D01*
X754126D01*
Y177210D01*
Y176705D01*
X753739Y175771D01*
X753025Y175057D01*
X752091Y174670D01*
X721504D01*
X719296Y175109D01*
X717216Y175971D01*
X715344Y177222D01*
X713752Y178814D01*
X712501Y180686D01*
X711639Y182766D01*
X711200Y184974D01*
Y186100D01*
Y187226D01*
X711639Y189434D01*
X712501Y191514D01*
X713752Y193386D01*
X715344Y194978D01*
X717216Y196229D01*
X719296Y197091D01*
X721504Y197530D01*
X722630D01*
X751586Y197530D01*
X752091D01*
X753025Y197143D01*
D02*
G37*
G36*
X751586Y222930D02*
X752091D01*
X753025Y222543D01*
X753739Y221829D01*
X754126Y220895D01*
Y220390D01*
Y214802D01*
X728980D01*
X728336Y214739D01*
X727145Y214245D01*
X726235Y213335D01*
X725741Y212144D01*
X725678Y211500D01*
X725741Y210856D01*
X726235Y209666D01*
X727145Y208754D01*
X728336Y208261D01*
X728980Y208198D01*
X754126Y208198D01*
X754126Y202610D01*
Y202105D01*
X753739Y201171D01*
X753025Y200457D01*
X752091Y200070D01*
X751586D01*
Y200070D01*
X721504D01*
X719296Y200509D01*
X717216Y201371D01*
X715344Y202622D01*
X713752Y204214D01*
X712501Y206086D01*
X711639Y208166D01*
X711200Y210374D01*
Y211500D01*
Y212626D01*
X711639Y214834D01*
X712501Y216914D01*
X713752Y218786D01*
X715344Y220378D01*
X717216Y221629D01*
X719296Y222491D01*
X721504Y222930D01*
X722630D01*
X751586Y222930D01*
D02*
G37*
G36*
X753025Y247943D02*
X753739Y247229D01*
X754126Y246295D01*
Y245790D01*
X754126D01*
X754126Y240202D01*
X728980D01*
X728336Y240138D01*
X727145Y239646D01*
X726235Y238734D01*
X725741Y237544D01*
X725678Y236900D01*
X725741Y236256D01*
X726235Y235065D01*
X727145Y234154D01*
X728336Y233661D01*
X728980Y233598D01*
X754126D01*
Y228010D01*
Y227505D01*
X753739Y226571D01*
X753025Y225857D01*
X752091Y225470D01*
X751586D01*
Y225470D01*
X721504D01*
X719296Y225909D01*
X717216Y226771D01*
X715344Y228022D01*
X713752Y229614D01*
X712501Y231486D01*
X711639Y233566D01*
X711200Y235774D01*
Y236900D01*
Y238026D01*
X711639Y240234D01*
X712501Y242314D01*
X713752Y244186D01*
X715344Y245778D01*
X717216Y247029D01*
X719296Y247891D01*
X721504Y248330D01*
X752091D01*
X753025Y247943D01*
D02*
G37*
G36*
Y273343D02*
X753739Y272629D01*
X754126Y271695D01*
Y271190D01*
Y265602D01*
X728980Y265602D01*
X728336Y265539D01*
X727145Y265046D01*
X726235Y264135D01*
X725741Y262944D01*
X725678Y262300D01*
X725741Y261656D01*
X726235Y260466D01*
X727145Y259555D01*
X728336Y259061D01*
X728980Y258998D01*
Y258998D01*
X754126D01*
Y253410D01*
Y252905D01*
X753739Y251971D01*
X753025Y251257D01*
X752091Y250870D01*
X721504D01*
X719296Y251309D01*
X717216Y252171D01*
X715344Y253422D01*
X713752Y255014D01*
X712501Y256886D01*
X711639Y258966D01*
X711200Y261174D01*
Y262300D01*
Y263426D01*
X711639Y265634D01*
X712501Y267714D01*
X713752Y269586D01*
X715344Y271178D01*
X717216Y272429D01*
X719296Y273291D01*
X721504Y273730D01*
X752091D01*
X753025Y273343D01*
D02*
G37*
G36*
Y298743D02*
X753739Y298029D01*
X754126Y297095D01*
Y296590D01*
Y291002D01*
X728980D01*
X728336Y290938D01*
X727145Y290445D01*
X726235Y289534D01*
X725741Y288344D01*
X725678Y287700D01*
X725741Y287056D01*
X726235Y285865D01*
X727145Y284954D01*
X728336Y284461D01*
X728980Y284398D01*
Y284398D01*
X754126Y284398D01*
Y278810D01*
Y278305D01*
X753739Y277371D01*
X753025Y276657D01*
X752091Y276270D01*
X721504D01*
X719296Y276709D01*
X717216Y277571D01*
X715344Y278822D01*
X713752Y280414D01*
X712501Y282286D01*
X711639Y284366D01*
X711200Y286574D01*
Y287700D01*
Y288826D01*
X711639Y291034D01*
X712501Y293114D01*
X713752Y294986D01*
X715344Y296578D01*
X717216Y297829D01*
X719296Y298691D01*
X721504Y299130D01*
X752091D01*
X753025Y298743D01*
D02*
G37*
G36*
X753025Y324143D02*
X753739Y323429D01*
X754126Y322495D01*
Y321990D01*
X754126D01*
Y316402D01*
X728980D01*
X728336Y316339D01*
X727145Y315846D01*
X726235Y314935D01*
X725741Y313744D01*
X725678Y313100D01*
X725741Y312456D01*
X726235Y311266D01*
X727145Y310354D01*
X728336Y309861D01*
X728980Y309798D01*
X754126D01*
Y304210D01*
Y303705D01*
X753739Y302771D01*
X753025Y302057D01*
X752091Y301670D01*
X721504D01*
X719296Y302109D01*
X717216Y302971D01*
X715344Y304222D01*
X713752Y305814D01*
X712501Y307686D01*
X711639Y309766D01*
X711200Y311974D01*
Y313100D01*
Y314226D01*
X711639Y316434D01*
X712501Y318514D01*
X713752Y320386D01*
X715344Y321978D01*
X717216Y323229D01*
X719296Y324091D01*
X721504Y324530D01*
X752091D01*
X753025Y324143D01*
D02*
G37*
G36*
X753025Y349543D02*
X753739Y348829D01*
X754126Y347895D01*
Y347390D01*
Y341802D01*
X728980D01*
X728336Y341739D01*
X727145Y341245D01*
X726235Y340335D01*
X725741Y339144D01*
X725678Y338500D01*
X725741Y337856D01*
X726235Y336665D01*
X727145Y335754D01*
X728336Y335261D01*
X728980Y335198D01*
X754126D01*
Y329610D01*
Y329105D01*
X753739Y328171D01*
X753025Y327457D01*
X752091Y327070D01*
X751586D01*
Y327070D01*
X721504D01*
X719296Y327509D01*
X717216Y328371D01*
X715344Y329622D01*
X713752Y331214D01*
X712501Y333086D01*
X711639Y335166D01*
X711200Y337374D01*
Y338500D01*
Y339626D01*
X711639Y341834D01*
X712501Y343914D01*
X713752Y345786D01*
X715344Y347378D01*
X717216Y348629D01*
X719296Y349491D01*
X721504Y349930D01*
X752091D01*
X753025Y349543D01*
D02*
G37*
G36*
Y374943D02*
X753739Y374229D01*
X754126Y373295D01*
Y372790D01*
Y367202D01*
X728980D01*
X728336Y367138D01*
X727145Y366646D01*
X726235Y365734D01*
X725741Y364544D01*
X725678Y363900D01*
X725741Y363256D01*
X726235Y362066D01*
X727145Y361154D01*
X728336Y360661D01*
X728980Y360598D01*
X754126D01*
Y355010D01*
Y354505D01*
X753739Y353571D01*
X753025Y352857D01*
X752091Y352470D01*
X751586D01*
Y352470D01*
X722630Y352470D01*
X721504D01*
X719296Y352909D01*
X717216Y353771D01*
X715344Y355022D01*
X713752Y356614D01*
X712501Y358486D01*
X711639Y360566D01*
X711200Y362774D01*
Y363900D01*
Y365026D01*
X711639Y367234D01*
X712501Y369314D01*
X713752Y371186D01*
X715344Y372778D01*
X717216Y374029D01*
X719296Y374891D01*
X721504Y375330D01*
X752091D01*
X753025Y374943D01*
D02*
G37*
G36*
Y400343D02*
X753739Y399629D01*
X754126Y398695D01*
Y398190D01*
Y392602D01*
X728980Y392602D01*
X728336Y392538D01*
X727145Y392046D01*
X726235Y391134D01*
X725741Y389944D01*
X725678Y389300D01*
X725741Y388656D01*
X726235Y387465D01*
X727145Y386554D01*
X728336Y386061D01*
X728980Y385998D01*
Y385998D01*
X754126Y385998D01*
Y380410D01*
Y379905D01*
X753739Y378971D01*
X753025Y378257D01*
X752091Y377870D01*
X751586D01*
Y377870D01*
X722630Y377870D01*
X721504D01*
X719296Y378309D01*
X717216Y379171D01*
X715344Y380422D01*
X713752Y382014D01*
X712501Y383886D01*
X711639Y385966D01*
X711200Y388174D01*
Y389300D01*
Y390426D01*
X711639Y392634D01*
X712501Y394714D01*
X713752Y396586D01*
X715344Y398178D01*
X717216Y399429D01*
X719296Y400291D01*
X721504Y400730D01*
X752091D01*
X753025Y400343D01*
D02*
G37*
G36*
Y425743D02*
X753739Y425029D01*
X754126Y424095D01*
Y423590D01*
Y423590D01*
X754126Y418002D01*
X728980Y418002D01*
X728336Y417938D01*
X727145Y417445D01*
X726235Y416535D01*
X725741Y415344D01*
X725678Y414700D01*
X725741Y414056D01*
X726235Y412865D01*
X727145Y411954D01*
X728336Y411461D01*
X728980Y411398D01*
Y411398D01*
X754126Y411398D01*
Y405810D01*
Y405305D01*
X753739Y404371D01*
X753025Y403657D01*
X752091Y403270D01*
X721504D01*
X719296Y403709D01*
X717216Y404571D01*
X715344Y405822D01*
X713752Y407414D01*
X712501Y409286D01*
X711639Y411366D01*
X711200Y413574D01*
Y414700D01*
Y415826D01*
X711639Y418034D01*
X712501Y420114D01*
X713752Y421986D01*
X715344Y423578D01*
X717216Y424829D01*
X719296Y425691D01*
X721504Y426130D01*
X722630D01*
X751586Y426130D01*
X752091D01*
X753025Y425743D01*
D02*
G37*
D11*
X259510Y311000D02*
G03*
X251510Y319000I-8000J0D01*
G01*
Y231000D02*
G03*
X259510Y239000I0J8000D01*
G01*
X179510Y319000D02*
G03*
X171510Y311000I0J-8000D01*
G01*
Y239000D02*
G03*
X179510Y231000I8000J0D01*
G01*
X38354Y285568D02*
G03*
X33854Y290068I-4500J0D01*
G01*
Y258064D02*
G03*
X38354Y262564I0J4500D01*
G01*
X14914Y290068D02*
G03*
X10414Y285568I0J-4500D01*
G01*
Y262564D02*
G03*
X14914Y258064I4500J0D01*
G01*
X139700Y338186D02*
G03*
X132700Y345186I-7000J0D01*
G01*
Y317246D02*
G03*
X139700Y324246I0J7000D01*
G01*
X105806Y345186D02*
G03*
X98806Y338186I0J-7000D01*
G01*
Y324246D02*
G03*
X105806Y317246I7000J0D01*
G01*
X179510Y231000D02*
X251510D01*
X179510Y319000D02*
X251510D01*
X259510Y239000D02*
Y311000D01*
X171510Y239000D02*
Y311000D01*
X14914Y258064D02*
X33854D01*
X14914Y290068D02*
X33854D01*
X38354Y262564D02*
Y285568D01*
X10414Y262564D02*
Y285568D01*
X105806Y317246D02*
X132700D01*
X105806Y345186D02*
X132700D01*
X139700Y324246D02*
Y338186D01*
X98806Y324246D02*
Y338186D01*
D21*
X156480Y272034D02*
G03*
X156480Y272034I-2048J0D01*
G01*
X176580Y213360D02*
G03*
X176580Y213360I-2590J0D01*
G01*
X228616Y332232D02*
G03*
X228616Y332232I-2048J0D01*
G01*
X268174Y341630D02*
G03*
X268174Y341630I-2896J0D01*
G01*
X203440Y326136D02*
G03*
X203440Y326136I-2272J0D01*
G01*
X178830Y347218D02*
G03*
X178830Y347218I-2300J0D01*
G01*
X164159Y305308D02*
G03*
X164159Y305308I-2615J0D01*
G01*
X148460Y354838D02*
G03*
X148460Y354838I-2410J0D01*
G01*
X172807Y366522D02*
G03*
X172807Y366522I-3389J0D01*
G01*
X219058Y220980D02*
G03*
X219058Y220980I-2396J0D01*
G01*
X294640Y188468D02*
G03*
X294640Y188468I-2286J0D01*
G01*
X286528Y220472D02*
G03*
X286528Y220472I-2048J0D01*
G01*
X302514Y249936D02*
G03*
X302514Y249936I-2540J0D01*
G01*
X277066Y269494D02*
G03*
X277066Y269494I-1984J0D01*
G01*
X279510Y241300D02*
G03*
X279510Y241300I-2396J0D01*
G01*
X252222Y203962D02*
G03*
X252222Y203962I-1270J0D01*
G01*
X202748Y195834D02*
G03*
X202748Y195834I-2342J0D01*
G01*
X49018Y295910D02*
G03*
X44446Y291338I0J-4572D01*
G01*
X101854Y300736D02*
G03*
X98044Y304546I-3810J0D01*
G01*
X44446Y249428D02*
G03*
X50796Y243078I6350J0D01*
G01*
X110744D02*
G03*
X117094Y249428I0J6350D01*
G01*
Y291338D02*
G03*
X112522Y295910I-4572J0D01*
G01*
X63496Y304546D02*
G03*
X59686Y300736I0J-3810D01*
G01*
X101854Y299212D02*
G03*
X105156Y295910I3302J0D01*
G01*
X56384D02*
G03*
X59686Y299212I0J3302D01*
G01*
X202946Y324612D02*
X204597Y322961D01*
X261426Y338896D02*
X262382Y339852D01*
X273812Y195580D02*
Y197612D01*
X270510Y200914D02*
X273812Y197612D01*
X265684Y196088D02*
X270510Y200914D01*
Y206248D01*
X266700Y210058D02*
X270510Y206248D01*
X275844D01*
X279908Y210312D01*
X262128Y184658D02*
Y187452D01*
X265684Y191008D01*
Y196088D01*
X255778Y208788D02*
X257810Y206756D01*
Y203962D02*
Y206756D01*
X67306Y304546D02*
X94234D01*
X105156Y295910D02*
X112522D01*
X63496Y304546D02*
X67306D01*
X101854Y299212D02*
Y300736D01*
X59686Y299212D02*
Y300736D01*
X94234Y304546D02*
X98044D01*
X49018Y295910D02*
X56384D01*
X44446Y249428D02*
Y291338D01*
X50796Y243078D02*
X110744D01*
X117094Y249428D02*
Y291338D01*
X149352Y349758D02*
X156210D01*
X170434Y353822D02*
Y361950D01*
X160528Y333248D02*
Y343916D01*
X200406Y198374D02*
Y209296D01*
X160528Y333248D02*
X167386Y326390D01*
X156718Y242824D02*
X160782D01*
X209296Y326136D02*
Y328168D01*
X172720Y336804D02*
X178816D01*
X174752Y326390D02*
X175514D01*
X168148Y265684D02*
X170688Y263144D01*
X228600Y219456D02*
Y220980D01*
X164606Y239000D02*
X171510D01*
X179510Y224350D02*
X186182Y217678D01*
X221488Y227838D02*
Y230124D01*
X271018Y235204D02*
X273304Y232918D01*
X262890Y260096D02*
X264668Y258318D01*
X279908Y220472D02*
X282194D01*
X266192Y224028D02*
Y227838D01*
X160528Y343916D02*
X170434Y353822D01*
X176530Y343154D02*
X178816Y340868D01*
X161798Y278130D02*
X164928Y275000D01*
X216662Y327152D02*
X221234Y322580D01*
X170688Y263144D02*
X171450D01*
X181102Y212598D02*
X186182Y217678D01*
X285242Y189484D02*
X288290Y192532D01*
X204978Y321818D02*
Y322326D01*
X228600Y220980D02*
X233172Y225552D01*
X257810Y203962D02*
X265684Y196088D01*
X179510Y319000D02*
Y321632D01*
X279908Y210312D02*
X288290Y201930D01*
X271018Y235204D02*
Y239268D01*
X263652Y242062D02*
X265938Y244348D01*
X292608Y261874D02*
Y264414D01*
X147320Y351790D02*
Y352806D01*
X158242Y308610D02*
Y315214D01*
X155702D02*
X158242D01*
X164928Y275000D02*
X171510D01*
X204978Y321818D02*
X209296Y326136D01*
X204597Y322961D02*
X204978Y322580D01*
X178816Y336804D02*
X194310Y321310D01*
X257810Y335280D02*
X262382Y339852D01*
X239014Y319024D02*
Y321818D01*
X257810Y325300D02*
X259768D01*
X261112Y218948D02*
X266192Y224028D01*
X251510Y319000D02*
X257810Y325300D01*
X279908Y210312D02*
Y220472D01*
X271018Y239268D02*
X275082D01*
X266192Y227838D02*
X272542D01*
X263906Y294640D02*
X269748Y300482D01*
X271272Y260096D02*
X275082Y263906D01*
X291338Y265684D02*
X292608Y264414D01*
X156210Y349758D02*
X160528Y345440D01*
X159258Y268478D02*
X161290D01*
X154940Y333248D02*
X160528D01*
X208280Y329184D02*
X209296Y328168D01*
X181102Y208280D02*
Y212598D01*
X211074Y207264D02*
Y213614D01*
X178816Y336804D02*
Y340868D01*
X175514Y326390D02*
X178562Y329438D01*
X160782Y242824D02*
X164606Y239000D01*
X205994Y218694D02*
X211074Y213614D01*
X254762Y216662D02*
X256032D01*
X252966Y203962D02*
X257810D01*
X204978Y322326D02*
Y322580D01*
X205994Y223774D02*
X213868D01*
X233172Y225552D02*
X235204D01*
X257810Y325300D02*
Y335280D01*
X198768Y231000D02*
X205994Y223774D01*
X247396Y222504D02*
X251510Y226618D01*
X258572Y235458D02*
X266192Y227838D01*
X263652Y239522D02*
Y242062D01*
X272542Y227838D02*
X283464Y238760D01*
X266446Y264922D02*
Y269240D01*
X259588Y249682D02*
X265938D01*
X271272Y255016D02*
Y260096D01*
X285750Y255016D02*
X292608Y261874D01*
X285750Y255016D02*
X291592Y249174D01*
X275082Y263906D02*
Y267462D01*
X271272Y255016D02*
X285750D01*
X158242Y308610D02*
X159639Y307213D01*
X167386Y321310D02*
X169672Y319024D01*
X163068Y235458D02*
X164606Y236996D01*
X288290Y192532D02*
X290322Y190500D01*
X174752Y326390D02*
X179510Y321632D01*
X173990Y218830D02*
X179510Y224350D01*
X194310Y319024D02*
Y321310D01*
X179510Y231000D02*
X198768D01*
Y223152D02*
Y231000D01*
X251510Y219914D02*
Y226618D01*
X266446Y264922D02*
X271272Y260096D01*
X291592Y249174D02*
X297180D01*
X147320Y351790D02*
X149352Y349758D01*
X176530Y343154D02*
Y343916D01*
X158242Y259842D02*
X164084Y265684D01*
X181102Y208280D02*
X183642Y205740D01*
X167386Y324358D02*
Y326390D01*
X192024Y217678D02*
X200406Y209296D01*
X249682Y343408D02*
Y348488D01*
X213868Y223774D02*
X214630Y223012D01*
X235204Y225552D02*
X237998Y222758D01*
X196342Y220726D02*
X198768Y223152D01*
X226822Y322580D02*
X230378Y319024D01*
X179510Y224350D02*
Y231000D01*
X251510Y226618D02*
Y231000D01*
X272542Y227838D02*
X279908Y220472D01*
X265938Y244348D02*
X271018Y239268D01*
X265938Y249682D02*
X271272Y255016D01*
X150876Y320040D02*
X155702Y315214D01*
X160528Y343916D02*
Y345440D01*
X167386Y321310D02*
Y324358D01*
X161290Y268478D02*
X164084Y265684D01*
X189484Y333248D02*
X194310Y328422D01*
X173990Y216154D02*
Y218830D01*
X192532Y220726D02*
X196342D01*
X194310Y321310D02*
Y328422D01*
X249682Y343408D02*
X257810Y335280D01*
X205994Y218694D02*
Y223774D01*
X221488Y227838D02*
X222758Y226568D01*
X251510Y219914D02*
X254762Y216662D01*
X233172Y225552D02*
Y231140D01*
X259334Y260096D02*
X262890D01*
X265938Y244348D02*
Y249682D01*
X169545Y362839D02*
X170434Y361950D01*
X156718Y271018D02*
X159258Y268478D01*
X151130Y337058D02*
X154940Y333248D01*
X158242Y315214D02*
X167386Y324358D01*
X169164Y340360D02*
X172720Y336804D01*
X164084Y265684D02*
X168148D01*
X167386Y326390D02*
X174752D01*
X164606Y236996D02*
Y239000D01*
X186182Y217678D02*
X192024D01*
X226822Y322580D02*
Y329438D01*
X221234Y322580D02*
X226822D01*
X237490Y323342D02*
X239014Y321818D01*
X288290Y192532D02*
Y201930D01*
X204978Y319024D02*
Y321818D01*
X259588Y294640D02*
X263906D01*
D22*
X838588Y1270D02*
G03*
X851288Y13970I0J12700D01*
G01*
Y105410D02*
G03*
X838588Y118110I-12700J0D01*
G01*
X838570Y431800D02*
G03*
X851270Y444500I0J12700D01*
G01*
Y538570D02*
G03*
X838570Y551270I-12700J0D01*
G01*
X13970D02*
G03*
X1270Y538570I0J-12700D01*
G01*
Y474980D02*
G03*
X13970Y462280I12700J0D01*
G01*
Y41800D02*
G03*
X1270Y29100I0J-12700D01*
G01*
Y13970D02*
G03*
X13970Y1270I12700J0D01*
G01*
Y363220D02*
G03*
X1270Y350520I0J-12700D01*
G01*
Y193294D02*
G03*
X12700Y181864I11430J0D01*
G01*
X767080Y118110D02*
X838588D01*
X13970Y363220D02*
X90330D01*
X13970Y462280D02*
X89830D01*
X12700Y181864D02*
X69392D01*
X13970Y41800D02*
X69456D01*
X851288Y13970D02*
Y105410D01*
X762000Y431800D02*
X838570D01*
X851270Y444500D02*
Y538570D01*
X13970Y551270D02*
X838570D01*
X1270Y474980D02*
Y538570D01*
Y13970D02*
Y29100D01*
Y193294D02*
Y350520D01*
X13970Y1270D02*
X838588D01*
D23*
X109610Y455700D02*
D03*
Y369300D02*
D03*
D24*
X104110Y385000D02*
D03*
Y390000D02*
D03*
X104110Y395000D02*
D03*
Y400000D02*
D03*
Y405000D02*
D03*
X104110Y410000D02*
D03*
Y415000D02*
D03*
X104110Y420000D02*
D03*
Y425000D02*
D03*
Y430000D02*
D03*
X104110Y435000D02*
D03*
Y440000D02*
D03*
D25*
X87490Y137200D02*
D03*
Y149900D02*
D03*
Y124500D02*
D03*
Y111800D02*
D03*
Y99100D02*
D03*
Y86400D02*
D03*
Y73700D02*
D03*
D26*
X129544Y424942D02*
D03*
X120904D02*
D03*
D27*
X717804Y135300D02*
D03*
Y414700D02*
D03*
Y186100D02*
D03*
Y160700D02*
D03*
Y236900D02*
D03*
Y211500D02*
D03*
Y389300D02*
D03*
Y363900D02*
D03*
Y338500D02*
D03*
Y313100D02*
D03*
Y287700D02*
D03*
Y262300D02*
D03*
D28*
X23970Y528570D02*
D03*
M02*
