G04*
G04 #@! TF.GenerationSoftware,Altium Limited,Altium Designer,26.2.0 (7)*
G04*
G04 Layer_Color=16711935*
%FSLAX44Y44*%
%MOMM*%
G71*
G04*
G04 #@! TF.SameCoordinates,5073EF85-569D-4715-B1C4-D54BA00D27BC*
G04*
G04*
G04 #@! TF.FilePolarity,Negative*
G04*
G01*
G75*
%ADD22C,1.7600*%
%ADD23R,1.9032X0.9032*%
%ADD24R,1.9032X0.5032*%
%ADD25R,2.7032X1.0032*%
G04:AMPARAMS|DCode=26|XSize=0.7432mm|YSize=0.8032mm|CornerRadius=0.1691mm|HoleSize=0mm|Usage=FLASHONLY|Rotation=0.000|XOffset=0mm|YOffset=0mm|HoleType=Round|Shape=RoundedRectangle|*
%AMROUNDEDRECTD26*
21,1,0.7432,0.4650,0,0,0.0*
21,1,0.4050,0.8032,0,0,0.0*
1,1,0.3382,0.2025,-0.2325*
1,1,0.3382,-0.2025,-0.2325*
1,1,0.3382,-0.2025,0.2325*
1,1,0.3382,0.2025,0.2325*
%
%ADD26ROUNDEDRECTD26*%
%ADD27C,1.2032*%
%ADD28C,4.0000*%
%ADD45R,1.8000X1.0000*%
G04:AMPARAMS|DCode=46|XSize=0.7432mm|YSize=0.8032mm|CornerRadius=0.1691mm|HoleSize=0mm|Usage=FLASHONLY|Rotation=270.000|XOffset=0mm|YOffset=0mm|HoleType=Round|Shape=RoundedRectangle|*
%AMROUNDEDRECTD46*
21,1,0.7432,0.4650,0,0,270.0*
21,1,0.4050,0.8032,0,0,270.0*
1,1,0.3382,-0.2325,-0.2025*
1,1,0.3382,-0.2325,0.2025*
1,1,0.3382,0.2325,0.2025*
1,1,0.3382,0.2325,-0.2025*
%
%ADD46ROUNDEDRECTD46*%
G04:AMPARAMS|DCode=47|XSize=0.7432mm|YSize=0.8032mm|CornerRadius=0.1691mm|HoleSize=0mm|Usage=FLASHONLY|Rotation=225.000|XOffset=0mm|YOffset=0mm|HoleType=Round|Shape=RoundedRectangle|*
%AMROUNDEDRECTD47*
21,1,0.7432,0.4650,0,0,225.0*
21,1,0.4050,0.8032,0,0,225.0*
1,1,0.3382,-0.3076,0.0212*
1,1,0.3382,-0.0212,0.3076*
1,1,0.3382,0.3076,-0.0212*
1,1,0.3382,0.0212,-0.3076*
%
%ADD47ROUNDEDRECTD47*%
%ADD48R,1.7032X1.2032*%
%ADD49R,1.2032X1.2032*%
%ADD50R,0.8032X0.7032*%
%ADD51R,0.5000X1.1000*%
%ADD52R,1.1000X0.5000*%
%ADD53R,0.8532X0.8032*%
%ADD54R,0.8032X0.8532*%
%ADD55R,3.4532X2.3532*%
G04:AMPARAMS|DCode=56|XSize=1.1532mm|YSize=1.0032mm|CornerRadius=0.3016mm|HoleSize=0mm|Usage=FLASHONLY|Rotation=0.000|XOffset=0mm|YOffset=0mm|HoleType=Round|Shape=RoundedRectangle|*
%AMROUNDEDRECTD56*
21,1,1.1532,0.4000,0,0,0.0*
21,1,0.5500,1.0032,0,0,0.0*
1,1,0.6032,0.2750,-0.2000*
1,1,0.6032,-0.2750,-0.2000*
1,1,0.6032,-0.2750,0.2000*
1,1,0.6032,0.2750,0.2000*
%
%ADD56ROUNDEDRECTD56*%
G04:AMPARAMS|DCode=57|XSize=1.1532mm|YSize=1.0032mm|CornerRadius=0.3016mm|HoleSize=0mm|Usage=FLASHONLY|Rotation=90.000|XOffset=0mm|YOffset=0mm|HoleType=Round|Shape=RoundedRectangle|*
%AMROUNDEDRECTD57*
21,1,1.1532,0.4000,0,0,90.0*
21,1,0.5500,1.0032,0,0,90.0*
1,1,0.6032,0.2000,0.2750*
1,1,0.6032,0.2000,-0.2750*
1,1,0.6032,-0.2000,-0.2750*
1,1,0.6032,-0.2000,0.2750*
%
%ADD57ROUNDEDRECTD57*%
%ADD58R,1.0032X1.1032*%
G36*
X753025Y146343D02*
X753739Y145629D01*
X754126Y144695D01*
Y144190D01*
Y138602D01*
X728980D01*
X728336Y138539D01*
X727145Y138046D01*
X726235Y137135D01*
X725741Y135944D01*
X725678Y135300D01*
X725741Y134656D01*
X726235Y133465D01*
X727145Y132554D01*
X728336Y132061D01*
X728980Y131998D01*
X754126D01*
Y126410D01*
Y125905D01*
X753739Y124971D01*
X753025Y124257D01*
X752091Y123870D01*
X751586D01*
Y123870D01*
X722630Y123870D01*
X721504D01*
X719296Y124309D01*
X717216Y125171D01*
X715344Y126422D01*
X713752Y128014D01*
X712501Y129886D01*
X711639Y131966D01*
X711200Y134174D01*
Y135300D01*
Y136426D01*
X711639Y138634D01*
X712501Y140714D01*
X713752Y142586D01*
X715344Y144178D01*
X717216Y145429D01*
X719296Y146291D01*
X721504Y146730D01*
X752091D01*
X753025Y146343D01*
D02*
G37*
G36*
Y171743D02*
X753739Y171029D01*
X754126Y170095D01*
Y169590D01*
Y164002D01*
X728980Y164002D01*
X728336Y163939D01*
X727145Y163445D01*
X726235Y162534D01*
X725741Y161344D01*
X725678Y160700D01*
X725741Y160056D01*
X726235Y158865D01*
X727145Y157954D01*
X728336Y157461D01*
X728980Y157398D01*
Y157398D01*
X754126Y157398D01*
Y151810D01*
Y151305D01*
X753739Y150371D01*
X753025Y149657D01*
X752091Y149270D01*
X751586D01*
Y149270D01*
X722630Y149270D01*
X721504D01*
X719296Y149709D01*
X717216Y150571D01*
X715344Y151822D01*
X713752Y153414D01*
X712501Y155286D01*
X711639Y157366D01*
X711200Y159574D01*
Y160700D01*
Y161826D01*
X711639Y164034D01*
X712501Y166114D01*
X713752Y167986D01*
X715344Y169578D01*
X717216Y170829D01*
X719296Y171691D01*
X721504Y172130D01*
X752091D01*
X753025Y171743D01*
D02*
G37*
G36*
Y197143D02*
X753739Y196429D01*
X754126Y195495D01*
Y194990D01*
Y194990D01*
Y189402D01*
X728980D01*
X728336Y189338D01*
X727145Y188846D01*
X726235Y187934D01*
X725741Y186744D01*
X725678Y186100D01*
X725741Y185456D01*
X726235Y184265D01*
X727145Y183354D01*
X728336Y182861D01*
X728980Y182798D01*
X754126D01*
Y177210D01*
Y176705D01*
X753739Y175771D01*
X753025Y175057D01*
X752091Y174670D01*
X721504D01*
X719296Y175109D01*
X717216Y175971D01*
X715344Y177222D01*
X713752Y178814D01*
X712501Y180686D01*
X711639Y182766D01*
X711200Y184974D01*
Y186100D01*
Y187226D01*
X711639Y189434D01*
X712501Y191514D01*
X713752Y193386D01*
X715344Y194978D01*
X717216Y196229D01*
X719296Y197091D01*
X721504Y197530D01*
X722630D01*
X751586Y197530D01*
X752091D01*
X753025Y197143D01*
D02*
G37*
G36*
X751586Y222930D02*
X752091D01*
X753025Y222543D01*
X753739Y221829D01*
X754126Y220895D01*
Y220390D01*
Y214802D01*
X728980D01*
X728336Y214739D01*
X727145Y214245D01*
X726235Y213335D01*
X725741Y212144D01*
X725678Y211500D01*
X725741Y210856D01*
X726235Y209666D01*
X727145Y208754D01*
X728336Y208261D01*
X728980Y208198D01*
X754126Y208198D01*
X754126Y202610D01*
Y202105D01*
X753739Y201171D01*
X753025Y200457D01*
X752091Y200070D01*
X751586D01*
Y200070D01*
X721504D01*
X719296Y200509D01*
X717216Y201371D01*
X715344Y202622D01*
X713752Y204214D01*
X712501Y206086D01*
X711639Y208166D01*
X711200Y210374D01*
Y211500D01*
Y212626D01*
X711639Y214834D01*
X712501Y216914D01*
X713752Y218786D01*
X715344Y220378D01*
X717216Y221629D01*
X719296Y222491D01*
X721504Y222930D01*
X722630D01*
X751586Y222930D01*
D02*
G37*
G36*
X753025Y247943D02*
X753739Y247229D01*
X754126Y246295D01*
Y245790D01*
X754126D01*
X754126Y240202D01*
X728980D01*
X728336Y240138D01*
X727145Y239646D01*
X726235Y238734D01*
X725741Y237544D01*
X725678Y236900D01*
X725741Y236256D01*
X726235Y235065D01*
X727145Y234154D01*
X728336Y233661D01*
X728980Y233598D01*
X754126D01*
Y228010D01*
Y227505D01*
X753739Y226571D01*
X753025Y225857D01*
X752091Y225470D01*
X751586D01*
Y225470D01*
X721504D01*
X719296Y225909D01*
X717216Y226771D01*
X715344Y228022D01*
X713752Y229614D01*
X712501Y231486D01*
X711639Y233566D01*
X711200Y235774D01*
Y236900D01*
Y238026D01*
X711639Y240234D01*
X712501Y242314D01*
X713752Y244186D01*
X715344Y245778D01*
X717216Y247029D01*
X719296Y247891D01*
X721504Y248330D01*
X752091D01*
X753025Y247943D01*
D02*
G37*
G36*
Y273343D02*
X753739Y272629D01*
X754126Y271695D01*
Y271190D01*
Y265602D01*
X728980Y265602D01*
X728336Y265539D01*
X727145Y265046D01*
X726235Y264135D01*
X725741Y262944D01*
X725678Y262300D01*
X725741Y261656D01*
X726235Y260466D01*
X727145Y259555D01*
X728336Y259061D01*
X728980Y258998D01*
Y258998D01*
X754126D01*
Y253410D01*
Y252905D01*
X753739Y251971D01*
X753025Y251257D01*
X752091Y250870D01*
X721504D01*
X719296Y251309D01*
X717216Y252171D01*
X715344Y253422D01*
X713752Y255014D01*
X712501Y256886D01*
X711639Y258966D01*
X711200Y261174D01*
Y262300D01*
Y263426D01*
X711639Y265634D01*
X712501Y267714D01*
X713752Y269586D01*
X715344Y271178D01*
X717216Y272429D01*
X719296Y273291D01*
X721504Y273730D01*
X752091D01*
X753025Y273343D01*
D02*
G37*
G36*
Y298743D02*
X753739Y298029D01*
X754126Y297095D01*
Y296590D01*
Y291002D01*
X728980D01*
X728336Y290938D01*
X727145Y290445D01*
X726235Y289534D01*
X725741Y288344D01*
X725678Y287700D01*
X725741Y287056D01*
X726235Y285865D01*
X727145Y284954D01*
X728336Y284461D01*
X728980Y284398D01*
Y284398D01*
X754126Y284398D01*
Y278810D01*
Y278305D01*
X753739Y277371D01*
X753025Y276657D01*
X752091Y276270D01*
X721504D01*
X719296Y276709D01*
X717216Y277571D01*
X715344Y278822D01*
X713752Y280414D01*
X712501Y282286D01*
X711639Y284366D01*
X711200Y286574D01*
Y287700D01*
Y288826D01*
X711639Y291034D01*
X712501Y293114D01*
X713752Y294986D01*
X715344Y296578D01*
X717216Y297829D01*
X719296Y298691D01*
X721504Y299130D01*
X752091D01*
X753025Y298743D01*
D02*
G37*
G36*
X753025Y324143D02*
X753739Y323429D01*
X754126Y322495D01*
Y321990D01*
X754126D01*
Y316402D01*
X728980D01*
X728336Y316339D01*
X727145Y315846D01*
X726235Y314935D01*
X725741Y313744D01*
X725678Y313100D01*
X725741Y312456D01*
X726235Y311266D01*
X727145Y310354D01*
X728336Y309861D01*
X728980Y309798D01*
X754126D01*
Y304210D01*
Y303705D01*
X753739Y302771D01*
X753025Y302057D01*
X752091Y301670D01*
X721504D01*
X719296Y302109D01*
X717216Y302971D01*
X715344Y304222D01*
X713752Y305814D01*
X712501Y307686D01*
X711639Y309766D01*
X711200Y311974D01*
Y313100D01*
Y314226D01*
X711639Y316434D01*
X712501Y318514D01*
X713752Y320386D01*
X715344Y321978D01*
X717216Y323229D01*
X719296Y324091D01*
X721504Y324530D01*
X752091D01*
X753025Y324143D01*
D02*
G37*
G36*
X753025Y349543D02*
X753739Y348829D01*
X754126Y347895D01*
Y347390D01*
Y341802D01*
X728980D01*
X728336Y341739D01*
X727145Y341245D01*
X726235Y340335D01*
X725741Y339144D01*
X725678Y338500D01*
X725741Y337856D01*
X726235Y336665D01*
X727145Y335754D01*
X728336Y335261D01*
X728980Y335198D01*
X754126D01*
Y329610D01*
Y329105D01*
X753739Y328171D01*
X753025Y327457D01*
X752091Y327070D01*
X751586D01*
Y327070D01*
X721504D01*
X719296Y327509D01*
X717216Y328371D01*
X715344Y329622D01*
X713752Y331214D01*
X712501Y333086D01*
X711639Y335166D01*
X711200Y337374D01*
Y338500D01*
Y339626D01*
X711639Y341834D01*
X712501Y343914D01*
X713752Y345786D01*
X715344Y347378D01*
X717216Y348629D01*
X719296Y349491D01*
X721504Y349930D01*
X752091D01*
X753025Y349543D01*
D02*
G37*
G36*
Y374943D02*
X753739Y374229D01*
X754126Y373295D01*
Y372790D01*
Y367202D01*
X728980D01*
X728336Y367138D01*
X727145Y366646D01*
X726235Y365734D01*
X725741Y364544D01*
X725678Y363900D01*
X725741Y363256D01*
X726235Y362066D01*
X727145Y361154D01*
X728336Y360661D01*
X728980Y360598D01*
X754126D01*
Y355010D01*
Y354505D01*
X753739Y353571D01*
X753025Y352857D01*
X752091Y352470D01*
X751586D01*
Y352470D01*
X722630Y352470D01*
X721504D01*
X719296Y352909D01*
X717216Y353771D01*
X715344Y355022D01*
X713752Y356614D01*
X712501Y358486D01*
X711639Y360566D01*
X711200Y362774D01*
Y363900D01*
Y365026D01*
X711639Y367234D01*
X712501Y369314D01*
X713752Y371186D01*
X715344Y372778D01*
X717216Y374029D01*
X719296Y374891D01*
X721504Y375330D01*
X752091D01*
X753025Y374943D01*
D02*
G37*
G36*
Y400343D02*
X753739Y399629D01*
X754126Y398695D01*
Y398190D01*
Y392602D01*
X728980Y392602D01*
X728336Y392538D01*
X727145Y392046D01*
X726235Y391134D01*
X725741Y389944D01*
X725678Y389300D01*
X725741Y388656D01*
X726235Y387465D01*
X727145Y386554D01*
X728336Y386061D01*
X728980Y385998D01*
Y385998D01*
X754126Y385998D01*
Y380410D01*
Y379905D01*
X753739Y378971D01*
X753025Y378257D01*
X752091Y377870D01*
X751586D01*
Y377870D01*
X722630Y377870D01*
X721504D01*
X719296Y378309D01*
X717216Y379171D01*
X715344Y380422D01*
X713752Y382014D01*
X712501Y383886D01*
X711639Y385966D01*
X711200Y388174D01*
Y389300D01*
Y390426D01*
X711639Y392634D01*
X712501Y394714D01*
X713752Y396586D01*
X715344Y398178D01*
X717216Y399429D01*
X719296Y400291D01*
X721504Y400730D01*
X752091D01*
X753025Y400343D01*
D02*
G37*
G36*
Y425743D02*
X753739Y425029D01*
X754126Y424095D01*
Y423590D01*
Y423590D01*
X754126Y418002D01*
X728980Y418002D01*
X728336Y417938D01*
X727145Y417445D01*
X726235Y416535D01*
X725741Y415344D01*
X725678Y414700D01*
X725741Y414056D01*
X726235Y412865D01*
X727145Y411954D01*
X728336Y411461D01*
X728980Y411398D01*
Y411398D01*
X754126Y411398D01*
Y405810D01*
Y405305D01*
X753739Y404371D01*
X753025Y403657D01*
X752091Y403270D01*
X721504D01*
X719296Y403709D01*
X717216Y404571D01*
X715344Y405822D01*
X713752Y407414D01*
X712501Y409286D01*
X711639Y411366D01*
X711200Y413574D01*
Y414700D01*
Y415826D01*
X711639Y418034D01*
X712501Y420114D01*
X713752Y421986D01*
X715344Y423578D01*
X717216Y424829D01*
X719296Y425691D01*
X721504Y426130D01*
X722630D01*
X751586Y426130D01*
X752091D01*
X753025Y425743D01*
D02*
G37*
D22*
X13970Y363220D02*
G03*
X1270Y350520I0J-12700D01*
G01*
Y13970D02*
G03*
X13970Y1270I12700J0D01*
G01*
X1270Y474980D02*
G03*
X13970Y462280I12700J0D01*
G01*
X1270Y193294D02*
G03*
X12700Y181864I11430J0D01*
G01*
X13970Y41800D02*
G03*
X1270Y29100I0J-12700D01*
G01*
X13970Y551270D02*
G03*
X1270Y538570I0J-12700D01*
G01*
X851270D02*
G03*
X838570Y551270I-12700J0D01*
G01*
X838588Y1270D02*
G03*
X851288Y13970I0J12700D01*
G01*
X838570Y431800D02*
G03*
X851270Y444500I0J12700D01*
G01*
X851288Y105410D02*
G03*
X838588Y118110I-12700J0D01*
G01*
X12700Y181864D02*
X69392D01*
X767080Y118110D02*
X838588D01*
X1270Y474980D02*
Y538570D01*
Y193294D02*
Y350520D01*
Y13970D02*
Y29100D01*
X13970Y551270D02*
X838570D01*
X13970Y363220D02*
X90330D01*
X13970Y462280D02*
X89830D01*
X13970Y41800D02*
X69456D01*
X13970Y1270D02*
X838588D01*
X762000Y431800D02*
X838570D01*
X851288Y13970D02*
Y105410D01*
X851270Y444500D02*
Y538570D01*
D23*
X109610Y455700D02*
D03*
Y369300D02*
D03*
D24*
X104110Y440000D02*
D03*
Y435000D02*
D03*
X104110Y430000D02*
D03*
Y425000D02*
D03*
Y420000D02*
D03*
X104110Y415000D02*
D03*
Y410000D02*
D03*
X104110Y405000D02*
D03*
Y400000D02*
D03*
Y395000D02*
D03*
X104110Y390000D02*
D03*
Y385000D02*
D03*
D25*
X87490Y137200D02*
D03*
Y124500D02*
D03*
Y111800D02*
D03*
Y99100D02*
D03*
Y86400D02*
D03*
Y73700D02*
D03*
Y149900D02*
D03*
D26*
X272290Y208026D02*
D03*
X263650D02*
D03*
X259844Y320548D02*
D03*
X251204D02*
D03*
X66410Y346964D02*
D03*
X311882Y351282D02*
D03*
X168404Y239776D02*
D03*
X168144Y212852D02*
D03*
X76123Y219925D02*
D03*
X86358Y200025D02*
D03*
Y210185D02*
D03*
Y220091D02*
D03*
X76123Y210019D02*
D03*
X76123Y199859D02*
D03*
X176784Y212852D02*
D03*
X57770Y346964D02*
D03*
X94998Y200025D02*
D03*
X67483Y219925D02*
D03*
X67483Y199859D02*
D03*
X284984Y342138D02*
D03*
X293624D02*
D03*
X94998Y220091D02*
D03*
X198376Y334772D02*
D03*
X189736D02*
D03*
X297436Y296418D02*
D03*
X288796D02*
D03*
X282954Y261112D02*
D03*
X291594D02*
D03*
X232916Y216662D02*
D03*
X241556D02*
D03*
X159764Y239776D02*
D03*
X67483Y210019D02*
D03*
X303242Y351282D02*
D03*
X94998Y210185D02*
D03*
D27*
X717804Y135300D02*
D03*
Y414700D02*
D03*
Y186100D02*
D03*
Y160700D02*
D03*
Y236900D02*
D03*
Y211500D02*
D03*
Y389300D02*
D03*
Y363900D02*
D03*
Y338500D02*
D03*
Y313100D02*
D03*
Y287700D02*
D03*
Y262300D02*
D03*
D28*
X23970Y528570D02*
D03*
D45*
X295148Y250752D02*
D03*
Y225752D02*
D03*
D46*
X290322Y206500D02*
D03*
Y215140D02*
D03*
X179832Y330710D02*
D03*
Y322070D02*
D03*
X214630Y357126D02*
D03*
Y348486D02*
D03*
X273050Y296928D02*
D03*
Y288288D02*
D03*
X213868Y197106D02*
D03*
Y188466D02*
D03*
X281432Y198880D02*
D03*
Y207520D02*
D03*
X255778Y338582D02*
D03*
Y329942D02*
D03*
X86360Y187200D02*
D03*
Y178560D02*
D03*
X28218Y230634D02*
D03*
X38886Y230634D02*
D03*
X17042D02*
D03*
X264160Y240032D02*
D03*
X250952Y227840D02*
D03*
X280670Y233936D02*
D03*
Y225296D02*
D03*
X269748Y423670D02*
D03*
Y432310D02*
D03*
X319786Y423670D02*
D03*
Y432310D02*
D03*
X195326Y348488D02*
D03*
Y357128D02*
D03*
X239776Y423670D02*
D03*
Y432310D02*
D03*
X349758Y423670D02*
D03*
Y432310D02*
D03*
X204724Y348486D02*
D03*
Y357126D02*
D03*
X209804Y423790D02*
D03*
Y432430D02*
D03*
X379730Y423670D02*
D03*
Y432310D02*
D03*
X179832Y423790D02*
D03*
Y432430D02*
D03*
X409702Y423924D02*
D03*
Y432564D02*
D03*
X364744Y484500D02*
D03*
Y493140D02*
D03*
X164846Y484500D02*
D03*
Y493140D02*
D03*
X264414Y484500D02*
D03*
Y493140D02*
D03*
X17042Y221994D02*
D03*
X264160Y231392D02*
D03*
X250952Y219200D02*
D03*
X280670Y251208D02*
D03*
Y242568D02*
D03*
X119126Y380744D02*
D03*
Y389384D02*
D03*
X38886Y221994D02*
D03*
X28218Y221994D02*
D03*
D47*
X217177Y170187D02*
D03*
X211067Y164077D02*
D03*
X278377Y309365D02*
D03*
X284487Y315475D02*
D03*
X202699Y186951D02*
D03*
X196589Y180841D02*
D03*
X250685Y349237D02*
D03*
X256794Y355346D02*
D03*
D48*
X24384Y254426D02*
D03*
Y293796D02*
D03*
D49*
X57770Y238900D02*
D03*
X80770Y238900D02*
D03*
X103770Y238900D02*
D03*
D50*
X119126Y346216D02*
D03*
Y316216D02*
D03*
X128626Y316216D02*
D03*
X109626D02*
D03*
X128626Y346216D02*
D03*
X109626D02*
D03*
D51*
X203013Y228000D02*
D03*
X243013Y322000D02*
D03*
X218013Y228000D02*
D03*
X208013Y228000D02*
D03*
X238013Y322000D02*
D03*
X213013Y228000D02*
D03*
X243013D02*
D03*
X188013Y322000D02*
D03*
X198013Y228000D02*
D03*
X193013D02*
D03*
X188013D02*
D03*
X223013D02*
D03*
X228013D02*
D03*
X233013D02*
D03*
X208013Y322000D02*
D03*
X203013D02*
D03*
X198013D02*
D03*
X213013Y322000D02*
D03*
X218013D02*
D03*
X223013Y322000D02*
D03*
X228013D02*
D03*
X233013D02*
D03*
X238013Y228000D02*
D03*
X193013Y322000D02*
D03*
D52*
X262513Y292500D02*
D03*
X262513Y302499D02*
D03*
X262513Y287499D02*
D03*
Y247499D02*
D03*
X168513D02*
D03*
Y257499D02*
D03*
X168513Y272499D02*
D03*
Y277499D02*
D03*
X168513Y282499D02*
D03*
Y287499D02*
D03*
Y292499D02*
D03*
Y297499D02*
D03*
X168513Y302499D02*
D03*
X262513Y252499D02*
D03*
Y257499D02*
D03*
Y262499D02*
D03*
Y267499D02*
D03*
Y297499D02*
D03*
X262513Y272499D02*
D03*
Y277499D02*
D03*
X168513Y262499D02*
D03*
X262513Y282499D02*
D03*
X168513Y252499D02*
D03*
Y267499D02*
D03*
D53*
X326250Y484500D02*
D03*
Y515500D02*
D03*
X226250Y484500D02*
D03*
Y515500D02*
D03*
X126250Y484500D02*
D03*
Y515500D02*
D03*
X303242Y342398D02*
D03*
Y311398D02*
D03*
X330742Y342398D02*
D03*
Y311398D02*
D03*
X353750Y484500D02*
D03*
Y515500D02*
D03*
X153750Y484500D02*
D03*
Y515500D02*
D03*
X253750Y484500D02*
D03*
Y515500D02*
D03*
D54*
X254006Y180560D02*
D03*
X223006D02*
D03*
X254006Y208060D02*
D03*
X223006D02*
D03*
D55*
X80770Y316000D02*
D03*
D56*
X280000Y432430D02*
D03*
Y415430D02*
D03*
X330000Y432430D02*
D03*
Y415430D02*
D03*
X209804Y369566D02*
D03*
Y386566D02*
D03*
X250000Y432430D02*
D03*
Y415430D02*
D03*
X360000Y432430D02*
D03*
Y415430D02*
D03*
X222504Y369452D02*
D03*
Y386452D02*
D03*
X220000Y432430D02*
D03*
Y415430D02*
D03*
X390000Y432430D02*
D03*
Y415430D02*
D03*
X235458Y369452D02*
D03*
Y386452D02*
D03*
X190000Y432430D02*
D03*
Y415430D02*
D03*
X420000Y432430D02*
D03*
Y415430D02*
D03*
D57*
X300872Y206500D02*
D03*
X317872D02*
D03*
X47616Y346964D02*
D03*
X30616D02*
D03*
X176902Y223774D02*
D03*
X159902D02*
D03*
D58*
X297330Y271638D02*
D03*
Y285638D02*
D03*
X286330Y271638D02*
D03*
Y285638D02*
D03*
M02*
