G04*
G04 #@! TF.GenerationSoftware,Altium Limited,Altium Designer,26.2.0 (7)*
G04*
G04 Layer_Color=2752767*
%FSLAX44Y44*%
%MOMM*%
G71*
G04*
G04 #@! TF.SameCoordinates,5073EF85-569D-4715-B1C4-D54BA00D27BC*
G04*
G04*
G04 #@! TF.FilePolarity,Positive*
G04*
G01*
G75*
%ADD61C,0.1270*%
%ADD63C,0.1693*%
D61*
X712724Y130220D02*
Y140380D01*
X722884D01*
Y130220D01*
X712724D01*
Y409620D02*
Y419780D01*
X722884D01*
Y409620D01*
X712724D01*
Y181020D02*
Y191180D01*
X722884D01*
Y181020D01*
X712724D01*
Y155620D02*
Y165780D01*
X722884D01*
Y155620D01*
X712724D01*
Y231820D02*
Y241980D01*
X722884D01*
Y231820D01*
X712724D01*
Y206420D02*
Y216580D01*
X722884D01*
Y206420D01*
X712724D01*
Y384220D02*
Y394380D01*
X722884D01*
Y384220D01*
X712724D01*
Y358820D02*
Y368980D01*
X722884D01*
Y358820D01*
X712724D01*
Y333420D02*
Y343580D01*
X722884D01*
Y333420D01*
X712724D01*
Y308020D02*
Y318180D01*
X722884D01*
Y308020D01*
X712724D01*
Y282620D02*
Y292780D01*
X722884D01*
Y282620D01*
X712724D01*
Y257220D02*
Y267380D01*
X722884D01*
Y257220D01*
X712724D01*
X23970Y523490D02*
X18890Y533650D01*
X29050D01*
X23970Y523490D01*
D63*
X830040Y535320D02*
G03*
X830040Y535320I-5080J0D01*
G01*
X817540Y510320D02*
G03*
X817540Y510320I-5080J0D01*
G01*
X830040Y485320D02*
G03*
X830040Y485320I-5080J0D01*
G01*
X817540Y460320D02*
G03*
X817540Y460320I-5080J0D01*
G01*
Y110320D02*
G03*
X817540Y110320I-5080J0D01*
G01*
X830040Y85320D02*
G03*
X830040Y85320I-5080J0D01*
G01*
X817540Y60320D02*
G03*
X817540Y60320I-5080J0D01*
G01*
X830040Y35320D02*
G03*
X830040Y35320I-5080J0D01*
G01*
X817540Y10320D02*
G03*
X817540Y10320I-5080J0D01*
G01*
X805040Y535320D02*
G03*
X805040Y535320I-5080J0D01*
G01*
X792540Y510320D02*
G03*
X792540Y510320I-5080J0D01*
G01*
X805040Y485320D02*
G03*
X805040Y485320I-5080J0D01*
G01*
X792540Y460320D02*
G03*
X792540Y460320I-5080J0D01*
G01*
Y110320D02*
G03*
X792540Y110320I-5080J0D01*
G01*
X805040Y85320D02*
G03*
X805040Y85320I-5080J0D01*
G01*
X792540Y60320D02*
G03*
X792540Y60320I-5080J0D01*
G01*
X805040Y35320D02*
G03*
X805040Y35320I-5080J0D01*
G01*
X792540Y10320D02*
G03*
X792540Y10320I-5080J0D01*
G01*
X780040Y535320D02*
G03*
X780040Y535320I-5080J0D01*
G01*
X767540Y510320D02*
G03*
X767540Y510320I-5080J0D01*
G01*
X780040Y485320D02*
G03*
X780040Y485320I-5080J0D01*
G01*
X767540Y460320D02*
G03*
X767540Y460320I-5080J0D01*
G01*
Y110320D02*
G03*
X767540Y110320I-5080J0D01*
G01*
X780040Y85320D02*
G03*
X780040Y85320I-5080J0D01*
G01*
X767540Y60320D02*
G03*
X767540Y60320I-5080J0D01*
G01*
X780040Y35320D02*
G03*
X780040Y35320I-5080J0D01*
G01*
X767540Y10320D02*
G03*
X767540Y10320I-5080J0D01*
G01*
X755040Y535320D02*
G03*
X755040Y535320I-5080J0D01*
G01*
X742540Y510320D02*
G03*
X742540Y510320I-5080J0D01*
G01*
X755040Y485320D02*
G03*
X755040Y485320I-5080J0D01*
G01*
X742540Y460320D02*
G03*
X742540Y460320I-5080J0D01*
G01*
X755040Y435320D02*
G03*
X755040Y435320I-5080J0D01*
G01*
X742540Y110320D02*
G03*
X742540Y110320I-5080J0D01*
G01*
X755040Y85320D02*
G03*
X755040Y85320I-5080J0D01*
G01*
X742540Y60320D02*
G03*
X742540Y60320I-5080J0D01*
G01*
X755040Y35320D02*
G03*
X755040Y35320I-5080J0D01*
G01*
X742540Y10320D02*
G03*
X742540Y10320I-5080J0D01*
G01*
X730040Y535320D02*
G03*
X730040Y535320I-5080J0D01*
G01*
X717540Y510320D02*
G03*
X717540Y510320I-5080J0D01*
G01*
X730040Y485320D02*
G03*
X730040Y485320I-5080J0D01*
G01*
X717540Y460320D02*
G03*
X717540Y460320I-5080J0D01*
G01*
X730040Y435320D02*
G03*
X730040Y435320I-5080J0D01*
G01*
X717540Y110320D02*
G03*
X717540Y110320I-5080J0D01*
G01*
X730040Y85320D02*
G03*
X730040Y85320I-5080J0D01*
G01*
X717540Y60320D02*
G03*
X717540Y60320I-5080J0D01*
G01*
X730040Y35320D02*
G03*
X730040Y35320I-5080J0D01*
G01*
X717540Y10320D02*
G03*
X717540Y10320I-5080J0D01*
G01*
X705040Y535320D02*
G03*
X705040Y535320I-5080J0D01*
G01*
X692540Y510320D02*
G03*
X692540Y510320I-5080J0D01*
G01*
X705040Y485320D02*
G03*
X705040Y485320I-5080J0D01*
G01*
X692540Y460320D02*
G03*
X692540Y460320I-5080J0D01*
G01*
X705040Y435320D02*
G03*
X705040Y435320I-5080J0D01*
G01*
X692540Y310320D02*
G03*
X692540Y310320I-5080J0D01*
G01*
X705040Y185320D02*
G03*
X705040Y185320I-5080J0D01*
G01*
Y85320D02*
G03*
X705040Y85320I-5080J0D01*
G01*
X692540Y60320D02*
G03*
X692540Y60320I-5080J0D01*
G01*
X705040Y35320D02*
G03*
X705040Y35320I-5080J0D01*
G01*
X692540Y10320D02*
G03*
X692540Y10320I-5080J0D01*
G01*
X680040Y535320D02*
G03*
X680040Y535320I-5080J0D01*
G01*
X667540Y510320D02*
G03*
X667540Y510320I-5080J0D01*
G01*
X680040Y485320D02*
G03*
X680040Y485320I-5080J0D01*
G01*
X667540Y460320D02*
G03*
X667540Y460320I-5080J0D01*
G01*
X680040Y435320D02*
G03*
X680040Y435320I-5080J0D01*
G01*
X667540Y410320D02*
G03*
X667540Y410320I-5080J0D01*
G01*
X680040Y335320D02*
G03*
X680040Y335320I-5080J0D01*
G01*
X667540Y310320D02*
G03*
X667540Y310320I-5080J0D01*
G01*
X680040Y285320D02*
G03*
X680040Y285320I-5080J0D01*
G01*
Y185320D02*
G03*
X680040Y185320I-5080J0D01*
G01*
X667540Y160320D02*
G03*
X667540Y160320I-5080J0D01*
G01*
Y60320D02*
G03*
X667540Y60320I-5080J0D01*
G01*
X680040Y35320D02*
G03*
X680040Y35320I-5080J0D01*
G01*
X667540Y10320D02*
G03*
X667540Y10320I-5080J0D01*
G01*
X655040Y535320D02*
G03*
X655040Y535320I-5080J0D01*
G01*
X642540Y510320D02*
G03*
X642540Y510320I-5080J0D01*
G01*
X655040Y485320D02*
G03*
X655040Y485320I-5080J0D01*
G01*
X642540Y460320D02*
G03*
X642540Y460320I-5080J0D01*
G01*
X655040Y435320D02*
G03*
X655040Y435320I-5080J0D01*
G01*
X642540Y410320D02*
G03*
X642540Y410320I-5080J0D01*
G01*
X655040Y335320D02*
G03*
X655040Y335320I-5080J0D01*
G01*
X642540Y310320D02*
G03*
X642540Y310320I-5080J0D01*
G01*
X655040Y285320D02*
G03*
X655040Y285320I-5080J0D01*
G01*
X642540Y260320D02*
G03*
X642540Y260320I-5080J0D01*
G01*
X655040Y235320D02*
G03*
X655040Y235320I-5080J0D01*
G01*
Y135320D02*
G03*
X655040Y135320I-5080J0D01*
G01*
X642540Y60320D02*
G03*
X642540Y60320I-5080J0D01*
G01*
X655040Y35320D02*
G03*
X655040Y35320I-5080J0D01*
G01*
X642540Y10320D02*
G03*
X642540Y10320I-5080J0D01*
G01*
X630040Y535320D02*
G03*
X630040Y535320I-5080J0D01*
G01*
X617540Y510320D02*
G03*
X617540Y510320I-5080J0D01*
G01*
X630040Y485320D02*
G03*
X630040Y485320I-5080J0D01*
G01*
X617540Y460320D02*
G03*
X617540Y460320I-5080J0D01*
G01*
X630040Y435320D02*
G03*
X630040Y435320I-5080J0D01*
G01*
X617540Y410320D02*
G03*
X617540Y410320I-5080J0D01*
G01*
X630040Y335320D02*
G03*
X630040Y335320I-5080J0D01*
G01*
X617540Y310320D02*
G03*
X617540Y310320I-5080J0D01*
G01*
X630040Y285320D02*
G03*
X630040Y285320I-5080J0D01*
G01*
X617540Y260320D02*
G03*
X617540Y260320I-5080J0D01*
G01*
X630040Y235320D02*
G03*
X630040Y235320I-5080J0D01*
G01*
X617540Y160320D02*
G03*
X617540Y160320I-5080J0D01*
G01*
X630040Y135320D02*
G03*
X630040Y135320I-5080J0D01*
G01*
X617540Y60320D02*
G03*
X617540Y60320I-5080J0D01*
G01*
X630040Y35320D02*
G03*
X630040Y35320I-5080J0D01*
G01*
X617540Y10320D02*
G03*
X617540Y10320I-5080J0D01*
G01*
X605040Y535320D02*
G03*
X605040Y535320I-5080J0D01*
G01*
X592540Y510320D02*
G03*
X592540Y510320I-5080J0D01*
G01*
X605040Y485320D02*
G03*
X605040Y485320I-5080J0D01*
G01*
X592540Y460320D02*
G03*
X592540Y460320I-5080J0D01*
G01*
X605040Y435320D02*
G03*
X605040Y435320I-5080J0D01*
G01*
X592540Y410320D02*
G03*
X592540Y410320I-5080J0D01*
G01*
X605040Y335320D02*
G03*
X605040Y335320I-5080J0D01*
G01*
X592540Y310320D02*
G03*
X592540Y310320I-5080J0D01*
G01*
X605040Y285320D02*
G03*
X605040Y285320I-5080J0D01*
G01*
X592540Y260320D02*
G03*
X592540Y260320I-5080J0D01*
G01*
X605040Y235320D02*
G03*
X605040Y235320I-5080J0D01*
G01*
X592540Y210320D02*
G03*
X592540Y210320I-5080J0D01*
G01*
Y160320D02*
G03*
X592540Y160320I-5080J0D01*
G01*
X605040Y135320D02*
G03*
X605040Y135320I-5080J0D01*
G01*
X592540Y60320D02*
G03*
X592540Y60320I-5080J0D01*
G01*
X605040Y35320D02*
G03*
X605040Y35320I-5080J0D01*
G01*
X592540Y10320D02*
G03*
X592540Y10320I-5080J0D01*
G01*
X580040Y535320D02*
G03*
X580040Y535320I-5080J0D01*
G01*
X567540Y510320D02*
G03*
X567540Y510320I-5080J0D01*
G01*
X580040Y485320D02*
G03*
X580040Y485320I-5080J0D01*
G01*
X567540Y460320D02*
G03*
X567540Y460320I-5080J0D01*
G01*
X580040Y435320D02*
G03*
X580040Y435320I-5080J0D01*
G01*
X567540Y410320D02*
G03*
X567540Y410320I-5080J0D01*
G01*
X580040Y335320D02*
G03*
X580040Y335320I-5080J0D01*
G01*
X567540Y310320D02*
G03*
X567540Y310320I-5080J0D01*
G01*
X580040Y285320D02*
G03*
X580040Y285320I-5080J0D01*
G01*
X567540Y260320D02*
G03*
X567540Y260320I-5080J0D01*
G01*
X580040Y235320D02*
G03*
X580040Y235320I-5080J0D01*
G01*
X567540Y210320D02*
G03*
X567540Y210320I-5080J0D01*
G01*
Y160320D02*
G03*
X567540Y160320I-5080J0D01*
G01*
X580040Y135320D02*
G03*
X580040Y135320I-5080J0D01*
G01*
X567540Y60320D02*
G03*
X567540Y60320I-5080J0D01*
G01*
X580040Y35320D02*
G03*
X580040Y35320I-5080J0D01*
G01*
X567540Y10320D02*
G03*
X567540Y10320I-5080J0D01*
G01*
X555040Y535320D02*
G03*
X555040Y535320I-5080J0D01*
G01*
X542540Y510320D02*
G03*
X542540Y510320I-5080J0D01*
G01*
X555040Y485320D02*
G03*
X555040Y485320I-5080J0D01*
G01*
X542540Y460320D02*
G03*
X542540Y460320I-5080J0D01*
G01*
X555040Y435320D02*
G03*
X555040Y435320I-5080J0D01*
G01*
X542540Y410320D02*
G03*
X542540Y410320I-5080J0D01*
G01*
X555040Y335320D02*
G03*
X555040Y335320I-5080J0D01*
G01*
X542540Y310320D02*
G03*
X542540Y310320I-5080J0D01*
G01*
X555040Y285320D02*
G03*
X555040Y285320I-5080J0D01*
G01*
X542540Y260320D02*
G03*
X542540Y260320I-5080J0D01*
G01*
X555040Y235320D02*
G03*
X555040Y235320I-5080J0D01*
G01*
X542540Y210320D02*
G03*
X542540Y210320I-5080J0D01*
G01*
Y160320D02*
G03*
X542540Y160320I-5080J0D01*
G01*
X555040Y135320D02*
G03*
X555040Y135320I-5080J0D01*
G01*
X542540Y60320D02*
G03*
X542540Y60320I-5080J0D01*
G01*
X555040Y35320D02*
G03*
X555040Y35320I-5080J0D01*
G01*
X542540Y10320D02*
G03*
X542540Y10320I-5080J0D01*
G01*
X530040Y535320D02*
G03*
X530040Y535320I-5080J0D01*
G01*
X517540Y510320D02*
G03*
X517540Y510320I-5080J0D01*
G01*
X530040Y485320D02*
G03*
X530040Y485320I-5080J0D01*
G01*
X517540Y460320D02*
G03*
X517540Y460320I-5080J0D01*
G01*
X530040Y435320D02*
G03*
X530040Y435320I-5080J0D01*
G01*
X517540Y410320D02*
G03*
X517540Y410320I-5080J0D01*
G01*
X530040Y335320D02*
G03*
X530040Y335320I-5080J0D01*
G01*
X517540Y310320D02*
G03*
X517540Y310320I-5080J0D01*
G01*
X530040Y285320D02*
G03*
X530040Y285320I-5080J0D01*
G01*
X517540Y260320D02*
G03*
X517540Y260320I-5080J0D01*
G01*
X530040Y235320D02*
G03*
X530040Y235320I-5080J0D01*
G01*
X517540Y210320D02*
G03*
X517540Y210320I-5080J0D01*
G01*
Y160320D02*
G03*
X517540Y160320I-5080J0D01*
G01*
X530040Y135320D02*
G03*
X530040Y135320I-5080J0D01*
G01*
X517540Y60320D02*
G03*
X517540Y60320I-5080J0D01*
G01*
X530040Y35320D02*
G03*
X530040Y35320I-5080J0D01*
G01*
X517540Y10320D02*
G03*
X517540Y10320I-5080J0D01*
G01*
X505040Y535320D02*
G03*
X505040Y535320I-5080J0D01*
G01*
X492540Y510320D02*
G03*
X492540Y510320I-5080J0D01*
G01*
X505040Y485320D02*
G03*
X505040Y485320I-5080J0D01*
G01*
X492540Y460320D02*
G03*
X492540Y460320I-5080J0D01*
G01*
X505040Y435320D02*
G03*
X505040Y435320I-5080J0D01*
G01*
X492540Y410320D02*
G03*
X492540Y410320I-5080J0D01*
G01*
X505040Y335320D02*
G03*
X505040Y335320I-5080J0D01*
G01*
X492540Y310320D02*
G03*
X492540Y310320I-5080J0D01*
G01*
X505040Y285320D02*
G03*
X505040Y285320I-5080J0D01*
G01*
X492540Y260320D02*
G03*
X492540Y260320I-5080J0D01*
G01*
X505040Y235320D02*
G03*
X505040Y235320I-5080J0D01*
G01*
X492540Y210320D02*
G03*
X492540Y210320I-5080J0D01*
G01*
Y160320D02*
G03*
X492540Y160320I-5080J0D01*
G01*
X505040Y135320D02*
G03*
X505040Y135320I-5080J0D01*
G01*
X492540Y60320D02*
G03*
X492540Y60320I-5080J0D01*
G01*
X505040Y35320D02*
G03*
X505040Y35320I-5080J0D01*
G01*
X492540Y10320D02*
G03*
X492540Y10320I-5080J0D01*
G01*
X480040Y535320D02*
G03*
X480040Y535320I-5080J0D01*
G01*
X467540Y510320D02*
G03*
X467540Y510320I-5080J0D01*
G01*
X480040Y485320D02*
G03*
X480040Y485320I-5080J0D01*
G01*
X467540Y460320D02*
G03*
X467540Y460320I-5080J0D01*
G01*
X480040Y435320D02*
G03*
X480040Y435320I-5080J0D01*
G01*
X467540Y410320D02*
G03*
X467540Y410320I-5080J0D01*
G01*
X480040Y335320D02*
G03*
X480040Y335320I-5080J0D01*
G01*
X467540Y310320D02*
G03*
X467540Y310320I-5080J0D01*
G01*
X480040Y285320D02*
G03*
X480040Y285320I-5080J0D01*
G01*
X467540Y260320D02*
G03*
X467540Y260320I-5080J0D01*
G01*
X480040Y235320D02*
G03*
X480040Y235320I-5080J0D01*
G01*
X467540Y210320D02*
G03*
X467540Y210320I-5080J0D01*
G01*
Y160320D02*
G03*
X467540Y160320I-5080J0D01*
G01*
X480040Y135320D02*
G03*
X480040Y135320I-5080J0D01*
G01*
X467540Y60320D02*
G03*
X467540Y60320I-5080J0D01*
G01*
X480040Y35320D02*
G03*
X480040Y35320I-5080J0D01*
G01*
X467540Y10320D02*
G03*
X467540Y10320I-5080J0D01*
G01*
X455040Y535320D02*
G03*
X455040Y535320I-5080J0D01*
G01*
X442540Y510320D02*
G03*
X442540Y510320I-5080J0D01*
G01*
X455040Y485320D02*
G03*
X455040Y485320I-5080J0D01*
G01*
X442540Y460320D02*
G03*
X442540Y460320I-5080J0D01*
G01*
X455040Y435320D02*
G03*
X455040Y435320I-5080J0D01*
G01*
X442540Y410320D02*
G03*
X442540Y410320I-5080J0D01*
G01*
X455040Y335320D02*
G03*
X455040Y335320I-5080J0D01*
G01*
X442540Y310320D02*
G03*
X442540Y310320I-5080J0D01*
G01*
X455040Y285320D02*
G03*
X455040Y285320I-5080J0D01*
G01*
X442540Y260320D02*
G03*
X442540Y260320I-5080J0D01*
G01*
X455040Y235320D02*
G03*
X455040Y235320I-5080J0D01*
G01*
X442540Y210320D02*
G03*
X442540Y210320I-5080J0D01*
G01*
Y160320D02*
G03*
X442540Y160320I-5080J0D01*
G01*
X455040Y135320D02*
G03*
X455040Y135320I-5080J0D01*
G01*
X442540Y60320D02*
G03*
X442540Y60320I-5080J0D01*
G01*
X455040Y35320D02*
G03*
X455040Y35320I-5080J0D01*
G01*
X442540Y10320D02*
G03*
X442540Y10320I-5080J0D01*
G01*
X430040Y535320D02*
G03*
X430040Y535320I-5080J0D01*
G01*
X417540Y510320D02*
G03*
X417540Y510320I-5080J0D01*
G01*
X430040Y485320D02*
G03*
X430040Y485320I-5080J0D01*
G01*
X417540Y460320D02*
G03*
X417540Y460320I-5080J0D01*
G01*
X430040Y335320D02*
G03*
X430040Y335320I-5080J0D01*
G01*
X417540Y310320D02*
G03*
X417540Y310320I-5080J0D01*
G01*
X430040Y285320D02*
G03*
X430040Y285320I-5080J0D01*
G01*
X417540Y260320D02*
G03*
X417540Y260320I-5080J0D01*
G01*
X430040Y235320D02*
G03*
X430040Y235320I-5080J0D01*
G01*
X417540Y210320D02*
G03*
X417540Y210320I-5080J0D01*
G01*
Y160320D02*
G03*
X417540Y160320I-5080J0D01*
G01*
X430040Y135320D02*
G03*
X430040Y135320I-5080J0D01*
G01*
X417540Y60320D02*
G03*
X417540Y60320I-5080J0D01*
G01*
X430040Y35320D02*
G03*
X430040Y35320I-5080J0D01*
G01*
X417540Y10320D02*
G03*
X417540Y10320I-5080J0D01*
G01*
X405040Y535320D02*
G03*
X405040Y535320I-5080J0D01*
G01*
X392540Y510320D02*
G03*
X392540Y510320I-5080J0D01*
G01*
X405040Y485320D02*
G03*
X405040Y485320I-5080J0D01*
G01*
X392540Y460320D02*
G03*
X392540Y460320I-5080J0D01*
G01*
X405040Y335320D02*
G03*
X405040Y335320I-5080J0D01*
G01*
X392540Y310320D02*
G03*
X392540Y310320I-5080J0D01*
G01*
X405040Y285320D02*
G03*
X405040Y285320I-5080J0D01*
G01*
X392540Y260320D02*
G03*
X392540Y260320I-5080J0D01*
G01*
X405040Y235320D02*
G03*
X405040Y235320I-5080J0D01*
G01*
X392540Y210320D02*
G03*
X392540Y210320I-5080J0D01*
G01*
Y160320D02*
G03*
X392540Y160320I-5080J0D01*
G01*
X405040Y135320D02*
G03*
X405040Y135320I-5080J0D01*
G01*
X392540Y60320D02*
G03*
X392540Y60320I-5080J0D01*
G01*
X405040Y35320D02*
G03*
X405040Y35320I-5080J0D01*
G01*
X392540Y10320D02*
G03*
X392540Y10320I-5080J0D01*
G01*
X380040Y535320D02*
G03*
X380040Y535320I-5080J0D01*
G01*
X367540Y510320D02*
G03*
X367540Y510320I-5080J0D01*
G01*
X380040Y485320D02*
G03*
X380040Y485320I-5080J0D01*
G01*
X367540Y460320D02*
G03*
X367540Y460320I-5080J0D01*
G01*
X380040Y335320D02*
G03*
X380040Y335320I-5080J0D01*
G01*
X367540Y310320D02*
G03*
X367540Y310320I-5080J0D01*
G01*
X380040Y285320D02*
G03*
X380040Y285320I-5080J0D01*
G01*
X367540Y260320D02*
G03*
X367540Y260320I-5080J0D01*
G01*
X380040Y235320D02*
G03*
X380040Y235320I-5080J0D01*
G01*
X367540Y210320D02*
G03*
X367540Y210320I-5080J0D01*
G01*
Y160320D02*
G03*
X367540Y160320I-5080J0D01*
G01*
X380040Y135320D02*
G03*
X380040Y135320I-5080J0D01*
G01*
X367540Y60320D02*
G03*
X367540Y60320I-5080J0D01*
G01*
X380040Y35320D02*
G03*
X380040Y35320I-5080J0D01*
G01*
X367540Y10320D02*
G03*
X367540Y10320I-5080J0D01*
G01*
X355040Y535320D02*
G03*
X355040Y535320I-5080J0D01*
G01*
X342540Y510320D02*
G03*
X342540Y510320I-5080J0D01*
G01*
X355040Y335320D02*
G03*
X355040Y335320I-5080J0D01*
G01*
Y285320D02*
G03*
X355040Y285320I-5080J0D01*
G01*
X342540Y260320D02*
G03*
X342540Y260320I-5080J0D01*
G01*
X355040Y235320D02*
G03*
X355040Y235320I-5080J0D01*
G01*
X342540Y210320D02*
G03*
X342540Y210320I-5080J0D01*
G01*
Y160320D02*
G03*
X342540Y160320I-5080J0D01*
G01*
X355040Y135320D02*
G03*
X355040Y135320I-5080J0D01*
G01*
X342540Y60320D02*
G03*
X342540Y60320I-5080J0D01*
G01*
X355040Y35320D02*
G03*
X355040Y35320I-5080J0D01*
G01*
X342540Y10320D02*
G03*
X342540Y10320I-5080J0D01*
G01*
X330040Y535320D02*
G03*
X330040Y535320I-5080J0D01*
G01*
X317540Y510320D02*
G03*
X317540Y510320I-5080J0D01*
G01*
Y460320D02*
G03*
X317540Y460320I-5080J0D01*
G01*
Y310320D02*
G03*
X317540Y310320I-5080J0D01*
G01*
X330040Y285320D02*
G03*
X330040Y285320I-5080J0D01*
G01*
X317540Y260320D02*
G03*
X317540Y260320I-5080J0D01*
G01*
X330040Y235320D02*
G03*
X330040Y235320I-5080J0D01*
G01*
X317540Y160320D02*
G03*
X317540Y160320I-5080J0D01*
G01*
X330040Y135320D02*
G03*
X330040Y135320I-5080J0D01*
G01*
X317540Y60320D02*
G03*
X317540Y60320I-5080J0D01*
G01*
X330040Y35320D02*
G03*
X330040Y35320I-5080J0D01*
G01*
X317540Y10320D02*
G03*
X317540Y10320I-5080J0D01*
G01*
X305040Y535320D02*
G03*
X305040Y535320I-5080J0D01*
G01*
X292540Y510320D02*
G03*
X292540Y510320I-5080J0D01*
G01*
X305040Y485320D02*
G03*
X305040Y485320I-5080J0D01*
G01*
X292540Y460320D02*
G03*
X292540Y460320I-5080J0D01*
G01*
X305040Y435320D02*
G03*
X305040Y435320I-5080J0D01*
G01*
X292540Y160320D02*
G03*
X292540Y160320I-5080J0D01*
G01*
X305040Y135320D02*
G03*
X305040Y135320I-5080J0D01*
G01*
X292540Y60320D02*
G03*
X292540Y60320I-5080J0D01*
G01*
X305040Y35320D02*
G03*
X305040Y35320I-5080J0D01*
G01*
X292540Y10320D02*
G03*
X292540Y10320I-5080J0D01*
G01*
X280040Y535320D02*
G03*
X280040Y535320I-5080J0D01*
G01*
X267540Y510320D02*
G03*
X267540Y510320I-5080J0D01*
G01*
X280040Y485320D02*
G03*
X280040Y485320I-5080J0D01*
G01*
X267540Y460320D02*
G03*
X267540Y460320I-5080J0D01*
G01*
Y160320D02*
G03*
X267540Y160320I-5080J0D01*
G01*
X280040Y135320D02*
G03*
X280040Y135320I-5080J0D01*
G01*
X267540Y60320D02*
G03*
X267540Y60320I-5080J0D01*
G01*
X280040Y35320D02*
G03*
X280040Y35320I-5080J0D01*
G01*
X267540Y10320D02*
G03*
X267540Y10320I-5080J0D01*
G01*
X255040Y535320D02*
G03*
X255040Y535320I-5080J0D01*
G01*
X242540Y510320D02*
G03*
X242540Y510320I-5080J0D01*
G01*
Y160320D02*
G03*
X242540Y160320I-5080J0D01*
G01*
X255040Y135320D02*
G03*
X255040Y135320I-5080J0D01*
G01*
X242540Y60320D02*
G03*
X242540Y60320I-5080J0D01*
G01*
X255040Y35320D02*
G03*
X255040Y35320I-5080J0D01*
G01*
X242540Y10320D02*
G03*
X242540Y10320I-5080J0D01*
G01*
X230040Y535320D02*
G03*
X230040Y535320I-5080J0D01*
G01*
X217540Y510320D02*
G03*
X217540Y510320I-5080J0D01*
G01*
X230040Y135320D02*
G03*
X230040Y135320I-5080J0D01*
G01*
X217540Y60320D02*
G03*
X217540Y60320I-5080J0D01*
G01*
X230040Y35320D02*
G03*
X230040Y35320I-5080J0D01*
G01*
X217540Y10320D02*
G03*
X217540Y10320I-5080J0D01*
G01*
X205040Y535320D02*
G03*
X205040Y535320I-5080J0D01*
G01*
X192540Y510320D02*
G03*
X192540Y510320I-5080J0D01*
G01*
X205040Y485320D02*
G03*
X205040Y485320I-5080J0D01*
G01*
X192540Y160320D02*
G03*
X192540Y160320I-5080J0D01*
G01*
X205040Y135320D02*
G03*
X205040Y135320I-5080J0D01*
G01*
X192540Y60320D02*
G03*
X192540Y60320I-5080J0D01*
G01*
X205040Y35320D02*
G03*
X205040Y35320I-5080J0D01*
G01*
X192540Y10320D02*
G03*
X192540Y10320I-5080J0D01*
G01*
X180040Y535320D02*
G03*
X180040Y535320I-5080J0D01*
G01*
X167540Y510320D02*
G03*
X167540Y510320I-5080J0D01*
G01*
X180040Y485320D02*
G03*
X180040Y485320I-5080J0D01*
G01*
X167540Y410320D02*
G03*
X167540Y410320I-5080J0D01*
G01*
X180040Y135320D02*
G03*
X180040Y135320I-5080J0D01*
G01*
X167540Y60320D02*
G03*
X167540Y60320I-5080J0D01*
G01*
X180040Y35320D02*
G03*
X180040Y35320I-5080J0D01*
G01*
X167540Y10320D02*
G03*
X167540Y10320I-5080J0D01*
G01*
X155040Y535320D02*
G03*
X155040Y535320I-5080J0D01*
G01*
X142540Y510320D02*
G03*
X142540Y510320I-5080J0D01*
G01*
Y260320D02*
G03*
X142540Y260320I-5080J0D01*
G01*
X155040Y235320D02*
G03*
X155040Y235320I-5080J0D01*
G01*
X142540Y210320D02*
G03*
X142540Y210320I-5080J0D01*
G01*
X155040Y185320D02*
G03*
X155040Y185320I-5080J0D01*
G01*
X142540Y60320D02*
G03*
X142540Y60320I-5080J0D01*
G01*
X155040Y35320D02*
G03*
X155040Y35320I-5080J0D01*
G01*
X142540Y10320D02*
G03*
X142540Y10320I-5080J0D01*
G01*
X130040Y535320D02*
G03*
X130040Y535320I-5080J0D01*
G01*
X117540Y510320D02*
G03*
X117540Y510320I-5080J0D01*
G01*
X130040Y185320D02*
G03*
X130040Y185320I-5080J0D01*
G01*
X117540Y60320D02*
G03*
X117540Y60320I-5080J0D01*
G01*
X130040Y35320D02*
G03*
X130040Y35320I-5080J0D01*
G01*
X117540Y10320D02*
G03*
X117540Y10320I-5080J0D01*
G01*
X105040Y535320D02*
G03*
X105040Y535320I-5080J0D01*
G01*
X92540Y510320D02*
G03*
X92540Y510320I-5080J0D01*
G01*
X105040Y485320D02*
G03*
X105040Y485320I-5080J0D01*
G01*
Y185320D02*
G03*
X105040Y185320I-5080J0D01*
G01*
X92540Y60320D02*
G03*
X92540Y60320I-5080J0D01*
G01*
X105040Y35320D02*
G03*
X105040Y35320I-5080J0D01*
G01*
X92540Y10320D02*
G03*
X92540Y10320I-5080J0D01*
G01*
X80040Y535320D02*
G03*
X80040Y535320I-5080J0D01*
G01*
X67540Y510320D02*
G03*
X67540Y510320I-5080J0D01*
G01*
X80040Y485320D02*
G03*
X80040Y485320I-5080J0D01*
G01*
Y35320D02*
G03*
X80040Y35320I-5080J0D01*
G01*
X67540Y10320D02*
G03*
X67540Y10320I-5080J0D01*
G01*
X55040Y535320D02*
G03*
X55040Y535320I-5080J0D01*
G01*
Y485320D02*
G03*
X55040Y485320I-5080J0D01*
G01*
Y35320D02*
G03*
X55040Y35320I-5080J0D01*
G01*
X42540Y10320D02*
G03*
X42540Y10320I-5080J0D01*
G01*
X30040Y485320D02*
G03*
X30040Y485320I-5080J0D01*
G01*
Y35320D02*
G03*
X30040Y35320I-5080J0D01*
G01*
X17540Y10320D02*
G03*
X17540Y10320I-5080J0D01*
G01*
X35306Y337058D02*
G03*
X35306Y337058I-5080J0D01*
G01*
X71374Y339344D02*
G03*
X71374Y339344I-5080J0D01*
G01*
X188722Y340614D02*
G03*
X188722Y340614I-5080J0D01*
G01*
X177800Y322326D02*
G03*
X177800Y322326I-5080J0D01*
G01*
X267963Y361435D02*
G03*
X267963Y361435I-5080J0D01*
G01*
X254000Y327914D02*
G03*
X254000Y327914I-5080J0D01*
G01*
X294386Y320675D02*
G03*
X294386Y320675I-5080J0D01*
G01*
X295910Y303530D02*
G03*
X295910Y303530I-5080J0D01*
G01*
X196088Y175006D02*
G03*
X196088Y175006I-5080J0D01*
G01*
X218948Y180848D02*
G03*
X218948Y180848I-5080J0D01*
G01*
X223012Y157734D02*
G03*
X223012Y157734I-5080J0D01*
G01*
X101273Y178960D02*
G03*
X101273Y178960I-5080J0D01*
G01*
X40132Y240538D02*
G03*
X40132Y240538I-5080J0D01*
G01*
X32258D02*
G03*
X32258Y240538I-5080J0D01*
G01*
X24384D02*
G03*
X24384Y240538I-5080J0D01*
G01*
X48006D02*
G03*
X48006Y240538I-5080J0D01*
G01*
X124206Y354330D02*
G03*
X124206Y354330I-5080J0D01*
G01*
X173736Y231140D02*
G03*
X173736Y231140I-5080J0D01*
G01*
X262890Y228092D02*
G03*
X262890Y228092I-5080J0D01*
G01*
X331216Y475234D02*
G03*
X331216Y475234I-5080J0D01*
G01*
X324330Y351282D02*
G03*
X324330Y351282I-5080J0D01*
G01*
X281686Y283972D02*
G03*
X281686Y283972I-5080J0D01*
G01*
X231394Y474980D02*
G03*
X231394Y474980I-5080J0D01*
G01*
X250698Y180594D02*
G03*
X250698Y180594I-5080J0D01*
G01*
X236474D02*
G03*
X236474Y180594I-5080J0D01*
G01*
X131318Y475234D02*
G03*
X131318Y475234I-5080J0D01*
G01*
X63246Y323850D02*
G03*
X63246Y323850I-5080J0D01*
G01*
X55372D02*
G03*
X55372Y323850I-5080J0D01*
G01*
Y315976D02*
G03*
X55372Y315976I-5080J0D01*
G01*
X109200Y306598D02*
G03*
X109200Y306598I-5080J0D01*
G01*
X63246Y308102D02*
G03*
X63246Y308102I-5080J0D01*
G01*
X114768Y301031D02*
G03*
X114768Y301031I-5080J0D01*
G01*
X63246Y315976D02*
G03*
X63246Y315976I-5080J0D01*
G01*
X55372Y308102D02*
G03*
X55372Y308102I-5080J0D01*
G01*
Y300228D02*
G03*
X55372Y300228I-5080J0D01*
G01*
X173228Y205486D02*
G03*
X173228Y205486I-5080J0D01*
G01*
X120142Y141986D02*
G03*
X120142Y141986I-5080J0D01*
G01*
X98298Y236474D02*
G03*
X98298Y236474I-5080J0D01*
G01*
X90424Y228600D02*
G03*
X90424Y228600I-5080J0D01*
G01*
X98298D02*
G03*
X98298Y228600I-5080J0D01*
G01*
X82550D02*
G03*
X82550Y228600I-5080J0D01*
G01*
X165100Y232664D02*
G03*
X165100Y232664I-5080J0D01*
G01*
X277368Y216662D02*
G03*
X277368Y216662I-5080J0D01*
G01*
X65024Y220472D02*
G03*
X65024Y220472I-5080J0D01*
G01*
X251206Y386588D02*
G03*
X251206Y386588I-5080J0D01*
G01*
X118364Y118110D02*
G03*
X118364Y118110I-5080J0D01*
G01*
X112522Y99060D02*
G03*
X112522Y99060I-5080J0D01*
G01*
X425450Y404876D02*
G03*
X425450Y404876I-5080J0D01*
G01*
X343408Y423164D02*
G03*
X343408Y423164I-5080J0D01*
G01*
X285242Y423672D02*
G03*
X285242Y423672I-5080J0D01*
G01*
X373888Y423164D02*
G03*
X373888Y423164I-5080J0D01*
G01*
X404876Y415544D02*
G03*
X404876Y415544I-5080J0D01*
G01*
X370078Y502158D02*
G03*
X370078Y502158I-5080J0D01*
G01*
X335788Y319786D02*
G03*
X335788Y319786I-5080J0D01*
G01*
X290068Y334518D02*
G03*
X290068Y334518I-5080J0D01*
G01*
X335788D02*
G03*
X335788Y334518I-5080J0D01*
G01*
X269494Y502666D02*
G03*
X269494Y502666I-5080J0D01*
G01*
X265430Y415544D02*
G03*
X265430Y415544I-5080J0D01*
G01*
X235458D02*
G03*
X235458Y415544I-5080J0D01*
G01*
X205232Y415290D02*
G03*
X205232Y415290I-5080J0D01*
G01*
X304038Y261874D02*
G03*
X304038Y261874I-5080J0D01*
G01*
X279146Y303784D02*
G03*
X279146Y303784I-5080J0D01*
G01*
X293624Y242062D02*
G03*
X293624Y242062I-5080J0D01*
G01*
X335788Y207228D02*
G03*
X335788Y207228I-5080J0D01*
G01*
X293624Y234342D02*
G03*
X293624Y234342I-5080J0D01*
G01*
X276606Y281432D02*
G03*
X276606Y281432I-5080J0D01*
G01*
X270002Y224028D02*
G03*
X270002Y224028I-5080J0D01*
G01*
X263398Y219202D02*
G03*
X263398Y219202I-5080J0D01*
G01*
X169926Y501904D02*
G03*
X169926Y501904I-5080J0D01*
G01*
X114300Y447040D02*
G03*
X114300Y447040I-5080J0D01*
G01*
X134620Y431800D02*
G03*
X134620Y431800I-5080J0D01*
G01*
X110744Y378460D02*
G03*
X110744Y378460I-5080J0D01*
G01*
X177800Y330708D02*
G03*
X177800Y330708I-5080J0D01*
G01*
X162814Y252222D02*
G03*
X162814Y252222I-5080J0D01*
G01*
X124206Y308102D02*
G03*
X124206Y308102I-5080J0D01*
G01*
X122174Y242316D02*
G03*
X122174Y242316I-5080J0D01*
G01*
X99060Y191516D02*
G03*
X99060Y191516I-5080J0D01*
G01*
X37338Y312166D02*
G03*
X37338Y312166I-5080J0D01*
G01*
Y320040D02*
G03*
X37338Y320040I-5080J0D01*
G01*
Y304292D02*
G03*
X37338Y304292I-5080J0D01*
G01*
X29464D02*
G03*
X29464Y304292I-5080J0D01*
G01*
X21590D02*
G03*
X21590Y304292I-5080J0D01*
G01*
Y312166D02*
G03*
X21590Y312166I-5080J0D01*
G01*
Y320040D02*
G03*
X21590Y320040I-5080J0D01*
G01*
X29464Y312166D02*
G03*
X29464Y312166I-5080J0D01*
G01*
Y320040D02*
G03*
X29464Y320040I-5080J0D01*
G01*
X122428Y432308D02*
G03*
X122428Y432308I-5080J0D01*
G01*
Y398526D02*
G03*
X122428Y398526I-5080J0D01*
G01*
X215646Y340614D02*
G03*
X215646Y340614I-5080J0D01*
G01*
X223012Y333248D02*
G03*
X223012Y333248I-5080J0D01*
G01*
X414782Y410972D02*
G03*
X414782Y410972I-5080J0D01*
G01*
X276606Y317500D02*
G03*
X276606Y317500I-5080J0D01*
G01*
X126746Y409956D02*
G03*
X126746Y409956I-5080J0D01*
G01*
X135890Y411480D02*
G03*
X135890Y411480I-5080J0D01*
G01*
M02*
