G04*
G04 #@! TF.GenerationSoftware,Altium Limited,Altium Designer,26.2.0 (7)*
G04*
G04 Layer_Physical_Order=3*
G04 Layer_Color=16440176*
%FSLAX44Y44*%
%MOMM*%
G71*
G04*
G04 #@! TF.SameCoordinates,5073EF85-569D-4715-B1C4-D54BA00D27BC*
G04*
G04*
G04 #@! TF.FilePolarity,Positive*
G04*
G01*
G75*
%ADD28C,4.0000*%
%ADD30C,1.0000*%
%ADD31C,0.4500*%
G36*
X138446Y385461D02*
X139589Y384318D01*
X140208Y382824D01*
Y349504D01*
X140208Y349504D01*
X140208Y348443D01*
X139396Y346483D01*
X137895Y344982D01*
X135935Y344170D01*
X134874Y344170D01*
X107870Y344170D01*
X107870Y344170D01*
X106597Y344045D01*
X105834Y343728D01*
X105351D01*
X105153Y343646D01*
X104937D01*
X103099Y342885D01*
X102947Y342733D01*
X102748Y342650D01*
X101342Y341244D01*
X101259Y341045D01*
X101107Y340892D01*
X100346Y339055D01*
Y338839D01*
X100264Y338641D01*
Y333310D01*
X100229Y333247D01*
X100229Y333153D01*
X100202Y332968D01*
X100147Y332789D01*
X100067Y332620D01*
X100015Y332542D01*
X99027Y331724D01*
X49276Y331724D01*
X49276Y331724D01*
X48533Y331651D01*
X47159Y331082D01*
X46108Y330031D01*
X45539Y328657D01*
X45466Y327914D01*
Y292531D01*
X45255Y292022D01*
Y291807D01*
X45173Y291608D01*
Y248690D01*
X45255Y248492D01*
Y248276D01*
X45951Y246596D01*
X46104Y246444D01*
X46186Y246245D01*
X47472Y244959D01*
X47671Y244876D01*
X47823Y244724D01*
X49504Y244028D01*
X49719D01*
X49918Y243946D01*
X65000D01*
X65864Y243081D01*
X66548Y241431D01*
X66548Y240538D01*
X66548Y208026D01*
X66598Y207004D01*
X66997Y205000D01*
X67779Y203112D01*
X68914Y201413D01*
X69601Y200655D01*
X74676Y195580D01*
Y195580D01*
X74928Y195351D01*
X75493Y194974D01*
X75494Y194974D01*
X75665Y194902D01*
X76122Y194713D01*
X76789Y194581D01*
X77129Y194564D01*
X79770D01*
X81291Y194261D01*
X82724Y193668D01*
X84013Y192806D01*
X85110Y191709D01*
X85972Y190420D01*
X86565Y188987D01*
X86868Y187465D01*
Y186690D01*
Y115062D01*
X86985Y113873D01*
X87895Y111675D01*
X89577Y109993D01*
X91775Y109083D01*
X92964Y108966D01*
X646840Y108966D01*
X649330Y109088D01*
X654213Y110060D01*
X658813Y111965D01*
X662953Y114732D01*
X666474Y118252D01*
X669241Y122393D01*
X671146Y126993D01*
X672118Y131876D01*
X672240Y134366D01*
X672240Y152673D01*
X672240Y153869D01*
X672240Y153869D01*
X672240Y153869D01*
X672240Y153869D01*
X672240Y155801D01*
X672994Y159590D01*
X674472Y163159D01*
X676618Y166372D01*
X679350Y169103D01*
X682563Y171250D01*
X686132Y172728D01*
X689921Y173482D01*
X691853Y173482D01*
X717528Y173482D01*
Y173482D01*
X718644D01*
X720706Y172628D01*
X722284Y171050D01*
X723138Y168988D01*
X723138Y155764D01*
X722865Y154389D01*
X722329Y153095D01*
X721550Y151930D01*
X720560Y150940D01*
X719395Y150161D01*
X718101Y149625D01*
X716727Y149352D01*
X708997D01*
Y149352D01*
X707849Y149239D01*
X705728Y148361D01*
X704105Y146737D01*
X703226Y144616D01*
X703113Y143469D01*
X703113Y143469D01*
X703045Y143226D01*
X702934Y142733D01*
X702860Y142234D01*
X702823Y141730D01*
X702818Y141478D01*
X702818Y104648D01*
X702818Y104648D01*
X702818Y102146D01*
X701842Y97239D01*
X699927Y92617D01*
X697147Y88456D01*
X693609Y84918D01*
X689449Y82139D01*
X684827Y80224D01*
X679920Y79248D01*
X677418Y79248D01*
X82042D01*
X80991Y79248D01*
X78930Y79658D01*
X76989Y80462D01*
X75241Y81630D01*
X73756Y83116D01*
X72588Y84863D01*
X71784Y86804D01*
X71374Y88865D01*
X71374Y89916D01*
X71374Y184658D01*
X71374D01*
X71374Y184658D01*
X71374Y184658D01*
X71301Y185401D01*
X71129Y185817D01*
X70732Y186775D01*
X69681Y187826D01*
X68307Y188395D01*
X67564Y188468D01*
X14224Y188468D01*
X12973Y188468D01*
X10519Y188956D01*
X8208Y189913D01*
X6128Y191303D01*
X4359Y193072D01*
X2969Y195152D01*
X2012Y197463D01*
X1524Y199917D01*
X1524Y201168D01*
Y250444D01*
Y251370D01*
X1885Y253185D01*
X2594Y254896D01*
X3622Y256435D01*
X4931Y257744D01*
X6470Y258772D01*
X8181Y259481D01*
X9996Y259842D01*
X13264D01*
X13280Y259827D01*
X14015Y259522D01*
X14230D01*
X14429Y259440D01*
X34339D01*
X34538Y259522D01*
X34753D01*
X35488Y259827D01*
X35640Y259979D01*
X35839Y260061D01*
X36402Y260624D01*
X36484Y260823D01*
X36637Y260975D01*
X36941Y261710D01*
Y261925D01*
X37023Y262124D01*
Y286098D01*
X36941Y286297D01*
Y286512D01*
X36637Y287247D01*
X36484Y287399D01*
X36402Y287598D01*
X36047Y287953D01*
X35941Y289179D01*
X36830Y290068D01*
X37177Y290102D01*
X37818Y290368D01*
X38308Y290858D01*
X38574Y291499D01*
X38608Y291846D01*
X38608Y337820D01*
Y338746D01*
X38969Y340561D01*
X39678Y342272D01*
X40706Y343811D01*
X42015Y345120D01*
X43554Y346148D01*
X45265Y346857D01*
X47080Y347218D01*
X92603D01*
X95092Y347340D01*
X99976Y348312D01*
X104576Y350217D01*
X108716Y352984D01*
X110563Y354657D01*
X122428Y366522D01*
X122428D01*
X122428Y366522D01*
X123114Y367279D01*
X123234Y367458D01*
X124247Y368975D01*
X125028Y370860D01*
X125426Y372860D01*
X125476Y373881D01*
X125476Y382524D01*
X125476Y382524D01*
X125675Y383712D01*
X126017Y384538D01*
X127018Y385539D01*
X128325Y386080D01*
X129032Y386080D01*
X136144Y386080D01*
X136952D01*
X138446Y385461D01*
D02*
G37*
G36*
X97528Y443088D02*
Y442018D01*
Y381082D01*
X96258Y381082D01*
X92610Y381082D01*
X92610Y443918D01*
X96638D01*
X97528Y443088D01*
D02*
G37*
G36*
X116671Y452570D02*
X118150Y451957D01*
X119481Y451067D01*
X120613Y449935D01*
X121503Y448604D01*
X122116Y447125D01*
X122428Y445555D01*
X122428Y413283D01*
X122312Y413206D01*
X121019D01*
X119825Y412711D01*
X118911Y411797D01*
X118416Y410602D01*
Y409310D01*
X118911Y408115D01*
X119825Y407201D01*
X121019Y406706D01*
X121158D01*
X122428Y405484D01*
X122428Y375813D01*
X122428Y374147D01*
X121778Y370880D01*
X120503Y367802D01*
X118653Y365033D01*
X117475Y363855D01*
X117475D01*
X117475Y363855D01*
X108540Y354921D01*
X104380Y352141D01*
X99758Y350226D01*
X94851Y349250D01*
X92349Y349250D01*
X46482D01*
X45561Y349205D01*
X43754Y348845D01*
X42052Y348140D01*
X40520Y347117D01*
X39217Y345814D01*
X38194Y344282D01*
X37489Y342580D01*
X37129Y340773D01*
X37084Y339852D01*
Y297180D01*
Y296119D01*
X36272Y294158D01*
X34771Y292658D01*
X32811Y291846D01*
X15905D01*
X14318Y292503D01*
X13103Y293718D01*
X12446Y295305D01*
Y296164D01*
X12446Y347726D01*
Y349202D01*
X13022Y352097D01*
X14152Y354824D01*
X15792Y357279D01*
X17879Y359366D01*
X20333Y361006D01*
X23061Y362136D01*
X25956Y362712D01*
X27432D01*
Y362712D01*
X95822D01*
X96366Y362766D01*
X97371Y363182D01*
X98140Y363951D01*
X98333Y364418D01*
X98610D01*
X99375Y364735D01*
X99692Y365500D01*
X99692Y380000D01*
X99375Y380765D01*
X98610Y381082D01*
X98610D01*
Y442018D01*
Y443088D01*
X98790Y443992D01*
X99375Y444235D01*
X99692Y445000D01*
Y446792D01*
X99846Y447164D01*
X101035Y448943D01*
X102549Y450457D01*
X104328Y451646D01*
X106305Y452464D01*
X108404Y452882D01*
X115100D01*
X116671Y452570D01*
D02*
G37*
G36*
X838570Y551270D02*
X839821D01*
X842274Y550782D01*
X844586Y549825D01*
X846666Y548435D01*
X848435Y546666D01*
X849825Y544586D01*
X850782Y542274D01*
X851270Y539821D01*
Y538570D01*
X851270D01*
X851270Y444500D01*
Y443249D01*
X850782Y440796D01*
X849825Y438484D01*
X848435Y436404D01*
X846666Y434635D01*
X844586Y433245D01*
X842274Y432288D01*
X839821Y431800D01*
X838570D01*
Y431800D01*
X762000Y431800D01*
X761253Y431763D01*
X759788Y431472D01*
X758408Y430900D01*
X757166Y430070D01*
X756110Y429014D01*
X755280Y427772D01*
X754708Y426392D01*
X754417Y424927D01*
X754380Y424180D01*
X754380D01*
Y418084D01*
X728980D01*
X728336Y418021D01*
X727145Y417528D01*
X726235Y416617D01*
X725741Y415426D01*
X725678Y414782D01*
X725741Y414138D01*
X726235Y412948D01*
X727145Y412037D01*
X728336Y411543D01*
X728980Y411480D01*
X754380D01*
Y392684D01*
X728980D01*
X728336Y392621D01*
X727145Y392127D01*
X726235Y391217D01*
X725741Y390026D01*
X725678Y389382D01*
X725741Y388738D01*
X726235Y387547D01*
X727145Y386637D01*
X728336Y386143D01*
X728980Y386080D01*
X754380D01*
Y367284D01*
X728980D01*
X728336Y367221D01*
X727145Y366727D01*
X726235Y365816D01*
X725741Y364626D01*
X725678Y363982D01*
X725741Y363338D01*
X726235Y362147D01*
X727145Y361236D01*
X728336Y360743D01*
X728980Y360680D01*
X754380D01*
Y341884D01*
X728980D01*
X728336Y341821D01*
X727145Y341328D01*
X726235Y340416D01*
X725741Y339226D01*
X725678Y338582D01*
X725741Y337938D01*
X726235Y336748D01*
X727145Y335836D01*
X728336Y335343D01*
X728980Y335280D01*
X754380D01*
Y316484D01*
X728980D01*
X728336Y316421D01*
X727145Y315928D01*
X726235Y315016D01*
X725741Y313826D01*
X725678Y313182D01*
X725741Y312538D01*
X726235Y311348D01*
X727145Y310436D01*
X728336Y309943D01*
X728980Y309880D01*
X754380D01*
Y291084D01*
X728980D01*
X728336Y291021D01*
X727145Y290527D01*
X726235Y289617D01*
X725741Y288426D01*
X725678Y287782D01*
X725741Y287138D01*
X726235Y285947D01*
X727145Y285037D01*
X728336Y284543D01*
X728980Y284480D01*
X754380D01*
Y265684D01*
X728980D01*
X728336Y265621D01*
X727145Y265128D01*
X726235Y264216D01*
X725741Y263026D01*
X725678Y262382D01*
X725741Y261738D01*
X726235Y260548D01*
X727145Y259636D01*
X728336Y259143D01*
X728980Y259080D01*
X754380D01*
Y240284D01*
X728980D01*
X728336Y240221D01*
X727145Y239727D01*
X726235Y238817D01*
X725741Y237626D01*
X725678Y236982D01*
X725741Y236338D01*
X726235Y235147D01*
X727145Y234237D01*
X728336Y233743D01*
X728980Y233680D01*
X754380D01*
Y214884D01*
X728980D01*
X728336Y214821D01*
X727145Y214328D01*
X726235Y213417D01*
X725741Y212226D01*
X725678Y211582D01*
X725741Y210938D01*
X726235Y209748D01*
X727145Y208836D01*
X728336Y208343D01*
X728980Y208280D01*
X754380D01*
Y189484D01*
X728980D01*
X728336Y189421D01*
X727145Y188927D01*
X726235Y188016D01*
X725741Y186826D01*
X725678Y186182D01*
X725741Y185538D01*
X726235Y184347D01*
X727145Y183437D01*
X728336Y182943D01*
X728980Y182880D01*
X754380D01*
Y164084D01*
X728980D01*
X728336Y164021D01*
X727145Y163528D01*
X726235Y162617D01*
X725741Y161426D01*
X725678Y160782D01*
X725741Y160138D01*
X726235Y158947D01*
X727145Y158036D01*
X728336Y157543D01*
X728980Y157480D01*
X754380D01*
Y138684D01*
X728980D01*
X728336Y138621D01*
X727145Y138127D01*
X726235Y137217D01*
X725741Y136026D01*
X725678Y135382D01*
X725741Y134738D01*
X726235Y133547D01*
X727145Y132636D01*
X728336Y132143D01*
X728980Y132080D01*
X754380D01*
Y130810D01*
X754441Y129565D01*
X754927Y127123D01*
X755880Y124823D01*
X757263Y122753D01*
X759023Y120993D01*
X761093Y119610D01*
X763393Y118657D01*
X765835Y118171D01*
X767080Y118110D01*
X838588Y118110D01*
X839839D01*
X842293Y117622D01*
X844604Y116665D01*
X846684Y115275D01*
X848453Y113506D01*
X849843Y111426D01*
X850800Y109114D01*
X851288Y106661D01*
Y105410D01*
X851288D01*
X851288Y13970D01*
Y12719D01*
X850800Y10266D01*
X849843Y7954D01*
X848453Y5874D01*
X846684Y4105D01*
X844604Y2715D01*
X842293Y1758D01*
X839839Y1270D01*
X838588D01*
Y1270D01*
X13970Y1270D01*
X12719D01*
X10266Y1758D01*
X7954Y2715D01*
X5874Y4105D01*
X4105Y5874D01*
X2715Y7954D01*
X1758Y10266D01*
X1270Y12719D01*
Y13970D01*
X1270D01*
X1270Y30351D01*
X1758Y32804D01*
X2715Y35116D01*
X4105Y37196D01*
X5874Y38965D01*
X7954Y40355D01*
X8831Y40718D01*
X69456D01*
X70221Y41035D01*
X70538Y41800D01*
Y83839D01*
X70668Y83914D01*
X71066Y84050D01*
X71808Y84081D01*
X72856Y82514D01*
X72948Y82453D01*
X72990Y82350D01*
X74476Y80864D01*
X74579Y80822D01*
X74640Y80730D01*
X76387Y79562D01*
X76496Y79541D01*
X76575Y79462D01*
X78516Y78658D01*
X78627D01*
X78719Y78596D01*
X80780Y78186D01*
X80889Y78208D01*
X80991Y78166D01*
X82042Y78166D01*
X677418D01*
X679920Y78166D01*
X680022Y78208D01*
X680131Y78186D01*
X685038Y79163D01*
X685130Y79224D01*
X685241D01*
X689864Y81139D01*
X689942Y81217D01*
X690051Y81239D01*
X694211Y84018D01*
X694272Y84111D01*
X694375Y84153D01*
X695440Y85218D01*
X696710Y84692D01*
Y84674D01*
X697205Y83479D01*
X698119Y82565D01*
X699314Y82070D01*
X700607D01*
X701801Y82565D01*
X702715Y83479D01*
X703210Y84674D01*
Y85967D01*
X702715Y87161D01*
X701801Y88075D01*
X700607Y88570D01*
X700052D01*
X699374Y89840D01*
X700827Y92015D01*
X700849Y92124D01*
X700927Y92202D01*
X702842Y96825D01*
Y96936D01*
X702903Y97028D01*
X703879Y101935D01*
X703858Y102044D01*
X703900Y102146D01*
X703900Y104648D01*
X703900Y104648D01*
X703900Y141468D01*
X703904Y141680D01*
X703936Y142114D01*
X703999Y142535D01*
X704094Y142959D01*
X704155Y143174D01*
X704143Y143274D01*
X704191Y143363D01*
X704288Y144351D01*
X705022Y146124D01*
X706341Y147443D01*
X708115Y148177D01*
X709050Y148270D01*
X716727D01*
X716829Y148312D01*
X716938Y148290D01*
X718312Y148564D01*
X718404Y148625D01*
X718515D01*
X719809Y149161D01*
X719887Y149240D01*
X719996Y149261D01*
X721161Y150040D01*
X721223Y150132D01*
X721325Y150174D01*
X722316Y151165D01*
X722358Y151267D01*
X722450Y151329D01*
X723229Y152494D01*
X723250Y152603D01*
X723329Y152681D01*
X723865Y153975D01*
Y154086D01*
X723926Y154178D01*
X724200Y155552D01*
X724178Y155661D01*
X724220Y155764D01*
X724220Y168988D01*
X724138Y169187D01*
Y169402D01*
X723284Y171464D01*
X723132Y171616D01*
X723049Y171815D01*
X721471Y173393D01*
X721272Y173476D01*
X721120Y173628D01*
X719058Y174482D01*
X718843D01*
X718644Y174564D01*
X717528D01*
X717528Y174564D01*
X691853Y174564D01*
X689921Y174564D01*
X689819Y174522D01*
X689710Y174543D01*
X685921Y173790D01*
X685828Y173728D01*
X685718D01*
X682148Y172250D01*
X682070Y172171D01*
X681961Y172150D01*
X678749Y170003D01*
X678687Y169911D01*
X678585Y169869D01*
X675853Y167137D01*
X675811Y167034D01*
X675719Y166973D01*
X673572Y163761D01*
X673550Y163652D01*
X673472Y163573D01*
X671994Y160004D01*
Y159893D01*
X671932Y159801D01*
X671178Y156012D01*
X671200Y155903D01*
X671158Y155801D01*
X671158Y153869D01*
X671158Y153869D01*
X671158Y153869D01*
X671158Y152673D01*
X671158Y134393D01*
X671040Y132009D01*
X670105Y127308D01*
X668281Y122905D01*
X665634Y118942D01*
X662263Y115572D01*
X658301Y112924D01*
X653897Y111101D01*
X649197Y110166D01*
X646813Y110048D01*
X93017Y110048D01*
X92041Y110145D01*
X90190Y110911D01*
X88813Y112288D01*
X88047Y114138D01*
X87950Y115115D01*
Y186690D01*
Y187465D01*
X87908Y187568D01*
X87930Y187677D01*
X87627Y189198D01*
X87565Y189290D01*
Y189401D01*
X86972Y190834D01*
X86894Y190912D01*
X86872Y191021D01*
X86010Y192311D01*
X85918Y192372D01*
X85876Y192475D01*
X84779Y193571D01*
X84676Y193614D01*
X84615Y193706D01*
X83325Y194568D01*
X83216Y194590D01*
X83138Y194668D01*
X81705Y195261D01*
X81594D01*
X81502Y195323D01*
X79981Y195626D01*
X79872Y195604D01*
X79770Y195646D01*
X77155D01*
X76921Y195658D01*
X76438Y195754D01*
X76080Y195902D01*
X76080D01*
X76079Y195903D01*
X76006Y195933D01*
X75596Y196207D01*
X75423Y196363D01*
X70385Y201401D01*
X69770Y202080D01*
X68738Y203625D01*
X68038Y205316D01*
X67675Y207137D01*
X67630Y208053D01*
X67630Y240538D01*
X67630Y241431D01*
X67548Y241630D01*
Y241845D01*
X67204Y242676D01*
X68053Y243946D01*
X111622D01*
X111821Y244028D01*
X112036D01*
X113092Y244465D01*
X114064Y243493D01*
X113844Y242962D01*
Y241670D01*
X114339Y240475D01*
X115253Y239561D01*
X116447Y239066D01*
X117740D01*
X118935Y239561D01*
X119849Y240475D01*
X120344Y241670D01*
Y242962D01*
X119849Y244157D01*
X118935Y245071D01*
X117740Y245566D01*
X116447D01*
X116321Y245514D01*
X116299Y245531D01*
X115589Y246596D01*
X116285Y248276D01*
Y248492D01*
X116367Y248690D01*
Y291608D01*
X116285Y291807D01*
Y292022D01*
X115821Y293143D01*
X115668Y293295D01*
X115586Y293494D01*
X114729Y294351D01*
X114530Y294434D01*
X114377Y294586D01*
X113257Y295050D01*
X113042D01*
X112843Y295132D01*
X105178D01*
X104399Y295209D01*
X102916Y295824D01*
X101819Y296921D01*
X101204Y298405D01*
X101127Y299183D01*
Y301058D01*
X101045Y301257D01*
Y301472D01*
X100735Y302219D01*
X100583Y302372D01*
X100501Y302570D01*
X99929Y303142D01*
X99730Y303224D01*
X99578Y303377D01*
X98831Y303686D01*
X98616D01*
X98417Y303768D01*
X63527Y303768D01*
X63527Y303768D01*
X63123D01*
X62924Y303686D01*
X62709D01*
X61962Y303377D01*
X61810Y303224D01*
X61611Y303142D01*
X61039Y302570D01*
X60957Y302371D01*
X60805Y302219D01*
X60495Y301472D01*
Y301257D01*
X60413Y301058D01*
X60413Y299183D01*
X60336Y298405D01*
X59721Y296921D01*
X58624Y295824D01*
X57140Y295209D01*
X56362Y295132D01*
X48697D01*
X48498Y295050D01*
X48283D01*
X47818Y294858D01*
X46548Y295631D01*
Y327861D01*
X46601Y328391D01*
X47026Y329418D01*
X47772Y330164D01*
X48798Y330589D01*
X49330Y330642D01*
X99027Y330642D01*
X99911Y330197D01*
X100264Y329820D01*
Y323791D01*
X100346Y323592D01*
Y323377D01*
X101107Y321539D01*
X101259Y321387D01*
X101342Y321188D01*
X102748Y319782D01*
X102947Y319699D01*
X103099Y319547D01*
X104937Y318786D01*
X105153D01*
X105351Y318704D01*
X132900D01*
X133099Y318786D01*
X133315D01*
X135153Y319547D01*
X135305Y319699D01*
X135504Y319782D01*
X136910Y321188D01*
X136993Y321387D01*
X137145Y321539D01*
X137906Y323377D01*
Y323592D01*
X137988Y323791D01*
Y338641D01*
X137906Y338839D01*
Y339055D01*
X137145Y340892D01*
X136993Y341045D01*
X136910Y341244D01*
X136254Y341900D01*
X136286Y342335D01*
X136654Y343296D01*
X138310Y343982D01*
X138462Y344134D01*
X138661Y344217D01*
X140161Y345717D01*
X140244Y345916D01*
X140396Y346068D01*
X141208Y348029D01*
Y348244D01*
X141290Y348443D01*
X141290Y349504D01*
X141290Y349504D01*
Y382824D01*
X141208Y383023D01*
Y383239D01*
X140589Y384732D01*
X140437Y384884D01*
X140355Y385083D01*
X139211Y386227D01*
X139012Y386309D01*
X138860Y386461D01*
X137367Y387080D01*
X137151D01*
X136952Y387162D01*
X129032Y387162D01*
X128325Y387162D01*
X128126Y387080D01*
X127910D01*
X126603Y386539D01*
X126451Y386386D01*
X126252Y386304D01*
X125252Y385304D01*
X125170Y385105D01*
X125017Y384952D01*
X124780Y384380D01*
X123510Y384633D01*
X123510Y405484D01*
X123506Y405494D01*
X123510Y405505D01*
X123391Y405778D01*
X123262Y406404D01*
X123402Y406719D01*
X123767Y407460D01*
X124421Y408115D01*
X124916Y409310D01*
Y410602D01*
X124421Y411797D01*
X123507Y412711D01*
X123490Y413072D01*
X123468Y413181D01*
X123510Y413283D01*
X123510Y445555D01*
X123468Y445657D01*
X123490Y445766D01*
X123177Y447336D01*
X123116Y447428D01*
Y447539D01*
X122503Y449018D01*
X122424Y449097D01*
X122403Y449205D01*
X121513Y450537D01*
X121421Y450598D01*
X121379Y450701D01*
X120247Y451833D01*
X120144Y451875D01*
X120083Y451967D01*
X118751Y452857D01*
X118643Y452878D01*
X118564Y452957D01*
X117085Y453570D01*
X116974D01*
X116882Y453631D01*
X115312Y453944D01*
X115203Y453922D01*
X115100Y453964D01*
X108404D01*
X108301Y453922D01*
X108193Y453944D01*
X106094Y453526D01*
X106002Y453465D01*
X105891D01*
X103914Y452645D01*
X103835Y452567D01*
X103727Y452546D01*
X101947Y451357D01*
X101886Y451264D01*
X101783Y451222D01*
X100962Y450401D01*
X99692Y450927D01*
X99692Y459500D01*
X99375Y460265D01*
X98610Y460582D01*
X92610D01*
X92373Y460484D01*
X92141Y461045D01*
X91375Y461811D01*
X90372Y462227D01*
X89830Y462280D01*
X13970Y462280D01*
X12719D01*
X10266Y462768D01*
X7954Y463725D01*
X5874Y465115D01*
X4105Y466884D01*
X2715Y468964D01*
X1758Y471275D01*
X1270Y473729D01*
Y474980D01*
X1270D01*
X1270Y538570D01*
Y539821D01*
X1758Y542274D01*
X2715Y544586D01*
X4105Y546666D01*
X5874Y548435D01*
X7954Y549825D01*
X10266Y550782D01*
X12719Y551270D01*
X13970D01*
Y551270D01*
X838570Y551270D01*
D02*
G37*
G36*
X19548Y363165D02*
X19732Y361906D01*
X17278Y360266D01*
X17216Y360174D01*
X17114Y360132D01*
X15026Y358044D01*
X14984Y357942D01*
X14892Y357880D01*
X13252Y355426D01*
X13230Y355317D01*
X13152Y355239D01*
X12022Y352511D01*
Y352401D01*
X11960Y352308D01*
X11384Y349413D01*
X11406Y349304D01*
X11364Y349202D01*
Y347726D01*
X11364Y296164D01*
Y295305D01*
X11446Y295106D01*
Y294891D01*
X12103Y293304D01*
X12256Y293152D01*
X12338Y292953D01*
X13553Y291738D01*
X13752Y291656D01*
X13904Y291503D01*
X15491Y290846D01*
X15706D01*
X15905Y290764D01*
X32811D01*
X33010Y290846D01*
X33225D01*
X34514Y291380D01*
X35398Y290371D01*
X35113Y289875D01*
X35091Y289806D01*
X34629Y289178D01*
X34035Y288901D01*
X33867Y288844D01*
X33614Y288782D01*
X14429D01*
X14230Y288700D01*
X14015D01*
X13280Y288396D01*
X13128Y288243D01*
X12929Y288161D01*
X12366Y287598D01*
X12284Y287399D01*
X12132Y287247D01*
X11827Y286512D01*
Y286297D01*
X11745Y286098D01*
Y262124D01*
X11388Y261381D01*
X10778Y260924D01*
X9996D01*
X9894Y260882D01*
X9785Y260904D01*
X7969Y260542D01*
X7877Y260481D01*
X7767D01*
X6056Y259772D01*
X5978Y259694D01*
X5869Y259672D01*
X4330Y258644D01*
X4268Y258552D01*
X4166Y258509D01*
X2857Y257200D01*
X2814Y257098D01*
X2722Y257036D01*
X2540Y256764D01*
X1270Y257149D01*
X1270Y350520D01*
Y351771D01*
X1758Y354224D01*
X2715Y356536D01*
X4105Y358616D01*
X5874Y360385D01*
X7954Y361775D01*
X10266Y362732D01*
X12719Y363220D01*
X13970D01*
Y363220D01*
X19531D01*
X19548Y363165D01*
D02*
G37*
G36*
X3459Y192471D02*
X3551Y192409D01*
X3594Y192307D01*
X5363Y190538D01*
X5465Y190495D01*
X5527Y190403D01*
X7607Y189013D01*
X7716Y188992D01*
X7794Y188913D01*
X10105Y187956D01*
X10216D01*
X10308Y187894D01*
X12762Y187406D01*
X12871Y187428D01*
X12973Y187386D01*
X14224Y187386D01*
X67511Y187386D01*
X68041Y187333D01*
X69068Y186908D01*
X69814Y186161D01*
X70129Y185403D01*
X70129Y185403D01*
X70239Y185135D01*
X70292Y184604D01*
Y183911D01*
X70084Y183655D01*
X69022Y182882D01*
X7968D01*
X7286Y183165D01*
X5414Y184416D01*
X3822Y186008D01*
X2571Y187880D01*
X1709Y189960D01*
X1270Y192168D01*
Y193294D01*
X2337Y193785D01*
X2540Y193846D01*
X3459Y192471D01*
D02*
G37*
%LPC*%
G36*
X60591Y223722D02*
X59297D01*
X58103Y223227D01*
X57189Y222313D01*
X56694Y221119D01*
Y219825D01*
X57189Y218631D01*
X58103Y217717D01*
X59297Y217222D01*
X60591D01*
X61785Y217717D01*
X62699Y218631D01*
X63194Y219825D01*
Y221119D01*
X62699Y222313D01*
X61785Y223227D01*
X60591Y223722D01*
D02*
G37*
G36*
X108089Y102310D02*
X106796D01*
X105601Y101815D01*
X104687Y100901D01*
X104192Y99706D01*
Y98413D01*
X104687Y97219D01*
X105601Y96305D01*
X106796Y95810D01*
X108089D01*
X109283Y96305D01*
X110197Y97219D01*
X110692Y98413D01*
Y99706D01*
X110197Y100901D01*
X109283Y101815D01*
X108089Y102310D01*
D02*
G37*
G36*
X109867Y450290D02*
X108574D01*
X107379Y449795D01*
X106465Y448881D01*
X105970Y447687D01*
Y446394D01*
X106465Y445199D01*
X107379Y444285D01*
X108574Y443790D01*
X109867D01*
X111061Y444285D01*
X111975Y445199D01*
X112470Y446394D01*
Y447687D01*
X111975Y448881D01*
X111061Y449795D01*
X109867Y450290D01*
D02*
G37*
G36*
X106311Y381710D02*
X105017D01*
X103823Y381215D01*
X102909Y380301D01*
X102414Y379106D01*
Y377813D01*
X102909Y376619D01*
X103823Y375705D01*
X105017Y375210D01*
X106311D01*
X107505Y375705D01*
X108419Y376619D01*
X108914Y377813D01*
Y379106D01*
X108419Y380301D01*
X107505Y381215D01*
X106311Y381710D01*
D02*
G37*
G36*
X30872Y340308D02*
X29580D01*
X28385Y339813D01*
X27471Y338899D01*
X26976Y337705D01*
Y336412D01*
X27471Y335217D01*
X28385Y334303D01*
X29580Y333808D01*
X30872D01*
X32067Y334303D01*
X32981Y335217D01*
X33476Y336412D01*
Y337705D01*
X32981Y338899D01*
X32067Y339813D01*
X30872Y340308D01*
D02*
G37*
G36*
X825607Y538570D02*
X824314D01*
X823119Y538075D01*
X822205Y537161D01*
X821710Y535966D01*
Y534674D01*
X822205Y533479D01*
X823119Y532565D01*
X824314Y532070D01*
X825607D01*
X826801Y532565D01*
X827715Y533479D01*
X828210Y534674D01*
Y535966D01*
X827715Y537161D01*
X826801Y538075D01*
X825607Y538570D01*
D02*
G37*
G36*
X800607D02*
X799314D01*
X798119Y538075D01*
X797205Y537161D01*
X796710Y535966D01*
Y534674D01*
X797205Y533479D01*
X798119Y532565D01*
X799314Y532070D01*
X800607D01*
X801801Y532565D01*
X802715Y533479D01*
X803210Y534674D01*
Y535966D01*
X802715Y537161D01*
X801801Y538075D01*
X800607Y538570D01*
D02*
G37*
G36*
X775607D02*
X774314D01*
X773119Y538075D01*
X772205Y537161D01*
X771710Y535966D01*
Y534674D01*
X772205Y533479D01*
X773119Y532565D01*
X774314Y532070D01*
X775607D01*
X776801Y532565D01*
X777715Y533479D01*
X778210Y534674D01*
Y535966D01*
X777715Y537161D01*
X776801Y538075D01*
X775607Y538570D01*
D02*
G37*
G36*
X750607D02*
X749314D01*
X748119Y538075D01*
X747205Y537161D01*
X746710Y535966D01*
Y534674D01*
X747205Y533479D01*
X748119Y532565D01*
X749314Y532070D01*
X750607D01*
X751801Y532565D01*
X752715Y533479D01*
X753210Y534674D01*
Y535966D01*
X752715Y537161D01*
X751801Y538075D01*
X750607Y538570D01*
D02*
G37*
G36*
X725607D02*
X724314D01*
X723119Y538075D01*
X722205Y537161D01*
X721710Y535966D01*
Y534674D01*
X722205Y533479D01*
X723119Y532565D01*
X724314Y532070D01*
X725607D01*
X726801Y532565D01*
X727715Y533479D01*
X728210Y534674D01*
Y535966D01*
X727715Y537161D01*
X726801Y538075D01*
X725607Y538570D01*
D02*
G37*
G36*
X700607D02*
X699314D01*
X698119Y538075D01*
X697205Y537161D01*
X696710Y535966D01*
Y534674D01*
X697205Y533479D01*
X698119Y532565D01*
X699314Y532070D01*
X700607D01*
X701801Y532565D01*
X702715Y533479D01*
X703210Y534674D01*
Y535966D01*
X702715Y537161D01*
X701801Y538075D01*
X700607Y538570D01*
D02*
G37*
G36*
X675607D02*
X674314D01*
X673119Y538075D01*
X672205Y537161D01*
X671710Y535966D01*
Y534674D01*
X672205Y533479D01*
X673119Y532565D01*
X674314Y532070D01*
X675607D01*
X676801Y532565D01*
X677715Y533479D01*
X678210Y534674D01*
Y535966D01*
X677715Y537161D01*
X676801Y538075D01*
X675607Y538570D01*
D02*
G37*
G36*
X650607D02*
X649314D01*
X648119Y538075D01*
X647205Y537161D01*
X646710Y535966D01*
Y534674D01*
X647205Y533479D01*
X648119Y532565D01*
X649314Y532070D01*
X650607D01*
X651801Y532565D01*
X652715Y533479D01*
X653210Y534674D01*
Y535966D01*
X652715Y537161D01*
X651801Y538075D01*
X650607Y538570D01*
D02*
G37*
G36*
X625606D02*
X624314D01*
X623119Y538075D01*
X622205Y537161D01*
X621710Y535966D01*
Y534674D01*
X622205Y533479D01*
X623119Y532565D01*
X624314Y532070D01*
X625606D01*
X626801Y532565D01*
X627715Y533479D01*
X628210Y534674D01*
Y535966D01*
X627715Y537161D01*
X626801Y538075D01*
X625606Y538570D01*
D02*
G37*
G36*
X600606D02*
X599314D01*
X598119Y538075D01*
X597205Y537161D01*
X596710Y535966D01*
Y534674D01*
X597205Y533479D01*
X598119Y532565D01*
X599314Y532070D01*
X600606D01*
X601801Y532565D01*
X602715Y533479D01*
X603210Y534674D01*
Y535966D01*
X602715Y537161D01*
X601801Y538075D01*
X600606Y538570D01*
D02*
G37*
G36*
X575606D02*
X574314D01*
X573119Y538075D01*
X572205Y537161D01*
X571710Y535966D01*
Y534674D01*
X572205Y533479D01*
X573119Y532565D01*
X574314Y532070D01*
X575606D01*
X576801Y532565D01*
X577715Y533479D01*
X578210Y534674D01*
Y535966D01*
X577715Y537161D01*
X576801Y538075D01*
X575606Y538570D01*
D02*
G37*
G36*
X550606D02*
X549314D01*
X548119Y538075D01*
X547205Y537161D01*
X546710Y535966D01*
Y534674D01*
X547205Y533479D01*
X548119Y532565D01*
X549314Y532070D01*
X550606D01*
X551801Y532565D01*
X552715Y533479D01*
X553210Y534674D01*
Y535966D01*
X552715Y537161D01*
X551801Y538075D01*
X550606Y538570D01*
D02*
G37*
G36*
X525606D02*
X524314D01*
X523119Y538075D01*
X522205Y537161D01*
X521710Y535966D01*
Y534674D01*
X522205Y533479D01*
X523119Y532565D01*
X524314Y532070D01*
X525606D01*
X526801Y532565D01*
X527715Y533479D01*
X528210Y534674D01*
Y535966D01*
X527715Y537161D01*
X526801Y538075D01*
X525606Y538570D01*
D02*
G37*
G36*
X500606D02*
X499314D01*
X498119Y538075D01*
X497205Y537161D01*
X496710Y535966D01*
Y534674D01*
X497205Y533479D01*
X498119Y532565D01*
X499314Y532070D01*
X500606D01*
X501801Y532565D01*
X502715Y533479D01*
X503210Y534674D01*
Y535966D01*
X502715Y537161D01*
X501801Y538075D01*
X500606Y538570D01*
D02*
G37*
G36*
X475606D02*
X474314D01*
X473119Y538075D01*
X472205Y537161D01*
X471710Y535966D01*
Y534674D01*
X472205Y533479D01*
X473119Y532565D01*
X474314Y532070D01*
X475606D01*
X476801Y532565D01*
X477715Y533479D01*
X478210Y534674D01*
Y535966D01*
X477715Y537161D01*
X476801Y538075D01*
X475606Y538570D01*
D02*
G37*
G36*
X450606D02*
X449314D01*
X448119Y538075D01*
X447205Y537161D01*
X446710Y535966D01*
Y534674D01*
X447205Y533479D01*
X448119Y532565D01*
X449314Y532070D01*
X450606D01*
X451801Y532565D01*
X452715Y533479D01*
X453210Y534674D01*
Y535966D01*
X452715Y537161D01*
X451801Y538075D01*
X450606Y538570D01*
D02*
G37*
G36*
X425606D02*
X424314D01*
X423119Y538075D01*
X422205Y537161D01*
X421710Y535966D01*
Y534674D01*
X422205Y533479D01*
X423119Y532565D01*
X424314Y532070D01*
X425606D01*
X426801Y532565D01*
X427715Y533479D01*
X428210Y534674D01*
Y535966D01*
X427715Y537161D01*
X426801Y538075D01*
X425606Y538570D01*
D02*
G37*
G36*
X400606D02*
X399314D01*
X398119Y538075D01*
X397205Y537161D01*
X396710Y535966D01*
Y534674D01*
X397205Y533479D01*
X398119Y532565D01*
X399314Y532070D01*
X400606D01*
X401801Y532565D01*
X402715Y533479D01*
X403210Y534674D01*
Y535966D01*
X402715Y537161D01*
X401801Y538075D01*
X400606Y538570D01*
D02*
G37*
G36*
X375606D02*
X374314D01*
X373119Y538075D01*
X372205Y537161D01*
X371710Y535966D01*
Y534674D01*
X372205Y533479D01*
X373119Y532565D01*
X374314Y532070D01*
X375606D01*
X376801Y532565D01*
X377715Y533479D01*
X378210Y534674D01*
Y535966D01*
X377715Y537161D01*
X376801Y538075D01*
X375606Y538570D01*
D02*
G37*
G36*
X350606D02*
X349314D01*
X348119Y538075D01*
X347205Y537161D01*
X346710Y535966D01*
Y534674D01*
X347205Y533479D01*
X348119Y532565D01*
X349314Y532070D01*
X350606D01*
X351801Y532565D01*
X352715Y533479D01*
X353210Y534674D01*
Y535966D01*
X352715Y537161D01*
X351801Y538075D01*
X350606Y538570D01*
D02*
G37*
G36*
X325606D02*
X324314D01*
X323119Y538075D01*
X322205Y537161D01*
X321710Y535966D01*
Y534674D01*
X322205Y533479D01*
X323119Y532565D01*
X324314Y532070D01*
X325606D01*
X326801Y532565D01*
X327715Y533479D01*
X328210Y534674D01*
Y535966D01*
X327715Y537161D01*
X326801Y538075D01*
X325606Y538570D01*
D02*
G37*
G36*
X300606D02*
X299314D01*
X298119Y538075D01*
X297205Y537161D01*
X296710Y535966D01*
Y534674D01*
X297205Y533479D01*
X298119Y532565D01*
X299314Y532070D01*
X300606D01*
X301801Y532565D01*
X302715Y533479D01*
X303210Y534674D01*
Y535966D01*
X302715Y537161D01*
X301801Y538075D01*
X300606Y538570D01*
D02*
G37*
G36*
X275606D02*
X274314D01*
X273119Y538075D01*
X272205Y537161D01*
X271710Y535966D01*
Y534674D01*
X272205Y533479D01*
X273119Y532565D01*
X274314Y532070D01*
X275606D01*
X276801Y532565D01*
X277715Y533479D01*
X278210Y534674D01*
Y535966D01*
X277715Y537161D01*
X276801Y538075D01*
X275606Y538570D01*
D02*
G37*
G36*
X250606D02*
X249314D01*
X248119Y538075D01*
X247205Y537161D01*
X246710Y535966D01*
Y534674D01*
X247205Y533479D01*
X248119Y532565D01*
X249314Y532070D01*
X250606D01*
X251801Y532565D01*
X252715Y533479D01*
X253210Y534674D01*
Y535966D01*
X252715Y537161D01*
X251801Y538075D01*
X250606Y538570D01*
D02*
G37*
G36*
X225606D02*
X224314D01*
X223119Y538075D01*
X222205Y537161D01*
X221710Y535966D01*
Y534674D01*
X222205Y533479D01*
X223119Y532565D01*
X224314Y532070D01*
X225606D01*
X226801Y532565D01*
X227715Y533479D01*
X228210Y534674D01*
Y535966D01*
X227715Y537161D01*
X226801Y538075D01*
X225606Y538570D01*
D02*
G37*
G36*
X200606D02*
X199314D01*
X198119Y538075D01*
X197205Y537161D01*
X196710Y535966D01*
Y534674D01*
X197205Y533479D01*
X198119Y532565D01*
X199314Y532070D01*
X200606D01*
X201801Y532565D01*
X202715Y533479D01*
X203210Y534674D01*
Y535966D01*
X202715Y537161D01*
X201801Y538075D01*
X200606Y538570D01*
D02*
G37*
G36*
X175606D02*
X174314D01*
X173119Y538075D01*
X172205Y537161D01*
X171710Y535966D01*
Y534674D01*
X172205Y533479D01*
X173119Y532565D01*
X174314Y532070D01*
X175606D01*
X176801Y532565D01*
X177715Y533479D01*
X178210Y534674D01*
Y535966D01*
X177715Y537161D01*
X176801Y538075D01*
X175606Y538570D01*
D02*
G37*
G36*
X150606D02*
X149314D01*
X148119Y538075D01*
X147205Y537161D01*
X146710Y535966D01*
Y534674D01*
X147205Y533479D01*
X148119Y532565D01*
X149314Y532070D01*
X150606D01*
X151801Y532565D01*
X152715Y533479D01*
X153210Y534674D01*
Y535966D01*
X152715Y537161D01*
X151801Y538075D01*
X150606Y538570D01*
D02*
G37*
G36*
X125606D02*
X124314D01*
X123119Y538075D01*
X122205Y537161D01*
X121710Y535966D01*
Y534674D01*
X122205Y533479D01*
X123119Y532565D01*
X124314Y532070D01*
X125606D01*
X126801Y532565D01*
X127715Y533479D01*
X128210Y534674D01*
Y535966D01*
X127715Y537161D01*
X126801Y538075D01*
X125606Y538570D01*
D02*
G37*
G36*
X100606D02*
X99314D01*
X98119Y538075D01*
X97205Y537161D01*
X96710Y535966D01*
Y534674D01*
X97205Y533479D01*
X98119Y532565D01*
X99314Y532070D01*
X100606D01*
X101801Y532565D01*
X102715Y533479D01*
X103210Y534674D01*
Y535966D01*
X102715Y537161D01*
X101801Y538075D01*
X100606Y538570D01*
D02*
G37*
G36*
X75606D02*
X74314D01*
X73119Y538075D01*
X72205Y537161D01*
X71710Y535966D01*
Y534674D01*
X72205Y533479D01*
X73119Y532565D01*
X74314Y532070D01*
X75606D01*
X76801Y532565D01*
X77715Y533479D01*
X78210Y534674D01*
Y535966D01*
X77715Y537161D01*
X76801Y538075D01*
X75606Y538570D01*
D02*
G37*
G36*
X50606D02*
X49314D01*
X48119Y538075D01*
X47205Y537161D01*
X46710Y535966D01*
Y534674D01*
X47205Y533479D01*
X48119Y532565D01*
X49314Y532070D01*
X50606D01*
X51801Y532565D01*
X52715Y533479D01*
X53210Y534674D01*
Y535966D01*
X52715Y537161D01*
X51801Y538075D01*
X50606Y538570D01*
D02*
G37*
G36*
X26038Y549570D02*
X21902D01*
X17845Y548763D01*
X14023Y547180D01*
X10583Y544882D01*
X7658Y541957D01*
X5360Y538517D01*
X3777Y534696D01*
X2970Y530638D01*
Y526502D01*
X3777Y522444D01*
X5360Y518623D01*
X7658Y515183D01*
X10583Y512258D01*
X14023Y509960D01*
X17845Y508377D01*
X21902Y507570D01*
X26038D01*
X30096Y508377D01*
X33917Y509960D01*
X37357Y512258D01*
X40282Y515183D01*
X42580Y518623D01*
X44163Y522444D01*
X44970Y526502D01*
Y530638D01*
X44163Y534696D01*
X42580Y538517D01*
X40282Y541957D01*
X37357Y544882D01*
X33917Y547180D01*
X30096Y548763D01*
X26038Y549570D01*
D02*
G37*
G36*
X813107Y513570D02*
X811814D01*
X810619Y513075D01*
X809705Y512161D01*
X809210Y510966D01*
Y509674D01*
X809705Y508479D01*
X810619Y507565D01*
X811814Y507070D01*
X813107D01*
X814301Y507565D01*
X815215Y508479D01*
X815710Y509674D01*
Y510966D01*
X815215Y512161D01*
X814301Y513075D01*
X813107Y513570D01*
D02*
G37*
G36*
X788107D02*
X786814D01*
X785619Y513075D01*
X784705Y512161D01*
X784210Y510966D01*
Y509674D01*
X784705Y508479D01*
X785619Y507565D01*
X786814Y507070D01*
X788107D01*
X789301Y507565D01*
X790215Y508479D01*
X790710Y509674D01*
Y510966D01*
X790215Y512161D01*
X789301Y513075D01*
X788107Y513570D01*
D02*
G37*
G36*
X763107D02*
X761814D01*
X760619Y513075D01*
X759705Y512161D01*
X759210Y510966D01*
Y509674D01*
X759705Y508479D01*
X760619Y507565D01*
X761814Y507070D01*
X763107D01*
X764301Y507565D01*
X765215Y508479D01*
X765710Y509674D01*
Y510966D01*
X765215Y512161D01*
X764301Y513075D01*
X763107Y513570D01*
D02*
G37*
G36*
X738107D02*
X736814D01*
X735619Y513075D01*
X734705Y512161D01*
X734210Y510966D01*
Y509674D01*
X734705Y508479D01*
X735619Y507565D01*
X736814Y507070D01*
X738107D01*
X739301Y507565D01*
X740215Y508479D01*
X740710Y509674D01*
Y510966D01*
X740215Y512161D01*
X739301Y513075D01*
X738107Y513570D01*
D02*
G37*
G36*
X713107D02*
X711814D01*
X710619Y513075D01*
X709705Y512161D01*
X709210Y510966D01*
Y509674D01*
X709705Y508479D01*
X710619Y507565D01*
X711814Y507070D01*
X713107D01*
X714301Y507565D01*
X715215Y508479D01*
X715710Y509674D01*
Y510966D01*
X715215Y512161D01*
X714301Y513075D01*
X713107Y513570D01*
D02*
G37*
G36*
X688107D02*
X686814D01*
X685619Y513075D01*
X684705Y512161D01*
X684210Y510966D01*
Y509674D01*
X684705Y508479D01*
X685619Y507565D01*
X686814Y507070D01*
X688107D01*
X689301Y507565D01*
X690215Y508479D01*
X690710Y509674D01*
Y510966D01*
X690215Y512161D01*
X689301Y513075D01*
X688107Y513570D01*
D02*
G37*
G36*
X663107D02*
X661814D01*
X660619Y513075D01*
X659705Y512161D01*
X659210Y510966D01*
Y509674D01*
X659705Y508479D01*
X660619Y507565D01*
X661814Y507070D01*
X663107D01*
X664301Y507565D01*
X665215Y508479D01*
X665710Y509674D01*
Y510966D01*
X665215Y512161D01*
X664301Y513075D01*
X663107Y513570D01*
D02*
G37*
G36*
X638106D02*
X636814D01*
X635619Y513075D01*
X634705Y512161D01*
X634210Y510966D01*
Y509674D01*
X634705Y508479D01*
X635619Y507565D01*
X636814Y507070D01*
X638106D01*
X639301Y507565D01*
X640215Y508479D01*
X640710Y509674D01*
Y510966D01*
X640215Y512161D01*
X639301Y513075D01*
X638106Y513570D01*
D02*
G37*
G36*
X613106D02*
X611814D01*
X610619Y513075D01*
X609705Y512161D01*
X609210Y510966D01*
Y509674D01*
X609705Y508479D01*
X610619Y507565D01*
X611814Y507070D01*
X613106D01*
X614301Y507565D01*
X615215Y508479D01*
X615710Y509674D01*
Y510966D01*
X615215Y512161D01*
X614301Y513075D01*
X613106Y513570D01*
D02*
G37*
G36*
X588106D02*
X586814D01*
X585619Y513075D01*
X584705Y512161D01*
X584210Y510966D01*
Y509674D01*
X584705Y508479D01*
X585619Y507565D01*
X586814Y507070D01*
X588106D01*
X589301Y507565D01*
X590215Y508479D01*
X590710Y509674D01*
Y510966D01*
X590215Y512161D01*
X589301Y513075D01*
X588106Y513570D01*
D02*
G37*
G36*
X563106D02*
X561814D01*
X560619Y513075D01*
X559705Y512161D01*
X559210Y510966D01*
Y509674D01*
X559705Y508479D01*
X560619Y507565D01*
X561814Y507070D01*
X563106D01*
X564301Y507565D01*
X565215Y508479D01*
X565710Y509674D01*
Y510966D01*
X565215Y512161D01*
X564301Y513075D01*
X563106Y513570D01*
D02*
G37*
G36*
X538106D02*
X536814D01*
X535619Y513075D01*
X534705Y512161D01*
X534210Y510966D01*
Y509674D01*
X534705Y508479D01*
X535619Y507565D01*
X536814Y507070D01*
X538106D01*
X539301Y507565D01*
X540215Y508479D01*
X540710Y509674D01*
Y510966D01*
X540215Y512161D01*
X539301Y513075D01*
X538106Y513570D01*
D02*
G37*
G36*
X513106D02*
X511814D01*
X510619Y513075D01*
X509705Y512161D01*
X509210Y510966D01*
Y509674D01*
X509705Y508479D01*
X510619Y507565D01*
X511814Y507070D01*
X513106D01*
X514301Y507565D01*
X515215Y508479D01*
X515710Y509674D01*
Y510966D01*
X515215Y512161D01*
X514301Y513075D01*
X513106Y513570D01*
D02*
G37*
G36*
X488106D02*
X486814D01*
X485619Y513075D01*
X484705Y512161D01*
X484210Y510966D01*
Y509674D01*
X484705Y508479D01*
X485619Y507565D01*
X486814Y507070D01*
X488106D01*
X489301Y507565D01*
X490215Y508479D01*
X490710Y509674D01*
Y510966D01*
X490215Y512161D01*
X489301Y513075D01*
X488106Y513570D01*
D02*
G37*
G36*
X463106D02*
X461814D01*
X460619Y513075D01*
X459705Y512161D01*
X459210Y510966D01*
Y509674D01*
X459705Y508479D01*
X460619Y507565D01*
X461814Y507070D01*
X463106D01*
X464301Y507565D01*
X465215Y508479D01*
X465710Y509674D01*
Y510966D01*
X465215Y512161D01*
X464301Y513075D01*
X463106Y513570D01*
D02*
G37*
G36*
X438106D02*
X436814D01*
X435619Y513075D01*
X434705Y512161D01*
X434210Y510966D01*
Y509674D01*
X434705Y508479D01*
X435619Y507565D01*
X436814Y507070D01*
X438106D01*
X439301Y507565D01*
X440215Y508479D01*
X440710Y509674D01*
Y510966D01*
X440215Y512161D01*
X439301Y513075D01*
X438106Y513570D01*
D02*
G37*
G36*
X413106D02*
X411814D01*
X410619Y513075D01*
X409705Y512161D01*
X409210Y510966D01*
Y509674D01*
X409705Y508479D01*
X410619Y507565D01*
X411814Y507070D01*
X413106D01*
X414301Y507565D01*
X415215Y508479D01*
X415710Y509674D01*
Y510966D01*
X415215Y512161D01*
X414301Y513075D01*
X413106Y513570D01*
D02*
G37*
G36*
X388106D02*
X386814D01*
X385619Y513075D01*
X384705Y512161D01*
X384210Y510966D01*
Y509674D01*
X384705Y508479D01*
X385619Y507565D01*
X386814Y507070D01*
X388106D01*
X389301Y507565D01*
X390215Y508479D01*
X390710Y509674D01*
Y510966D01*
X390215Y512161D01*
X389301Y513075D01*
X388106Y513570D01*
D02*
G37*
G36*
X363106D02*
X361814D01*
X360619Y513075D01*
X359705Y512161D01*
X359210Y510966D01*
Y509674D01*
X359705Y508479D01*
X360619Y507565D01*
X361814Y507070D01*
X363106D01*
X364301Y507565D01*
X365215Y508479D01*
X365710Y509674D01*
Y510966D01*
X365215Y512161D01*
X364301Y513075D01*
X363106Y513570D01*
D02*
G37*
G36*
X338106D02*
X336814D01*
X335619Y513075D01*
X334705Y512161D01*
X334210Y510966D01*
Y509674D01*
X334705Y508479D01*
X335619Y507565D01*
X336814Y507070D01*
X338106D01*
X339301Y507565D01*
X340215Y508479D01*
X340710Y509674D01*
Y510966D01*
X340215Y512161D01*
X339301Y513075D01*
X338106Y513570D01*
D02*
G37*
G36*
X313106D02*
X311814D01*
X310619Y513075D01*
X309705Y512161D01*
X309210Y510966D01*
Y509674D01*
X309705Y508479D01*
X310619Y507565D01*
X311814Y507070D01*
X313106D01*
X314301Y507565D01*
X315215Y508479D01*
X315710Y509674D01*
Y510966D01*
X315215Y512161D01*
X314301Y513075D01*
X313106Y513570D01*
D02*
G37*
G36*
X288106D02*
X286814D01*
X285619Y513075D01*
X284705Y512161D01*
X284210Y510966D01*
Y509674D01*
X284705Y508479D01*
X285619Y507565D01*
X286814Y507070D01*
X288106D01*
X289301Y507565D01*
X290215Y508479D01*
X290710Y509674D01*
Y510966D01*
X290215Y512161D01*
X289301Y513075D01*
X288106Y513570D01*
D02*
G37*
G36*
X263106D02*
X261814D01*
X260619Y513075D01*
X259705Y512161D01*
X259210Y510966D01*
Y509674D01*
X259705Y508479D01*
X260619Y507565D01*
X261814Y507070D01*
X263106D01*
X264301Y507565D01*
X265215Y508479D01*
X265710Y509674D01*
Y510966D01*
X265215Y512161D01*
X264301Y513075D01*
X263106Y513570D01*
D02*
G37*
G36*
X238106D02*
X236814D01*
X235619Y513075D01*
X234705Y512161D01*
X234210Y510966D01*
Y509674D01*
X234705Y508479D01*
X235619Y507565D01*
X236814Y507070D01*
X238106D01*
X239301Y507565D01*
X240215Y508479D01*
X240710Y509674D01*
Y510966D01*
X240215Y512161D01*
X239301Y513075D01*
X238106Y513570D01*
D02*
G37*
G36*
X213106D02*
X211814D01*
X210619Y513075D01*
X209705Y512161D01*
X209210Y510966D01*
Y509674D01*
X209705Y508479D01*
X210619Y507565D01*
X211814Y507070D01*
X213106D01*
X214301Y507565D01*
X215215Y508479D01*
X215710Y509674D01*
Y510966D01*
X215215Y512161D01*
X214301Y513075D01*
X213106Y513570D01*
D02*
G37*
G36*
X188106D02*
X186814D01*
X185619Y513075D01*
X184705Y512161D01*
X184210Y510966D01*
Y509674D01*
X184705Y508479D01*
X185619Y507565D01*
X186814Y507070D01*
X188106D01*
X189301Y507565D01*
X190215Y508479D01*
X190710Y509674D01*
Y510966D01*
X190215Y512161D01*
X189301Y513075D01*
X188106Y513570D01*
D02*
G37*
G36*
X163106D02*
X161814D01*
X160619Y513075D01*
X159705Y512161D01*
X159210Y510966D01*
Y509674D01*
X159705Y508479D01*
X160619Y507565D01*
X161814Y507070D01*
X163106D01*
X164301Y507565D01*
X165215Y508479D01*
X165710Y509674D01*
Y510966D01*
X165215Y512161D01*
X164301Y513075D01*
X163106Y513570D01*
D02*
G37*
G36*
X138106D02*
X136814D01*
X135619Y513075D01*
X134705Y512161D01*
X134210Y510966D01*
Y509674D01*
X134705Y508479D01*
X135619Y507565D01*
X136814Y507070D01*
X138106D01*
X139301Y507565D01*
X140215Y508479D01*
X140710Y509674D01*
Y510966D01*
X140215Y512161D01*
X139301Y513075D01*
X138106Y513570D01*
D02*
G37*
G36*
X113106D02*
X111814D01*
X110619Y513075D01*
X109705Y512161D01*
X109210Y510966D01*
Y509674D01*
X109705Y508479D01*
X110619Y507565D01*
X111814Y507070D01*
X113106D01*
X114301Y507565D01*
X115215Y508479D01*
X115710Y509674D01*
Y510966D01*
X115215Y512161D01*
X114301Y513075D01*
X113106Y513570D01*
D02*
G37*
G36*
X88106D02*
X86814D01*
X85619Y513075D01*
X84705Y512161D01*
X84210Y510966D01*
Y509674D01*
X84705Y508479D01*
X85619Y507565D01*
X86814Y507070D01*
X88106D01*
X89301Y507565D01*
X90215Y508479D01*
X90710Y509674D01*
Y510966D01*
X90215Y512161D01*
X89301Y513075D01*
X88106Y513570D01*
D02*
G37*
G36*
X63106D02*
X61814D01*
X60619Y513075D01*
X59705Y512161D01*
X59210Y510966D01*
Y509674D01*
X59705Y508479D01*
X60619Y507565D01*
X61814Y507070D01*
X63106D01*
X64301Y507565D01*
X65215Y508479D01*
X65710Y509674D01*
Y510966D01*
X65215Y512161D01*
X64301Y513075D01*
X63106Y513570D01*
D02*
G37*
G36*
X265061Y505916D02*
X263768D01*
X262573Y505421D01*
X261659Y504507D01*
X261164Y503312D01*
Y502020D01*
X261659Y500825D01*
X262573Y499911D01*
X263768Y499416D01*
X265061D01*
X266255Y499911D01*
X267169Y500825D01*
X267664Y502020D01*
Y503312D01*
X267169Y504507D01*
X266255Y505421D01*
X265061Y505916D01*
D02*
G37*
G36*
X365644Y505408D02*
X364352D01*
X363157Y504913D01*
X362243Y503999D01*
X361748Y502804D01*
Y501511D01*
X362243Y500317D01*
X363157Y499403D01*
X364352Y498908D01*
X365644D01*
X366839Y499403D01*
X367753Y500317D01*
X368248Y501511D01*
Y502804D01*
X367753Y503999D01*
X366839Y504913D01*
X365644Y505408D01*
D02*
G37*
G36*
X165492Y505154D02*
X164200D01*
X163005Y504659D01*
X162091Y503745D01*
X161596Y502551D01*
Y501258D01*
X162091Y500063D01*
X163005Y499149D01*
X164200Y498654D01*
X165492D01*
X166687Y499149D01*
X167601Y500063D01*
X168096Y501258D01*
Y502551D01*
X167601Y503745D01*
X166687Y504659D01*
X165492Y505154D01*
D02*
G37*
G36*
X825607Y488570D02*
X824314D01*
X823119Y488075D01*
X822205Y487161D01*
X821710Y485966D01*
Y484674D01*
X822205Y483479D01*
X823119Y482565D01*
X824314Y482070D01*
X825607D01*
X826801Y482565D01*
X827715Y483479D01*
X828210Y484674D01*
Y485966D01*
X827715Y487161D01*
X826801Y488075D01*
X825607Y488570D01*
D02*
G37*
G36*
X800607D02*
X799314D01*
X798119Y488075D01*
X797205Y487161D01*
X796710Y485966D01*
Y484674D01*
X797205Y483479D01*
X798119Y482565D01*
X799314Y482070D01*
X800607D01*
X801801Y482565D01*
X802715Y483479D01*
X803210Y484674D01*
Y485966D01*
X802715Y487161D01*
X801801Y488075D01*
X800607Y488570D01*
D02*
G37*
G36*
X775607D02*
X774314D01*
X773119Y488075D01*
X772205Y487161D01*
X771710Y485966D01*
Y484674D01*
X772205Y483479D01*
X773119Y482565D01*
X774314Y482070D01*
X775607D01*
X776801Y482565D01*
X777715Y483479D01*
X778210Y484674D01*
Y485966D01*
X777715Y487161D01*
X776801Y488075D01*
X775607Y488570D01*
D02*
G37*
G36*
X750607D02*
X749314D01*
X748119Y488075D01*
X747205Y487161D01*
X746710Y485966D01*
Y484674D01*
X747205Y483479D01*
X748119Y482565D01*
X749314Y482070D01*
X750607D01*
X751801Y482565D01*
X752715Y483479D01*
X753210Y484674D01*
Y485966D01*
X752715Y487161D01*
X751801Y488075D01*
X750607Y488570D01*
D02*
G37*
G36*
X725607D02*
X724314D01*
X723119Y488075D01*
X722205Y487161D01*
X721710Y485966D01*
Y484674D01*
X722205Y483479D01*
X723119Y482565D01*
X724314Y482070D01*
X725607D01*
X726801Y482565D01*
X727715Y483479D01*
X728210Y484674D01*
Y485966D01*
X727715Y487161D01*
X726801Y488075D01*
X725607Y488570D01*
D02*
G37*
G36*
X700607D02*
X699314D01*
X698119Y488075D01*
X697205Y487161D01*
X696710Y485966D01*
Y484674D01*
X697205Y483479D01*
X698119Y482565D01*
X699314Y482070D01*
X700607D01*
X701801Y482565D01*
X702715Y483479D01*
X703210Y484674D01*
Y485966D01*
X702715Y487161D01*
X701801Y488075D01*
X700607Y488570D01*
D02*
G37*
G36*
X675607D02*
X674314D01*
X673119Y488075D01*
X672205Y487161D01*
X671710Y485966D01*
Y484674D01*
X672205Y483479D01*
X673119Y482565D01*
X674314Y482070D01*
X675607D01*
X676801Y482565D01*
X677715Y483479D01*
X678210Y484674D01*
Y485966D01*
X677715Y487161D01*
X676801Y488075D01*
X675607Y488570D01*
D02*
G37*
G36*
X650607D02*
X649314D01*
X648119Y488075D01*
X647205Y487161D01*
X646710Y485966D01*
Y484674D01*
X647205Y483479D01*
X648119Y482565D01*
X649314Y482070D01*
X650607D01*
X651801Y482565D01*
X652715Y483479D01*
X653210Y484674D01*
Y485966D01*
X652715Y487161D01*
X651801Y488075D01*
X650607Y488570D01*
D02*
G37*
G36*
X625606D02*
X624314D01*
X623119Y488075D01*
X622205Y487161D01*
X621710Y485966D01*
Y484674D01*
X622205Y483479D01*
X623119Y482565D01*
X624314Y482070D01*
X625606D01*
X626801Y482565D01*
X627715Y483479D01*
X628210Y484674D01*
Y485966D01*
X627715Y487161D01*
X626801Y488075D01*
X625606Y488570D01*
D02*
G37*
G36*
X600606D02*
X599314D01*
X598119Y488075D01*
X597205Y487161D01*
X596710Y485966D01*
Y484674D01*
X597205Y483479D01*
X598119Y482565D01*
X599314Y482070D01*
X600606D01*
X601801Y482565D01*
X602715Y483479D01*
X603210Y484674D01*
Y485966D01*
X602715Y487161D01*
X601801Y488075D01*
X600606Y488570D01*
D02*
G37*
G36*
X575606D02*
X574314D01*
X573119Y488075D01*
X572205Y487161D01*
X571710Y485966D01*
Y484674D01*
X572205Y483479D01*
X573119Y482565D01*
X574314Y482070D01*
X575606D01*
X576801Y482565D01*
X577715Y483479D01*
X578210Y484674D01*
Y485966D01*
X577715Y487161D01*
X576801Y488075D01*
X575606Y488570D01*
D02*
G37*
G36*
X550606D02*
X549314D01*
X548119Y488075D01*
X547205Y487161D01*
X546710Y485966D01*
Y484674D01*
X547205Y483479D01*
X548119Y482565D01*
X549314Y482070D01*
X550606D01*
X551801Y482565D01*
X552715Y483479D01*
X553210Y484674D01*
Y485966D01*
X552715Y487161D01*
X551801Y488075D01*
X550606Y488570D01*
D02*
G37*
G36*
X525606D02*
X524314D01*
X523119Y488075D01*
X522205Y487161D01*
X521710Y485966D01*
Y484674D01*
X522205Y483479D01*
X523119Y482565D01*
X524314Y482070D01*
X525606D01*
X526801Y482565D01*
X527715Y483479D01*
X528210Y484674D01*
Y485966D01*
X527715Y487161D01*
X526801Y488075D01*
X525606Y488570D01*
D02*
G37*
G36*
X500606D02*
X499314D01*
X498119Y488075D01*
X497205Y487161D01*
X496710Y485966D01*
Y484674D01*
X497205Y483479D01*
X498119Y482565D01*
X499314Y482070D01*
X500606D01*
X501801Y482565D01*
X502715Y483479D01*
X503210Y484674D01*
Y485966D01*
X502715Y487161D01*
X501801Y488075D01*
X500606Y488570D01*
D02*
G37*
G36*
X475606D02*
X474314D01*
X473119Y488075D01*
X472205Y487161D01*
X471710Y485966D01*
Y484674D01*
X472205Y483479D01*
X473119Y482565D01*
X474314Y482070D01*
X475606D01*
X476801Y482565D01*
X477715Y483479D01*
X478210Y484674D01*
Y485966D01*
X477715Y487161D01*
X476801Y488075D01*
X475606Y488570D01*
D02*
G37*
G36*
X450606D02*
X449314D01*
X448119Y488075D01*
X447205Y487161D01*
X446710Y485966D01*
Y484674D01*
X447205Y483479D01*
X448119Y482565D01*
X449314Y482070D01*
X450606D01*
X451801Y482565D01*
X452715Y483479D01*
X453210Y484674D01*
Y485966D01*
X452715Y487161D01*
X451801Y488075D01*
X450606Y488570D01*
D02*
G37*
G36*
X425606D02*
X424314D01*
X423119Y488075D01*
X422205Y487161D01*
X421710Y485966D01*
Y484674D01*
X422205Y483479D01*
X423119Y482565D01*
X424314Y482070D01*
X425606D01*
X426801Y482565D01*
X427715Y483479D01*
X428210Y484674D01*
Y485966D01*
X427715Y487161D01*
X426801Y488075D01*
X425606Y488570D01*
D02*
G37*
G36*
X400606D02*
X399314D01*
X398119Y488075D01*
X397205Y487161D01*
X396710Y485966D01*
Y484674D01*
X397205Y483479D01*
X398119Y482565D01*
X399314Y482070D01*
X400606D01*
X401801Y482565D01*
X402715Y483479D01*
X403210Y484674D01*
Y485966D01*
X402715Y487161D01*
X401801Y488075D01*
X400606Y488570D01*
D02*
G37*
G36*
X375606D02*
X374314D01*
X373119Y488075D01*
X372205Y487161D01*
X371710Y485966D01*
Y484674D01*
X372205Y483479D01*
X373119Y482565D01*
X374314Y482070D01*
X375606D01*
X376801Y482565D01*
X377715Y483479D01*
X378210Y484674D01*
Y485966D01*
X377715Y487161D01*
X376801Y488075D01*
X375606Y488570D01*
D02*
G37*
G36*
X300606D02*
X299314D01*
X298119Y488075D01*
X297205Y487161D01*
X296710Y485966D01*
Y484674D01*
X297205Y483479D01*
X298119Y482565D01*
X299314Y482070D01*
X300606D01*
X301801Y482565D01*
X302715Y483479D01*
X303210Y484674D01*
Y485966D01*
X302715Y487161D01*
X301801Y488075D01*
X300606Y488570D01*
D02*
G37*
G36*
X275606D02*
X274314D01*
X273119Y488075D01*
X272205Y487161D01*
X271710Y485966D01*
Y484674D01*
X272205Y483479D01*
X273119Y482565D01*
X274314Y482070D01*
X275606D01*
X276801Y482565D01*
X277715Y483479D01*
X278210Y484674D01*
Y485966D01*
X277715Y487161D01*
X276801Y488075D01*
X275606Y488570D01*
D02*
G37*
G36*
X200606D02*
X199314D01*
X198119Y488075D01*
X197205Y487161D01*
X196710Y485966D01*
Y484674D01*
X197205Y483479D01*
X198119Y482565D01*
X199314Y482070D01*
X200606D01*
X201801Y482565D01*
X202715Y483479D01*
X203210Y484674D01*
Y485966D01*
X202715Y487161D01*
X201801Y488075D01*
X200606Y488570D01*
D02*
G37*
G36*
X175606D02*
X174314D01*
X173119Y488075D01*
X172205Y487161D01*
X171710Y485966D01*
Y484674D01*
X172205Y483479D01*
X173119Y482565D01*
X174314Y482070D01*
X175606D01*
X176801Y482565D01*
X177715Y483479D01*
X178210Y484674D01*
Y485966D01*
X177715Y487161D01*
X176801Y488075D01*
X175606Y488570D01*
D02*
G37*
G36*
X100606D02*
X99314D01*
X98119Y488075D01*
X97205Y487161D01*
X96710Y485966D01*
Y484674D01*
X97205Y483479D01*
X98119Y482565D01*
X99314Y482070D01*
X100606D01*
X101801Y482565D01*
X102715Y483479D01*
X103210Y484674D01*
Y485966D01*
X102715Y487161D01*
X101801Y488075D01*
X100606Y488570D01*
D02*
G37*
G36*
X75606D02*
X74314D01*
X73119Y488075D01*
X72205Y487161D01*
X71710Y485966D01*
Y484674D01*
X72205Y483479D01*
X73119Y482565D01*
X74314Y482070D01*
X75606D01*
X76801Y482565D01*
X77715Y483479D01*
X78210Y484674D01*
Y485966D01*
X77715Y487161D01*
X76801Y488075D01*
X75606Y488570D01*
D02*
G37*
G36*
X50606D02*
X49314D01*
X48119Y488075D01*
X47205Y487161D01*
X46710Y485966D01*
Y484674D01*
X47205Y483479D01*
X48119Y482565D01*
X49314Y482070D01*
X50606D01*
X51801Y482565D01*
X52715Y483479D01*
X53210Y484674D01*
Y485966D01*
X52715Y487161D01*
X51801Y488075D01*
X50606Y488570D01*
D02*
G37*
G36*
X25607D02*
X24314D01*
X23119Y488075D01*
X22205Y487161D01*
X21710Y485966D01*
Y484674D01*
X22205Y483479D01*
X23119Y482565D01*
X24314Y482070D01*
X25607D01*
X26801Y482565D01*
X27715Y483479D01*
X28210Y484674D01*
Y485966D01*
X27715Y487161D01*
X26801Y488075D01*
X25607Y488570D01*
D02*
G37*
G36*
X813107Y463570D02*
X811814D01*
X810619Y463075D01*
X809705Y462161D01*
X809210Y460966D01*
Y459674D01*
X809705Y458479D01*
X810619Y457565D01*
X811814Y457070D01*
X813107D01*
X814301Y457565D01*
X815215Y458479D01*
X815710Y459674D01*
Y460966D01*
X815215Y462161D01*
X814301Y463075D01*
X813107Y463570D01*
D02*
G37*
G36*
X788107D02*
X786814D01*
X785619Y463075D01*
X784705Y462161D01*
X784210Y460966D01*
Y459674D01*
X784705Y458479D01*
X785619Y457565D01*
X786814Y457070D01*
X788107D01*
X789301Y457565D01*
X790215Y458479D01*
X790710Y459674D01*
Y460966D01*
X790215Y462161D01*
X789301Y463075D01*
X788107Y463570D01*
D02*
G37*
G36*
X763107D02*
X761814D01*
X760619Y463075D01*
X759705Y462161D01*
X759210Y460966D01*
Y459674D01*
X759705Y458479D01*
X760619Y457565D01*
X761814Y457070D01*
X763107D01*
X764301Y457565D01*
X765215Y458479D01*
X765710Y459674D01*
Y460966D01*
X765215Y462161D01*
X764301Y463075D01*
X763107Y463570D01*
D02*
G37*
G36*
X738107D02*
X736814D01*
X735619Y463075D01*
X734705Y462161D01*
X734210Y460966D01*
Y459674D01*
X734705Y458479D01*
X735619Y457565D01*
X736814Y457070D01*
X738107D01*
X739301Y457565D01*
X740215Y458479D01*
X740710Y459674D01*
Y460966D01*
X740215Y462161D01*
X739301Y463075D01*
X738107Y463570D01*
D02*
G37*
G36*
X713107D02*
X711814D01*
X710619Y463075D01*
X709705Y462161D01*
X709210Y460966D01*
Y459674D01*
X709705Y458479D01*
X710619Y457565D01*
X711814Y457070D01*
X713107D01*
X714301Y457565D01*
X715215Y458479D01*
X715710Y459674D01*
Y460966D01*
X715215Y462161D01*
X714301Y463075D01*
X713107Y463570D01*
D02*
G37*
G36*
X688107D02*
X686814D01*
X685619Y463075D01*
X684705Y462161D01*
X684210Y460966D01*
Y459674D01*
X684705Y458479D01*
X685619Y457565D01*
X686814Y457070D01*
X688107D01*
X689301Y457565D01*
X690215Y458479D01*
X690710Y459674D01*
Y460966D01*
X690215Y462161D01*
X689301Y463075D01*
X688107Y463570D01*
D02*
G37*
G36*
X663107D02*
X661814D01*
X660619Y463075D01*
X659705Y462161D01*
X659210Y460966D01*
Y459674D01*
X659705Y458479D01*
X660619Y457565D01*
X661814Y457070D01*
X663107D01*
X664301Y457565D01*
X665215Y458479D01*
X665710Y459674D01*
Y460966D01*
X665215Y462161D01*
X664301Y463075D01*
X663107Y463570D01*
D02*
G37*
G36*
X638106D02*
X636814D01*
X635619Y463075D01*
X634705Y462161D01*
X634210Y460966D01*
Y459674D01*
X634705Y458479D01*
X635619Y457565D01*
X636814Y457070D01*
X638106D01*
X639301Y457565D01*
X640215Y458479D01*
X640710Y459674D01*
Y460966D01*
X640215Y462161D01*
X639301Y463075D01*
X638106Y463570D01*
D02*
G37*
G36*
X613106D02*
X611814D01*
X610619Y463075D01*
X609705Y462161D01*
X609210Y460966D01*
Y459674D01*
X609705Y458479D01*
X610619Y457565D01*
X611814Y457070D01*
X613106D01*
X614301Y457565D01*
X615215Y458479D01*
X615710Y459674D01*
Y460966D01*
X615215Y462161D01*
X614301Y463075D01*
X613106Y463570D01*
D02*
G37*
G36*
X588106D02*
X586814D01*
X585619Y463075D01*
X584705Y462161D01*
X584210Y460966D01*
Y459674D01*
X584705Y458479D01*
X585619Y457565D01*
X586814Y457070D01*
X588106D01*
X589301Y457565D01*
X590215Y458479D01*
X590710Y459674D01*
Y460966D01*
X590215Y462161D01*
X589301Y463075D01*
X588106Y463570D01*
D02*
G37*
G36*
X563106D02*
X561814D01*
X560619Y463075D01*
X559705Y462161D01*
X559210Y460966D01*
Y459674D01*
X559705Y458479D01*
X560619Y457565D01*
X561814Y457070D01*
X563106D01*
X564301Y457565D01*
X565215Y458479D01*
X565710Y459674D01*
Y460966D01*
X565215Y462161D01*
X564301Y463075D01*
X563106Y463570D01*
D02*
G37*
G36*
X538106D02*
X536814D01*
X535619Y463075D01*
X534705Y462161D01*
X534210Y460966D01*
Y459674D01*
X534705Y458479D01*
X535619Y457565D01*
X536814Y457070D01*
X538106D01*
X539301Y457565D01*
X540215Y458479D01*
X540710Y459674D01*
Y460966D01*
X540215Y462161D01*
X539301Y463075D01*
X538106Y463570D01*
D02*
G37*
G36*
X513106D02*
X511814D01*
X510619Y463075D01*
X509705Y462161D01*
X509210Y460966D01*
Y459674D01*
X509705Y458479D01*
X510619Y457565D01*
X511814Y457070D01*
X513106D01*
X514301Y457565D01*
X515215Y458479D01*
X515710Y459674D01*
Y460966D01*
X515215Y462161D01*
X514301Y463075D01*
X513106Y463570D01*
D02*
G37*
G36*
X488106D02*
X486814D01*
X485619Y463075D01*
X484705Y462161D01*
X484210Y460966D01*
Y459674D01*
X484705Y458479D01*
X485619Y457565D01*
X486814Y457070D01*
X488106D01*
X489301Y457565D01*
X490215Y458479D01*
X490710Y459674D01*
Y460966D01*
X490215Y462161D01*
X489301Y463075D01*
X488106Y463570D01*
D02*
G37*
G36*
X463106D02*
X461814D01*
X460619Y463075D01*
X459705Y462161D01*
X459210Y460966D01*
Y459674D01*
X459705Y458479D01*
X460619Y457565D01*
X461814Y457070D01*
X463106D01*
X464301Y457565D01*
X465215Y458479D01*
X465710Y459674D01*
Y460966D01*
X465215Y462161D01*
X464301Y463075D01*
X463106Y463570D01*
D02*
G37*
G36*
X438106D02*
X436814D01*
X435619Y463075D01*
X434705Y462161D01*
X434210Y460966D01*
Y459674D01*
X434705Y458479D01*
X435619Y457565D01*
X436814Y457070D01*
X438106D01*
X439301Y457565D01*
X440215Y458479D01*
X440710Y459674D01*
Y460966D01*
X440215Y462161D01*
X439301Y463075D01*
X438106Y463570D01*
D02*
G37*
G36*
X413106D02*
X411814D01*
X410619Y463075D01*
X409705Y462161D01*
X409210Y460966D01*
Y459674D01*
X409705Y458479D01*
X410619Y457565D01*
X411814Y457070D01*
X413106D01*
X414301Y457565D01*
X415215Y458479D01*
X415710Y459674D01*
Y460966D01*
X415215Y462161D01*
X414301Y463075D01*
X413106Y463570D01*
D02*
G37*
G36*
X388106D02*
X386814D01*
X385619Y463075D01*
X384705Y462161D01*
X384210Y460966D01*
Y459674D01*
X384705Y458479D01*
X385619Y457565D01*
X386814Y457070D01*
X388106D01*
X389301Y457565D01*
X390215Y458479D01*
X390710Y459674D01*
Y460966D01*
X390215Y462161D01*
X389301Y463075D01*
X388106Y463570D01*
D02*
G37*
G36*
X363106D02*
X361814D01*
X360619Y463075D01*
X359705Y462161D01*
X359210Y460966D01*
Y459674D01*
X359705Y458479D01*
X360619Y457565D01*
X361814Y457070D01*
X363106D01*
X364301Y457565D01*
X365215Y458479D01*
X365710Y459674D01*
Y460966D01*
X365215Y462161D01*
X364301Y463075D01*
X363106Y463570D01*
D02*
G37*
G36*
X313106D02*
X311814D01*
X310619Y463075D01*
X309705Y462161D01*
X309210Y460966D01*
Y459674D01*
X309705Y458479D01*
X310619Y457565D01*
X311814Y457070D01*
X313106D01*
X314301Y457565D01*
X315215Y458479D01*
X315710Y459674D01*
Y460966D01*
X315215Y462161D01*
X314301Y463075D01*
X313106Y463570D01*
D02*
G37*
G36*
X288106D02*
X286814D01*
X285619Y463075D01*
X284705Y462161D01*
X284210Y460966D01*
Y459674D01*
X284705Y458479D01*
X285619Y457565D01*
X286814Y457070D01*
X288106D01*
X289301Y457565D01*
X290215Y458479D01*
X290710Y459674D01*
Y460966D01*
X290215Y462161D01*
X289301Y463075D01*
X288106Y463570D01*
D02*
G37*
G36*
X263106D02*
X261814D01*
X260619Y463075D01*
X259705Y462161D01*
X259210Y460966D01*
Y459674D01*
X259705Y458479D01*
X260619Y457565D01*
X261814Y457070D01*
X263106D01*
X264301Y457565D01*
X265215Y458479D01*
X265710Y459674D01*
Y460966D01*
X265215Y462161D01*
X264301Y463075D01*
X263106Y463570D01*
D02*
G37*
G36*
X750607Y438570D02*
X749314D01*
X748119Y438075D01*
X747205Y437161D01*
X746710Y435966D01*
Y434674D01*
X747205Y433479D01*
X748119Y432565D01*
X749314Y432070D01*
X750607D01*
X751801Y432565D01*
X752715Y433479D01*
X753210Y434674D01*
Y435966D01*
X752715Y437161D01*
X751801Y438075D01*
X750607Y438570D01*
D02*
G37*
G36*
X725607D02*
X724314D01*
X723119Y438075D01*
X722205Y437161D01*
X721710Y435966D01*
Y434674D01*
X722205Y433479D01*
X723119Y432565D01*
X724314Y432070D01*
X725607D01*
X726801Y432565D01*
X727715Y433479D01*
X728210Y434674D01*
Y435966D01*
X727715Y437161D01*
X726801Y438075D01*
X725607Y438570D01*
D02*
G37*
G36*
X700607D02*
X699314D01*
X698119Y438075D01*
X697205Y437161D01*
X696710Y435966D01*
Y434674D01*
X697205Y433479D01*
X698119Y432565D01*
X699314Y432070D01*
X700607D01*
X701801Y432565D01*
X702715Y433479D01*
X703210Y434674D01*
Y435966D01*
X702715Y437161D01*
X701801Y438075D01*
X700607Y438570D01*
D02*
G37*
G36*
X675607D02*
X674314D01*
X673119Y438075D01*
X672205Y437161D01*
X671710Y435966D01*
Y434674D01*
X672205Y433479D01*
X673119Y432565D01*
X674314Y432070D01*
X675607D01*
X676801Y432565D01*
X677715Y433479D01*
X678210Y434674D01*
Y435966D01*
X677715Y437161D01*
X676801Y438075D01*
X675607Y438570D01*
D02*
G37*
G36*
X650607D02*
X649314D01*
X648119Y438075D01*
X647205Y437161D01*
X646710Y435966D01*
Y434674D01*
X647205Y433479D01*
X648119Y432565D01*
X649314Y432070D01*
X650607D01*
X651801Y432565D01*
X652715Y433479D01*
X653210Y434674D01*
Y435966D01*
X652715Y437161D01*
X651801Y438075D01*
X650607Y438570D01*
D02*
G37*
G36*
X625606D02*
X624314D01*
X623119Y438075D01*
X622205Y437161D01*
X621710Y435966D01*
Y434674D01*
X622205Y433479D01*
X623119Y432565D01*
X624314Y432070D01*
X625606D01*
X626801Y432565D01*
X627715Y433479D01*
X628210Y434674D01*
Y435966D01*
X627715Y437161D01*
X626801Y438075D01*
X625606Y438570D01*
D02*
G37*
G36*
X600606D02*
X599314D01*
X598119Y438075D01*
X597205Y437161D01*
X596710Y435966D01*
Y434674D01*
X597205Y433479D01*
X598119Y432565D01*
X599314Y432070D01*
X600606D01*
X601801Y432565D01*
X602715Y433479D01*
X603210Y434674D01*
Y435966D01*
X602715Y437161D01*
X601801Y438075D01*
X600606Y438570D01*
D02*
G37*
G36*
X575606D02*
X574314D01*
X573119Y438075D01*
X572205Y437161D01*
X571710Y435966D01*
Y434674D01*
X572205Y433479D01*
X573119Y432565D01*
X574314Y432070D01*
X575606D01*
X576801Y432565D01*
X577715Y433479D01*
X578210Y434674D01*
Y435966D01*
X577715Y437161D01*
X576801Y438075D01*
X575606Y438570D01*
D02*
G37*
G36*
X550606D02*
X549314D01*
X548119Y438075D01*
X547205Y437161D01*
X546710Y435966D01*
Y434674D01*
X547205Y433479D01*
X548119Y432565D01*
X549314Y432070D01*
X550606D01*
X551801Y432565D01*
X552715Y433479D01*
X553210Y434674D01*
Y435966D01*
X552715Y437161D01*
X551801Y438075D01*
X550606Y438570D01*
D02*
G37*
G36*
X525606D02*
X524314D01*
X523119Y438075D01*
X522205Y437161D01*
X521710Y435966D01*
Y434674D01*
X522205Y433479D01*
X523119Y432565D01*
X524314Y432070D01*
X525606D01*
X526801Y432565D01*
X527715Y433479D01*
X528210Y434674D01*
Y435966D01*
X527715Y437161D01*
X526801Y438075D01*
X525606Y438570D01*
D02*
G37*
G36*
X500606D02*
X499314D01*
X498119Y438075D01*
X497205Y437161D01*
X496710Y435966D01*
Y434674D01*
X497205Y433479D01*
X498119Y432565D01*
X499314Y432070D01*
X500606D01*
X501801Y432565D01*
X502715Y433479D01*
X503210Y434674D01*
Y435966D01*
X502715Y437161D01*
X501801Y438075D01*
X500606Y438570D01*
D02*
G37*
G36*
X475606D02*
X474314D01*
X473119Y438075D01*
X472205Y437161D01*
X471710Y435966D01*
Y434674D01*
X472205Y433479D01*
X473119Y432565D01*
X474314Y432070D01*
X475606D01*
X476801Y432565D01*
X477715Y433479D01*
X478210Y434674D01*
Y435966D01*
X477715Y437161D01*
X476801Y438075D01*
X475606Y438570D01*
D02*
G37*
G36*
X450606D02*
X449314D01*
X448119Y438075D01*
X447205Y437161D01*
X446710Y435966D01*
Y434674D01*
X447205Y433479D01*
X448119Y432565D01*
X449314Y432070D01*
X450606D01*
X451801Y432565D01*
X452715Y433479D01*
X453210Y434674D01*
Y435966D01*
X452715Y437161D01*
X451801Y438075D01*
X450606Y438570D01*
D02*
G37*
G36*
X300606D02*
X299314D01*
X298119Y438075D01*
X297205Y437161D01*
X296710Y435966D01*
Y434674D01*
X297205Y433479D01*
X298119Y432565D01*
X299314Y432070D01*
X300606D01*
X301801Y432565D01*
X302715Y433479D01*
X303210Y434674D01*
Y435966D01*
X302715Y437161D01*
X301801Y438075D01*
X300606Y438570D01*
D02*
G37*
G36*
X130187Y435050D02*
X128893D01*
X127699Y434555D01*
X126785Y433641D01*
X126290Y432447D01*
Y431153D01*
X126785Y429959D01*
X127699Y429045D01*
X128893Y428550D01*
X130187D01*
X131381Y429045D01*
X132295Y429959D01*
X132790Y431153D01*
Y432447D01*
X132295Y433641D01*
X131381Y434555D01*
X130187Y435050D01*
D02*
G37*
G36*
X280809Y426922D02*
X279515D01*
X278321Y426427D01*
X277407Y425513D01*
X276912Y424319D01*
Y423026D01*
X277407Y421831D01*
X278321Y420917D01*
X279515Y420422D01*
X280809D01*
X282003Y420917D01*
X282917Y421831D01*
X283412Y423026D01*
Y424319D01*
X282917Y425513D01*
X282003Y426427D01*
X280809Y426922D01*
D02*
G37*
G36*
X369454Y426414D02*
X368162D01*
X366967Y425919D01*
X366053Y425005D01*
X365558Y423811D01*
Y422518D01*
X366053Y421323D01*
X366967Y420409D01*
X368162Y419914D01*
X369454D01*
X370649Y420409D01*
X371563Y421323D01*
X372058Y422518D01*
Y423811D01*
X371563Y425005D01*
X370649Y425919D01*
X369454Y426414D01*
D02*
G37*
G36*
X338974D02*
X337682D01*
X336487Y425919D01*
X335573Y425005D01*
X335078Y423811D01*
Y422518D01*
X335573Y421323D01*
X336487Y420409D01*
X337682Y419914D01*
X338974D01*
X340169Y420409D01*
X341083Y421323D01*
X341578Y422518D01*
Y423811D01*
X341083Y425005D01*
X340169Y425919D01*
X338974Y426414D01*
D02*
G37*
G36*
X400443Y418794D02*
X399150D01*
X397955Y418299D01*
X397041Y417385D01*
X396546Y416190D01*
Y414897D01*
X397041Y413703D01*
X397955Y412789D01*
X399150Y412294D01*
X400443D01*
X401637Y412789D01*
X402551Y413703D01*
X403046Y414897D01*
Y416190D01*
X402551Y417385D01*
X401637Y418299D01*
X400443Y418794D01*
D02*
G37*
G36*
X260996D02*
X259704D01*
X258509Y418299D01*
X257595Y417385D01*
X257100Y416190D01*
Y414897D01*
X257595Y413703D01*
X258509Y412789D01*
X259704Y412294D01*
X260996D01*
X262191Y412789D01*
X263105Y413703D01*
X263600Y414897D01*
Y416190D01*
X263105Y417385D01*
X262191Y418299D01*
X260996Y418794D01*
D02*
G37*
G36*
X231024D02*
X229732D01*
X228537Y418299D01*
X227623Y417385D01*
X227128Y416190D01*
Y414897D01*
X227623Y413703D01*
X228537Y412789D01*
X229732Y412294D01*
X231024D01*
X232219Y412789D01*
X233133Y413703D01*
X233628Y414897D01*
Y416190D01*
X233133Y417385D01*
X232219Y418299D01*
X231024Y418794D01*
D02*
G37*
G36*
X200798Y418540D02*
X199506D01*
X198311Y418045D01*
X197397Y417131D01*
X196902Y415937D01*
Y414644D01*
X197397Y413449D01*
X198311Y412535D01*
X199506Y412040D01*
X200798D01*
X201993Y412535D01*
X202907Y413449D01*
X203402Y414644D01*
Y415937D01*
X202907Y417131D01*
X201993Y418045D01*
X200798Y418540D01*
D02*
G37*
G36*
X718997Y420700D02*
X716611D01*
X714405Y419786D01*
X712718Y418099D01*
X711804Y415894D01*
Y413507D01*
X712718Y411301D01*
X714405Y409613D01*
X716611Y408700D01*
X718997D01*
X721203Y409613D01*
X722891Y411301D01*
X723804Y413507D01*
Y415894D01*
X722891Y418099D01*
X721203Y419786D01*
X718997Y420700D01*
D02*
G37*
G36*
X131456Y414730D02*
X130163D01*
X128969Y414235D01*
X128055Y413321D01*
X127560Y412127D01*
Y410834D01*
X128055Y409639D01*
X128969Y408725D01*
X130163Y408230D01*
X131456D01*
X132651Y408725D01*
X133565Y409639D01*
X134060Y410834D01*
Y412127D01*
X133565Y413321D01*
X132651Y414235D01*
X131456Y414730D01*
D02*
G37*
G36*
X410349Y414222D02*
X409055D01*
X407861Y413727D01*
X406947Y412813D01*
X406452Y411618D01*
Y410326D01*
X406947Y409131D01*
X407861Y408217D01*
X409055Y407722D01*
X410349D01*
X411543Y408217D01*
X412457Y409131D01*
X412952Y410326D01*
Y411618D01*
X412457Y412813D01*
X411543Y413727D01*
X410349Y414222D01*
D02*
G37*
G36*
X663107Y413570D02*
X661814D01*
X660619Y413075D01*
X659705Y412161D01*
X659210Y410966D01*
Y409674D01*
X659705Y408479D01*
X660619Y407565D01*
X661814Y407070D01*
X663107D01*
X664301Y407565D01*
X665215Y408479D01*
X665710Y409674D01*
Y410966D01*
X665215Y412161D01*
X664301Y413075D01*
X663107Y413570D01*
D02*
G37*
G36*
X638106D02*
X636814D01*
X635619Y413075D01*
X634705Y412161D01*
X634210Y410966D01*
Y409674D01*
X634705Y408479D01*
X635619Y407565D01*
X636814Y407070D01*
X638106D01*
X639301Y407565D01*
X640215Y408479D01*
X640710Y409674D01*
Y410966D01*
X640215Y412161D01*
X639301Y413075D01*
X638106Y413570D01*
D02*
G37*
G36*
X613106D02*
X611814D01*
X610619Y413075D01*
X609705Y412161D01*
X609210Y410966D01*
Y409674D01*
X609705Y408479D01*
X610619Y407565D01*
X611814Y407070D01*
X613106D01*
X614301Y407565D01*
X615215Y408479D01*
X615710Y409674D01*
Y410966D01*
X615215Y412161D01*
X614301Y413075D01*
X613106Y413570D01*
D02*
G37*
G36*
X588106D02*
X586814D01*
X585619Y413075D01*
X584705Y412161D01*
X584210Y410966D01*
Y409674D01*
X584705Y408479D01*
X585619Y407565D01*
X586814Y407070D01*
X588106D01*
X589301Y407565D01*
X590215Y408479D01*
X590710Y409674D01*
Y410966D01*
X590215Y412161D01*
X589301Y413075D01*
X588106Y413570D01*
D02*
G37*
G36*
X563106D02*
X561814D01*
X560619Y413075D01*
X559705Y412161D01*
X559210Y410966D01*
Y409674D01*
X559705Y408479D01*
X560619Y407565D01*
X561814Y407070D01*
X563106D01*
X564301Y407565D01*
X565215Y408479D01*
X565710Y409674D01*
Y410966D01*
X565215Y412161D01*
X564301Y413075D01*
X563106Y413570D01*
D02*
G37*
G36*
X538106D02*
X536814D01*
X535619Y413075D01*
X534705Y412161D01*
X534210Y410966D01*
Y409674D01*
X534705Y408479D01*
X535619Y407565D01*
X536814Y407070D01*
X538106D01*
X539301Y407565D01*
X540215Y408479D01*
X540710Y409674D01*
Y410966D01*
X540215Y412161D01*
X539301Y413075D01*
X538106Y413570D01*
D02*
G37*
G36*
X513106D02*
X511814D01*
X510619Y413075D01*
X509705Y412161D01*
X509210Y410966D01*
Y409674D01*
X509705Y408479D01*
X510619Y407565D01*
X511814Y407070D01*
X513106D01*
X514301Y407565D01*
X515215Y408479D01*
X515710Y409674D01*
Y410966D01*
X515215Y412161D01*
X514301Y413075D01*
X513106Y413570D01*
D02*
G37*
G36*
X488106D02*
X486814D01*
X485619Y413075D01*
X484705Y412161D01*
X484210Y410966D01*
Y409674D01*
X484705Y408479D01*
X485619Y407565D01*
X486814Y407070D01*
X488106D01*
X489301Y407565D01*
X490215Y408479D01*
X490710Y409674D01*
Y410966D01*
X490215Y412161D01*
X489301Y413075D01*
X488106Y413570D01*
D02*
G37*
G36*
X463106D02*
X461814D01*
X460619Y413075D01*
X459705Y412161D01*
X459210Y410966D01*
Y409674D01*
X459705Y408479D01*
X460619Y407565D01*
X461814Y407070D01*
X463106D01*
X464301Y407565D01*
X465215Y408479D01*
X465710Y409674D01*
Y410966D01*
X465215Y412161D01*
X464301Y413075D01*
X463106Y413570D01*
D02*
G37*
G36*
X438106D02*
X436814D01*
X435619Y413075D01*
X434705Y412161D01*
X434210Y410966D01*
Y409674D01*
X434705Y408479D01*
X435619Y407565D01*
X436814Y407070D01*
X438106D01*
X439301Y407565D01*
X440215Y408479D01*
X440710Y409674D01*
Y410966D01*
X440215Y412161D01*
X439301Y413075D01*
X438106Y413570D01*
D02*
G37*
G36*
X163106D02*
X161814D01*
X160619Y413075D01*
X159705Y412161D01*
X159210Y410966D01*
Y409674D01*
X159705Y408479D01*
X160619Y407565D01*
X161814Y407070D01*
X163106D01*
X164301Y407565D01*
X165215Y408479D01*
X165710Y409674D01*
Y410966D01*
X165215Y412161D01*
X164301Y413075D01*
X163106Y413570D01*
D02*
G37*
G36*
X421017Y408126D02*
X419724D01*
X418529Y407631D01*
X417615Y406717D01*
X417120Y405522D01*
Y404230D01*
X417615Y403035D01*
X418529Y402121D01*
X419724Y401626D01*
X421017D01*
X422211Y402121D01*
X423125Y403035D01*
X423620Y404230D01*
Y405522D01*
X423125Y406717D01*
X422211Y407631D01*
X421017Y408126D01*
D02*
G37*
G36*
X246772Y389838D02*
X245480D01*
X244285Y389343D01*
X243371Y388429D01*
X242876Y387234D01*
Y385942D01*
X243371Y384747D01*
X244285Y383833D01*
X245480Y383338D01*
X246772D01*
X247967Y383833D01*
X248881Y384747D01*
X249376Y385942D01*
Y387234D01*
X248881Y388429D01*
X247967Y389343D01*
X246772Y389838D01*
D02*
G37*
G36*
X718997Y395300D02*
X716611D01*
X714405Y394386D01*
X712718Y392699D01*
X711804Y390493D01*
Y388106D01*
X712718Y385901D01*
X714405Y384213D01*
X716611Y383300D01*
X718997D01*
X721203Y384213D01*
X722891Y385901D01*
X723804Y388106D01*
Y390493D01*
X722891Y392699D01*
X721203Y394386D01*
X718997Y395300D01*
D02*
G37*
G36*
X263530Y364685D02*
X262237D01*
X261042Y364190D01*
X260128Y363276D01*
X259633Y362082D01*
Y360789D01*
X260128Y359594D01*
X261042Y358680D01*
X262237Y358185D01*
X263530D01*
X264724Y358680D01*
X265639Y359594D01*
X266133Y360789D01*
Y362082D01*
X265639Y363276D01*
X264724Y364190D01*
X263530Y364685D01*
D02*
G37*
G36*
X718997Y369900D02*
X716611D01*
X714405Y368987D01*
X712718Y367299D01*
X711804Y365093D01*
Y362706D01*
X712718Y360501D01*
X714405Y358813D01*
X716611Y357900D01*
X718997D01*
X721203Y358813D01*
X722891Y360501D01*
X723804Y362706D01*
Y365093D01*
X722891Y367299D01*
X721203Y368987D01*
X718997Y369900D01*
D02*
G37*
G36*
X211213Y343864D02*
X209919D01*
X208725Y343369D01*
X207811Y342455D01*
X207316Y341260D01*
Y339967D01*
X207811Y338773D01*
X208725Y337859D01*
X209919Y337364D01*
X211213D01*
X212407Y337859D01*
X213321Y338773D01*
X213816Y339967D01*
Y341260D01*
X213321Y342455D01*
X212407Y343369D01*
X211213Y343864D01*
D02*
G37*
G36*
X184289D02*
X182995D01*
X181801Y343369D01*
X180887Y342455D01*
X180392Y341260D01*
Y339967D01*
X180887Y338773D01*
X181801Y337859D01*
X182995Y337364D01*
X184289D01*
X185483Y337859D01*
X186397Y338773D01*
X186892Y339967D01*
Y341260D01*
X186397Y342455D01*
X185483Y343369D01*
X184289Y343864D01*
D02*
G37*
G36*
X718997Y344500D02*
X716611D01*
X714405Y343587D01*
X712718Y341899D01*
X711804Y339693D01*
Y337307D01*
X712718Y335101D01*
X714405Y333413D01*
X716611Y332500D01*
X718997D01*
X721203Y333413D01*
X722891Y335101D01*
X723804Y337307D01*
Y339693D01*
X722891Y341899D01*
X721203Y343587D01*
X718997Y344500D01*
D02*
G37*
G36*
X675607Y338570D02*
X674314D01*
X673119Y338075D01*
X672205Y337161D01*
X671710Y335966D01*
Y334674D01*
X672205Y333479D01*
X673119Y332565D01*
X674314Y332070D01*
X675607D01*
X676801Y332565D01*
X677715Y333479D01*
X678210Y334674D01*
Y335966D01*
X677715Y337161D01*
X676801Y338075D01*
X675607Y338570D01*
D02*
G37*
G36*
X650607D02*
X649314D01*
X648119Y338075D01*
X647205Y337161D01*
X646710Y335966D01*
Y334674D01*
X647205Y333479D01*
X648119Y332565D01*
X649314Y332070D01*
X650607D01*
X651801Y332565D01*
X652715Y333479D01*
X653210Y334674D01*
Y335966D01*
X652715Y337161D01*
X651801Y338075D01*
X650607Y338570D01*
D02*
G37*
G36*
X625606D02*
X624314D01*
X623119Y338075D01*
X622205Y337161D01*
X621710Y335966D01*
Y334674D01*
X622205Y333479D01*
X623119Y332565D01*
X624314Y332070D01*
X625606D01*
X626801Y332565D01*
X627715Y333479D01*
X628210Y334674D01*
Y335966D01*
X627715Y337161D01*
X626801Y338075D01*
X625606Y338570D01*
D02*
G37*
G36*
X600606D02*
X599314D01*
X598119Y338075D01*
X597205Y337161D01*
X596710Y335966D01*
Y334674D01*
X597205Y333479D01*
X598119Y332565D01*
X599314Y332070D01*
X600606D01*
X601801Y332565D01*
X602715Y333479D01*
X603210Y334674D01*
Y335966D01*
X602715Y337161D01*
X601801Y338075D01*
X600606Y338570D01*
D02*
G37*
G36*
X575606D02*
X574314D01*
X573119Y338075D01*
X572205Y337161D01*
X571710Y335966D01*
Y334674D01*
X572205Y333479D01*
X573119Y332565D01*
X574314Y332070D01*
X575606D01*
X576801Y332565D01*
X577715Y333479D01*
X578210Y334674D01*
Y335966D01*
X577715Y337161D01*
X576801Y338075D01*
X575606Y338570D01*
D02*
G37*
G36*
X550606D02*
X549314D01*
X548119Y338075D01*
X547205Y337161D01*
X546710Y335966D01*
Y334674D01*
X547205Y333479D01*
X548119Y332565D01*
X549314Y332070D01*
X550606D01*
X551801Y332565D01*
X552715Y333479D01*
X553210Y334674D01*
Y335966D01*
X552715Y337161D01*
X551801Y338075D01*
X550606Y338570D01*
D02*
G37*
G36*
X525606D02*
X524314D01*
X523119Y338075D01*
X522205Y337161D01*
X521710Y335966D01*
Y334674D01*
X522205Y333479D01*
X523119Y332565D01*
X524314Y332070D01*
X525606D01*
X526801Y332565D01*
X527715Y333479D01*
X528210Y334674D01*
Y335966D01*
X527715Y337161D01*
X526801Y338075D01*
X525606Y338570D01*
D02*
G37*
G36*
X500606D02*
X499314D01*
X498119Y338075D01*
X497205Y337161D01*
X496710Y335966D01*
Y334674D01*
X497205Y333479D01*
X498119Y332565D01*
X499314Y332070D01*
X500606D01*
X501801Y332565D01*
X502715Y333479D01*
X503210Y334674D01*
Y335966D01*
X502715Y337161D01*
X501801Y338075D01*
X500606Y338570D01*
D02*
G37*
G36*
X475606D02*
X474314D01*
X473119Y338075D01*
X472205Y337161D01*
X471710Y335966D01*
Y334674D01*
X472205Y333479D01*
X473119Y332565D01*
X474314Y332070D01*
X475606D01*
X476801Y332565D01*
X477715Y333479D01*
X478210Y334674D01*
Y335966D01*
X477715Y337161D01*
X476801Y338075D01*
X475606Y338570D01*
D02*
G37*
G36*
X450606D02*
X449314D01*
X448119Y338075D01*
X447205Y337161D01*
X446710Y335966D01*
Y334674D01*
X447205Y333479D01*
X448119Y332565D01*
X449314Y332070D01*
X450606D01*
X451801Y332565D01*
X452715Y333479D01*
X453210Y334674D01*
Y335966D01*
X452715Y337161D01*
X451801Y338075D01*
X450606Y338570D01*
D02*
G37*
G36*
X425606D02*
X424314D01*
X423119Y338075D01*
X422205Y337161D01*
X421710Y335966D01*
Y334674D01*
X422205Y333479D01*
X423119Y332565D01*
X424314Y332070D01*
X425606D01*
X426801Y332565D01*
X427715Y333479D01*
X428210Y334674D01*
Y335966D01*
X427715Y337161D01*
X426801Y338075D01*
X425606Y338570D01*
D02*
G37*
G36*
X400606D02*
X399314D01*
X398119Y338075D01*
X397205Y337161D01*
X396710Y335966D01*
Y334674D01*
X397205Y333479D01*
X398119Y332565D01*
X399314Y332070D01*
X400606D01*
X401801Y332565D01*
X402715Y333479D01*
X403210Y334674D01*
Y335966D01*
X402715Y337161D01*
X401801Y338075D01*
X400606Y338570D01*
D02*
G37*
G36*
X375606D02*
X374314D01*
X373119Y338075D01*
X372205Y337161D01*
X371710Y335966D01*
Y334674D01*
X372205Y333479D01*
X373119Y332565D01*
X374314Y332070D01*
X375606D01*
X376801Y332565D01*
X377715Y333479D01*
X378210Y334674D01*
Y335966D01*
X377715Y337161D01*
X376801Y338075D01*
X375606Y338570D01*
D02*
G37*
G36*
X350606D02*
X349314D01*
X348119Y338075D01*
X347205Y337161D01*
X346710Y335966D01*
Y334674D01*
X347205Y333479D01*
X348119Y332565D01*
X349314Y332070D01*
X350606D01*
X351801Y332565D01*
X352715Y333479D01*
X353210Y334674D01*
Y335966D01*
X352715Y337161D01*
X351801Y338075D01*
X350606Y338570D01*
D02*
G37*
G36*
X331354Y337768D02*
X330061D01*
X328867Y337273D01*
X327953Y336359D01*
X327458Y335164D01*
Y333871D01*
X327953Y332677D01*
X328867Y331763D01*
X330061Y331268D01*
X331354D01*
X332549Y331763D01*
X333463Y332677D01*
X333958Y333871D01*
Y335164D01*
X333463Y336359D01*
X332549Y337273D01*
X331354Y337768D01*
D02*
G37*
G36*
X285634D02*
X284342D01*
X283147Y337273D01*
X282233Y336359D01*
X281738Y335164D01*
Y333871D01*
X282233Y332677D01*
X283147Y331763D01*
X284342Y331268D01*
X285634D01*
X286829Y331763D01*
X287743Y332677D01*
X288238Y333871D01*
Y335164D01*
X287743Y336359D01*
X286829Y337273D01*
X285634Y337768D01*
D02*
G37*
G36*
X218578Y336498D02*
X217285D01*
X216091Y336003D01*
X215177Y335089D01*
X214682Y333895D01*
Y332602D01*
X215177Y331407D01*
X216091Y330493D01*
X217285Y329998D01*
X218578D01*
X219773Y330493D01*
X220687Y331407D01*
X221182Y332602D01*
Y333895D01*
X220687Y335089D01*
X219773Y336003D01*
X218578Y336498D01*
D02*
G37*
G36*
X173367Y333958D02*
X172073D01*
X170879Y333463D01*
X169965Y332549D01*
X169470Y331354D01*
Y330061D01*
X169965Y328867D01*
X170879Y327953D01*
X172073Y327458D01*
X173367D01*
X174561Y327953D01*
X175475Y328867D01*
X175970Y330061D01*
Y331354D01*
X175475Y332549D01*
X174561Y333463D01*
X173367Y333958D01*
D02*
G37*
G36*
X249566Y331164D02*
X248274D01*
X247079Y330669D01*
X246165Y329755D01*
X245670Y328560D01*
Y327267D01*
X246165Y326073D01*
X247079Y325159D01*
X248274Y324664D01*
X249566D01*
X250761Y325159D01*
X251675Y326073D01*
X252170Y327267D01*
Y328560D01*
X251675Y329755D01*
X250761Y330669D01*
X249566Y331164D01*
D02*
G37*
G36*
X289953Y323925D02*
X288659D01*
X287465Y323430D01*
X286551Y322516D01*
X286056Y321321D01*
Y320028D01*
X286551Y318834D01*
X287465Y317920D01*
X288659Y317425D01*
X289953D01*
X291147Y317920D01*
X292061Y318834D01*
X292556Y320028D01*
Y321321D01*
X292061Y322516D01*
X291147Y323430D01*
X289953Y323925D01*
D02*
G37*
G36*
X331354Y323036D02*
X330061D01*
X328867Y322541D01*
X327953Y321627D01*
X327458Y320433D01*
Y319139D01*
X327953Y317945D01*
X328867Y317031D01*
X330061Y316536D01*
X331354D01*
X332549Y317031D01*
X333463Y317945D01*
X333958Y319139D01*
Y320433D01*
X333463Y321627D01*
X332549Y322541D01*
X331354Y323036D01*
D02*
G37*
G36*
X272173Y320750D02*
X270879D01*
X269685Y320255D01*
X268771Y319341D01*
X268276Y318146D01*
Y316854D01*
X268771Y315659D01*
X269685Y314745D01*
X270879Y314250D01*
X272173D01*
X273367Y314745D01*
X274281Y315659D01*
X274776Y316854D01*
Y318146D01*
X274281Y319341D01*
X273367Y320255D01*
X272173Y320750D01*
D02*
G37*
G36*
X718997Y319100D02*
X716611D01*
X714405Y318186D01*
X712718Y316499D01*
X711804Y314293D01*
Y311907D01*
X712718Y309701D01*
X714405Y308013D01*
X716611Y307100D01*
X718997D01*
X721203Y308013D01*
X722891Y309701D01*
X723804Y311907D01*
Y314293D01*
X722891Y316499D01*
X721203Y318186D01*
X718997Y319100D01*
D02*
G37*
G36*
X688107Y313570D02*
X686814D01*
X685619Y313075D01*
X684705Y312161D01*
X684210Y310966D01*
Y309674D01*
X684705Y308479D01*
X685619Y307565D01*
X686814Y307070D01*
X688107D01*
X689301Y307565D01*
X690215Y308479D01*
X690710Y309674D01*
Y310966D01*
X690215Y312161D01*
X689301Y313075D01*
X688107Y313570D01*
D02*
G37*
G36*
X663107D02*
X661814D01*
X660619Y313075D01*
X659705Y312161D01*
X659210Y310966D01*
Y309674D01*
X659705Y308479D01*
X660619Y307565D01*
X661814Y307070D01*
X663107D01*
X664301Y307565D01*
X665215Y308479D01*
X665710Y309674D01*
Y310966D01*
X665215Y312161D01*
X664301Y313075D01*
X663107Y313570D01*
D02*
G37*
G36*
X638106D02*
X636814D01*
X635619Y313075D01*
X634705Y312161D01*
X634210Y310966D01*
Y309674D01*
X634705Y308479D01*
X635619Y307565D01*
X636814Y307070D01*
X638106D01*
X639301Y307565D01*
X640215Y308479D01*
X640710Y309674D01*
Y310966D01*
X640215Y312161D01*
X639301Y313075D01*
X638106Y313570D01*
D02*
G37*
G36*
X613106D02*
X611814D01*
X610619Y313075D01*
X609705Y312161D01*
X609210Y310966D01*
Y309674D01*
X609705Y308479D01*
X610619Y307565D01*
X611814Y307070D01*
X613106D01*
X614301Y307565D01*
X615215Y308479D01*
X615710Y309674D01*
Y310966D01*
X615215Y312161D01*
X614301Y313075D01*
X613106Y313570D01*
D02*
G37*
G36*
X588106D02*
X586814D01*
X585619Y313075D01*
X584705Y312161D01*
X584210Y310966D01*
Y309674D01*
X584705Y308479D01*
X585619Y307565D01*
X586814Y307070D01*
X588106D01*
X589301Y307565D01*
X590215Y308479D01*
X590710Y309674D01*
Y310966D01*
X590215Y312161D01*
X589301Y313075D01*
X588106Y313570D01*
D02*
G37*
G36*
X563106D02*
X561814D01*
X560619Y313075D01*
X559705Y312161D01*
X559210Y310966D01*
Y309674D01*
X559705Y308479D01*
X560619Y307565D01*
X561814Y307070D01*
X563106D01*
X564301Y307565D01*
X565215Y308479D01*
X565710Y309674D01*
Y310966D01*
X565215Y312161D01*
X564301Y313075D01*
X563106Y313570D01*
D02*
G37*
G36*
X538106D02*
X536814D01*
X535619Y313075D01*
X534705Y312161D01*
X534210Y310966D01*
Y309674D01*
X534705Y308479D01*
X535619Y307565D01*
X536814Y307070D01*
X538106D01*
X539301Y307565D01*
X540215Y308479D01*
X540710Y309674D01*
Y310966D01*
X540215Y312161D01*
X539301Y313075D01*
X538106Y313570D01*
D02*
G37*
G36*
X513106D02*
X511814D01*
X510619Y313075D01*
X509705Y312161D01*
X509210Y310966D01*
Y309674D01*
X509705Y308479D01*
X510619Y307565D01*
X511814Y307070D01*
X513106D01*
X514301Y307565D01*
X515215Y308479D01*
X515710Y309674D01*
Y310966D01*
X515215Y312161D01*
X514301Y313075D01*
X513106Y313570D01*
D02*
G37*
G36*
X488106D02*
X486814D01*
X485619Y313075D01*
X484705Y312161D01*
X484210Y310966D01*
Y309674D01*
X484705Y308479D01*
X485619Y307565D01*
X486814Y307070D01*
X488106D01*
X489301Y307565D01*
X490215Y308479D01*
X490710Y309674D01*
Y310966D01*
X490215Y312161D01*
X489301Y313075D01*
X488106Y313570D01*
D02*
G37*
G36*
X463106D02*
X461814D01*
X460619Y313075D01*
X459705Y312161D01*
X459210Y310966D01*
Y309674D01*
X459705Y308479D01*
X460619Y307565D01*
X461814Y307070D01*
X463106D01*
X464301Y307565D01*
X465215Y308479D01*
X465710Y309674D01*
Y310966D01*
X465215Y312161D01*
X464301Y313075D01*
X463106Y313570D01*
D02*
G37*
G36*
X438106D02*
X436814D01*
X435619Y313075D01*
X434705Y312161D01*
X434210Y310966D01*
Y309674D01*
X434705Y308479D01*
X435619Y307565D01*
X436814Y307070D01*
X438106D01*
X439301Y307565D01*
X440215Y308479D01*
X440710Y309674D01*
Y310966D01*
X440215Y312161D01*
X439301Y313075D01*
X438106Y313570D01*
D02*
G37*
G36*
X413106D02*
X411814D01*
X410619Y313075D01*
X409705Y312161D01*
X409210Y310966D01*
Y309674D01*
X409705Y308479D01*
X410619Y307565D01*
X411814Y307070D01*
X413106D01*
X414301Y307565D01*
X415215Y308479D01*
X415710Y309674D01*
Y310966D01*
X415215Y312161D01*
X414301Y313075D01*
X413106Y313570D01*
D02*
G37*
G36*
X388106D02*
X386814D01*
X385619Y313075D01*
X384705Y312161D01*
X384210Y310966D01*
Y309674D01*
X384705Y308479D01*
X385619Y307565D01*
X386814Y307070D01*
X388106D01*
X389301Y307565D01*
X390215Y308479D01*
X390710Y309674D01*
Y310966D01*
X390215Y312161D01*
X389301Y313075D01*
X388106Y313570D01*
D02*
G37*
G36*
X363106D02*
X361814D01*
X360619Y313075D01*
X359705Y312161D01*
X359210Y310966D01*
Y309674D01*
X359705Y308479D01*
X360619Y307565D01*
X361814Y307070D01*
X363106D01*
X364301Y307565D01*
X365215Y308479D01*
X365710Y309674D01*
Y310966D01*
X365215Y312161D01*
X364301Y313075D01*
X363106Y313570D01*
D02*
G37*
G36*
X313106D02*
X311814D01*
X310619Y313075D01*
X309705Y312161D01*
X309210Y310966D01*
Y309674D01*
X309705Y308479D01*
X310619Y307565D01*
X311814Y307070D01*
X313106D01*
X314301Y307565D01*
X315215Y308479D01*
X315710Y309674D01*
Y310966D01*
X315215Y312161D01*
X314301Y313075D01*
X313106Y313570D01*
D02*
G37*
G36*
X119773Y311352D02*
X118479D01*
X117285Y310857D01*
X116371Y309943D01*
X115876Y308748D01*
Y307456D01*
X116371Y306261D01*
X117285Y305347D01*
X118479Y304852D01*
X119773D01*
X120967Y305347D01*
X121881Y306261D01*
X122376Y307456D01*
Y308748D01*
X121881Y309943D01*
X120967Y310857D01*
X119773Y311352D01*
D02*
G37*
G36*
X274713Y307034D02*
X273419D01*
X272225Y306539D01*
X271311Y305625D01*
X270816Y304431D01*
Y303137D01*
X271311Y301943D01*
X272225Y301029D01*
X273419Y300534D01*
X274713D01*
X275907Y301029D01*
X276821Y301943D01*
X277316Y303137D01*
Y304431D01*
X276821Y305625D01*
X275907Y306539D01*
X274713Y307034D01*
D02*
G37*
G36*
X291476Y306780D02*
X290184D01*
X288989Y306285D01*
X288075Y305371D01*
X287580Y304177D01*
Y302883D01*
X288075Y301689D01*
X288989Y300775D01*
X290184Y300280D01*
X291476D01*
X292671Y300775D01*
X293585Y301689D01*
X294080Y302883D01*
Y304177D01*
X293585Y305371D01*
X292671Y306285D01*
X291476Y306780D01*
D02*
G37*
G36*
X675607Y288570D02*
X674314D01*
X673119Y288075D01*
X672205Y287161D01*
X671710Y285966D01*
Y284674D01*
X672205Y283479D01*
X673119Y282565D01*
X674314Y282070D01*
X675607D01*
X676801Y282565D01*
X677715Y283479D01*
X678210Y284674D01*
Y285966D01*
X677715Y287161D01*
X676801Y288075D01*
X675607Y288570D01*
D02*
G37*
G36*
X650607D02*
X649314D01*
X648119Y288075D01*
X647205Y287161D01*
X646710Y285966D01*
Y284674D01*
X647205Y283479D01*
X648119Y282565D01*
X649314Y282070D01*
X650607D01*
X651801Y282565D01*
X652715Y283479D01*
X653210Y284674D01*
Y285966D01*
X652715Y287161D01*
X651801Y288075D01*
X650607Y288570D01*
D02*
G37*
G36*
X625606D02*
X624314D01*
X623119Y288075D01*
X622205Y287161D01*
X621710Y285966D01*
Y284674D01*
X622205Y283479D01*
X623119Y282565D01*
X624314Y282070D01*
X625606D01*
X626801Y282565D01*
X627715Y283479D01*
X628210Y284674D01*
Y285966D01*
X627715Y287161D01*
X626801Y288075D01*
X625606Y288570D01*
D02*
G37*
G36*
X600606D02*
X599314D01*
X598119Y288075D01*
X597205Y287161D01*
X596710Y285966D01*
Y284674D01*
X597205Y283479D01*
X598119Y282565D01*
X599314Y282070D01*
X600606D01*
X601801Y282565D01*
X602715Y283479D01*
X603210Y284674D01*
Y285966D01*
X602715Y287161D01*
X601801Y288075D01*
X600606Y288570D01*
D02*
G37*
G36*
X575606D02*
X574314D01*
X573119Y288075D01*
X572205Y287161D01*
X571710Y285966D01*
Y284674D01*
X572205Y283479D01*
X573119Y282565D01*
X574314Y282070D01*
X575606D01*
X576801Y282565D01*
X577715Y283479D01*
X578210Y284674D01*
Y285966D01*
X577715Y287161D01*
X576801Y288075D01*
X575606Y288570D01*
D02*
G37*
G36*
X550606D02*
X549314D01*
X548119Y288075D01*
X547205Y287161D01*
X546710Y285966D01*
Y284674D01*
X547205Y283479D01*
X548119Y282565D01*
X549314Y282070D01*
X550606D01*
X551801Y282565D01*
X552715Y283479D01*
X553210Y284674D01*
Y285966D01*
X552715Y287161D01*
X551801Y288075D01*
X550606Y288570D01*
D02*
G37*
G36*
X525606D02*
X524314D01*
X523119Y288075D01*
X522205Y287161D01*
X521710Y285966D01*
Y284674D01*
X522205Y283479D01*
X523119Y282565D01*
X524314Y282070D01*
X525606D01*
X526801Y282565D01*
X527715Y283479D01*
X528210Y284674D01*
Y285966D01*
X527715Y287161D01*
X526801Y288075D01*
X525606Y288570D01*
D02*
G37*
G36*
X500606D02*
X499314D01*
X498119Y288075D01*
X497205Y287161D01*
X496710Y285966D01*
Y284674D01*
X497205Y283479D01*
X498119Y282565D01*
X499314Y282070D01*
X500606D01*
X501801Y282565D01*
X502715Y283479D01*
X503210Y284674D01*
Y285966D01*
X502715Y287161D01*
X501801Y288075D01*
X500606Y288570D01*
D02*
G37*
G36*
X475606D02*
X474314D01*
X473119Y288075D01*
X472205Y287161D01*
X471710Y285966D01*
Y284674D01*
X472205Y283479D01*
X473119Y282565D01*
X474314Y282070D01*
X475606D01*
X476801Y282565D01*
X477715Y283479D01*
X478210Y284674D01*
Y285966D01*
X477715Y287161D01*
X476801Y288075D01*
X475606Y288570D01*
D02*
G37*
G36*
X450606D02*
X449314D01*
X448119Y288075D01*
X447205Y287161D01*
X446710Y285966D01*
Y284674D01*
X447205Y283479D01*
X448119Y282565D01*
X449314Y282070D01*
X450606D01*
X451801Y282565D01*
X452715Y283479D01*
X453210Y284674D01*
Y285966D01*
X452715Y287161D01*
X451801Y288075D01*
X450606Y288570D01*
D02*
G37*
G36*
X425606D02*
X424314D01*
X423119Y288075D01*
X422205Y287161D01*
X421710Y285966D01*
Y284674D01*
X422205Y283479D01*
X423119Y282565D01*
X424314Y282070D01*
X425606D01*
X426801Y282565D01*
X427715Y283479D01*
X428210Y284674D01*
Y285966D01*
X427715Y287161D01*
X426801Y288075D01*
X425606Y288570D01*
D02*
G37*
G36*
X400606D02*
X399314D01*
X398119Y288075D01*
X397205Y287161D01*
X396710Y285966D01*
Y284674D01*
X397205Y283479D01*
X398119Y282565D01*
X399314Y282070D01*
X400606D01*
X401801Y282565D01*
X402715Y283479D01*
X403210Y284674D01*
Y285966D01*
X402715Y287161D01*
X401801Y288075D01*
X400606Y288570D01*
D02*
G37*
G36*
X375606D02*
X374314D01*
X373119Y288075D01*
X372205Y287161D01*
X371710Y285966D01*
Y284674D01*
X372205Y283479D01*
X373119Y282565D01*
X374314Y282070D01*
X375606D01*
X376801Y282565D01*
X377715Y283479D01*
X378210Y284674D01*
Y285966D01*
X377715Y287161D01*
X376801Y288075D01*
X375606Y288570D01*
D02*
G37*
G36*
X350606D02*
X349314D01*
X348119Y288075D01*
X347205Y287161D01*
X346710Y285966D01*
Y284674D01*
X347205Y283479D01*
X348119Y282565D01*
X349314Y282070D01*
X350606D01*
X351801Y282565D01*
X352715Y283479D01*
X353210Y284674D01*
Y285966D01*
X352715Y287161D01*
X351801Y288075D01*
X350606Y288570D01*
D02*
G37*
G36*
X325606D02*
X324314D01*
X323119Y288075D01*
X322205Y287161D01*
X321710Y285966D01*
Y284674D01*
X322205Y283479D01*
X323119Y282565D01*
X324314Y282070D01*
X325606D01*
X326801Y282565D01*
X327715Y283479D01*
X328210Y284674D01*
Y285966D01*
X327715Y287161D01*
X326801Y288075D01*
X325606Y288570D01*
D02*
G37*
G36*
X718997Y293700D02*
X716611D01*
X714405Y292787D01*
X712718Y291099D01*
X711804Y288894D01*
Y286507D01*
X712718Y284301D01*
X714405Y282613D01*
X716611Y281700D01*
X718997D01*
X721203Y282613D01*
X722891Y284301D01*
X723804Y286507D01*
Y288894D01*
X722891Y291099D01*
X721203Y292787D01*
X718997Y293700D01*
D02*
G37*
G36*
X272173Y284682D02*
X270879D01*
X269685Y284187D01*
X268771Y283273D01*
X268276Y282078D01*
Y280786D01*
X268771Y279591D01*
X269685Y278677D01*
X270879Y278182D01*
X272173D01*
X273367Y278677D01*
X274281Y279591D01*
X274776Y280786D01*
Y282078D01*
X274281Y283273D01*
X273367Y284187D01*
X272173Y284682D01*
D02*
G37*
G36*
X299604Y265124D02*
X298312D01*
X297117Y264629D01*
X296203Y263715D01*
X295708Y262521D01*
Y261227D01*
X296203Y260033D01*
X297117Y259119D01*
X298312Y258624D01*
X299604D01*
X300799Y259119D01*
X301713Y260033D01*
X302208Y261227D01*
Y262521D01*
X301713Y263715D01*
X300799Y264629D01*
X299604Y265124D01*
D02*
G37*
G36*
X638106Y263570D02*
X636814D01*
X635619Y263075D01*
X634705Y262161D01*
X634210Y260966D01*
Y259674D01*
X634705Y258479D01*
X635619Y257565D01*
X636814Y257070D01*
X638106D01*
X639301Y257565D01*
X640215Y258479D01*
X640710Y259674D01*
Y260966D01*
X640215Y262161D01*
X639301Y263075D01*
X638106Y263570D01*
D02*
G37*
G36*
X613106D02*
X611814D01*
X610619Y263075D01*
X609705Y262161D01*
X609210Y260966D01*
Y259674D01*
X609705Y258479D01*
X610619Y257565D01*
X611814Y257070D01*
X613106D01*
X614301Y257565D01*
X615215Y258479D01*
X615710Y259674D01*
Y260966D01*
X615215Y262161D01*
X614301Y263075D01*
X613106Y263570D01*
D02*
G37*
G36*
X588106D02*
X586814D01*
X585619Y263075D01*
X584705Y262161D01*
X584210Y260966D01*
Y259674D01*
X584705Y258479D01*
X585619Y257565D01*
X586814Y257070D01*
X588106D01*
X589301Y257565D01*
X590215Y258479D01*
X590710Y259674D01*
Y260966D01*
X590215Y262161D01*
X589301Y263075D01*
X588106Y263570D01*
D02*
G37*
G36*
X563106D02*
X561814D01*
X560619Y263075D01*
X559705Y262161D01*
X559210Y260966D01*
Y259674D01*
X559705Y258479D01*
X560619Y257565D01*
X561814Y257070D01*
X563106D01*
X564301Y257565D01*
X565215Y258479D01*
X565710Y259674D01*
Y260966D01*
X565215Y262161D01*
X564301Y263075D01*
X563106Y263570D01*
D02*
G37*
G36*
X538106D02*
X536814D01*
X535619Y263075D01*
X534705Y262161D01*
X534210Y260966D01*
Y259674D01*
X534705Y258479D01*
X535619Y257565D01*
X536814Y257070D01*
X538106D01*
X539301Y257565D01*
X540215Y258479D01*
X540710Y259674D01*
Y260966D01*
X540215Y262161D01*
X539301Y263075D01*
X538106Y263570D01*
D02*
G37*
G36*
X513106D02*
X511814D01*
X510619Y263075D01*
X509705Y262161D01*
X509210Y260966D01*
Y259674D01*
X509705Y258479D01*
X510619Y257565D01*
X511814Y257070D01*
X513106D01*
X514301Y257565D01*
X515215Y258479D01*
X515710Y259674D01*
Y260966D01*
X515215Y262161D01*
X514301Y263075D01*
X513106Y263570D01*
D02*
G37*
G36*
X488106D02*
X486814D01*
X485619Y263075D01*
X484705Y262161D01*
X484210Y260966D01*
Y259674D01*
X484705Y258479D01*
X485619Y257565D01*
X486814Y257070D01*
X488106D01*
X489301Y257565D01*
X490215Y258479D01*
X490710Y259674D01*
Y260966D01*
X490215Y262161D01*
X489301Y263075D01*
X488106Y263570D01*
D02*
G37*
G36*
X463106D02*
X461814D01*
X460619Y263075D01*
X459705Y262161D01*
X459210Y260966D01*
Y259674D01*
X459705Y258479D01*
X460619Y257565D01*
X461814Y257070D01*
X463106D01*
X464301Y257565D01*
X465215Y258479D01*
X465710Y259674D01*
Y260966D01*
X465215Y262161D01*
X464301Y263075D01*
X463106Y263570D01*
D02*
G37*
G36*
X438106D02*
X436814D01*
X435619Y263075D01*
X434705Y262161D01*
X434210Y260966D01*
Y259674D01*
X434705Y258479D01*
X435619Y257565D01*
X436814Y257070D01*
X438106D01*
X439301Y257565D01*
X440215Y258479D01*
X440710Y259674D01*
Y260966D01*
X440215Y262161D01*
X439301Y263075D01*
X438106Y263570D01*
D02*
G37*
G36*
X413106D02*
X411814D01*
X410619Y263075D01*
X409705Y262161D01*
X409210Y260966D01*
Y259674D01*
X409705Y258479D01*
X410619Y257565D01*
X411814Y257070D01*
X413106D01*
X414301Y257565D01*
X415215Y258479D01*
X415710Y259674D01*
Y260966D01*
X415215Y262161D01*
X414301Y263075D01*
X413106Y263570D01*
D02*
G37*
G36*
X388106D02*
X386814D01*
X385619Y263075D01*
X384705Y262161D01*
X384210Y260966D01*
Y259674D01*
X384705Y258479D01*
X385619Y257565D01*
X386814Y257070D01*
X388106D01*
X389301Y257565D01*
X390215Y258479D01*
X390710Y259674D01*
Y260966D01*
X390215Y262161D01*
X389301Y263075D01*
X388106Y263570D01*
D02*
G37*
G36*
X363106D02*
X361814D01*
X360619Y263075D01*
X359705Y262161D01*
X359210Y260966D01*
Y259674D01*
X359705Y258479D01*
X360619Y257565D01*
X361814Y257070D01*
X363106D01*
X364301Y257565D01*
X365215Y258479D01*
X365710Y259674D01*
Y260966D01*
X365215Y262161D01*
X364301Y263075D01*
X363106Y263570D01*
D02*
G37*
G36*
X338106D02*
X336814D01*
X335619Y263075D01*
X334705Y262161D01*
X334210Y260966D01*
Y259674D01*
X334705Y258479D01*
X335619Y257565D01*
X336814Y257070D01*
X338106D01*
X339301Y257565D01*
X340215Y258479D01*
X340710Y259674D01*
Y260966D01*
X340215Y262161D01*
X339301Y263075D01*
X338106Y263570D01*
D02*
G37*
G36*
X313106D02*
X311814D01*
X310619Y263075D01*
X309705Y262161D01*
X309210Y260966D01*
Y259674D01*
X309705Y258479D01*
X310619Y257565D01*
X311814Y257070D01*
X313106D01*
X314301Y257565D01*
X315215Y258479D01*
X315710Y259674D01*
Y260966D01*
X315215Y262161D01*
X314301Y263075D01*
X313106Y263570D01*
D02*
G37*
G36*
X138106D02*
X136814D01*
X135619Y263075D01*
X134705Y262161D01*
X134210Y260966D01*
Y259674D01*
X134705Y258479D01*
X135619Y257565D01*
X136814Y257070D01*
X138106D01*
X139301Y257565D01*
X140215Y258479D01*
X140710Y259674D01*
Y260966D01*
X140215Y262161D01*
X139301Y263075D01*
X138106Y263570D01*
D02*
G37*
G36*
X718997Y268300D02*
X716611D01*
X714405Y267387D01*
X712718Y265699D01*
X711804Y263493D01*
Y261106D01*
X712718Y258901D01*
X714405Y257213D01*
X716611Y256300D01*
X718997D01*
X721203Y257213D01*
X722891Y258901D01*
X723804Y261106D01*
Y263493D01*
X722891Y265699D01*
X721203Y267387D01*
X718997Y268300D01*
D02*
G37*
G36*
X158380Y255472D02*
X157087D01*
X155893Y254977D01*
X154979Y254063D01*
X154484Y252868D01*
Y251576D01*
X154979Y250381D01*
X155893Y249467D01*
X157087Y248972D01*
X158380D01*
X159575Y249467D01*
X160489Y250381D01*
X160984Y251576D01*
Y252868D01*
X160489Y254063D01*
X159575Y254977D01*
X158380Y255472D01*
D02*
G37*
G36*
X251707Y317082D02*
X179320D01*
X179121Y317000D01*
X178906D01*
X176700Y316087D01*
X176548Y315934D01*
X176349Y315852D01*
X174661Y314164D01*
X174579Y313965D01*
X174427Y313813D01*
X173513Y311608D01*
Y311392D01*
X173431Y311194D01*
Y310000D01*
Y240000D01*
Y238806D01*
X173513Y238608D01*
Y238392D01*
X174427Y236187D01*
X174579Y236035D01*
X174661Y235836D01*
X176349Y234148D01*
X176548Y234066D01*
X176700Y233913D01*
X178906Y233000D01*
X179121D01*
X179320Y232918D01*
X251707D01*
X251906Y233000D01*
X252121D01*
X254326Y233913D01*
X254479Y234066D01*
X254677Y234148D01*
X256365Y235836D01*
X256448Y236035D01*
X256600Y236187D01*
X257513Y238392D01*
Y238608D01*
X257596Y238806D01*
Y240000D01*
Y310000D01*
Y311194D01*
X257513Y311392D01*
Y311608D01*
X256600Y313813D01*
X256448Y313965D01*
X256365Y314164D01*
X254677Y315852D01*
X254478Y315934D01*
X254326Y316087D01*
X252121Y317000D01*
X251906D01*
X251707Y317082D01*
D02*
G37*
G36*
X650607Y238570D02*
X649314D01*
X648119Y238075D01*
X647205Y237161D01*
X646710Y235966D01*
Y234674D01*
X647205Y233479D01*
X648119Y232565D01*
X649314Y232070D01*
X650607D01*
X651801Y232565D01*
X652715Y233479D01*
X653210Y234674D01*
Y235966D01*
X652715Y237161D01*
X651801Y238075D01*
X650607Y238570D01*
D02*
G37*
G36*
X625606D02*
X624314D01*
X623119Y238075D01*
X622205Y237161D01*
X621710Y235966D01*
Y234674D01*
X622205Y233479D01*
X623119Y232565D01*
X624314Y232070D01*
X625606D01*
X626801Y232565D01*
X627715Y233479D01*
X628210Y234674D01*
Y235966D01*
X627715Y237161D01*
X626801Y238075D01*
X625606Y238570D01*
D02*
G37*
G36*
X600606D02*
X599314D01*
X598119Y238075D01*
X597205Y237161D01*
X596710Y235966D01*
Y234674D01*
X597205Y233479D01*
X598119Y232565D01*
X599314Y232070D01*
X600606D01*
X601801Y232565D01*
X602715Y233479D01*
X603210Y234674D01*
Y235966D01*
X602715Y237161D01*
X601801Y238075D01*
X600606Y238570D01*
D02*
G37*
G36*
X575606D02*
X574314D01*
X573119Y238075D01*
X572205Y237161D01*
X571710Y235966D01*
Y234674D01*
X572205Y233479D01*
X573119Y232565D01*
X574314Y232070D01*
X575606D01*
X576801Y232565D01*
X577715Y233479D01*
X578210Y234674D01*
Y235966D01*
X577715Y237161D01*
X576801Y238075D01*
X575606Y238570D01*
D02*
G37*
G36*
X550606D02*
X549314D01*
X548119Y238075D01*
X547205Y237161D01*
X546710Y235966D01*
Y234674D01*
X547205Y233479D01*
X548119Y232565D01*
X549314Y232070D01*
X550606D01*
X551801Y232565D01*
X552715Y233479D01*
X553210Y234674D01*
Y235966D01*
X552715Y237161D01*
X551801Y238075D01*
X550606Y238570D01*
D02*
G37*
G36*
X525606D02*
X524314D01*
X523119Y238075D01*
X522205Y237161D01*
X521710Y235966D01*
Y234674D01*
X522205Y233479D01*
X523119Y232565D01*
X524314Y232070D01*
X525606D01*
X526801Y232565D01*
X527715Y233479D01*
X528210Y234674D01*
Y235966D01*
X527715Y237161D01*
X526801Y238075D01*
X525606Y238570D01*
D02*
G37*
G36*
X500606D02*
X499314D01*
X498119Y238075D01*
X497205Y237161D01*
X496710Y235966D01*
Y234674D01*
X497205Y233479D01*
X498119Y232565D01*
X499314Y232070D01*
X500606D01*
X501801Y232565D01*
X502715Y233479D01*
X503210Y234674D01*
Y235966D01*
X502715Y237161D01*
X501801Y238075D01*
X500606Y238570D01*
D02*
G37*
G36*
X475606D02*
X474314D01*
X473119Y238075D01*
X472205Y237161D01*
X471710Y235966D01*
Y234674D01*
X472205Y233479D01*
X473119Y232565D01*
X474314Y232070D01*
X475606D01*
X476801Y232565D01*
X477715Y233479D01*
X478210Y234674D01*
Y235966D01*
X477715Y237161D01*
X476801Y238075D01*
X475606Y238570D01*
D02*
G37*
G36*
X450606D02*
X449314D01*
X448119Y238075D01*
X447205Y237161D01*
X446710Y235966D01*
Y234674D01*
X447205Y233479D01*
X448119Y232565D01*
X449314Y232070D01*
X450606D01*
X451801Y232565D01*
X452715Y233479D01*
X453210Y234674D01*
Y235966D01*
X452715Y237161D01*
X451801Y238075D01*
X450606Y238570D01*
D02*
G37*
G36*
X425606D02*
X424314D01*
X423119Y238075D01*
X422205Y237161D01*
X421710Y235966D01*
Y234674D01*
X422205Y233479D01*
X423119Y232565D01*
X424314Y232070D01*
X425606D01*
X426801Y232565D01*
X427715Y233479D01*
X428210Y234674D01*
Y235966D01*
X427715Y237161D01*
X426801Y238075D01*
X425606Y238570D01*
D02*
G37*
G36*
X400606D02*
X399314D01*
X398119Y238075D01*
X397205Y237161D01*
X396710Y235966D01*
Y234674D01*
X397205Y233479D01*
X398119Y232565D01*
X399314Y232070D01*
X400606D01*
X401801Y232565D01*
X402715Y233479D01*
X403210Y234674D01*
Y235966D01*
X402715Y237161D01*
X401801Y238075D01*
X400606Y238570D01*
D02*
G37*
G36*
X375606D02*
X374314D01*
X373119Y238075D01*
X372205Y237161D01*
X371710Y235966D01*
Y234674D01*
X372205Y233479D01*
X373119Y232565D01*
X374314Y232070D01*
X375606D01*
X376801Y232565D01*
X377715Y233479D01*
X378210Y234674D01*
Y235966D01*
X377715Y237161D01*
X376801Y238075D01*
X375606Y238570D01*
D02*
G37*
G36*
X350606D02*
X349314D01*
X348119Y238075D01*
X347205Y237161D01*
X346710Y235966D01*
Y234674D01*
X347205Y233479D01*
X348119Y232565D01*
X349314Y232070D01*
X350606D01*
X351801Y232565D01*
X352715Y233479D01*
X353210Y234674D01*
Y235966D01*
X352715Y237161D01*
X351801Y238075D01*
X350606Y238570D01*
D02*
G37*
G36*
X325606D02*
X324314D01*
X323119Y238075D01*
X322205Y237161D01*
X321710Y235966D01*
Y234674D01*
X322205Y233479D01*
X323119Y232565D01*
X324314Y232070D01*
X325606D01*
X326801Y232565D01*
X327715Y233479D01*
X328210Y234674D01*
Y235966D01*
X327715Y237161D01*
X326801Y238075D01*
X325606Y238570D01*
D02*
G37*
G36*
X150606D02*
X149314D01*
X148119Y238075D01*
X147205Y237161D01*
X146710Y235966D01*
Y234674D01*
X147205Y233479D01*
X148119Y232565D01*
X149314Y232070D01*
X150606D01*
X151801Y232565D01*
X152715Y233479D01*
X153210Y234674D01*
Y235966D01*
X152715Y237161D01*
X151801Y238075D01*
X150606Y238570D01*
D02*
G37*
G36*
X289191Y245312D02*
X287897D01*
X286703Y244817D01*
X285789Y243903D01*
X285294Y242708D01*
Y241416D01*
X285789Y240221D01*
X286703Y239307D01*
X287897Y238812D01*
Y237592D01*
X286703Y237097D01*
X285789Y236183D01*
X285294Y234988D01*
Y233696D01*
X285789Y232501D01*
X286703Y231587D01*
X287897Y231092D01*
X289191D01*
X290385Y231587D01*
X291299Y232501D01*
X291794Y233696D01*
Y234988D01*
X291299Y236183D01*
X290385Y237097D01*
X289191Y237592D01*
Y238812D01*
X290385Y239307D01*
X291299Y240221D01*
X291794Y241416D01*
Y242708D01*
X291299Y243903D01*
X290385Y244817D01*
X289191Y245312D01*
D02*
G37*
G36*
X718997Y242900D02*
X716611D01*
X714405Y241987D01*
X712718Y240299D01*
X711804Y238093D01*
Y235707D01*
X712718Y233501D01*
X714405Y231813D01*
X716611Y230900D01*
X718997D01*
X721203Y231813D01*
X722891Y233501D01*
X723804Y235707D01*
Y238093D01*
X722891Y240299D01*
X721203Y241987D01*
X718997Y242900D01*
D02*
G37*
G36*
X160667Y235914D02*
X159374D01*
X158179Y235419D01*
X157265Y234505D01*
X156770Y233311D01*
Y232017D01*
X157265Y230823D01*
X158179Y229909D01*
X159374Y229414D01*
X160667D01*
X161861Y229909D01*
X162775Y230823D01*
X163270Y232017D01*
Y233311D01*
X162775Y234505D01*
X161861Y235419D01*
X160667Y235914D01*
D02*
G37*
G36*
X265569Y227278D02*
X264275D01*
X263081Y226783D01*
X262167Y225869D01*
X261672Y224674D01*
Y223382D01*
X262167Y222187D01*
X263081Y221273D01*
X264275Y220778D01*
X265569D01*
X266763Y221273D01*
X267677Y222187D01*
X268172Y223382D01*
Y224674D01*
X267677Y225869D01*
X266763Y226783D01*
X265569Y227278D01*
D02*
G37*
G36*
X258965Y222452D02*
X257672D01*
X256477Y221957D01*
X255563Y221043D01*
X255068Y219848D01*
Y218556D01*
X255563Y217361D01*
X256477Y216447D01*
X257672Y215952D01*
X258965D01*
X260159Y216447D01*
X261073Y217361D01*
X261568Y218556D01*
Y219848D01*
X261073Y221043D01*
X260159Y221957D01*
X258965Y222452D01*
D02*
G37*
G36*
X272934Y219912D02*
X271642D01*
X270447Y219417D01*
X269533Y218503D01*
X269038Y217309D01*
Y216015D01*
X269533Y214821D01*
X270447Y213907D01*
X271642Y213412D01*
X272934D01*
X274129Y213907D01*
X275043Y214821D01*
X275538Y216015D01*
Y217309D01*
X275043Y218503D01*
X274129Y219417D01*
X272934Y219912D01*
D02*
G37*
G36*
X338106Y213570D02*
X336814D01*
X335619Y213075D01*
X334705Y212161D01*
X334210Y210966D01*
Y210118D01*
X332998Y209534D01*
X332549Y209983D01*
X331354Y210478D01*
X330061D01*
X328867Y209983D01*
X327953Y209069D01*
X327458Y207874D01*
Y206581D01*
X327953Y205387D01*
X328867Y204473D01*
X330061Y203978D01*
X331354D01*
X332549Y204473D01*
X333463Y205387D01*
X333958Y206581D01*
Y207430D01*
X335170Y208013D01*
X335619Y207565D01*
X336814Y207070D01*
X338106D01*
X339301Y207565D01*
X340215Y208479D01*
X340710Y209674D01*
Y210966D01*
X340215Y212161D01*
X339301Y213075D01*
X338106Y213570D01*
D02*
G37*
G36*
X588106D02*
X586814D01*
X585619Y213075D01*
X584705Y212161D01*
X584210Y210966D01*
Y209674D01*
X584705Y208479D01*
X585619Y207565D01*
X586814Y207070D01*
X588106D01*
X589301Y207565D01*
X590215Y208479D01*
X590710Y209674D01*
Y210966D01*
X590215Y212161D01*
X589301Y213075D01*
X588106Y213570D01*
D02*
G37*
G36*
X563106D02*
X561814D01*
X560619Y213075D01*
X559705Y212161D01*
X559210Y210966D01*
Y209674D01*
X559705Y208479D01*
X560619Y207565D01*
X561814Y207070D01*
X563106D01*
X564301Y207565D01*
X565215Y208479D01*
X565710Y209674D01*
Y210966D01*
X565215Y212161D01*
X564301Y213075D01*
X563106Y213570D01*
D02*
G37*
G36*
X538106D02*
X536814D01*
X535619Y213075D01*
X534705Y212161D01*
X534210Y210966D01*
Y209674D01*
X534705Y208479D01*
X535619Y207565D01*
X536814Y207070D01*
X538106D01*
X539301Y207565D01*
X540215Y208479D01*
X540710Y209674D01*
Y210966D01*
X540215Y212161D01*
X539301Y213075D01*
X538106Y213570D01*
D02*
G37*
G36*
X513106D02*
X511814D01*
X510619Y213075D01*
X509705Y212161D01*
X509210Y210966D01*
Y209674D01*
X509705Y208479D01*
X510619Y207565D01*
X511814Y207070D01*
X513106D01*
X514301Y207565D01*
X515215Y208479D01*
X515710Y209674D01*
Y210966D01*
X515215Y212161D01*
X514301Y213075D01*
X513106Y213570D01*
D02*
G37*
G36*
X488106D02*
X486814D01*
X485619Y213075D01*
X484705Y212161D01*
X484210Y210966D01*
Y209674D01*
X484705Y208479D01*
X485619Y207565D01*
X486814Y207070D01*
X488106D01*
X489301Y207565D01*
X490215Y208479D01*
X490710Y209674D01*
Y210966D01*
X490215Y212161D01*
X489301Y213075D01*
X488106Y213570D01*
D02*
G37*
G36*
X463106D02*
X461814D01*
X460619Y213075D01*
X459705Y212161D01*
X459210Y210966D01*
Y209674D01*
X459705Y208479D01*
X460619Y207565D01*
X461814Y207070D01*
X463106D01*
X464301Y207565D01*
X465215Y208479D01*
X465710Y209674D01*
Y210966D01*
X465215Y212161D01*
X464301Y213075D01*
X463106Y213570D01*
D02*
G37*
G36*
X438106D02*
X436814D01*
X435619Y213075D01*
X434705Y212161D01*
X434210Y210966D01*
Y209674D01*
X434705Y208479D01*
X435619Y207565D01*
X436814Y207070D01*
X438106D01*
X439301Y207565D01*
X440215Y208479D01*
X440710Y209674D01*
Y210966D01*
X440215Y212161D01*
X439301Y213075D01*
X438106Y213570D01*
D02*
G37*
G36*
X413106D02*
X411814D01*
X410619Y213075D01*
X409705Y212161D01*
X409210Y210966D01*
Y209674D01*
X409705Y208479D01*
X410619Y207565D01*
X411814Y207070D01*
X413106D01*
X414301Y207565D01*
X415215Y208479D01*
X415710Y209674D01*
Y210966D01*
X415215Y212161D01*
X414301Y213075D01*
X413106Y213570D01*
D02*
G37*
G36*
X388106D02*
X386814D01*
X385619Y213075D01*
X384705Y212161D01*
X384210Y210966D01*
Y209674D01*
X384705Y208479D01*
X385619Y207565D01*
X386814Y207070D01*
X388106D01*
X389301Y207565D01*
X390215Y208479D01*
X390710Y209674D01*
Y210966D01*
X390215Y212161D01*
X389301Y213075D01*
X388106Y213570D01*
D02*
G37*
G36*
X363106D02*
X361814D01*
X360619Y213075D01*
X359705Y212161D01*
X359210Y210966D01*
Y209674D01*
X359705Y208479D01*
X360619Y207565D01*
X361814Y207070D01*
X363106D01*
X364301Y207565D01*
X365215Y208479D01*
X365710Y209674D01*
Y210966D01*
X365215Y212161D01*
X364301Y213075D01*
X363106Y213570D01*
D02*
G37*
G36*
X138106D02*
X136814D01*
X135619Y213075D01*
X134705Y212161D01*
X134210Y210966D01*
Y209674D01*
X134705Y208479D01*
X135619Y207565D01*
X136814Y207070D01*
X138106D01*
X139301Y207565D01*
X140215Y208479D01*
X140710Y209674D01*
Y210966D01*
X140215Y212161D01*
X139301Y213075D01*
X138106Y213570D01*
D02*
G37*
G36*
X718997Y217500D02*
X716611D01*
X714405Y216586D01*
X712718Y214899D01*
X711804Y212694D01*
Y210306D01*
X712718Y208101D01*
X714405Y206413D01*
X716611Y205500D01*
X718997D01*
X721203Y206413D01*
X722891Y208101D01*
X723804Y210306D01*
Y212694D01*
X722891Y214899D01*
X721203Y216586D01*
X718997Y217500D01*
D02*
G37*
G36*
X94627Y194766D02*
X93334D01*
X92139Y194271D01*
X91225Y193357D01*
X90730Y192162D01*
Y190870D01*
X91225Y189675D01*
X92139Y188761D01*
X93334Y188266D01*
X94627D01*
X95821Y188761D01*
X96735Y189675D01*
X97230Y190870D01*
Y192162D01*
X96735Y193357D01*
X95821Y194271D01*
X94627Y194766D01*
D02*
G37*
G36*
X700607Y188570D02*
X699314D01*
X698119Y188075D01*
X697205Y187161D01*
X696710Y185966D01*
Y184674D01*
X697205Y183479D01*
X698119Y182565D01*
X699314Y182070D01*
X700607D01*
X701801Y182565D01*
X702715Y183479D01*
X703210Y184674D01*
Y185966D01*
X702715Y187161D01*
X701801Y188075D01*
X700607Y188570D01*
D02*
G37*
G36*
X675607D02*
X674314D01*
X673119Y188075D01*
X672205Y187161D01*
X671710Y185966D01*
Y184674D01*
X672205Y183479D01*
X673119Y182565D01*
X674314Y182070D01*
X675607D01*
X676801Y182565D01*
X677715Y183479D01*
X678210Y184674D01*
Y185966D01*
X677715Y187161D01*
X676801Y188075D01*
X675607Y188570D01*
D02*
G37*
G36*
X150606D02*
X149314D01*
X148119Y188075D01*
X147205Y187161D01*
X146710Y185966D01*
Y184674D01*
X147205Y183479D01*
X148119Y182565D01*
X149314Y182070D01*
X150606D01*
X151801Y182565D01*
X152715Y183479D01*
X153210Y184674D01*
Y185966D01*
X152715Y187161D01*
X151801Y188075D01*
X150606Y188570D01*
D02*
G37*
G36*
X125606D02*
X124314D01*
X123119Y188075D01*
X122205Y187161D01*
X121710Y185966D01*
Y184674D01*
X122205Y183479D01*
X123119Y182565D01*
X124314Y182070D01*
X125606D01*
X126801Y182565D01*
X127715Y183479D01*
X128210Y184674D01*
Y185966D01*
X127715Y187161D01*
X126801Y188075D01*
X125606Y188570D01*
D02*
G37*
G36*
X214515Y184098D02*
X213221D01*
X212027Y183603D01*
X211113Y182689D01*
X210618Y181495D01*
Y180201D01*
X211113Y179007D01*
X212027Y178093D01*
X213221Y177598D01*
X214515D01*
X215709Y178093D01*
X216623Y179007D01*
X217118Y180201D01*
Y181495D01*
X216623Y182689D01*
X215709Y183603D01*
X214515Y184098D01*
D02*
G37*
G36*
X100606Y188570D02*
X99314D01*
X98119Y188075D01*
X97205Y187161D01*
X96710Y185966D01*
Y184674D01*
X97205Y183479D01*
X97301Y183383D01*
X97006Y182634D01*
X96678Y182210D01*
X95547D01*
X94352Y181715D01*
X93438Y180801D01*
X92943Y179606D01*
Y178314D01*
X93438Y177119D01*
X94352Y176205D01*
X95547Y175710D01*
X96840D01*
X98034Y176205D01*
X98948Y177119D01*
X99443Y178314D01*
Y179606D01*
X98948Y180801D01*
X98853Y180897D01*
X99147Y181646D01*
X99475Y182070D01*
X100606D01*
X101801Y182565D01*
X102715Y183479D01*
X103210Y184674D01*
Y185966D01*
X102715Y187161D01*
X101801Y188075D01*
X100606Y188570D01*
D02*
G37*
G36*
X191654Y178256D02*
X190361D01*
X189167Y177761D01*
X188253Y176847D01*
X187758Y175653D01*
Y174359D01*
X188253Y173165D01*
X189167Y172251D01*
X190361Y171756D01*
X191654D01*
X192849Y172251D01*
X193763Y173165D01*
X194258Y174359D01*
Y175653D01*
X193763Y176847D01*
X192849Y177761D01*
X191654Y178256D01*
D02*
G37*
G36*
X663107Y163570D02*
X661814D01*
X660619Y163075D01*
X659705Y162161D01*
X659210Y160966D01*
Y159674D01*
X659705Y158479D01*
X660619Y157565D01*
X661814Y157070D01*
X663107D01*
X664301Y157565D01*
X665215Y158479D01*
X665710Y159674D01*
Y160966D01*
X665215Y162161D01*
X664301Y163075D01*
X663107Y163570D01*
D02*
G37*
G36*
X613106D02*
X611814D01*
X610619Y163075D01*
X609705Y162161D01*
X609210Y160966D01*
Y159674D01*
X609705Y158479D01*
X610619Y157565D01*
X611814Y157070D01*
X613106D01*
X614301Y157565D01*
X615215Y158479D01*
X615710Y159674D01*
Y160966D01*
X615215Y162161D01*
X614301Y163075D01*
X613106Y163570D01*
D02*
G37*
G36*
X588106D02*
X586814D01*
X585619Y163075D01*
X584705Y162161D01*
X584210Y160966D01*
Y159674D01*
X584705Y158479D01*
X585619Y157565D01*
X586814Y157070D01*
X588106D01*
X589301Y157565D01*
X590215Y158479D01*
X590710Y159674D01*
Y160966D01*
X590215Y162161D01*
X589301Y163075D01*
X588106Y163570D01*
D02*
G37*
G36*
X563106D02*
X561814D01*
X560619Y163075D01*
X559705Y162161D01*
X559210Y160966D01*
Y159674D01*
X559705Y158479D01*
X560619Y157565D01*
X561814Y157070D01*
X563106D01*
X564301Y157565D01*
X565215Y158479D01*
X565710Y159674D01*
Y160966D01*
X565215Y162161D01*
X564301Y163075D01*
X563106Y163570D01*
D02*
G37*
G36*
X538106D02*
X536814D01*
X535619Y163075D01*
X534705Y162161D01*
X534210Y160966D01*
Y159674D01*
X534705Y158479D01*
X535619Y157565D01*
X536814Y157070D01*
X538106D01*
X539301Y157565D01*
X540215Y158479D01*
X540710Y159674D01*
Y160966D01*
X540215Y162161D01*
X539301Y163075D01*
X538106Y163570D01*
D02*
G37*
G36*
X513106D02*
X511814D01*
X510619Y163075D01*
X509705Y162161D01*
X509210Y160966D01*
Y159674D01*
X509705Y158479D01*
X510619Y157565D01*
X511814Y157070D01*
X513106D01*
X514301Y157565D01*
X515215Y158479D01*
X515710Y159674D01*
Y160966D01*
X515215Y162161D01*
X514301Y163075D01*
X513106Y163570D01*
D02*
G37*
G36*
X488106D02*
X486814D01*
X485619Y163075D01*
X484705Y162161D01*
X484210Y160966D01*
Y159674D01*
X484705Y158479D01*
X485619Y157565D01*
X486814Y157070D01*
X488106D01*
X489301Y157565D01*
X490215Y158479D01*
X490710Y159674D01*
Y160966D01*
X490215Y162161D01*
X489301Y163075D01*
X488106Y163570D01*
D02*
G37*
G36*
X463106D02*
X461814D01*
X460619Y163075D01*
X459705Y162161D01*
X459210Y160966D01*
Y159674D01*
X459705Y158479D01*
X460619Y157565D01*
X461814Y157070D01*
X463106D01*
X464301Y157565D01*
X465215Y158479D01*
X465710Y159674D01*
Y160966D01*
X465215Y162161D01*
X464301Y163075D01*
X463106Y163570D01*
D02*
G37*
G36*
X438106D02*
X436814D01*
X435619Y163075D01*
X434705Y162161D01*
X434210Y160966D01*
Y159674D01*
X434705Y158479D01*
X435619Y157565D01*
X436814Y157070D01*
X438106D01*
X439301Y157565D01*
X440215Y158479D01*
X440710Y159674D01*
Y160966D01*
X440215Y162161D01*
X439301Y163075D01*
X438106Y163570D01*
D02*
G37*
G36*
X413106D02*
X411814D01*
X410619Y163075D01*
X409705Y162161D01*
X409210Y160966D01*
Y159674D01*
X409705Y158479D01*
X410619Y157565D01*
X411814Y157070D01*
X413106D01*
X414301Y157565D01*
X415215Y158479D01*
X415710Y159674D01*
Y160966D01*
X415215Y162161D01*
X414301Y163075D01*
X413106Y163570D01*
D02*
G37*
G36*
X388106D02*
X386814D01*
X385619Y163075D01*
X384705Y162161D01*
X384210Y160966D01*
Y159674D01*
X384705Y158479D01*
X385619Y157565D01*
X386814Y157070D01*
X388106D01*
X389301Y157565D01*
X390215Y158479D01*
X390710Y159674D01*
Y160966D01*
X390215Y162161D01*
X389301Y163075D01*
X388106Y163570D01*
D02*
G37*
G36*
X363106D02*
X361814D01*
X360619Y163075D01*
X359705Y162161D01*
X359210Y160966D01*
Y159674D01*
X359705Y158479D01*
X360619Y157565D01*
X361814Y157070D01*
X363106D01*
X364301Y157565D01*
X365215Y158479D01*
X365710Y159674D01*
Y160966D01*
X365215Y162161D01*
X364301Y163075D01*
X363106Y163570D01*
D02*
G37*
G36*
X338106D02*
X336814D01*
X335619Y163075D01*
X334705Y162161D01*
X334210Y160966D01*
Y159674D01*
X334705Y158479D01*
X335619Y157565D01*
X336814Y157070D01*
X338106D01*
X339301Y157565D01*
X340215Y158479D01*
X340710Y159674D01*
Y160966D01*
X340215Y162161D01*
X339301Y163075D01*
X338106Y163570D01*
D02*
G37*
G36*
X313106D02*
X311814D01*
X310619Y163075D01*
X309705Y162161D01*
X309210Y160966D01*
Y159674D01*
X309705Y158479D01*
X310619Y157565D01*
X311814Y157070D01*
X313106D01*
X314301Y157565D01*
X315215Y158479D01*
X315710Y159674D01*
Y160966D01*
X315215Y162161D01*
X314301Y163075D01*
X313106Y163570D01*
D02*
G37*
G36*
X288106D02*
X286814D01*
X285619Y163075D01*
X284705Y162161D01*
X284210Y160966D01*
Y159674D01*
X284705Y158479D01*
X285619Y157565D01*
X286814Y157070D01*
X288106D01*
X289301Y157565D01*
X290215Y158479D01*
X290710Y159674D01*
Y160966D01*
X290215Y162161D01*
X289301Y163075D01*
X288106Y163570D01*
D02*
G37*
G36*
X263106D02*
X261814D01*
X260619Y163075D01*
X259705Y162161D01*
X259210Y160966D01*
Y159674D01*
X259705Y158479D01*
X260619Y157565D01*
X261814Y157070D01*
X263106D01*
X264301Y157565D01*
X265215Y158479D01*
X265710Y159674D01*
Y160966D01*
X265215Y162161D01*
X264301Y163075D01*
X263106Y163570D01*
D02*
G37*
G36*
X238106D02*
X236814D01*
X235619Y163075D01*
X234705Y162161D01*
X234210Y160966D01*
Y159674D01*
X234705Y158479D01*
X235619Y157565D01*
X236814Y157070D01*
X238106D01*
X239301Y157565D01*
X240215Y158479D01*
X240710Y159674D01*
Y160966D01*
X240215Y162161D01*
X239301Y163075D01*
X238106Y163570D01*
D02*
G37*
G36*
X188106D02*
X186814D01*
X185619Y163075D01*
X184705Y162161D01*
X184210Y160966D01*
Y159674D01*
X184705Y158479D01*
X185619Y157565D01*
X186814Y157070D01*
X188106D01*
X189301Y157565D01*
X190215Y158479D01*
X190710Y159674D01*
Y160966D01*
X190215Y162161D01*
X189301Y163075D01*
X188106Y163570D01*
D02*
G37*
G36*
X218578Y160984D02*
X217285D01*
X216091Y160489D01*
X215177Y159575D01*
X214682Y158380D01*
Y157087D01*
X215177Y155893D01*
X216091Y154979D01*
X217285Y154484D01*
X218578D01*
X219773Y154979D01*
X220687Y155893D01*
X221182Y157087D01*
Y158380D01*
X220687Y159575D01*
X219773Y160489D01*
X218578Y160984D01*
D02*
G37*
G36*
X650607Y138570D02*
X649314D01*
X648119Y138075D01*
X647205Y137161D01*
X646710Y135967D01*
Y134674D01*
X647205Y133479D01*
X648119Y132565D01*
X649314Y132070D01*
X650607D01*
X651801Y132565D01*
X652715Y133479D01*
X653210Y134674D01*
Y135967D01*
X652715Y137161D01*
X651801Y138075D01*
X650607Y138570D01*
D02*
G37*
G36*
X625606D02*
X624314D01*
X623119Y138075D01*
X622205Y137161D01*
X621710Y135967D01*
Y134674D01*
X622205Y133479D01*
X623119Y132565D01*
X624314Y132070D01*
X625606D01*
X626801Y132565D01*
X627715Y133479D01*
X628210Y134674D01*
Y135967D01*
X627715Y137161D01*
X626801Y138075D01*
X625606Y138570D01*
D02*
G37*
G36*
X600606D02*
X599314D01*
X598119Y138075D01*
X597205Y137161D01*
X596710Y135967D01*
Y134674D01*
X597205Y133479D01*
X598119Y132565D01*
X599314Y132070D01*
X600606D01*
X601801Y132565D01*
X602715Y133479D01*
X603210Y134674D01*
Y135967D01*
X602715Y137161D01*
X601801Y138075D01*
X600606Y138570D01*
D02*
G37*
G36*
X575606D02*
X574314D01*
X573119Y138075D01*
X572205Y137161D01*
X571710Y135967D01*
Y134674D01*
X572205Y133479D01*
X573119Y132565D01*
X574314Y132070D01*
X575606D01*
X576801Y132565D01*
X577715Y133479D01*
X578210Y134674D01*
Y135967D01*
X577715Y137161D01*
X576801Y138075D01*
X575606Y138570D01*
D02*
G37*
G36*
X550606D02*
X549314D01*
X548119Y138075D01*
X547205Y137161D01*
X546710Y135967D01*
Y134674D01*
X547205Y133479D01*
X548119Y132565D01*
X549314Y132070D01*
X550606D01*
X551801Y132565D01*
X552715Y133479D01*
X553210Y134674D01*
Y135967D01*
X552715Y137161D01*
X551801Y138075D01*
X550606Y138570D01*
D02*
G37*
G36*
X525606D02*
X524314D01*
X523119Y138075D01*
X522205Y137161D01*
X521710Y135967D01*
Y134674D01*
X522205Y133479D01*
X523119Y132565D01*
X524314Y132070D01*
X525606D01*
X526801Y132565D01*
X527715Y133479D01*
X528210Y134674D01*
Y135967D01*
X527715Y137161D01*
X526801Y138075D01*
X525606Y138570D01*
D02*
G37*
G36*
X500606D02*
X499314D01*
X498119Y138075D01*
X497205Y137161D01*
X496710Y135967D01*
Y134674D01*
X497205Y133479D01*
X498119Y132565D01*
X499314Y132070D01*
X500606D01*
X501801Y132565D01*
X502715Y133479D01*
X503210Y134674D01*
Y135967D01*
X502715Y137161D01*
X501801Y138075D01*
X500606Y138570D01*
D02*
G37*
G36*
X475606D02*
X474314D01*
X473119Y138075D01*
X472205Y137161D01*
X471710Y135967D01*
Y134674D01*
X472205Y133479D01*
X473119Y132565D01*
X474314Y132070D01*
X475606D01*
X476801Y132565D01*
X477715Y133479D01*
X478210Y134674D01*
Y135967D01*
X477715Y137161D01*
X476801Y138075D01*
X475606Y138570D01*
D02*
G37*
G36*
X450606D02*
X449314D01*
X448119Y138075D01*
X447205Y137161D01*
X446710Y135967D01*
Y134674D01*
X447205Y133479D01*
X448119Y132565D01*
X449314Y132070D01*
X450606D01*
X451801Y132565D01*
X452715Y133479D01*
X453210Y134674D01*
Y135967D01*
X452715Y137161D01*
X451801Y138075D01*
X450606Y138570D01*
D02*
G37*
G36*
X425606D02*
X424314D01*
X423119Y138075D01*
X422205Y137161D01*
X421710Y135967D01*
Y134674D01*
X422205Y133479D01*
X423119Y132565D01*
X424314Y132070D01*
X425606D01*
X426801Y132565D01*
X427715Y133479D01*
X428210Y134674D01*
Y135967D01*
X427715Y137161D01*
X426801Y138075D01*
X425606Y138570D01*
D02*
G37*
G36*
X400606D02*
X399314D01*
X398119Y138075D01*
X397205Y137161D01*
X396710Y135967D01*
Y134674D01*
X397205Y133479D01*
X398119Y132565D01*
X399314Y132070D01*
X400606D01*
X401801Y132565D01*
X402715Y133479D01*
X403210Y134674D01*
Y135967D01*
X402715Y137161D01*
X401801Y138075D01*
X400606Y138570D01*
D02*
G37*
G36*
X375606D02*
X374314D01*
X373119Y138075D01*
X372205Y137161D01*
X371710Y135967D01*
Y134674D01*
X372205Y133479D01*
X373119Y132565D01*
X374314Y132070D01*
X375606D01*
X376801Y132565D01*
X377715Y133479D01*
X378210Y134674D01*
Y135967D01*
X377715Y137161D01*
X376801Y138075D01*
X375606Y138570D01*
D02*
G37*
G36*
X350606D02*
X349314D01*
X348119Y138075D01*
X347205Y137161D01*
X346710Y135967D01*
Y134674D01*
X347205Y133479D01*
X348119Y132565D01*
X349314Y132070D01*
X350606D01*
X351801Y132565D01*
X352715Y133479D01*
X353210Y134674D01*
Y135967D01*
X352715Y137161D01*
X351801Y138075D01*
X350606Y138570D01*
D02*
G37*
G36*
X325606D02*
X324314D01*
X323119Y138075D01*
X322205Y137161D01*
X321710Y135967D01*
Y134674D01*
X322205Y133479D01*
X323119Y132565D01*
X324314Y132070D01*
X325606D01*
X326801Y132565D01*
X327715Y133479D01*
X328210Y134674D01*
Y135967D01*
X327715Y137161D01*
X326801Y138075D01*
X325606Y138570D01*
D02*
G37*
G36*
X300606D02*
X299314D01*
X298119Y138075D01*
X297205Y137161D01*
X296710Y135967D01*
Y134674D01*
X297205Y133479D01*
X298119Y132565D01*
X299314Y132070D01*
X300606D01*
X301801Y132565D01*
X302715Y133479D01*
X303210Y134674D01*
Y135967D01*
X302715Y137161D01*
X301801Y138075D01*
X300606Y138570D01*
D02*
G37*
G36*
X275606D02*
X274314D01*
X273119Y138075D01*
X272205Y137161D01*
X271710Y135967D01*
Y134674D01*
X272205Y133479D01*
X273119Y132565D01*
X274314Y132070D01*
X275606D01*
X276801Y132565D01*
X277715Y133479D01*
X278210Y134674D01*
Y135967D01*
X277715Y137161D01*
X276801Y138075D01*
X275606Y138570D01*
D02*
G37*
G36*
X250606D02*
X249314D01*
X248119Y138075D01*
X247205Y137161D01*
X246710Y135967D01*
Y134674D01*
X247205Y133479D01*
X248119Y132565D01*
X249314Y132070D01*
X250606D01*
X251801Y132565D01*
X252715Y133479D01*
X253210Y134674D01*
Y135967D01*
X252715Y137161D01*
X251801Y138075D01*
X250606Y138570D01*
D02*
G37*
G36*
X225606D02*
X224314D01*
X223119Y138075D01*
X222205Y137161D01*
X221710Y135967D01*
Y134674D01*
X222205Y133479D01*
X223119Y132565D01*
X224314Y132070D01*
X225606D01*
X226801Y132565D01*
X227715Y133479D01*
X228210Y134674D01*
Y135967D01*
X227715Y137161D01*
X226801Y138075D01*
X225606Y138570D01*
D02*
G37*
G36*
X200606D02*
X199314D01*
X198119Y138075D01*
X197205Y137161D01*
X196710Y135967D01*
Y134674D01*
X197205Y133479D01*
X198119Y132565D01*
X199314Y132070D01*
X200606D01*
X201801Y132565D01*
X202715Y133479D01*
X203210Y134674D01*
Y135967D01*
X202715Y137161D01*
X201801Y138075D01*
X200606Y138570D01*
D02*
G37*
G36*
X175606D02*
X174314D01*
X173119Y138075D01*
X172205Y137161D01*
X171710Y135967D01*
Y134674D01*
X172205Y133479D01*
X173119Y132565D01*
X174314Y132070D01*
X175606D01*
X176801Y132565D01*
X177715Y133479D01*
X178210Y134674D01*
Y135967D01*
X177715Y137161D01*
X176801Y138075D01*
X175606Y138570D01*
D02*
G37*
G36*
X718997Y141300D02*
X716611D01*
X714405Y140386D01*
X712718Y138699D01*
X711804Y136494D01*
Y134107D01*
X712718Y131901D01*
X714405Y130213D01*
X716611Y129300D01*
X718997D01*
X721203Y130213D01*
X722891Y131901D01*
X723804Y134107D01*
Y136494D01*
X722891Y138699D01*
X721203Y140386D01*
X718997Y141300D01*
D02*
G37*
G36*
X113931Y121360D02*
X112638D01*
X111443Y120865D01*
X110529Y119951D01*
X110034Y118757D01*
Y117464D01*
X110529Y116269D01*
X111443Y115355D01*
X112638Y114860D01*
X113931D01*
X115125Y115355D01*
X116039Y116269D01*
X116534Y117464D01*
Y118757D01*
X116039Y119951D01*
X115125Y120865D01*
X113931Y121360D01*
D02*
G37*
G36*
X813107Y113570D02*
X811814D01*
X810619Y113075D01*
X809705Y112161D01*
X809210Y110967D01*
Y109674D01*
X809705Y108479D01*
X810619Y107565D01*
X811814Y107070D01*
X813107D01*
X814301Y107565D01*
X815215Y108479D01*
X815710Y109674D01*
Y110967D01*
X815215Y112161D01*
X814301Y113075D01*
X813107Y113570D01*
D02*
G37*
G36*
X788107D02*
X786814D01*
X785619Y113075D01*
X784705Y112161D01*
X784210Y110967D01*
Y109674D01*
X784705Y108479D01*
X785619Y107565D01*
X786814Y107070D01*
X788107D01*
X789301Y107565D01*
X790215Y108479D01*
X790710Y109674D01*
Y110967D01*
X790215Y112161D01*
X789301Y113075D01*
X788107Y113570D01*
D02*
G37*
G36*
X763107D02*
X761814D01*
X760619Y113075D01*
X759705Y112161D01*
X759210Y110967D01*
Y109674D01*
X759705Y108479D01*
X760619Y107565D01*
X761814Y107070D01*
X763107D01*
X764301Y107565D01*
X765215Y108479D01*
X765710Y109674D01*
Y110967D01*
X765215Y112161D01*
X764301Y113075D01*
X763107Y113570D01*
D02*
G37*
G36*
X738107D02*
X736814D01*
X735619Y113075D01*
X734705Y112161D01*
X734210Y110967D01*
Y109674D01*
X734705Y108479D01*
X735619Y107565D01*
X736814Y107070D01*
X738107D01*
X739301Y107565D01*
X740215Y108479D01*
X740710Y109674D01*
Y110967D01*
X740215Y112161D01*
X739301Y113075D01*
X738107Y113570D01*
D02*
G37*
G36*
X713107D02*
X711814D01*
X710619Y113075D01*
X709705Y112161D01*
X709210Y110967D01*
Y109674D01*
X709705Y108479D01*
X710619Y107565D01*
X711814Y107070D01*
X713107D01*
X714301Y107565D01*
X715215Y108479D01*
X715710Y109674D01*
Y110967D01*
X715215Y112161D01*
X714301Y113075D01*
X713107Y113570D01*
D02*
G37*
G36*
X825607Y88570D02*
X824314D01*
X823119Y88075D01*
X822205Y87161D01*
X821710Y85967D01*
Y84674D01*
X822205Y83479D01*
X823119Y82565D01*
X824314Y82070D01*
X825607D01*
X826801Y82565D01*
X827715Y83479D01*
X828210Y84674D01*
Y85967D01*
X827715Y87161D01*
X826801Y88075D01*
X825607Y88570D01*
D02*
G37*
G36*
X800607D02*
X799314D01*
X798119Y88075D01*
X797205Y87161D01*
X796710Y85967D01*
Y84674D01*
X797205Y83479D01*
X798119Y82565D01*
X799314Y82070D01*
X800607D01*
X801801Y82565D01*
X802715Y83479D01*
X803210Y84674D01*
Y85967D01*
X802715Y87161D01*
X801801Y88075D01*
X800607Y88570D01*
D02*
G37*
G36*
X775607D02*
X774314D01*
X773119Y88075D01*
X772205Y87161D01*
X771710Y85967D01*
Y84674D01*
X772205Y83479D01*
X773119Y82565D01*
X774314Y82070D01*
X775607D01*
X776801Y82565D01*
X777715Y83479D01*
X778210Y84674D01*
Y85967D01*
X777715Y87161D01*
X776801Y88075D01*
X775607Y88570D01*
D02*
G37*
G36*
X750607D02*
X749314D01*
X748119Y88075D01*
X747205Y87161D01*
X746710Y85967D01*
Y84674D01*
X747205Y83479D01*
X748119Y82565D01*
X749314Y82070D01*
X750607D01*
X751801Y82565D01*
X752715Y83479D01*
X753210Y84674D01*
Y85967D01*
X752715Y87161D01*
X751801Y88075D01*
X750607Y88570D01*
D02*
G37*
G36*
X725607D02*
X724314D01*
X723119Y88075D01*
X722205Y87161D01*
X721710Y85967D01*
Y84674D01*
X722205Y83479D01*
X723119Y82565D01*
X724314Y82070D01*
X725607D01*
X726801Y82565D01*
X727715Y83479D01*
X728210Y84674D01*
Y85967D01*
X727715Y87161D01*
X726801Y88075D01*
X725607Y88570D01*
D02*
G37*
G36*
X813107Y63570D02*
X811814D01*
X810619Y63075D01*
X809705Y62161D01*
X809210Y60967D01*
Y59674D01*
X809705Y58479D01*
X810619Y57565D01*
X811814Y57070D01*
X813107D01*
X814301Y57565D01*
X815215Y58479D01*
X815710Y59674D01*
Y60967D01*
X815215Y62161D01*
X814301Y63075D01*
X813107Y63570D01*
D02*
G37*
G36*
X788107D02*
X786814D01*
X785619Y63075D01*
X784705Y62161D01*
X784210Y60967D01*
Y59674D01*
X784705Y58479D01*
X785619Y57565D01*
X786814Y57070D01*
X788107D01*
X789301Y57565D01*
X790215Y58479D01*
X790710Y59674D01*
Y60967D01*
X790215Y62161D01*
X789301Y63075D01*
X788107Y63570D01*
D02*
G37*
G36*
X763107D02*
X761814D01*
X760619Y63075D01*
X759705Y62161D01*
X759210Y60967D01*
Y59674D01*
X759705Y58479D01*
X760619Y57565D01*
X761814Y57070D01*
X763107D01*
X764301Y57565D01*
X765215Y58479D01*
X765710Y59674D01*
Y60967D01*
X765215Y62161D01*
X764301Y63075D01*
X763107Y63570D01*
D02*
G37*
G36*
X738107D02*
X736814D01*
X735619Y63075D01*
X734705Y62161D01*
X734210Y60967D01*
Y59674D01*
X734705Y58479D01*
X735619Y57565D01*
X736814Y57070D01*
X738107D01*
X739301Y57565D01*
X740215Y58479D01*
X740710Y59674D01*
Y60967D01*
X740215Y62161D01*
X739301Y63075D01*
X738107Y63570D01*
D02*
G37*
G36*
X713107D02*
X711814D01*
X710619Y63075D01*
X709705Y62161D01*
X709210Y60967D01*
Y59674D01*
X709705Y58479D01*
X710619Y57565D01*
X711814Y57070D01*
X713107D01*
X714301Y57565D01*
X715215Y58479D01*
X715710Y59674D01*
Y60967D01*
X715215Y62161D01*
X714301Y63075D01*
X713107Y63570D01*
D02*
G37*
G36*
X688107D02*
X686814D01*
X685619Y63075D01*
X684705Y62161D01*
X684210Y60967D01*
Y59674D01*
X684705Y58479D01*
X685619Y57565D01*
X686814Y57070D01*
X688107D01*
X689301Y57565D01*
X690215Y58479D01*
X690710Y59674D01*
Y60967D01*
X690215Y62161D01*
X689301Y63075D01*
X688107Y63570D01*
D02*
G37*
G36*
X663107D02*
X661814D01*
X660619Y63075D01*
X659705Y62161D01*
X659210Y60967D01*
Y59674D01*
X659705Y58479D01*
X660619Y57565D01*
X661814Y57070D01*
X663107D01*
X664301Y57565D01*
X665215Y58479D01*
X665710Y59674D01*
Y60967D01*
X665215Y62161D01*
X664301Y63075D01*
X663107Y63570D01*
D02*
G37*
G36*
X638106D02*
X636814D01*
X635619Y63075D01*
X634705Y62161D01*
X634210Y60967D01*
Y59674D01*
X634705Y58479D01*
X635619Y57565D01*
X636814Y57070D01*
X638106D01*
X639301Y57565D01*
X640215Y58479D01*
X640710Y59674D01*
Y60967D01*
X640215Y62161D01*
X639301Y63075D01*
X638106Y63570D01*
D02*
G37*
G36*
X613106D02*
X611814D01*
X610619Y63075D01*
X609705Y62161D01*
X609210Y60967D01*
Y59674D01*
X609705Y58479D01*
X610619Y57565D01*
X611814Y57070D01*
X613106D01*
X614301Y57565D01*
X615215Y58479D01*
X615710Y59674D01*
Y60967D01*
X615215Y62161D01*
X614301Y63075D01*
X613106Y63570D01*
D02*
G37*
G36*
X588106D02*
X586814D01*
X585619Y63075D01*
X584705Y62161D01*
X584210Y60967D01*
Y59674D01*
X584705Y58479D01*
X585619Y57565D01*
X586814Y57070D01*
X588106D01*
X589301Y57565D01*
X590215Y58479D01*
X590710Y59674D01*
Y60967D01*
X590215Y62161D01*
X589301Y63075D01*
X588106Y63570D01*
D02*
G37*
G36*
X563106D02*
X561814D01*
X560619Y63075D01*
X559705Y62161D01*
X559210Y60967D01*
Y59674D01*
X559705Y58479D01*
X560619Y57565D01*
X561814Y57070D01*
X563106D01*
X564301Y57565D01*
X565215Y58479D01*
X565710Y59674D01*
Y60967D01*
X565215Y62161D01*
X564301Y63075D01*
X563106Y63570D01*
D02*
G37*
G36*
X538106D02*
X536814D01*
X535619Y63075D01*
X534705Y62161D01*
X534210Y60967D01*
Y59674D01*
X534705Y58479D01*
X535619Y57565D01*
X536814Y57070D01*
X538106D01*
X539301Y57565D01*
X540215Y58479D01*
X540710Y59674D01*
Y60967D01*
X540215Y62161D01*
X539301Y63075D01*
X538106Y63570D01*
D02*
G37*
G36*
X513106D02*
X511814D01*
X510619Y63075D01*
X509705Y62161D01*
X509210Y60967D01*
Y59674D01*
X509705Y58479D01*
X510619Y57565D01*
X511814Y57070D01*
X513106D01*
X514301Y57565D01*
X515215Y58479D01*
X515710Y59674D01*
Y60967D01*
X515215Y62161D01*
X514301Y63075D01*
X513106Y63570D01*
D02*
G37*
G36*
X488106D02*
X486814D01*
X485619Y63075D01*
X484705Y62161D01*
X484210Y60967D01*
Y59674D01*
X484705Y58479D01*
X485619Y57565D01*
X486814Y57070D01*
X488106D01*
X489301Y57565D01*
X490215Y58479D01*
X490710Y59674D01*
Y60967D01*
X490215Y62161D01*
X489301Y63075D01*
X488106Y63570D01*
D02*
G37*
G36*
X463106D02*
X461814D01*
X460619Y63075D01*
X459705Y62161D01*
X459210Y60967D01*
Y59674D01*
X459705Y58479D01*
X460619Y57565D01*
X461814Y57070D01*
X463106D01*
X464301Y57565D01*
X465215Y58479D01*
X465710Y59674D01*
Y60967D01*
X465215Y62161D01*
X464301Y63075D01*
X463106Y63570D01*
D02*
G37*
G36*
X438106D02*
X436814D01*
X435619Y63075D01*
X434705Y62161D01*
X434210Y60967D01*
Y59674D01*
X434705Y58479D01*
X435619Y57565D01*
X436814Y57070D01*
X438106D01*
X439301Y57565D01*
X440215Y58479D01*
X440710Y59674D01*
Y60967D01*
X440215Y62161D01*
X439301Y63075D01*
X438106Y63570D01*
D02*
G37*
G36*
X413106D02*
X411814D01*
X410619Y63075D01*
X409705Y62161D01*
X409210Y60967D01*
Y59674D01*
X409705Y58479D01*
X410619Y57565D01*
X411814Y57070D01*
X413106D01*
X414301Y57565D01*
X415215Y58479D01*
X415710Y59674D01*
Y60967D01*
X415215Y62161D01*
X414301Y63075D01*
X413106Y63570D01*
D02*
G37*
G36*
X388106D02*
X386814D01*
X385619Y63075D01*
X384705Y62161D01*
X384210Y60967D01*
Y59674D01*
X384705Y58479D01*
X385619Y57565D01*
X386814Y57070D01*
X388106D01*
X389301Y57565D01*
X390215Y58479D01*
X390710Y59674D01*
Y60967D01*
X390215Y62161D01*
X389301Y63075D01*
X388106Y63570D01*
D02*
G37*
G36*
X363106D02*
X361814D01*
X360619Y63075D01*
X359705Y62161D01*
X359210Y60967D01*
Y59674D01*
X359705Y58479D01*
X360619Y57565D01*
X361814Y57070D01*
X363106D01*
X364301Y57565D01*
X365215Y58479D01*
X365710Y59674D01*
Y60967D01*
X365215Y62161D01*
X364301Y63075D01*
X363106Y63570D01*
D02*
G37*
G36*
X338106D02*
X336814D01*
X335619Y63075D01*
X334705Y62161D01*
X334210Y60967D01*
Y59674D01*
X334705Y58479D01*
X335619Y57565D01*
X336814Y57070D01*
X338106D01*
X339301Y57565D01*
X340215Y58479D01*
X340710Y59674D01*
Y60967D01*
X340215Y62161D01*
X339301Y63075D01*
X338106Y63570D01*
D02*
G37*
G36*
X313106D02*
X311814D01*
X310619Y63075D01*
X309705Y62161D01*
X309210Y60967D01*
Y59674D01*
X309705Y58479D01*
X310619Y57565D01*
X311814Y57070D01*
X313106D01*
X314301Y57565D01*
X315215Y58479D01*
X315710Y59674D01*
Y60967D01*
X315215Y62161D01*
X314301Y63075D01*
X313106Y63570D01*
D02*
G37*
G36*
X288106D02*
X286814D01*
X285619Y63075D01*
X284705Y62161D01*
X284210Y60967D01*
Y59674D01*
X284705Y58479D01*
X285619Y57565D01*
X286814Y57070D01*
X288106D01*
X289301Y57565D01*
X290215Y58479D01*
X290710Y59674D01*
Y60967D01*
X290215Y62161D01*
X289301Y63075D01*
X288106Y63570D01*
D02*
G37*
G36*
X263106D02*
X261814D01*
X260619Y63075D01*
X259705Y62161D01*
X259210Y60967D01*
Y59674D01*
X259705Y58479D01*
X260619Y57565D01*
X261814Y57070D01*
X263106D01*
X264301Y57565D01*
X265215Y58479D01*
X265710Y59674D01*
Y60967D01*
X265215Y62161D01*
X264301Y63075D01*
X263106Y63570D01*
D02*
G37*
G36*
X238106D02*
X236814D01*
X235619Y63075D01*
X234705Y62161D01*
X234210Y60967D01*
Y59674D01*
X234705Y58479D01*
X235619Y57565D01*
X236814Y57070D01*
X238106D01*
X239301Y57565D01*
X240215Y58479D01*
X240710Y59674D01*
Y60967D01*
X240215Y62161D01*
X239301Y63075D01*
X238106Y63570D01*
D02*
G37*
G36*
X213106D02*
X211814D01*
X210619Y63075D01*
X209705Y62161D01*
X209210Y60967D01*
Y59674D01*
X209705Y58479D01*
X210619Y57565D01*
X211814Y57070D01*
X213106D01*
X214301Y57565D01*
X215215Y58479D01*
X215710Y59674D01*
Y60967D01*
X215215Y62161D01*
X214301Y63075D01*
X213106Y63570D01*
D02*
G37*
G36*
X188106D02*
X186814D01*
X185619Y63075D01*
X184705Y62161D01*
X184210Y60967D01*
Y59674D01*
X184705Y58479D01*
X185619Y57565D01*
X186814Y57070D01*
X188106D01*
X189301Y57565D01*
X190215Y58479D01*
X190710Y59674D01*
Y60967D01*
X190215Y62161D01*
X189301Y63075D01*
X188106Y63570D01*
D02*
G37*
G36*
X163106D02*
X161814D01*
X160619Y63075D01*
X159705Y62161D01*
X159210Y60967D01*
Y59674D01*
X159705Y58479D01*
X160619Y57565D01*
X161814Y57070D01*
X163106D01*
X164301Y57565D01*
X165215Y58479D01*
X165710Y59674D01*
Y60967D01*
X165215Y62161D01*
X164301Y63075D01*
X163106Y63570D01*
D02*
G37*
G36*
X138106D02*
X136814D01*
X135619Y63075D01*
X134705Y62161D01*
X134210Y60967D01*
Y59674D01*
X134705Y58479D01*
X135619Y57565D01*
X136814Y57070D01*
X138106D01*
X139301Y57565D01*
X140215Y58479D01*
X140710Y59674D01*
Y60967D01*
X140215Y62161D01*
X139301Y63075D01*
X138106Y63570D01*
D02*
G37*
G36*
X113106D02*
X111814D01*
X110619Y63075D01*
X109705Y62161D01*
X109210Y60967D01*
Y59674D01*
X109705Y58479D01*
X110619Y57565D01*
X111814Y57070D01*
X113106D01*
X114301Y57565D01*
X115215Y58479D01*
X115710Y59674D01*
Y60967D01*
X115215Y62161D01*
X114301Y63075D01*
X113106Y63570D01*
D02*
G37*
G36*
X88106D02*
X86814D01*
X85619Y63075D01*
X84705Y62161D01*
X84210Y60967D01*
Y59674D01*
X84705Y58479D01*
X85619Y57565D01*
X86814Y57070D01*
X88106D01*
X89301Y57565D01*
X90215Y58479D01*
X90710Y59674D01*
Y60967D01*
X90215Y62161D01*
X89301Y63075D01*
X88106Y63570D01*
D02*
G37*
G36*
X825607Y38570D02*
X824314D01*
X823119Y38075D01*
X822205Y37161D01*
X821710Y35966D01*
Y34674D01*
X822205Y33479D01*
X823119Y32565D01*
X824314Y32070D01*
X825607D01*
X826801Y32565D01*
X827715Y33479D01*
X828210Y34674D01*
Y35966D01*
X827715Y37161D01*
X826801Y38075D01*
X825607Y38570D01*
D02*
G37*
G36*
X800607D02*
X799314D01*
X798119Y38075D01*
X797205Y37161D01*
X796710Y35966D01*
Y34674D01*
X797205Y33479D01*
X798119Y32565D01*
X799314Y32070D01*
X800607D01*
X801801Y32565D01*
X802715Y33479D01*
X803210Y34674D01*
Y35966D01*
X802715Y37161D01*
X801801Y38075D01*
X800607Y38570D01*
D02*
G37*
G36*
X775607D02*
X774314D01*
X773119Y38075D01*
X772205Y37161D01*
X771710Y35966D01*
Y34674D01*
X772205Y33479D01*
X773119Y32565D01*
X774314Y32070D01*
X775607D01*
X776801Y32565D01*
X777715Y33479D01*
X778210Y34674D01*
Y35966D01*
X777715Y37161D01*
X776801Y38075D01*
X775607Y38570D01*
D02*
G37*
G36*
X750607D02*
X749314D01*
X748119Y38075D01*
X747205Y37161D01*
X746710Y35966D01*
Y34674D01*
X747205Y33479D01*
X748119Y32565D01*
X749314Y32070D01*
X750607D01*
X751801Y32565D01*
X752715Y33479D01*
X753210Y34674D01*
Y35966D01*
X752715Y37161D01*
X751801Y38075D01*
X750607Y38570D01*
D02*
G37*
G36*
X725607D02*
X724314D01*
X723119Y38075D01*
X722205Y37161D01*
X721710Y35966D01*
Y34674D01*
X722205Y33479D01*
X723119Y32565D01*
X724314Y32070D01*
X725607D01*
X726801Y32565D01*
X727715Y33479D01*
X728210Y34674D01*
Y35966D01*
X727715Y37161D01*
X726801Y38075D01*
X725607Y38570D01*
D02*
G37*
G36*
X700607D02*
X699314D01*
X698119Y38075D01*
X697205Y37161D01*
X696710Y35966D01*
Y34674D01*
X697205Y33479D01*
X698119Y32565D01*
X699314Y32070D01*
X700607D01*
X701801Y32565D01*
X702715Y33479D01*
X703210Y34674D01*
Y35966D01*
X702715Y37161D01*
X701801Y38075D01*
X700607Y38570D01*
D02*
G37*
G36*
X675607D02*
X674314D01*
X673119Y38075D01*
X672205Y37161D01*
X671710Y35966D01*
Y34674D01*
X672205Y33479D01*
X673119Y32565D01*
X674314Y32070D01*
X675607D01*
X676801Y32565D01*
X677715Y33479D01*
X678210Y34674D01*
Y35966D01*
X677715Y37161D01*
X676801Y38075D01*
X675607Y38570D01*
D02*
G37*
G36*
X650607D02*
X649314D01*
X648119Y38075D01*
X647205Y37161D01*
X646710Y35966D01*
Y34674D01*
X647205Y33479D01*
X648119Y32565D01*
X649314Y32070D01*
X650607D01*
X651801Y32565D01*
X652715Y33479D01*
X653210Y34674D01*
Y35966D01*
X652715Y37161D01*
X651801Y38075D01*
X650607Y38570D01*
D02*
G37*
G36*
X625606D02*
X624314D01*
X623119Y38075D01*
X622205Y37161D01*
X621710Y35966D01*
Y34674D01*
X622205Y33479D01*
X623119Y32565D01*
X624314Y32070D01*
X625606D01*
X626801Y32565D01*
X627715Y33479D01*
X628210Y34674D01*
Y35966D01*
X627715Y37161D01*
X626801Y38075D01*
X625606Y38570D01*
D02*
G37*
G36*
X600606D02*
X599314D01*
X598119Y38075D01*
X597205Y37161D01*
X596710Y35966D01*
Y34674D01*
X597205Y33479D01*
X598119Y32565D01*
X599314Y32070D01*
X600606D01*
X601801Y32565D01*
X602715Y33479D01*
X603210Y34674D01*
Y35966D01*
X602715Y37161D01*
X601801Y38075D01*
X600606Y38570D01*
D02*
G37*
G36*
X575606D02*
X574314D01*
X573119Y38075D01*
X572205Y37161D01*
X571710Y35966D01*
Y34674D01*
X572205Y33479D01*
X573119Y32565D01*
X574314Y32070D01*
X575606D01*
X576801Y32565D01*
X577715Y33479D01*
X578210Y34674D01*
Y35966D01*
X577715Y37161D01*
X576801Y38075D01*
X575606Y38570D01*
D02*
G37*
G36*
X550606D02*
X549314D01*
X548119Y38075D01*
X547205Y37161D01*
X546710Y35966D01*
Y34674D01*
X547205Y33479D01*
X548119Y32565D01*
X549314Y32070D01*
X550606D01*
X551801Y32565D01*
X552715Y33479D01*
X553210Y34674D01*
Y35966D01*
X552715Y37161D01*
X551801Y38075D01*
X550606Y38570D01*
D02*
G37*
G36*
X525606D02*
X524314D01*
X523119Y38075D01*
X522205Y37161D01*
X521710Y35966D01*
Y34674D01*
X522205Y33479D01*
X523119Y32565D01*
X524314Y32070D01*
X525606D01*
X526801Y32565D01*
X527715Y33479D01*
X528210Y34674D01*
Y35966D01*
X527715Y37161D01*
X526801Y38075D01*
X525606Y38570D01*
D02*
G37*
G36*
X500606D02*
X499314D01*
X498119Y38075D01*
X497205Y37161D01*
X496710Y35966D01*
Y34674D01*
X497205Y33479D01*
X498119Y32565D01*
X499314Y32070D01*
X500606D01*
X501801Y32565D01*
X502715Y33479D01*
X503210Y34674D01*
Y35966D01*
X502715Y37161D01*
X501801Y38075D01*
X500606Y38570D01*
D02*
G37*
G36*
X475606D02*
X474314D01*
X473119Y38075D01*
X472205Y37161D01*
X471710Y35966D01*
Y34674D01*
X472205Y33479D01*
X473119Y32565D01*
X474314Y32070D01*
X475606D01*
X476801Y32565D01*
X477715Y33479D01*
X478210Y34674D01*
Y35966D01*
X477715Y37161D01*
X476801Y38075D01*
X475606Y38570D01*
D02*
G37*
G36*
X450606D02*
X449314D01*
X448119Y38075D01*
X447205Y37161D01*
X446710Y35966D01*
Y34674D01*
X447205Y33479D01*
X448119Y32565D01*
X449314Y32070D01*
X450606D01*
X451801Y32565D01*
X452715Y33479D01*
X453210Y34674D01*
Y35966D01*
X452715Y37161D01*
X451801Y38075D01*
X450606Y38570D01*
D02*
G37*
G36*
X425606D02*
X424314D01*
X423119Y38075D01*
X422205Y37161D01*
X421710Y35966D01*
Y34674D01*
X422205Y33479D01*
X423119Y32565D01*
X424314Y32070D01*
X425606D01*
X426801Y32565D01*
X427715Y33479D01*
X428210Y34674D01*
Y35966D01*
X427715Y37161D01*
X426801Y38075D01*
X425606Y38570D01*
D02*
G37*
G36*
X400606D02*
X399314D01*
X398119Y38075D01*
X397205Y37161D01*
X396710Y35966D01*
Y34674D01*
X397205Y33479D01*
X398119Y32565D01*
X399314Y32070D01*
X400606D01*
X401801Y32565D01*
X402715Y33479D01*
X403210Y34674D01*
Y35966D01*
X402715Y37161D01*
X401801Y38075D01*
X400606Y38570D01*
D02*
G37*
G36*
X375606D02*
X374314D01*
X373119Y38075D01*
X372205Y37161D01*
X371710Y35966D01*
Y34674D01*
X372205Y33479D01*
X373119Y32565D01*
X374314Y32070D01*
X375606D01*
X376801Y32565D01*
X377715Y33479D01*
X378210Y34674D01*
Y35966D01*
X377715Y37161D01*
X376801Y38075D01*
X375606Y38570D01*
D02*
G37*
G36*
X350606D02*
X349314D01*
X348119Y38075D01*
X347205Y37161D01*
X346710Y35966D01*
Y34674D01*
X347205Y33479D01*
X348119Y32565D01*
X349314Y32070D01*
X350606D01*
X351801Y32565D01*
X352715Y33479D01*
X353210Y34674D01*
Y35966D01*
X352715Y37161D01*
X351801Y38075D01*
X350606Y38570D01*
D02*
G37*
G36*
X325606D02*
X324314D01*
X323119Y38075D01*
X322205Y37161D01*
X321710Y35966D01*
Y34674D01*
X322205Y33479D01*
X323119Y32565D01*
X324314Y32070D01*
X325606D01*
X326801Y32565D01*
X327715Y33479D01*
X328210Y34674D01*
Y35966D01*
X327715Y37161D01*
X326801Y38075D01*
X325606Y38570D01*
D02*
G37*
G36*
X300606D02*
X299314D01*
X298119Y38075D01*
X297205Y37161D01*
X296710Y35966D01*
Y34674D01*
X297205Y33479D01*
X298119Y32565D01*
X299314Y32070D01*
X300606D01*
X301801Y32565D01*
X302715Y33479D01*
X303210Y34674D01*
Y35966D01*
X302715Y37161D01*
X301801Y38075D01*
X300606Y38570D01*
D02*
G37*
G36*
X275606D02*
X274314D01*
X273119Y38075D01*
X272205Y37161D01*
X271710Y35966D01*
Y34674D01*
X272205Y33479D01*
X273119Y32565D01*
X274314Y32070D01*
X275606D01*
X276801Y32565D01*
X277715Y33479D01*
X278210Y34674D01*
Y35966D01*
X277715Y37161D01*
X276801Y38075D01*
X275606Y38570D01*
D02*
G37*
G36*
X250606D02*
X249314D01*
X248119Y38075D01*
X247205Y37161D01*
X246710Y35966D01*
Y34674D01*
X247205Y33479D01*
X248119Y32565D01*
X249314Y32070D01*
X250606D01*
X251801Y32565D01*
X252715Y33479D01*
X253210Y34674D01*
Y35966D01*
X252715Y37161D01*
X251801Y38075D01*
X250606Y38570D01*
D02*
G37*
G36*
X225606D02*
X224314D01*
X223119Y38075D01*
X222205Y37161D01*
X221710Y35966D01*
Y34674D01*
X222205Y33479D01*
X223119Y32565D01*
X224314Y32070D01*
X225606D01*
X226801Y32565D01*
X227715Y33479D01*
X228210Y34674D01*
Y35966D01*
X227715Y37161D01*
X226801Y38075D01*
X225606Y38570D01*
D02*
G37*
G36*
X200606D02*
X199314D01*
X198119Y38075D01*
X197205Y37161D01*
X196710Y35966D01*
Y34674D01*
X197205Y33479D01*
X198119Y32565D01*
X199314Y32070D01*
X200606D01*
X201801Y32565D01*
X202715Y33479D01*
X203210Y34674D01*
Y35966D01*
X202715Y37161D01*
X201801Y38075D01*
X200606Y38570D01*
D02*
G37*
G36*
X175606D02*
X174314D01*
X173119Y38075D01*
X172205Y37161D01*
X171710Y35966D01*
Y34674D01*
X172205Y33479D01*
X173119Y32565D01*
X174314Y32070D01*
X175606D01*
X176801Y32565D01*
X177715Y33479D01*
X178210Y34674D01*
Y35966D01*
X177715Y37161D01*
X176801Y38075D01*
X175606Y38570D01*
D02*
G37*
G36*
X150606D02*
X149314D01*
X148119Y38075D01*
X147205Y37161D01*
X146710Y35966D01*
Y34674D01*
X147205Y33479D01*
X148119Y32565D01*
X149314Y32070D01*
X150606D01*
X151801Y32565D01*
X152715Y33479D01*
X153210Y34674D01*
Y35966D01*
X152715Y37161D01*
X151801Y38075D01*
X150606Y38570D01*
D02*
G37*
G36*
X125606D02*
X124314D01*
X123119Y38075D01*
X122205Y37161D01*
X121710Y35966D01*
Y34674D01*
X122205Y33479D01*
X123119Y32565D01*
X124314Y32070D01*
X125606D01*
X126801Y32565D01*
X127715Y33479D01*
X128210Y34674D01*
Y35966D01*
X127715Y37161D01*
X126801Y38075D01*
X125606Y38570D01*
D02*
G37*
G36*
X100606D02*
X99314D01*
X98119Y38075D01*
X97205Y37161D01*
X96710Y35966D01*
Y34674D01*
X97205Y33479D01*
X98119Y32565D01*
X99314Y32070D01*
X100606D01*
X101801Y32565D01*
X102715Y33479D01*
X103210Y34674D01*
Y35966D01*
X102715Y37161D01*
X101801Y38075D01*
X100606Y38570D01*
D02*
G37*
G36*
X75606D02*
X74314D01*
X73119Y38075D01*
X72205Y37161D01*
X71710Y35966D01*
Y34674D01*
X72205Y33479D01*
X73119Y32565D01*
X74314Y32070D01*
X75606D01*
X76801Y32565D01*
X77715Y33479D01*
X78210Y34674D01*
Y35966D01*
X77715Y37161D01*
X76801Y38075D01*
X75606Y38570D01*
D02*
G37*
G36*
X50606D02*
X49314D01*
X48119Y38075D01*
X47205Y37161D01*
X46710Y35966D01*
Y34674D01*
X47205Y33479D01*
X48119Y32565D01*
X49314Y32070D01*
X50606D01*
X51801Y32565D01*
X52715Y33479D01*
X53210Y34674D01*
Y35966D01*
X52715Y37161D01*
X51801Y38075D01*
X50606Y38570D01*
D02*
G37*
G36*
X25607D02*
X24314D01*
X23119Y38075D01*
X22205Y37161D01*
X21710Y35966D01*
Y34674D01*
X22205Y33479D01*
X23119Y32565D01*
X24314Y32070D01*
X25607D01*
X26801Y32565D01*
X27715Y33479D01*
X28210Y34674D01*
Y35966D01*
X27715Y37161D01*
X26801Y38075D01*
X25607Y38570D01*
D02*
G37*
G36*
X813107Y13570D02*
X811814D01*
X810619Y13075D01*
X809705Y12161D01*
X809210Y10967D01*
Y9674D01*
X809705Y8479D01*
X810619Y7565D01*
X811814Y7070D01*
X813107D01*
X814301Y7565D01*
X815215Y8479D01*
X815710Y9674D01*
Y10967D01*
X815215Y12161D01*
X814301Y13075D01*
X813107Y13570D01*
D02*
G37*
G36*
X788107D02*
X786814D01*
X785619Y13075D01*
X784705Y12161D01*
X784210Y10967D01*
Y9674D01*
X784705Y8479D01*
X785619Y7565D01*
X786814Y7070D01*
X788107D01*
X789301Y7565D01*
X790215Y8479D01*
X790710Y9674D01*
Y10967D01*
X790215Y12161D01*
X789301Y13075D01*
X788107Y13570D01*
D02*
G37*
G36*
X763107D02*
X761814D01*
X760619Y13075D01*
X759705Y12161D01*
X759210Y10967D01*
Y9674D01*
X759705Y8479D01*
X760619Y7565D01*
X761814Y7070D01*
X763107D01*
X764301Y7565D01*
X765215Y8479D01*
X765710Y9674D01*
Y10967D01*
X765215Y12161D01*
X764301Y13075D01*
X763107Y13570D01*
D02*
G37*
G36*
X738107D02*
X736814D01*
X735619Y13075D01*
X734705Y12161D01*
X734210Y10967D01*
Y9674D01*
X734705Y8479D01*
X735619Y7565D01*
X736814Y7070D01*
X738107D01*
X739301Y7565D01*
X740215Y8479D01*
X740710Y9674D01*
Y10967D01*
X740215Y12161D01*
X739301Y13075D01*
X738107Y13570D01*
D02*
G37*
G36*
X713107D02*
X711814D01*
X710619Y13075D01*
X709705Y12161D01*
X709210Y10967D01*
Y9674D01*
X709705Y8479D01*
X710619Y7565D01*
X711814Y7070D01*
X713107D01*
X714301Y7565D01*
X715215Y8479D01*
X715710Y9674D01*
Y10967D01*
X715215Y12161D01*
X714301Y13075D01*
X713107Y13570D01*
D02*
G37*
G36*
X688107D02*
X686814D01*
X685619Y13075D01*
X684705Y12161D01*
X684210Y10967D01*
Y9674D01*
X684705Y8479D01*
X685619Y7565D01*
X686814Y7070D01*
X688107D01*
X689301Y7565D01*
X690215Y8479D01*
X690710Y9674D01*
Y10967D01*
X690215Y12161D01*
X689301Y13075D01*
X688107Y13570D01*
D02*
G37*
G36*
X663107D02*
X661814D01*
X660619Y13075D01*
X659705Y12161D01*
X659210Y10967D01*
Y9674D01*
X659705Y8479D01*
X660619Y7565D01*
X661814Y7070D01*
X663107D01*
X664301Y7565D01*
X665215Y8479D01*
X665710Y9674D01*
Y10967D01*
X665215Y12161D01*
X664301Y13075D01*
X663107Y13570D01*
D02*
G37*
G36*
X638106D02*
X636814D01*
X635619Y13075D01*
X634705Y12161D01*
X634210Y10967D01*
Y9674D01*
X634705Y8479D01*
X635619Y7565D01*
X636814Y7070D01*
X638106D01*
X639301Y7565D01*
X640215Y8479D01*
X640710Y9674D01*
Y10967D01*
X640215Y12161D01*
X639301Y13075D01*
X638106Y13570D01*
D02*
G37*
G36*
X613106D02*
X611814D01*
X610619Y13075D01*
X609705Y12161D01*
X609210Y10967D01*
Y9674D01*
X609705Y8479D01*
X610619Y7565D01*
X611814Y7070D01*
X613106D01*
X614301Y7565D01*
X615215Y8479D01*
X615710Y9674D01*
Y10967D01*
X615215Y12161D01*
X614301Y13075D01*
X613106Y13570D01*
D02*
G37*
G36*
X588106D02*
X586814D01*
X585619Y13075D01*
X584705Y12161D01*
X584210Y10967D01*
Y9674D01*
X584705Y8479D01*
X585619Y7565D01*
X586814Y7070D01*
X588106D01*
X589301Y7565D01*
X590215Y8479D01*
X590710Y9674D01*
Y10967D01*
X590215Y12161D01*
X589301Y13075D01*
X588106Y13570D01*
D02*
G37*
G36*
X563106D02*
X561814D01*
X560619Y13075D01*
X559705Y12161D01*
X559210Y10967D01*
Y9674D01*
X559705Y8479D01*
X560619Y7565D01*
X561814Y7070D01*
X563106D01*
X564301Y7565D01*
X565215Y8479D01*
X565710Y9674D01*
Y10967D01*
X565215Y12161D01*
X564301Y13075D01*
X563106Y13570D01*
D02*
G37*
G36*
X538106D02*
X536814D01*
X535619Y13075D01*
X534705Y12161D01*
X534210Y10967D01*
Y9674D01*
X534705Y8479D01*
X535619Y7565D01*
X536814Y7070D01*
X538106D01*
X539301Y7565D01*
X540215Y8479D01*
X540710Y9674D01*
Y10967D01*
X540215Y12161D01*
X539301Y13075D01*
X538106Y13570D01*
D02*
G37*
G36*
X513106D02*
X511814D01*
X510619Y13075D01*
X509705Y12161D01*
X509210Y10967D01*
Y9674D01*
X509705Y8479D01*
X510619Y7565D01*
X511814Y7070D01*
X513106D01*
X514301Y7565D01*
X515215Y8479D01*
X515710Y9674D01*
Y10967D01*
X515215Y12161D01*
X514301Y13075D01*
X513106Y13570D01*
D02*
G37*
G36*
X488106D02*
X486814D01*
X485619Y13075D01*
X484705Y12161D01*
X484210Y10967D01*
Y9674D01*
X484705Y8479D01*
X485619Y7565D01*
X486814Y7070D01*
X488106D01*
X489301Y7565D01*
X490215Y8479D01*
X490710Y9674D01*
Y10967D01*
X490215Y12161D01*
X489301Y13075D01*
X488106Y13570D01*
D02*
G37*
G36*
X463106D02*
X461814D01*
X460619Y13075D01*
X459705Y12161D01*
X459210Y10967D01*
Y9674D01*
X459705Y8479D01*
X460619Y7565D01*
X461814Y7070D01*
X463106D01*
X464301Y7565D01*
X465215Y8479D01*
X465710Y9674D01*
Y10967D01*
X465215Y12161D01*
X464301Y13075D01*
X463106Y13570D01*
D02*
G37*
G36*
X438106D02*
X436814D01*
X435619Y13075D01*
X434705Y12161D01*
X434210Y10967D01*
Y9674D01*
X434705Y8479D01*
X435619Y7565D01*
X436814Y7070D01*
X438106D01*
X439301Y7565D01*
X440215Y8479D01*
X440710Y9674D01*
Y10967D01*
X440215Y12161D01*
X439301Y13075D01*
X438106Y13570D01*
D02*
G37*
G36*
X413106D02*
X411814D01*
X410619Y13075D01*
X409705Y12161D01*
X409210Y10967D01*
Y9674D01*
X409705Y8479D01*
X410619Y7565D01*
X411814Y7070D01*
X413106D01*
X414301Y7565D01*
X415215Y8479D01*
X415710Y9674D01*
Y10967D01*
X415215Y12161D01*
X414301Y13075D01*
X413106Y13570D01*
D02*
G37*
G36*
X388106D02*
X386814D01*
X385619Y13075D01*
X384705Y12161D01*
X384210Y10967D01*
Y9674D01*
X384705Y8479D01*
X385619Y7565D01*
X386814Y7070D01*
X388106D01*
X389301Y7565D01*
X390215Y8479D01*
X390710Y9674D01*
Y10967D01*
X390215Y12161D01*
X389301Y13075D01*
X388106Y13570D01*
D02*
G37*
G36*
X363106D02*
X361814D01*
X360619Y13075D01*
X359705Y12161D01*
X359210Y10967D01*
Y9674D01*
X359705Y8479D01*
X360619Y7565D01*
X361814Y7070D01*
X363106D01*
X364301Y7565D01*
X365215Y8479D01*
X365710Y9674D01*
Y10967D01*
X365215Y12161D01*
X364301Y13075D01*
X363106Y13570D01*
D02*
G37*
G36*
X338106D02*
X336814D01*
X335619Y13075D01*
X334705Y12161D01*
X334210Y10967D01*
Y9674D01*
X334705Y8479D01*
X335619Y7565D01*
X336814Y7070D01*
X338106D01*
X339301Y7565D01*
X340215Y8479D01*
X340710Y9674D01*
Y10967D01*
X340215Y12161D01*
X339301Y13075D01*
X338106Y13570D01*
D02*
G37*
G36*
X313106D02*
X311814D01*
X310619Y13075D01*
X309705Y12161D01*
X309210Y10967D01*
Y9674D01*
X309705Y8479D01*
X310619Y7565D01*
X311814Y7070D01*
X313106D01*
X314301Y7565D01*
X315215Y8479D01*
X315710Y9674D01*
Y10967D01*
X315215Y12161D01*
X314301Y13075D01*
X313106Y13570D01*
D02*
G37*
G36*
X288106D02*
X286814D01*
X285619Y13075D01*
X284705Y12161D01*
X284210Y10967D01*
Y9674D01*
X284705Y8479D01*
X285619Y7565D01*
X286814Y7070D01*
X288106D01*
X289301Y7565D01*
X290215Y8479D01*
X290710Y9674D01*
Y10967D01*
X290215Y12161D01*
X289301Y13075D01*
X288106Y13570D01*
D02*
G37*
G36*
X263106D02*
X261814D01*
X260619Y13075D01*
X259705Y12161D01*
X259210Y10967D01*
Y9674D01*
X259705Y8479D01*
X260619Y7565D01*
X261814Y7070D01*
X263106D01*
X264301Y7565D01*
X265215Y8479D01*
X265710Y9674D01*
Y10967D01*
X265215Y12161D01*
X264301Y13075D01*
X263106Y13570D01*
D02*
G37*
G36*
X238106D02*
X236814D01*
X235619Y13075D01*
X234705Y12161D01*
X234210Y10967D01*
Y9674D01*
X234705Y8479D01*
X235619Y7565D01*
X236814Y7070D01*
X238106D01*
X239301Y7565D01*
X240215Y8479D01*
X240710Y9674D01*
Y10967D01*
X240215Y12161D01*
X239301Y13075D01*
X238106Y13570D01*
D02*
G37*
G36*
X213106D02*
X211814D01*
X210619Y13075D01*
X209705Y12161D01*
X209210Y10967D01*
Y9674D01*
X209705Y8479D01*
X210619Y7565D01*
X211814Y7070D01*
X213106D01*
X214301Y7565D01*
X215215Y8479D01*
X215710Y9674D01*
Y10967D01*
X215215Y12161D01*
X214301Y13075D01*
X213106Y13570D01*
D02*
G37*
G36*
X188106D02*
X186814D01*
X185619Y13075D01*
X184705Y12161D01*
X184210Y10967D01*
Y9674D01*
X184705Y8479D01*
X185619Y7565D01*
X186814Y7070D01*
X188106D01*
X189301Y7565D01*
X190215Y8479D01*
X190710Y9674D01*
Y10967D01*
X190215Y12161D01*
X189301Y13075D01*
X188106Y13570D01*
D02*
G37*
G36*
X163106D02*
X161814D01*
X160619Y13075D01*
X159705Y12161D01*
X159210Y10967D01*
Y9674D01*
X159705Y8479D01*
X160619Y7565D01*
X161814Y7070D01*
X163106D01*
X164301Y7565D01*
X165215Y8479D01*
X165710Y9674D01*
Y10967D01*
X165215Y12161D01*
X164301Y13075D01*
X163106Y13570D01*
D02*
G37*
G36*
X138106D02*
X136814D01*
X135619Y13075D01*
X134705Y12161D01*
X134210Y10967D01*
Y9674D01*
X134705Y8479D01*
X135619Y7565D01*
X136814Y7070D01*
X138106D01*
X139301Y7565D01*
X140215Y8479D01*
X140710Y9674D01*
Y10967D01*
X140215Y12161D01*
X139301Y13075D01*
X138106Y13570D01*
D02*
G37*
G36*
X113106D02*
X111814D01*
X110619Y13075D01*
X109705Y12161D01*
X109210Y10967D01*
Y9674D01*
X109705Y8479D01*
X110619Y7565D01*
X111814Y7070D01*
X113106D01*
X114301Y7565D01*
X115215Y8479D01*
X115710Y9674D01*
Y10967D01*
X115215Y12161D01*
X114301Y13075D01*
X113106Y13570D01*
D02*
G37*
G36*
X88106D02*
X86814D01*
X85619Y13075D01*
X84705Y12161D01*
X84210Y10967D01*
Y9674D01*
X84705Y8479D01*
X85619Y7565D01*
X86814Y7070D01*
X88106D01*
X89301Y7565D01*
X90215Y8479D01*
X90710Y9674D01*
Y10967D01*
X90215Y12161D01*
X89301Y13075D01*
X88106Y13570D01*
D02*
G37*
G36*
X63106D02*
X61814D01*
X60619Y13075D01*
X59705Y12161D01*
X59210Y10967D01*
Y9674D01*
X59705Y8479D01*
X60619Y7565D01*
X61814Y7070D01*
X63106D01*
X64301Y7565D01*
X65215Y8479D01*
X65710Y9674D01*
Y10967D01*
X65215Y12161D01*
X64301Y13075D01*
X63106Y13570D01*
D02*
G37*
G36*
X38107D02*
X36814D01*
X35619Y13075D01*
X34705Y12161D01*
X34210Y10967D01*
Y9674D01*
X34705Y8479D01*
X35619Y7565D01*
X36814Y7070D01*
X38107D01*
X39301Y7565D01*
X40215Y8479D01*
X40710Y9674D01*
Y10967D01*
X40215Y12161D01*
X39301Y13075D01*
X38107Y13570D01*
D02*
G37*
G36*
X13106D02*
X11814D01*
X10619Y13075D01*
X9705Y12161D01*
X9210Y10967D01*
Y9674D01*
X9705Y8479D01*
X10619Y7565D01*
X11814Y7070D01*
X13106D01*
X14301Y7565D01*
X15215Y8479D01*
X15710Y9674D01*
Y10967D01*
X15215Y12161D01*
X14301Y13075D01*
X13106Y13570D01*
D02*
G37*
%LPD*%
D28*
X23970Y528570D02*
D03*
D30*
X717804Y135300D02*
D03*
Y414700D02*
D03*
Y186100D02*
D03*
Y160700D02*
D03*
Y236900D02*
D03*
Y211500D02*
D03*
Y389300D02*
D03*
Y363900D02*
D03*
Y338500D02*
D03*
Y313100D02*
D03*
Y287700D02*
D03*
Y262300D02*
D03*
D31*
X824960Y535320D02*
D03*
X812460Y510320D02*
D03*
X824960Y485320D02*
D03*
X812460Y460320D02*
D03*
Y110320D02*
D03*
X824960Y85320D02*
D03*
X812460Y60320D02*
D03*
X824960Y35320D02*
D03*
X812460Y10320D02*
D03*
X799960Y535320D02*
D03*
X787460Y510320D02*
D03*
X799960Y485320D02*
D03*
X787460Y460320D02*
D03*
Y110320D02*
D03*
X799960Y85320D02*
D03*
X787460Y60320D02*
D03*
X799960Y35320D02*
D03*
X787460Y10320D02*
D03*
X774960Y535320D02*
D03*
X762460Y510320D02*
D03*
X774960Y485320D02*
D03*
X762460Y460320D02*
D03*
Y110320D02*
D03*
X774960Y85320D02*
D03*
X762460Y60320D02*
D03*
X774960Y35320D02*
D03*
X762460Y10320D02*
D03*
X749960Y535320D02*
D03*
X737460Y510320D02*
D03*
X749960Y485320D02*
D03*
X737460Y460320D02*
D03*
X749960Y435320D02*
D03*
X737460Y110320D02*
D03*
X749960Y85320D02*
D03*
X737460Y60320D02*
D03*
X749960Y35320D02*
D03*
X737460Y10320D02*
D03*
X724960Y535320D02*
D03*
X712460Y510320D02*
D03*
X724960Y485320D02*
D03*
X712460Y460320D02*
D03*
X724960Y435320D02*
D03*
X712460Y110320D02*
D03*
X724960Y85320D02*
D03*
X712460Y60320D02*
D03*
X724960Y35320D02*
D03*
X712460Y10320D02*
D03*
X699960Y535320D02*
D03*
X687460Y510320D02*
D03*
X699960Y485320D02*
D03*
X687460Y460320D02*
D03*
X699960Y435320D02*
D03*
X687460Y310320D02*
D03*
X699960Y185320D02*
D03*
Y85320D02*
D03*
X687460Y60320D02*
D03*
X699960Y35320D02*
D03*
X687460Y10320D02*
D03*
X674960Y535320D02*
D03*
X662460Y510320D02*
D03*
X674960Y485320D02*
D03*
X662460Y460320D02*
D03*
X674960Y435320D02*
D03*
X662460Y410320D02*
D03*
X674960Y335320D02*
D03*
X662460Y310320D02*
D03*
X674960Y285320D02*
D03*
Y185320D02*
D03*
X662460Y160320D02*
D03*
Y60320D02*
D03*
X674960Y35320D02*
D03*
X662460Y10320D02*
D03*
X649960Y535320D02*
D03*
X637460Y510320D02*
D03*
X649960Y485320D02*
D03*
X637460Y460320D02*
D03*
X649960Y435320D02*
D03*
X637460Y410320D02*
D03*
X649960Y335320D02*
D03*
X637460Y310320D02*
D03*
X649960Y285320D02*
D03*
X637460Y260320D02*
D03*
X649960Y235320D02*
D03*
Y135320D02*
D03*
X637460Y60320D02*
D03*
X649960Y35320D02*
D03*
X637460Y10320D02*
D03*
X624960Y535320D02*
D03*
X612460Y510320D02*
D03*
X624960Y485320D02*
D03*
X612460Y460320D02*
D03*
X624960Y435320D02*
D03*
X612460Y410320D02*
D03*
X624960Y335320D02*
D03*
X612460Y310320D02*
D03*
X624960Y285320D02*
D03*
X612460Y260320D02*
D03*
X624960Y235320D02*
D03*
X612460Y160320D02*
D03*
X624960Y135320D02*
D03*
X612460Y60320D02*
D03*
X624960Y35320D02*
D03*
X612460Y10320D02*
D03*
X599960Y535320D02*
D03*
X587460Y510320D02*
D03*
X599960Y485320D02*
D03*
X587460Y460320D02*
D03*
X599960Y435320D02*
D03*
X587460Y410320D02*
D03*
X599960Y335320D02*
D03*
X587460Y310320D02*
D03*
X599960Y285320D02*
D03*
X587460Y260320D02*
D03*
X599960Y235320D02*
D03*
X587460Y210320D02*
D03*
Y160320D02*
D03*
X599960Y135320D02*
D03*
X587460Y60320D02*
D03*
X599960Y35320D02*
D03*
X587460Y10320D02*
D03*
X574960Y535320D02*
D03*
X562460Y510320D02*
D03*
X574960Y485320D02*
D03*
X562460Y460320D02*
D03*
X574960Y435320D02*
D03*
X562460Y410320D02*
D03*
X574960Y335320D02*
D03*
X562460Y310320D02*
D03*
X574960Y285320D02*
D03*
X562460Y260320D02*
D03*
X574960Y235320D02*
D03*
X562460Y210320D02*
D03*
Y160320D02*
D03*
X574960Y135320D02*
D03*
X562460Y60320D02*
D03*
X574960Y35320D02*
D03*
X562460Y10320D02*
D03*
X549960Y535320D02*
D03*
X537460Y510320D02*
D03*
X549960Y485320D02*
D03*
X537460Y460320D02*
D03*
X549960Y435320D02*
D03*
X537460Y410320D02*
D03*
X549960Y335320D02*
D03*
X537460Y310320D02*
D03*
X549960Y285320D02*
D03*
X537460Y260320D02*
D03*
X549960Y235320D02*
D03*
X537460Y210320D02*
D03*
Y160320D02*
D03*
X549960Y135320D02*
D03*
X537460Y60320D02*
D03*
X549960Y35320D02*
D03*
X537460Y10320D02*
D03*
X524960Y535320D02*
D03*
X512460Y510320D02*
D03*
X524960Y485320D02*
D03*
X512460Y460320D02*
D03*
X524960Y435320D02*
D03*
X512460Y410320D02*
D03*
X524960Y335320D02*
D03*
X512460Y310320D02*
D03*
X524960Y285320D02*
D03*
X512460Y260320D02*
D03*
X524960Y235320D02*
D03*
X512460Y210320D02*
D03*
Y160320D02*
D03*
X524960Y135320D02*
D03*
X512460Y60320D02*
D03*
X524960Y35320D02*
D03*
X512460Y10320D02*
D03*
X499960Y535320D02*
D03*
X487460Y510320D02*
D03*
X499960Y485320D02*
D03*
X487460Y460320D02*
D03*
X499960Y435320D02*
D03*
X487460Y410320D02*
D03*
X499960Y335320D02*
D03*
X487460Y310320D02*
D03*
X499960Y285320D02*
D03*
X487460Y260320D02*
D03*
X499960Y235320D02*
D03*
X487460Y210320D02*
D03*
Y160320D02*
D03*
X499960Y135320D02*
D03*
X487460Y60320D02*
D03*
X499960Y35320D02*
D03*
X487460Y10320D02*
D03*
X474960Y535320D02*
D03*
X462460Y510320D02*
D03*
X474960Y485320D02*
D03*
X462460Y460320D02*
D03*
X474960Y435320D02*
D03*
X462460Y410320D02*
D03*
X474960Y335320D02*
D03*
X462460Y310320D02*
D03*
X474960Y285320D02*
D03*
X462460Y260320D02*
D03*
X474960Y235320D02*
D03*
X462460Y210320D02*
D03*
Y160320D02*
D03*
X474960Y135320D02*
D03*
X462460Y60320D02*
D03*
X474960Y35320D02*
D03*
X462460Y10320D02*
D03*
X449960Y535320D02*
D03*
X437460Y510320D02*
D03*
X449960Y485320D02*
D03*
X437460Y460320D02*
D03*
X449960Y435320D02*
D03*
X437460Y410320D02*
D03*
X449960Y335320D02*
D03*
X437460Y310320D02*
D03*
X449960Y285320D02*
D03*
X437460Y260320D02*
D03*
X449960Y235320D02*
D03*
X437460Y210320D02*
D03*
Y160320D02*
D03*
X449960Y135320D02*
D03*
X437460Y60320D02*
D03*
X449960Y35320D02*
D03*
X437460Y10320D02*
D03*
X424960Y535320D02*
D03*
X412460Y510320D02*
D03*
X424960Y485320D02*
D03*
X412460Y460320D02*
D03*
X424960Y335320D02*
D03*
X412460Y310320D02*
D03*
X424960Y285320D02*
D03*
X412460Y260320D02*
D03*
X424960Y235320D02*
D03*
X412460Y210320D02*
D03*
Y160320D02*
D03*
X424960Y135320D02*
D03*
X412460Y60320D02*
D03*
X424960Y35320D02*
D03*
X412460Y10320D02*
D03*
X399960Y535320D02*
D03*
X387460Y510320D02*
D03*
X399960Y485320D02*
D03*
X387460Y460320D02*
D03*
X399960Y335320D02*
D03*
X387460Y310320D02*
D03*
X399960Y285320D02*
D03*
X387460Y260320D02*
D03*
X399960Y235320D02*
D03*
X387460Y210320D02*
D03*
Y160320D02*
D03*
X399960Y135320D02*
D03*
X387460Y60320D02*
D03*
X399960Y35320D02*
D03*
X387460Y10320D02*
D03*
X374960Y535320D02*
D03*
X362460Y510320D02*
D03*
X374960Y485320D02*
D03*
X362460Y460320D02*
D03*
X374960Y335320D02*
D03*
X362460Y310320D02*
D03*
X374960Y285320D02*
D03*
X362460Y260320D02*
D03*
X374960Y235320D02*
D03*
X362460Y210320D02*
D03*
Y160320D02*
D03*
X374960Y135320D02*
D03*
X362460Y60320D02*
D03*
X374960Y35320D02*
D03*
X362460Y10320D02*
D03*
X349960Y535320D02*
D03*
X337460Y510320D02*
D03*
X349960Y335320D02*
D03*
Y285320D02*
D03*
X337460Y260320D02*
D03*
X349960Y235320D02*
D03*
X337460Y210320D02*
D03*
Y160320D02*
D03*
X349960Y135320D02*
D03*
X337460Y60320D02*
D03*
X349960Y35320D02*
D03*
X337460Y10320D02*
D03*
X324960Y535320D02*
D03*
X312460Y510320D02*
D03*
Y460320D02*
D03*
Y310320D02*
D03*
X324960Y285320D02*
D03*
X312460Y260320D02*
D03*
X324960Y235320D02*
D03*
X312460Y160320D02*
D03*
X324960Y135320D02*
D03*
X312460Y60320D02*
D03*
X324960Y35320D02*
D03*
X312460Y10320D02*
D03*
X299960Y535320D02*
D03*
X287460Y510320D02*
D03*
X299960Y485320D02*
D03*
X287460Y460320D02*
D03*
X299960Y435320D02*
D03*
X287460Y160320D02*
D03*
X299960Y135320D02*
D03*
X287460Y60320D02*
D03*
X299960Y35320D02*
D03*
X287460Y10320D02*
D03*
X274960Y535320D02*
D03*
X262460Y510320D02*
D03*
X274960Y485320D02*
D03*
X262460Y460320D02*
D03*
Y160320D02*
D03*
X274960Y135320D02*
D03*
X262460Y60320D02*
D03*
X274960Y35320D02*
D03*
X262460Y10320D02*
D03*
X249960Y535320D02*
D03*
X237460Y510320D02*
D03*
Y160320D02*
D03*
X249960Y135320D02*
D03*
X237460Y60320D02*
D03*
X249960Y35320D02*
D03*
X237460Y10320D02*
D03*
X224960Y535320D02*
D03*
X212460Y510320D02*
D03*
X224960Y135320D02*
D03*
X212460Y60320D02*
D03*
X224960Y35320D02*
D03*
X212460Y10320D02*
D03*
X199960Y535320D02*
D03*
X187460Y510320D02*
D03*
X199960Y485320D02*
D03*
X187460Y160320D02*
D03*
X199960Y135320D02*
D03*
X187460Y60320D02*
D03*
X199960Y35320D02*
D03*
X187460Y10320D02*
D03*
X174960Y535320D02*
D03*
X162460Y510320D02*
D03*
X174960Y485320D02*
D03*
X162460Y410320D02*
D03*
X174960Y135320D02*
D03*
X162460Y60320D02*
D03*
X174960Y35320D02*
D03*
X162460Y10320D02*
D03*
X149960Y535320D02*
D03*
X137460Y510320D02*
D03*
Y260320D02*
D03*
X149960Y235320D02*
D03*
X137460Y210320D02*
D03*
X149960Y185320D02*
D03*
X137460Y60320D02*
D03*
X149960Y35320D02*
D03*
X137460Y10320D02*
D03*
X124960Y535320D02*
D03*
X112460Y510320D02*
D03*
X124960Y185320D02*
D03*
X112460Y60320D02*
D03*
X124960Y35320D02*
D03*
X112460Y10320D02*
D03*
X99960Y535320D02*
D03*
X87460Y510320D02*
D03*
X99960Y485320D02*
D03*
Y185320D02*
D03*
X87460Y60320D02*
D03*
X99960Y35320D02*
D03*
X87460Y10320D02*
D03*
X74960Y535320D02*
D03*
X62460Y510320D02*
D03*
X74960Y485320D02*
D03*
Y35320D02*
D03*
X62460Y10320D02*
D03*
X49960Y535320D02*
D03*
Y485320D02*
D03*
Y35320D02*
D03*
X37460Y10320D02*
D03*
X24960Y485320D02*
D03*
Y35320D02*
D03*
X12460Y10320D02*
D03*
X30226Y337058D02*
D03*
X66294Y339344D02*
D03*
X183642Y340614D02*
D03*
X172720Y322326D02*
D03*
X262883Y361435D02*
D03*
X248920Y327914D02*
D03*
X289306Y320675D02*
D03*
X290830Y303530D02*
D03*
X191008Y175006D02*
D03*
X213868Y180848D02*
D03*
X217932Y157734D02*
D03*
X96193Y178960D02*
D03*
X35052Y240538D02*
D03*
X27178D02*
D03*
X19304D02*
D03*
X42926D02*
D03*
X119126Y354330D02*
D03*
X168656Y231140D02*
D03*
X257810Y228092D02*
D03*
X326136Y475234D02*
D03*
X319250Y351282D02*
D03*
X276606Y283972D02*
D03*
X226314Y474980D02*
D03*
X245618Y180594D02*
D03*
X231394D02*
D03*
X126238Y475234D02*
D03*
X58166Y323850D02*
D03*
X50292D02*
D03*
Y315976D02*
D03*
X104120Y306598D02*
D03*
X58166Y308102D02*
D03*
X109688Y301031D02*
D03*
X58166Y315976D02*
D03*
X50292Y308102D02*
D03*
Y300228D02*
D03*
X168148Y205486D02*
D03*
X115062Y141986D02*
D03*
X93218Y236474D02*
D03*
X85344Y228600D02*
D03*
X93218D02*
D03*
X77470D02*
D03*
X160020Y232664D02*
D03*
X272288Y216662D02*
D03*
X59944Y220472D02*
D03*
X246126Y386588D02*
D03*
X113284Y118110D02*
D03*
X107442Y99060D02*
D03*
X420370Y404876D02*
D03*
X338328Y423164D02*
D03*
X280162Y423672D02*
D03*
X368808Y423164D02*
D03*
X399796Y415544D02*
D03*
X364998Y502158D02*
D03*
X330708Y319786D02*
D03*
X284988Y334518D02*
D03*
X330708D02*
D03*
X264414Y502666D02*
D03*
X260350Y415544D02*
D03*
X230378D02*
D03*
X200152Y415290D02*
D03*
X298958Y261874D02*
D03*
X274066Y303784D02*
D03*
X288544Y242062D02*
D03*
X330708Y207228D02*
D03*
X288544Y234342D02*
D03*
X271526Y281432D02*
D03*
X264922Y224028D02*
D03*
X258318Y219202D02*
D03*
X164846Y501904D02*
D03*
X109220Y447040D02*
D03*
X129540Y431800D02*
D03*
X105664Y378460D02*
D03*
X172720Y330708D02*
D03*
X157734Y252222D02*
D03*
X119126Y308102D02*
D03*
X117094Y242316D02*
D03*
X93980Y191516D02*
D03*
X32258Y312166D02*
D03*
Y320040D02*
D03*
Y304292D02*
D03*
X24384D02*
D03*
X16510D02*
D03*
Y312166D02*
D03*
Y320040D02*
D03*
X24384Y312166D02*
D03*
Y320040D02*
D03*
X117348Y432308D02*
D03*
Y398526D02*
D03*
X210566Y340614D02*
D03*
X217932Y333248D02*
D03*
X409702Y410972D02*
D03*
X271526Y317500D02*
D03*
X121666Y409956D02*
D03*
X130810Y411480D02*
D03*
M02*
