G04*
G04 #@! TF.GenerationSoftware,Altium Limited,Altium Designer,26.2.0 (7)*
G04*
G04 Layer_Color=32768*
%FSLAX44Y44*%
%MOMM*%
G71*
G04*
G04 #@! TF.SameCoordinates,5073EF85-569D-4715-B1C4-D54BA00D27BC*
G04*
G04*
G04 #@! TF.FilePolarity,Positive*
G04*
G01*
G75*
%ADD14C,0.1000*%
%ADD62C,0.0500*%
D14*
X124246Y323096D02*
X133746Y332596D01*
X104506Y323096D02*
X133746D01*
X104506D02*
Y339336D01*
X133746D01*
Y323096D02*
Y339336D01*
X281330Y415930D02*
X284000Y418600D01*
X276000Y415930D02*
X284000D01*
X276000D02*
Y431930D01*
X284000D01*
Y415930D02*
Y431930D01*
X331330Y415930D02*
X334000Y418600D01*
X326000Y415930D02*
X334000D01*
X326000D02*
Y431930D01*
X334000D01*
Y415930D02*
Y431930D01*
X205804Y383396D02*
X208474Y386066D01*
X205804Y386066D02*
X213804D01*
Y370066D02*
Y386066D01*
X205804Y370066D02*
X213804Y370066D01*
X205804Y370066D02*
Y386066D01*
X251330Y415930D02*
X254000Y418600D01*
X246000Y415930D02*
X254000D01*
X246000D02*
Y431930D01*
X254000D01*
Y415930D02*
Y431930D01*
X361330Y415930D02*
X364000Y418600D01*
X356000Y415930D02*
X364000D01*
X356000D02*
Y431930D01*
X364000D01*
Y415930D02*
Y431930D01*
X218504Y383282D02*
X221174Y385952D01*
X218504D02*
X226504D01*
Y369952D02*
Y385952D01*
X218504Y369952D02*
X226504D01*
X218504D02*
Y385952D01*
X221330Y415930D02*
X224000Y418600D01*
X216000Y415930D02*
X224000D01*
X216000D02*
Y431930D01*
X224000D01*
Y415930D02*
Y431930D01*
X391330Y415930D02*
X394000Y418600D01*
X386000Y415930D02*
X394000D01*
X386000D02*
Y431930D01*
X394000D01*
Y415930D02*
Y431930D01*
X231458Y383282D02*
X234128Y385952D01*
X231458Y385952D02*
X239458Y385952D01*
X239458Y369952D01*
X231458Y369952D02*
X239458Y369952D01*
X231458Y369952D02*
Y385952D01*
X191330Y415930D02*
X194000Y418600D01*
X186000Y415930D02*
X194000D01*
X186000D02*
Y431930D01*
X194000D01*
Y415930D02*
Y431930D01*
X421330Y415930D02*
X424000Y418600D01*
X416000Y415930D02*
X424000D01*
X416000D02*
Y431930D01*
X424000D01*
Y415930D02*
Y431930D01*
X314702Y210500D02*
X317372Y207830D01*
Y202500D02*
Y210500D01*
X301372Y202500D02*
X317372D01*
X301372D02*
Y210500D01*
X317372D01*
X31116Y345634D02*
X33786Y342964D01*
X31116D02*
Y350964D01*
X47116D01*
Y342964D02*
Y350964D01*
X31116Y342964D02*
X47116D01*
X298992Y326898D02*
Y333898D01*
X309992Y345398D01*
X323992D01*
X334992Y333898D01*
Y319898D02*
Y333898D01*
X323992Y308398D02*
X334992Y319898D01*
X309992Y308398D02*
X323992D01*
X298992Y319898D02*
X309992Y308398D01*
X298992Y319898D02*
Y326898D01*
X330292Y338898D02*
X335492D01*
Y314898D02*
Y338898D01*
X330292Y314898D02*
X335492D01*
X298492Y338898D02*
X303692D01*
X298492Y314898D02*
Y338898D01*
Y314898D02*
X303692D01*
X238506Y212310D02*
X245506D01*
X257006Y201310D01*
Y187310D02*
Y201310D01*
X245506Y176310D02*
X257006Y187310D01*
X231506Y176310D02*
X245506D01*
X220006Y187310D02*
X231506Y176310D01*
X220006Y187310D02*
Y201310D01*
X231506Y212310D01*
X238506D01*
X250506Y175810D02*
Y181010D01*
X226506Y175810D02*
X250506D01*
X226506D02*
Y181010D01*
X250506Y207610D02*
Y212810D01*
X226506D02*
X250506D01*
X226506Y207610D02*
Y212810D01*
X15484Y300146D02*
X33284D01*
X15484Y248046D02*
Y300146D01*
Y248046D02*
X33284D01*
Y300146D01*
X160402Y222444D02*
X163072Y219774D01*
X160402D02*
X160402Y227774D01*
X176402D01*
Y219774D02*
Y227774D01*
X160402Y219774D02*
X176402D01*
X358000Y493000D02*
Y500000D01*
X347000Y481500D02*
X358000Y493000D01*
X333000Y481500D02*
X347000D01*
X322000Y493000D02*
X333000Y481500D01*
X322000Y493000D02*
Y507000D01*
X333000Y518500D01*
X347000D01*
X358000Y507000D01*
Y500000D02*
Y507000D01*
X321500Y488000D02*
X326700D01*
X321500D02*
Y512000D01*
X326700D01*
X353300Y488000D02*
X358500D01*
Y512000D01*
X353300D02*
X358500D01*
X158000Y493000D02*
Y500000D01*
X147000Y481500D02*
X158000Y493000D01*
X133000Y481500D02*
X147000D01*
X122000Y493000D02*
X133000Y481500D01*
X122000Y493000D02*
Y507000D01*
X133000Y518500D01*
X147000D01*
X158000Y507000D01*
Y500000D02*
Y507000D01*
X121500Y488000D02*
X126700D01*
X121500D02*
Y512000D01*
X126700D01*
X153300Y488000D02*
X158500D01*
Y512000D01*
X153300D02*
X158500D01*
X258000Y493000D02*
Y500000D01*
X247000Y481500D02*
X258000Y493000D01*
X233000Y481500D02*
X247000D01*
X222000Y493000D02*
X233000Y481500D01*
X222000Y493000D02*
Y507000D01*
X233000Y518500D01*
X247000D01*
X258000Y507000D01*
Y500000D02*
Y507000D01*
X221500Y488000D02*
X226700D01*
X221500D02*
Y512000D01*
X226700D01*
X253300Y488000D02*
X258500D01*
Y512000D01*
X253300D02*
X258500D01*
D62*
X286258Y202692D02*
X294386D01*
X286258Y218948D02*
X294386D01*
Y202692D02*
Y218948D01*
X286258Y202692D02*
Y218948D01*
X2110Y462000D02*
X120610D01*
X2110Y363000D02*
Y462000D01*
Y363000D02*
X120610D01*
Y462000D01*
X276098Y203962D02*
Y212090D01*
X259842Y203962D02*
Y212090D01*
X276098D01*
X259842Y203962D02*
X276098D01*
X175768Y334518D02*
X183896D01*
X175768Y318262D02*
X183896D01*
X175768D02*
Y334518D01*
X183896Y318262D02*
Y334518D01*
X210566Y360934D02*
X218694D01*
X210566Y344678D02*
X218694D01*
X210566D02*
Y360934D01*
X218694Y344678D02*
Y360934D01*
X268986Y300736D02*
X277114D01*
X268986Y284480D02*
X277114D01*
X268986D02*
Y300736D01*
X277114Y284480D02*
Y300736D01*
X247396Y324612D02*
X263652D01*
X247396Y316484D02*
X263652D01*
Y324612D01*
X247396Y316484D02*
Y324612D01*
X205501Y164258D02*
X216996Y175753D01*
X211248Y158511D02*
X222743Y170006D01*
X216996Y175753D02*
X222743Y170006D01*
X205501Y164258D02*
X211248Y158511D01*
X209804Y184658D02*
Y200914D01*
X217932Y184658D02*
Y200914D01*
X209804D02*
X217932D01*
X209804Y184658D02*
X217932D01*
X285496Y195072D02*
Y211328D01*
X277368Y195072D02*
Y211328D01*
Y195072D02*
X285496D01*
X277368Y211328D02*
X285496D01*
X278558Y303799D02*
X290053Y315294D01*
X272811Y309546D02*
X284306Y321041D01*
X272811Y309546D02*
X278558Y303799D01*
X284306Y321041D02*
X290053Y315294D01*
X251714Y326134D02*
Y342390D01*
X259842Y326134D02*
Y342390D01*
X251714D02*
X259842D01*
X251714Y326134D02*
X259842D01*
X191023Y181022D02*
X202518Y192517D01*
X196770Y175275D02*
X208265Y186770D01*
X202518Y192517D02*
X208265Y186770D01*
X191023Y181022D02*
X196770Y175275D01*
X250866Y343670D02*
X262360Y355165D01*
X245118Y349418D02*
X256613Y360912D01*
X245118Y349418D02*
X250866Y343670D01*
X256613Y360912D02*
X262360Y355165D01*
X82296Y174752D02*
Y191008D01*
X90424Y174752D02*
Y191008D01*
X82296D02*
X90424D01*
X82296Y174752D02*
X90424D01*
X276606Y221488D02*
X284734D01*
X276606Y237744D02*
X284734D01*
Y221488D02*
Y237744D01*
X276606Y221488D02*
Y237744D01*
X273812Y419862D02*
Y436118D01*
X265684Y419862D02*
Y436118D01*
Y419862D02*
X273812D01*
X265684Y436118D02*
X273812D01*
X323850Y419862D02*
Y436118D01*
X315722Y419862D02*
Y436118D01*
Y419862D02*
X323850D01*
X315722Y436118D02*
X323850D01*
X199390Y360936D02*
X199390Y344680D01*
X191262Y360936D02*
X191262Y344680D01*
X199390D01*
X191262Y360936D02*
X199390Y360936D01*
X243840Y419862D02*
Y436118D01*
X235712Y419862D02*
Y436118D01*
Y419862D02*
X243840D01*
X235712Y436118D02*
X243840D01*
X353822Y419862D02*
Y436118D01*
X345694Y419862D02*
Y436118D01*
Y419862D02*
X353822D01*
X345694Y436118D02*
X353822D01*
X208788Y344678D02*
Y360934D01*
X200660Y344678D02*
Y360934D01*
Y344678D02*
X208788D01*
X200660Y360934D02*
X208788D01*
X213868Y419982D02*
Y436238D01*
X205740Y419982D02*
Y436238D01*
Y419982D02*
X213868D01*
X205740Y436238D02*
X213868D01*
X383794Y419862D02*
Y436118D01*
X375666Y419862D02*
Y436118D01*
Y419862D02*
X383794D01*
X375666Y436118D02*
X383794D01*
X183896Y419982D02*
Y436238D01*
X175768Y419982D02*
Y436238D01*
Y419982D02*
X183896D01*
X175768Y436238D02*
X183896D01*
X413766Y420116D02*
Y436372D01*
X405638Y420116D02*
Y436372D01*
Y420116D02*
X413766D01*
X405638Y436372D02*
X413766D01*
X164336Y208788D02*
X180592D01*
X164336Y216916D02*
X180592Y216916D01*
X164336Y208788D02*
Y216916D01*
X180592Y216916D02*
X180592Y208788D01*
X53962Y351028D02*
X70218D01*
X53962Y342900D02*
X70218D01*
Y351028D01*
X53962Y342900D02*
Y351028D01*
X368808Y480692D02*
Y496948D01*
X360680Y480692D02*
Y496948D01*
Y480692D02*
X368808D01*
X360680Y496948D02*
X368808D01*
X168910Y480692D02*
Y496948D01*
X160782Y480692D02*
Y496948D01*
Y480692D02*
X168910D01*
X160782Y496948D02*
X168910D01*
X268478Y480692D02*
Y496948D01*
X260350Y480692D02*
Y496948D01*
Y480692D02*
X268478D01*
X260350Y496948D02*
X268478D01*
X99520Y295000D02*
Y317250D01*
Y295000D02*
X115770Y295000D01*
Y255000D02*
Y295000D01*
X111020Y255000D02*
X115770D01*
X111020Y232750D02*
Y255000D01*
X50520Y232750D02*
X111020D01*
X50520D02*
Y255000D01*
X45770D02*
X50520D01*
X45770D02*
Y295000D01*
X62020Y295000D01*
Y317250D01*
X99520D01*
X82550Y204089D02*
X98806D01*
X82550Y195961D02*
X98806D01*
Y204089D01*
X82550Y195961D02*
Y204089D01*
X63675Y215861D02*
X79931D01*
X63675Y223989D02*
X79931D01*
X63675Y215861D02*
Y223989D01*
X79931Y215861D02*
Y223989D01*
X63675Y195795D02*
X79931D01*
X63675Y203923D02*
X79931D01*
X63675Y195795D02*
Y203923D01*
X79931Y195795D02*
Y203923D01*
X21106Y218186D02*
Y234442D01*
X12978Y218186D02*
Y234442D01*
Y218186D02*
X21106D01*
X12978Y234442D02*
X21106D01*
X281176Y338074D02*
X297432D01*
X281176Y346202D02*
X297432D01*
X281176Y338074D02*
Y346202D01*
X297432Y338074D02*
Y346202D01*
X82550Y216027D02*
Y224155D01*
X98806Y216027D02*
Y224155D01*
X82550Y216027D02*
X98806D01*
X82550Y224155D02*
X98806D01*
X279830Y264638D02*
X303830D01*
Y292638D01*
X279830D02*
X303830D01*
X279830Y264638D02*
Y292638D01*
X185928Y338836D02*
X202184D01*
X185928Y330708D02*
X202184D01*
Y338836D01*
X185928Y330708D02*
Y338836D01*
X284988Y292354D02*
X301244D01*
X284988Y300482D02*
X301244D01*
X284988Y292354D02*
Y300482D01*
X301244Y292354D02*
Y300482D01*
X279146Y265176D02*
X295402D01*
X279146Y257048D02*
X295402D01*
Y265176D01*
X279146Y257048D02*
Y265176D01*
X260096Y227584D02*
Y243840D01*
X268224Y227584D02*
Y243840D01*
X260096D02*
X268224D01*
X260096Y227584D02*
X268224D01*
X246888Y215392D02*
Y231648D01*
X255016Y215392D02*
Y231648D01*
X246888D02*
X255016D01*
X246888Y215392D02*
X255016D01*
X284734Y238760D02*
Y255016D01*
X276606Y238760D02*
Y255016D01*
Y238760D02*
X284734D01*
X276606Y255016D02*
X284734D01*
X229108Y212598D02*
X245364D01*
X229108Y220726D02*
X245364D01*
X229108Y212598D02*
Y220726D01*
X245364Y212598D02*
Y220726D01*
X155956Y243840D02*
X172212D01*
X155956Y235712D02*
X172212D01*
Y243840D01*
X155956Y235712D02*
Y243840D01*
X63675Y205955D02*
X79931D01*
X63675Y214083D02*
X79931D01*
X63675Y205955D02*
Y214083D01*
X79931Y205955D02*
Y214083D01*
X299434Y355346D02*
X315690D01*
X299434Y347218D02*
X315690D01*
Y355346D01*
X299434Y347218D02*
Y355346D01*
X163264Y222749D02*
X267764D01*
Y327249D01*
X163264D02*
X267764D01*
X163264Y222749D02*
Y327249D01*
X115062Y376936D02*
X123190D01*
X115062Y393192D02*
X123190D01*
Y376936D02*
Y393192D01*
X115062Y376936D02*
Y393192D01*
X133352Y420878D02*
Y429006D01*
X117096Y420878D02*
Y429006D01*
Y420878D02*
X133352D01*
X117096Y429006D02*
X133352D01*
X82550Y206121D02*
Y214249D01*
X98806Y206121D02*
Y214249D01*
X82550Y206121D02*
X98806D01*
X82550Y214249D02*
X98806D01*
X34822Y234442D02*
X42950D01*
X34822Y218186D02*
X42950D01*
X34822D02*
Y234442D01*
X42950Y218186D02*
Y234442D01*
X24154Y234442D02*
X32282D01*
X24154Y218186D02*
X32282D01*
X24154D02*
Y234442D01*
X32282Y218186D02*
Y234442D01*
M02*
