G04*
G04 #@! TF.GenerationSoftware,Altium Limited,Altium Designer,26.2.0 (7)*
G04*
G04 Layer_Color=128*
%FSLAX44Y44*%
%MOMM*%
G71*
G04*
G04 #@! TF.SameCoordinates,5073EF85-569D-4715-B1C4-D54BA00D27BC*
G04*
G04*
G04 #@! TF.FilePolarity,Positive*
G04*
G01*
G75*
%ADD17R,1.7000X0.7000*%
%ADD18R,1.7000X0.3000*%
%ADD19R,2.5000X0.8000*%
G04:AMPARAMS|DCode=20|XSize=0.54mm|YSize=0.6mm|CornerRadius=0.0675mm|HoleSize=0mm|Usage=FLASHONLY|Rotation=0.000|XOffset=0mm|YOffset=0mm|HoleType=Round|Shape=RoundedRectangle|*
%AMROUNDEDRECTD20*
21,1,0.5400,0.4650,0,0,0.0*
21,1,0.4050,0.6000,0,0,0.0*
1,1,0.1350,0.2025,-0.2325*
1,1,0.1350,-0.2025,-0.2325*
1,1,0.1350,-0.2025,0.2325*
1,1,0.1350,0.2025,0.2325*
%
%ADD20ROUNDEDRECTD20*%
G04:AMPARAMS|DCode=32|XSize=0.54mm|YSize=0.6mm|CornerRadius=0.0675mm|HoleSize=0mm|Usage=FLASHONLY|Rotation=270.000|XOffset=0mm|YOffset=0mm|HoleType=Round|Shape=RoundedRectangle|*
%AMROUNDEDRECTD32*
21,1,0.5400,0.4650,0,0,270.0*
21,1,0.4050,0.6000,0,0,270.0*
1,1,0.1350,-0.2325,-0.2025*
1,1,0.1350,-0.2325,0.2025*
1,1,0.1350,0.2325,0.2025*
1,1,0.1350,0.2325,-0.2025*
%
%ADD32ROUNDEDRECTD32*%
G04:AMPARAMS|DCode=33|XSize=0.54mm|YSize=0.6mm|CornerRadius=0.0675mm|HoleSize=0mm|Usage=FLASHONLY|Rotation=225.000|XOffset=0mm|YOffset=0mm|HoleType=Round|Shape=RoundedRectangle|*
%AMROUNDEDRECTD33*
21,1,0.5400,0.4650,0,0,225.0*
21,1,0.4050,0.6000,0,0,225.0*
1,1,0.1350,-0.3076,0.0212*
1,1,0.1350,-0.0212,0.3076*
1,1,0.1350,0.3076,-0.0212*
1,1,0.1350,0.0212,-0.3076*
%
%ADD33ROUNDEDRECTD33*%
%ADD34R,1.5000X1.0000*%
%ADD35R,1.0000X1.0000*%
%ADD36R,0.6000X0.5000*%
%ADD37R,0.3000X0.9000*%
%ADD38R,0.9000X0.3000*%
%ADD39R,0.6500X0.6000*%
%ADD40R,0.6000X0.6500*%
%ADD41R,3.2500X2.1500*%
G04:AMPARAMS|DCode=42|XSize=0.95mm|YSize=0.8mm|CornerRadius=0.2mm|HoleSize=0mm|Usage=FLASHONLY|Rotation=0.000|XOffset=0mm|YOffset=0mm|HoleType=Round|Shape=RoundedRectangle|*
%AMROUNDEDRECTD42*
21,1,0.9500,0.4000,0,0,0.0*
21,1,0.5500,0.8000,0,0,0.0*
1,1,0.4000,0.2750,-0.2000*
1,1,0.4000,-0.2750,-0.2000*
1,1,0.4000,-0.2750,0.2000*
1,1,0.4000,0.2750,0.2000*
%
%ADD42ROUNDEDRECTD42*%
G04:AMPARAMS|DCode=43|XSize=0.95mm|YSize=0.8mm|CornerRadius=0.2mm|HoleSize=0mm|Usage=FLASHONLY|Rotation=90.000|XOffset=0mm|YOffset=0mm|HoleType=Round|Shape=RoundedRectangle|*
%AMROUNDEDRECTD43*
21,1,0.9500,0.4000,0,0,90.0*
21,1,0.5500,0.8000,0,0,90.0*
1,1,0.4000,0.2000,0.2750*
1,1,0.4000,0.2000,-0.2750*
1,1,0.4000,-0.2000,-0.2750*
1,1,0.4000,-0.2000,0.2750*
%
%ADD43ROUNDEDRECTD43*%
%ADD44R,0.8000X0.9000*%
%ADD45R,1.8000X1.0000*%
D17*
X109610Y455700D02*
D03*
Y369300D02*
D03*
D18*
X104110Y440000D02*
D03*
Y435000D02*
D03*
X104110Y430000D02*
D03*
Y425000D02*
D03*
Y420000D02*
D03*
X104110Y415000D02*
D03*
Y410000D02*
D03*
X104110Y405000D02*
D03*
Y400000D02*
D03*
Y395000D02*
D03*
X104110Y390000D02*
D03*
Y385000D02*
D03*
D19*
X87490Y137200D02*
D03*
Y124500D02*
D03*
Y111800D02*
D03*
Y99100D02*
D03*
Y86400D02*
D03*
Y73700D02*
D03*
Y149900D02*
D03*
D20*
X272290Y208026D02*
D03*
X263650D02*
D03*
X259844Y320548D02*
D03*
X251204D02*
D03*
X66410Y346964D02*
D03*
X311882Y351282D02*
D03*
X168404Y239776D02*
D03*
X168144Y212852D02*
D03*
X76123Y219925D02*
D03*
X86358Y200025D02*
D03*
Y210185D02*
D03*
Y220091D02*
D03*
X76123Y210019D02*
D03*
X76123Y199859D02*
D03*
X176784Y212852D02*
D03*
X57770Y346964D02*
D03*
X94998Y200025D02*
D03*
X67483Y219925D02*
D03*
X67483Y199859D02*
D03*
X284984Y342138D02*
D03*
X293624D02*
D03*
X94998Y220091D02*
D03*
X198376Y334772D02*
D03*
X189736D02*
D03*
X297436Y296418D02*
D03*
X288796D02*
D03*
X282954Y261112D02*
D03*
X291594D02*
D03*
X232916Y216662D02*
D03*
X241556D02*
D03*
X159764Y239776D02*
D03*
X67483Y210019D02*
D03*
X303242Y351282D02*
D03*
X94998Y210185D02*
D03*
D32*
X290322Y206500D02*
D03*
Y215140D02*
D03*
X179832Y330710D02*
D03*
Y322070D02*
D03*
X214630Y357126D02*
D03*
Y348486D02*
D03*
X273050Y296928D02*
D03*
Y288288D02*
D03*
X213868Y197106D02*
D03*
Y188466D02*
D03*
X281432Y198880D02*
D03*
Y207520D02*
D03*
X255778Y338582D02*
D03*
Y329942D02*
D03*
X86360Y187200D02*
D03*
Y178560D02*
D03*
X28218Y230634D02*
D03*
X38886Y230634D02*
D03*
X17042D02*
D03*
X264160Y240032D02*
D03*
X250952Y227840D02*
D03*
X280670Y233936D02*
D03*
Y225296D02*
D03*
X269748Y423670D02*
D03*
Y432310D02*
D03*
X319786Y423670D02*
D03*
Y432310D02*
D03*
X195326Y348488D02*
D03*
Y357128D02*
D03*
X239776Y423670D02*
D03*
Y432310D02*
D03*
X349758Y423670D02*
D03*
Y432310D02*
D03*
X204724Y348486D02*
D03*
Y357126D02*
D03*
X209804Y423790D02*
D03*
Y432430D02*
D03*
X379730Y423670D02*
D03*
Y432310D02*
D03*
X179832Y423790D02*
D03*
Y432430D02*
D03*
X409702Y423924D02*
D03*
Y432564D02*
D03*
X364744Y484500D02*
D03*
Y493140D02*
D03*
X164846Y484500D02*
D03*
Y493140D02*
D03*
X264414Y484500D02*
D03*
Y493140D02*
D03*
X17042Y221994D02*
D03*
X264160Y231392D02*
D03*
X250952Y219200D02*
D03*
X280670Y251208D02*
D03*
Y242568D02*
D03*
X119126Y380744D02*
D03*
Y389384D02*
D03*
X38886Y221994D02*
D03*
X28218Y221994D02*
D03*
D33*
X217177Y170187D02*
D03*
X211067Y164077D02*
D03*
X278377Y309365D02*
D03*
X284487Y315475D02*
D03*
X202699Y186951D02*
D03*
X196589Y180841D02*
D03*
X250685Y349237D02*
D03*
X256794Y355346D02*
D03*
D34*
X24384Y254426D02*
D03*
Y293796D02*
D03*
D35*
X57770Y238900D02*
D03*
X80770Y238900D02*
D03*
X103770Y238900D02*
D03*
D36*
X119126Y346216D02*
D03*
Y316216D02*
D03*
X128626Y316216D02*
D03*
X109626D02*
D03*
X128626Y346216D02*
D03*
X109626D02*
D03*
D37*
X203013Y228000D02*
D03*
X243013Y322000D02*
D03*
X218013Y228000D02*
D03*
X208013Y228000D02*
D03*
X238013Y322000D02*
D03*
X213013Y228000D02*
D03*
X243013D02*
D03*
X188013Y322000D02*
D03*
X198013Y228000D02*
D03*
X193013D02*
D03*
X188013D02*
D03*
X223013D02*
D03*
X228013D02*
D03*
X233013D02*
D03*
X208013Y322000D02*
D03*
X203013D02*
D03*
X198013D02*
D03*
X213013Y322000D02*
D03*
X218013D02*
D03*
X223013Y322000D02*
D03*
X228013D02*
D03*
X233013D02*
D03*
X238013Y228000D02*
D03*
X193013Y322000D02*
D03*
D38*
X262513Y292500D02*
D03*
X262513Y302499D02*
D03*
X262513Y287499D02*
D03*
Y247499D02*
D03*
X168513D02*
D03*
Y257499D02*
D03*
X168513Y272499D02*
D03*
Y277499D02*
D03*
X168513Y282499D02*
D03*
Y287499D02*
D03*
Y292499D02*
D03*
Y297499D02*
D03*
X168513Y302499D02*
D03*
X262513Y252499D02*
D03*
Y257499D02*
D03*
Y262499D02*
D03*
Y267499D02*
D03*
Y297499D02*
D03*
X262513Y272499D02*
D03*
Y277499D02*
D03*
X168513Y262499D02*
D03*
X262513Y282499D02*
D03*
X168513Y252499D02*
D03*
Y267499D02*
D03*
D39*
X326250Y484500D02*
D03*
Y515500D02*
D03*
X226250Y484500D02*
D03*
Y515500D02*
D03*
X126250Y484500D02*
D03*
Y515500D02*
D03*
X303242Y342398D02*
D03*
Y311398D02*
D03*
X330742Y342398D02*
D03*
Y311398D02*
D03*
X353750Y484500D02*
D03*
Y515500D02*
D03*
X153750Y484500D02*
D03*
Y515500D02*
D03*
X253750Y484500D02*
D03*
Y515500D02*
D03*
D40*
X254006Y180560D02*
D03*
X223006D02*
D03*
X254006Y208060D02*
D03*
X223006D02*
D03*
D41*
X80770Y316000D02*
D03*
D42*
X280000Y432430D02*
D03*
Y415430D02*
D03*
X330000Y432430D02*
D03*
Y415430D02*
D03*
X209804Y369566D02*
D03*
Y386566D02*
D03*
X250000Y432430D02*
D03*
Y415430D02*
D03*
X360000Y432430D02*
D03*
Y415430D02*
D03*
X222504Y369452D02*
D03*
Y386452D02*
D03*
X220000Y432430D02*
D03*
Y415430D02*
D03*
X390000Y432430D02*
D03*
Y415430D02*
D03*
X235458Y369452D02*
D03*
Y386452D02*
D03*
X190000Y432430D02*
D03*
Y415430D02*
D03*
X420000Y432430D02*
D03*
Y415430D02*
D03*
D43*
X300872Y206500D02*
D03*
X317872D02*
D03*
X47616Y346964D02*
D03*
X30616D02*
D03*
X176902Y223774D02*
D03*
X159902D02*
D03*
D44*
X297330Y271638D02*
D03*
Y285638D02*
D03*
X286330Y271638D02*
D03*
Y285638D02*
D03*
D45*
X295148Y250752D02*
D03*
Y225752D02*
D03*
M02*
