G04*
G04 #@! TF.GenerationSoftware,Altium Limited,Altium Designer,26.2.0 (7)*
G04*
G04 Layer_Physical_Order=1*
G04 Layer_Color=255*
%FSLAX44Y44*%
%MOMM*%
G71*
G04*
G04 #@! TF.SameCoordinates,5073EF85-569D-4715-B1C4-D54BA00D27BC*
G04*
G04*
G04 #@! TF.FilePolarity,Positive*
G04*
G01*
G75*
%ADD10C,0.2000*%
%ADD14C,0.1000*%
%ADD17R,1.7000X0.7000*%
%ADD18R,1.7000X0.3000*%
%ADD19R,2.5000X0.8000*%
G04:AMPARAMS|DCode=20|XSize=0.54mm|YSize=0.6mm|CornerRadius=0.0675mm|HoleSize=0mm|Usage=FLASHONLY|Rotation=0.000|XOffset=0mm|YOffset=0mm|HoleType=Round|Shape=RoundedRectangle|*
%AMROUNDEDRECTD20*
21,1,0.5400,0.4650,0,0,0.0*
21,1,0.4050,0.6000,0,0,0.0*
1,1,0.1350,0.2025,-0.2325*
1,1,0.1350,-0.2025,-0.2325*
1,1,0.1350,-0.2025,0.2325*
1,1,0.1350,0.2025,0.2325*
%
%ADD20ROUNDEDRECTD20*%
%ADD21C,0.1600*%
%ADD28C,4.0000*%
%ADD29C,0.2221*%
%ADD30C,1.0000*%
%ADD31C,0.4500*%
G36*
X841382Y549066D02*
X844003Y547980D01*
X846253Y546253D01*
X847980Y544003D01*
X849066Y541382D01*
X849436Y538574D01*
X849435Y538570D01*
Y444500D01*
X849436Y444496D01*
X849066Y441688D01*
X847980Y439067D01*
X846253Y436817D01*
X844003Y435090D01*
X841382Y434004D01*
X838574Y433634D01*
X838570Y433635D01*
X762000D01*
X761298Y433496D01*
X760702Y433098D01*
X760304Y432502D01*
X760165Y431800D01*
X759970Y431508D01*
X759788Y431472D01*
X758408Y430900D01*
X757166Y430070D01*
X756110Y429014D01*
X755280Y427772D01*
X754999Y427095D01*
X754103Y426660D01*
X753649Y426650D01*
X753495Y426688D01*
X753439Y426743D01*
X752505Y427130D01*
X752290D01*
X752091Y427212D01*
X721504Y427212D01*
X721402Y427170D01*
X721293Y427192D01*
X719085Y426752D01*
X718993Y426691D01*
X718882D01*
X716802Y425829D01*
X716723Y425751D01*
X716615Y425729D01*
X714743Y424478D01*
X714681Y424386D01*
X714578Y424344D01*
X712986Y422752D01*
X712944Y422649D01*
X712852Y422588D01*
X711601Y420715D01*
X711579Y420607D01*
X711501Y420528D01*
X710639Y418448D01*
Y418337D01*
X710578Y418245D01*
X710138Y416037D01*
X710160Y415928D01*
X710118Y415826D01*
Y413574D01*
X710160Y413472D01*
X710138Y413363D01*
X710578Y411155D01*
X710639Y411063D01*
Y410952D01*
X711501Y408872D01*
X711579Y408793D01*
X711601Y408685D01*
X712852Y406812D01*
X712944Y406751D01*
X712986Y406648D01*
X714578Y405056D01*
X714681Y405014D01*
X714743Y404922D01*
X716615Y403671D01*
X716723Y403649D01*
X716802Y403571D01*
X718882Y402709D01*
X718993D01*
X719085Y402648D01*
X719086Y402647D01*
X719086Y401353D01*
X719085Y401352D01*
X718993Y401291D01*
X718882D01*
X716802Y400429D01*
X716723Y400351D01*
X716615Y400329D01*
X714743Y399078D01*
X714681Y398986D01*
X714578Y398944D01*
X712986Y397352D01*
X712944Y397249D01*
X712852Y397188D01*
X711601Y395315D01*
X711579Y395207D01*
X711501Y395128D01*
X710639Y393048D01*
Y392937D01*
X710578Y392845D01*
X710138Y390637D01*
X710160Y390528D01*
X710118Y390426D01*
Y388174D01*
X710160Y388072D01*
X710138Y387963D01*
X710578Y385755D01*
X710639Y385663D01*
Y385552D01*
X711501Y383472D01*
X711579Y383393D01*
X711601Y383284D01*
X712852Y381412D01*
X712944Y381351D01*
X712986Y381248D01*
X714578Y379656D01*
X714681Y379614D01*
X714743Y379522D01*
X716615Y378271D01*
X716723Y378249D01*
X716802Y378171D01*
X718882Y377309D01*
X718993D01*
X719085Y377248D01*
X719086Y377247D01*
X719086Y375952D01*
X719085Y375952D01*
X718993Y375891D01*
X718882D01*
X716802Y375029D01*
X716723Y374951D01*
X716615Y374929D01*
X714743Y373678D01*
X714681Y373586D01*
X714578Y373544D01*
X712986Y371952D01*
X712944Y371849D01*
X712852Y371787D01*
X711601Y369915D01*
X711579Y369807D01*
X711501Y369728D01*
X710639Y367648D01*
Y367537D01*
X710578Y367445D01*
X710138Y365237D01*
X710160Y365128D01*
X710118Y365026D01*
Y362774D01*
X710160Y362672D01*
X710138Y362563D01*
X710578Y360355D01*
X710639Y360263D01*
Y360152D01*
X711501Y358072D01*
X711579Y357993D01*
X711601Y357884D01*
X712852Y356012D01*
X712944Y355951D01*
X712986Y355848D01*
X714578Y354256D01*
X714681Y354214D01*
X714743Y354122D01*
X716615Y352871D01*
X716723Y352849D01*
X716802Y352771D01*
X718882Y351909D01*
X718993D01*
X719085Y351848D01*
X719086Y351847D01*
X719086Y350552D01*
X719085Y350552D01*
X718993Y350491D01*
X718882D01*
X716802Y349629D01*
X716723Y349551D01*
X716615Y349529D01*
X714743Y348278D01*
X714681Y348186D01*
X714578Y348144D01*
X712986Y346552D01*
X712944Y346449D01*
X712852Y346387D01*
X711601Y344515D01*
X711579Y344407D01*
X711501Y344328D01*
X710639Y342248D01*
Y342137D01*
X710578Y342045D01*
X710138Y339837D01*
X710160Y339728D01*
X710118Y339626D01*
Y337374D01*
X710160Y337272D01*
X710138Y337163D01*
X710578Y334955D01*
X710639Y334863D01*
Y334752D01*
X711501Y332672D01*
X711579Y332593D01*
X711601Y332485D01*
X712852Y330612D01*
X712944Y330551D01*
X712986Y330448D01*
X714578Y328856D01*
X714681Y328814D01*
X714743Y328722D01*
X716615Y327471D01*
X716723Y327449D01*
X716802Y327371D01*
X718882Y326509D01*
X718993D01*
X719085Y326448D01*
X719086Y326447D01*
X719086Y325153D01*
X719085Y325152D01*
X718993Y325091D01*
X718882D01*
X716802Y324229D01*
X716723Y324151D01*
X716615Y324129D01*
X714743Y322878D01*
X714681Y322786D01*
X714578Y322744D01*
X712986Y321152D01*
X712944Y321049D01*
X712852Y320988D01*
X711601Y319115D01*
X711579Y319007D01*
X711501Y318928D01*
X710639Y316848D01*
Y316737D01*
X710578Y316645D01*
X710138Y314437D01*
X710160Y314328D01*
X710118Y314226D01*
Y311974D01*
X710160Y311872D01*
X710138Y311763D01*
X710578Y309555D01*
X710639Y309463D01*
Y309352D01*
X711501Y307272D01*
X711579Y307193D01*
X711601Y307085D01*
X712852Y305212D01*
X712944Y305151D01*
X712986Y305048D01*
X714578Y303456D01*
X714681Y303414D01*
X714743Y303322D01*
X716615Y302071D01*
X716723Y302049D01*
X716802Y301971D01*
X718882Y301109D01*
X718993D01*
X719085Y301048D01*
X719086Y301047D01*
X719086Y299753D01*
X719085Y299752D01*
X718993Y299691D01*
X718882D01*
X716802Y298829D01*
X716723Y298751D01*
X716615Y298729D01*
X714743Y297478D01*
X714681Y297386D01*
X714578Y297344D01*
X712986Y295752D01*
X712944Y295649D01*
X712852Y295588D01*
X711601Y293715D01*
X711579Y293607D01*
X711501Y293528D01*
X710639Y291448D01*
Y291337D01*
X710578Y291245D01*
X710138Y289037D01*
X710160Y288928D01*
X710118Y288826D01*
Y286574D01*
X710160Y286472D01*
X710138Y286363D01*
X710578Y284155D01*
X710639Y284063D01*
Y283952D01*
X711501Y281872D01*
X711579Y281793D01*
X711601Y281684D01*
X712852Y279812D01*
X712944Y279751D01*
X712986Y279648D01*
X714578Y278056D01*
X714681Y278014D01*
X714743Y277922D01*
X716615Y276671D01*
X716723Y276649D01*
X716802Y276571D01*
X718882Y275709D01*
X718993D01*
X719085Y275648D01*
X719086Y275647D01*
X719086Y274352D01*
X719085Y274352D01*
X718993Y274291D01*
X718882D01*
X716802Y273429D01*
X716723Y273351D01*
X716615Y273329D01*
X714743Y272078D01*
X714681Y271986D01*
X714578Y271944D01*
X712986Y270352D01*
X712944Y270249D01*
X712852Y270187D01*
X711601Y268315D01*
X711579Y268207D01*
X711501Y268128D01*
X710639Y266048D01*
Y265937D01*
X710578Y265845D01*
X710138Y263637D01*
X710160Y263528D01*
X710118Y263426D01*
Y261174D01*
X710160Y261072D01*
X710138Y260963D01*
X710578Y258755D01*
X710639Y258663D01*
Y258552D01*
X711501Y256472D01*
X711579Y256393D01*
X711601Y256285D01*
X712852Y254412D01*
X712944Y254351D01*
X712986Y254248D01*
X714578Y252656D01*
X714681Y252614D01*
X714743Y252522D01*
X716615Y251271D01*
X716723Y251249D01*
X716802Y251171D01*
X718882Y250309D01*
X718993D01*
X719085Y250248D01*
X719086Y250247D01*
X719086Y248953D01*
X719085Y248952D01*
X718993Y248891D01*
X718882D01*
X716802Y248029D01*
X716723Y247951D01*
X716615Y247929D01*
X714743Y246678D01*
X714681Y246586D01*
X714578Y246544D01*
X712986Y244952D01*
X712944Y244849D01*
X712852Y244788D01*
X711601Y242915D01*
X711579Y242807D01*
X711501Y242728D01*
X710639Y240648D01*
Y240537D01*
X710578Y240445D01*
X710138Y238237D01*
X710160Y238128D01*
X710118Y238026D01*
Y235774D01*
X710160Y235672D01*
X710138Y235563D01*
X710578Y233355D01*
X710639Y233263D01*
Y233152D01*
X711501Y231072D01*
X711579Y230993D01*
X711601Y230884D01*
X712852Y229012D01*
X712944Y228951D01*
X712986Y228848D01*
X714578Y227256D01*
X714681Y227214D01*
X714743Y227122D01*
X716615Y225871D01*
X716723Y225849D01*
X716802Y225771D01*
X718882Y224909D01*
X718993D01*
X719085Y224848D01*
X719086Y224847D01*
X719086Y223552D01*
X719085Y223552D01*
X718993Y223491D01*
X718882D01*
X716802Y222629D01*
X716723Y222551D01*
X716615Y222529D01*
X714743Y221278D01*
X714681Y221186D01*
X714578Y221144D01*
X712986Y219552D01*
X712944Y219449D01*
X712852Y219387D01*
X711601Y217515D01*
X711579Y217407D01*
X711501Y217328D01*
X710639Y215248D01*
Y215137D01*
X710578Y215045D01*
X710138Y212837D01*
X710160Y212728D01*
X710118Y212626D01*
Y210374D01*
X710160Y210272D01*
X710138Y210163D01*
X710578Y207955D01*
X710639Y207863D01*
Y207752D01*
X711501Y205672D01*
X711579Y205593D01*
X711601Y205485D01*
X712852Y203612D01*
X712944Y203551D01*
X712986Y203448D01*
X714578Y201856D01*
X714681Y201814D01*
X714743Y201722D01*
X716615Y200471D01*
X716723Y200449D01*
X716802Y200371D01*
X718882Y199509D01*
X718993D01*
X719085Y199448D01*
X719086Y199447D01*
X719086Y198153D01*
X719085Y198152D01*
X718993Y198091D01*
X718882D01*
X716802Y197229D01*
X716723Y197151D01*
X716615Y197129D01*
X714743Y195878D01*
X714681Y195786D01*
X714578Y195744D01*
X712986Y194152D01*
X712944Y194049D01*
X712852Y193988D01*
X711601Y192115D01*
X711579Y192007D01*
X711501Y191928D01*
X710639Y189848D01*
Y189737D01*
X710578Y189645D01*
X710138Y187437D01*
X710160Y187328D01*
X710118Y187226D01*
Y184974D01*
X710160Y184872D01*
X710138Y184763D01*
X710578Y182555D01*
X710639Y182463D01*
Y182352D01*
X711501Y180272D01*
X711579Y180193D01*
X711601Y180084D01*
X712852Y178212D01*
X712944Y178151D01*
X712986Y178048D01*
X714578Y176456D01*
X714681Y176414D01*
X714743Y176322D01*
X716615Y175071D01*
X716723Y175049D01*
X716802Y174971D01*
X718882Y174109D01*
X718993D01*
X719085Y174048D01*
X719086Y174047D01*
X719086Y172752D01*
X719085Y172752D01*
X718993Y172691D01*
X718882D01*
X716802Y171829D01*
X716723Y171751D01*
X716615Y171729D01*
X714743Y170478D01*
X714681Y170386D01*
X714578Y170344D01*
X712986Y168752D01*
X712944Y168649D01*
X712852Y168587D01*
X711601Y166715D01*
X711579Y166607D01*
X711501Y166528D01*
X710639Y164448D01*
Y164337D01*
X710578Y164245D01*
X710138Y162037D01*
X710160Y161928D01*
X710118Y161826D01*
Y159574D01*
X710160Y159472D01*
X710138Y159363D01*
X710578Y157155D01*
X710639Y157063D01*
Y156952D01*
X711501Y154872D01*
X711579Y154793D01*
X711601Y154684D01*
X712852Y152812D01*
X712944Y152751D01*
X712986Y152648D01*
X714578Y151056D01*
X714681Y151014D01*
X714743Y150922D01*
X716615Y149671D01*
X716723Y149649D01*
X716802Y149571D01*
X718882Y148709D01*
X718993D01*
X719085Y148648D01*
X719086Y148647D01*
X719086Y147353D01*
X719085Y147352D01*
X718993Y147291D01*
X718882D01*
X716802Y146429D01*
X716723Y146351D01*
X716615Y146329D01*
X714743Y145078D01*
X714681Y144986D01*
X714578Y144944D01*
X712986Y143352D01*
X712944Y143249D01*
X712852Y143188D01*
X711601Y141315D01*
X711579Y141207D01*
X711501Y141128D01*
X710639Y139048D01*
Y138937D01*
X710578Y138845D01*
X710138Y136637D01*
X710160Y136528D01*
X710118Y136426D01*
Y134174D01*
X710160Y134072D01*
X710138Y133963D01*
X710578Y131755D01*
X710639Y131663D01*
Y131552D01*
X711501Y129472D01*
X711579Y129393D01*
X711601Y129284D01*
X712852Y127412D01*
X712944Y127351D01*
X712986Y127248D01*
X714578Y125656D01*
X714681Y125614D01*
X714743Y125522D01*
X716615Y124271D01*
X716723Y124249D01*
X716802Y124171D01*
X718882Y123309D01*
X718993D01*
X719085Y123248D01*
X721293Y122808D01*
X721402Y122830D01*
X721504Y122788D01*
X751586Y122788D01*
X751586Y122788D01*
X752091D01*
X752290Y122870D01*
X752505D01*
X753439Y123257D01*
X753591Y123409D01*
X753790Y123491D01*
X754505Y124206D01*
X754587Y124405D01*
X754652Y124469D01*
X754930Y124550D01*
X756092Y124505D01*
X757263Y122753D01*
X759023Y120993D01*
X761093Y119610D01*
X763393Y118657D01*
X765107Y118316D01*
X765245Y118110D01*
X765384Y117408D01*
X765782Y116812D01*
X766378Y116414D01*
X767080Y116275D01*
X838588D01*
X838592Y116276D01*
X841401Y115906D01*
X844021Y114820D01*
X846272Y113093D01*
X847999Y110843D01*
X849084Y108222D01*
X849454Y105414D01*
X849453Y105410D01*
Y13970D01*
X849454Y13966D01*
X849084Y11158D01*
X847999Y8537D01*
X846272Y6287D01*
X844021Y4560D01*
X841401Y3474D01*
X838592Y3104D01*
X838588Y3105D01*
X13970D01*
X13966Y3104D01*
X11158Y3474D01*
X8537Y4560D01*
X6287Y6287D01*
X4560Y8537D01*
X3474Y11158D01*
X3104Y13966D01*
X3105Y13970D01*
Y29100D01*
X3104Y29104D01*
X3474Y31912D01*
X4560Y34533D01*
X6287Y36783D01*
X8537Y38510D01*
X11158Y39596D01*
X13966Y39966D01*
X13970Y39965D01*
X69456D01*
X70158Y40104D01*
X70754Y40502D01*
X71151Y41098D01*
X71291Y41800D01*
X71151Y42502D01*
X70754Y43098D01*
X70538Y43242D01*
Y180465D01*
X70690Y180566D01*
X71087Y181162D01*
X71227Y181864D01*
X71087Y182566D01*
X70690Y183162D01*
X70094Y183560D01*
X69392Y183699D01*
X12700D01*
Y183709D01*
X10219Y184036D01*
X7908Y184993D01*
X5922Y186516D01*
X4399Y188501D01*
X3442Y190813D01*
X3115Y193294D01*
X3105D01*
Y350520D01*
X3104Y350524D01*
X3474Y353332D01*
X4560Y355953D01*
X6287Y358203D01*
X8537Y359930D01*
X11158Y361016D01*
X13966Y361385D01*
X13970Y361385D01*
X90330D01*
X91032Y361524D01*
X91628Y361922D01*
X92026Y362518D01*
X92165Y363220D01*
X92160Y363244D01*
X92240Y363452D01*
X93094Y364404D01*
X93123Y364418D01*
X98610D01*
X99375Y364735D01*
X99692Y365500D01*
X99692Y380000D01*
X99375Y380765D01*
X98610Y381082D01*
X92610Y381082D01*
X92610Y443918D01*
X98610D01*
X99375Y444235D01*
X99692Y445000D01*
X99692Y459500D01*
X99375Y460265D01*
X98610Y460582D01*
X92610D01*
X92373Y460484D01*
X92141Y461045D01*
X91539Y461647D01*
X91665Y462280D01*
X91525Y462982D01*
X91128Y463578D01*
X90532Y463976D01*
X89830Y464115D01*
X13970D01*
X13966Y464114D01*
X11158Y464484D01*
X8537Y465570D01*
X6287Y467297D01*
X4560Y469547D01*
X3474Y472168D01*
X3104Y474976D01*
X3105Y474980D01*
Y538570D01*
X3104Y538574D01*
X3474Y541382D01*
X4560Y544003D01*
X6287Y546253D01*
X8537Y547980D01*
X11158Y549066D01*
X13966Y549436D01*
X13970Y549435D01*
X838570D01*
X838574Y549436D01*
X841382Y549066D01*
D02*
G37*
G36*
X753025Y425743D02*
X753739Y425029D01*
X754126Y424095D01*
Y423590D01*
Y423590D01*
X754126Y418002D01*
X728980Y418002D01*
X728336Y417938D01*
X727145Y417445D01*
X726235Y416535D01*
X725741Y415344D01*
X725678Y414700D01*
X725741Y414056D01*
X726235Y412865D01*
X727145Y411954D01*
X728336Y411461D01*
X728980Y411398D01*
Y411398D01*
X754126Y411398D01*
Y405810D01*
Y405305D01*
X753739Y404371D01*
X753025Y403657D01*
X752091Y403270D01*
X721504D01*
X719296Y403709D01*
X717216Y404571D01*
X715344Y405822D01*
X713752Y407414D01*
X712501Y409286D01*
X711639Y411366D01*
X711200Y413574D01*
Y414700D01*
Y415826D01*
X711639Y418034D01*
X712501Y420114D01*
X713752Y421986D01*
X715344Y423578D01*
X717216Y424829D01*
X719296Y425691D01*
X721504Y426130D01*
X722630D01*
X751586Y426130D01*
X752091D01*
X753025Y425743D01*
D02*
G37*
G36*
Y400343D02*
X753739Y399629D01*
X754126Y398695D01*
Y398190D01*
Y392602D01*
X728980Y392602D01*
X728336Y392538D01*
X727145Y392046D01*
X726235Y391134D01*
X725741Y389944D01*
X725678Y389300D01*
X725741Y388656D01*
X726235Y387465D01*
X727145Y386554D01*
X728336Y386061D01*
X728980Y385998D01*
Y385998D01*
X754126Y385998D01*
Y380410D01*
Y379905D01*
X753739Y378971D01*
X753025Y378257D01*
X752091Y377870D01*
X751586D01*
Y377870D01*
X722630Y377870D01*
X721504D01*
X719296Y378309D01*
X717216Y379171D01*
X715344Y380422D01*
X713752Y382014D01*
X712501Y383886D01*
X711639Y385966D01*
X711200Y388174D01*
Y389300D01*
Y390426D01*
X711639Y392634D01*
X712501Y394714D01*
X713752Y396586D01*
X715344Y398178D01*
X717216Y399429D01*
X719296Y400291D01*
X721504Y400730D01*
X752091D01*
X753025Y400343D01*
D02*
G37*
G36*
Y374943D02*
X753739Y374229D01*
X754126Y373295D01*
Y372790D01*
Y367202D01*
X728980D01*
X728336Y367138D01*
X727145Y366646D01*
X726235Y365734D01*
X725741Y364544D01*
X725678Y363900D01*
X725741Y363256D01*
X726235Y362066D01*
X727145Y361154D01*
X728336Y360661D01*
X728980Y360598D01*
X754126D01*
Y355010D01*
Y354505D01*
X753739Y353571D01*
X753025Y352857D01*
X752091Y352470D01*
X751586D01*
Y352470D01*
X722630Y352470D01*
X721504D01*
X719296Y352909D01*
X717216Y353771D01*
X715344Y355022D01*
X713752Y356614D01*
X712501Y358486D01*
X711639Y360566D01*
X711200Y362774D01*
Y363900D01*
Y365026D01*
X711639Y367234D01*
X712501Y369314D01*
X713752Y371186D01*
X715344Y372778D01*
X717216Y374029D01*
X719296Y374891D01*
X721504Y375330D01*
X752091D01*
X753025Y374943D01*
D02*
G37*
G36*
Y349543D02*
X753739Y348829D01*
X754126Y347895D01*
Y347390D01*
Y341802D01*
X728980D01*
X728336Y341739D01*
X727145Y341245D01*
X726235Y340335D01*
X725741Y339144D01*
X725678Y338500D01*
X725741Y337856D01*
X726235Y336665D01*
X727145Y335754D01*
X728336Y335261D01*
X728980Y335198D01*
X754126D01*
Y329610D01*
Y329105D01*
X753739Y328171D01*
X753025Y327457D01*
X752091Y327070D01*
X751586D01*
Y327070D01*
X721504D01*
X719296Y327509D01*
X717216Y328371D01*
X715344Y329622D01*
X713752Y331214D01*
X712501Y333086D01*
X711639Y335166D01*
X711200Y337374D01*
Y338500D01*
Y339626D01*
X711639Y341834D01*
X712501Y343914D01*
X713752Y345786D01*
X715344Y347378D01*
X717216Y348629D01*
X719296Y349491D01*
X721504Y349930D01*
X752091D01*
X753025Y349543D01*
D02*
G37*
G36*
X753025Y324143D02*
X753739Y323429D01*
X754126Y322495D01*
Y321990D01*
X754126D01*
Y316402D01*
X728980D01*
X728336Y316339D01*
X727145Y315846D01*
X726235Y314935D01*
X725741Y313744D01*
X725678Y313100D01*
X725741Y312456D01*
X726235Y311266D01*
X727145Y310354D01*
X728336Y309861D01*
X728980Y309798D01*
X754126D01*
Y304210D01*
Y303705D01*
X753739Y302771D01*
X753025Y302057D01*
X752091Y301670D01*
X721504D01*
X719296Y302109D01*
X717216Y302971D01*
X715344Y304222D01*
X713752Y305814D01*
X712501Y307686D01*
X711639Y309766D01*
X711200Y311974D01*
Y313100D01*
Y314226D01*
X711639Y316434D01*
X712501Y318514D01*
X713752Y320386D01*
X715344Y321978D01*
X717216Y323229D01*
X719296Y324091D01*
X721504Y324530D01*
X752091D01*
X753025Y324143D01*
D02*
G37*
G36*
X753025Y298743D02*
X753739Y298029D01*
X754126Y297095D01*
Y296590D01*
Y291002D01*
X728980D01*
X728336Y290938D01*
X727145Y290445D01*
X726235Y289534D01*
X725741Y288344D01*
X725678Y287700D01*
X725741Y287056D01*
X726235Y285865D01*
X727145Y284954D01*
X728336Y284461D01*
X728980Y284398D01*
Y284398D01*
X754126Y284398D01*
Y278810D01*
Y278305D01*
X753739Y277371D01*
X753025Y276657D01*
X752091Y276270D01*
X721504D01*
X719296Y276709D01*
X717216Y277571D01*
X715344Y278822D01*
X713752Y280414D01*
X712501Y282286D01*
X711639Y284366D01*
X711200Y286574D01*
Y287700D01*
Y288826D01*
X711639Y291034D01*
X712501Y293114D01*
X713752Y294986D01*
X715344Y296578D01*
X717216Y297829D01*
X719296Y298691D01*
X721504Y299130D01*
X752091D01*
X753025Y298743D01*
D02*
G37*
G36*
Y273343D02*
X753739Y272629D01*
X754126Y271695D01*
Y271190D01*
Y265602D01*
X728980Y265602D01*
X728336Y265539D01*
X727145Y265046D01*
X726235Y264135D01*
X725741Y262944D01*
X725678Y262300D01*
X725741Y261656D01*
X726235Y260466D01*
X727145Y259555D01*
X728336Y259061D01*
X728980Y258998D01*
Y258998D01*
X754126D01*
Y253410D01*
Y252905D01*
X753739Y251971D01*
X753025Y251257D01*
X752091Y250870D01*
X721504D01*
X719296Y251309D01*
X717216Y252171D01*
X715344Y253422D01*
X713752Y255014D01*
X712501Y256886D01*
X711639Y258966D01*
X711200Y261174D01*
Y262300D01*
Y263426D01*
X711639Y265634D01*
X712501Y267714D01*
X713752Y269586D01*
X715344Y271178D01*
X717216Y272429D01*
X719296Y273291D01*
X721504Y273730D01*
X752091D01*
X753025Y273343D01*
D02*
G37*
G36*
Y247943D02*
X753739Y247229D01*
X754126Y246295D01*
Y245790D01*
X754126D01*
X754126Y240202D01*
X728980D01*
X728336Y240138D01*
X727145Y239646D01*
X726235Y238734D01*
X725741Y237544D01*
X725678Y236900D01*
X725741Y236256D01*
X726235Y235065D01*
X727145Y234154D01*
X728336Y233661D01*
X728980Y233598D01*
X754126D01*
Y228010D01*
Y227505D01*
X753739Y226571D01*
X753025Y225857D01*
X752091Y225470D01*
X751586D01*
Y225470D01*
X721504D01*
X719296Y225909D01*
X717216Y226771D01*
X715344Y228022D01*
X713752Y229614D01*
X712501Y231486D01*
X711639Y233566D01*
X711200Y235774D01*
Y236900D01*
Y238026D01*
X711639Y240234D01*
X712501Y242314D01*
X713752Y244186D01*
X715344Y245778D01*
X717216Y247029D01*
X719296Y247891D01*
X721504Y248330D01*
X752091D01*
X753025Y247943D01*
D02*
G37*
G36*
X751586Y222930D02*
X752091D01*
X753025Y222543D01*
X753739Y221829D01*
X754126Y220895D01*
Y220390D01*
Y214802D01*
X728980D01*
X728336Y214739D01*
X727145Y214245D01*
X726235Y213335D01*
X725741Y212144D01*
X725678Y211500D01*
X725741Y210856D01*
X726235Y209666D01*
X727145Y208754D01*
X728336Y208261D01*
X728980Y208198D01*
X754126Y208198D01*
X754126Y202610D01*
Y202105D01*
X753739Y201171D01*
X753025Y200457D01*
X752091Y200070D01*
X751586D01*
Y200070D01*
X721504D01*
X719296Y200509D01*
X717216Y201371D01*
X715344Y202622D01*
X713752Y204214D01*
X712501Y206086D01*
X711639Y208166D01*
X711200Y210374D01*
Y211500D01*
Y212626D01*
X711639Y214834D01*
X712501Y216914D01*
X713752Y218786D01*
X715344Y220378D01*
X717216Y221629D01*
X719296Y222491D01*
X721504Y222930D01*
X722630D01*
X751586Y222930D01*
D02*
G37*
G36*
X753025Y197143D02*
X753739Y196429D01*
X754126Y195495D01*
Y194990D01*
Y194990D01*
Y189402D01*
X728980D01*
X728336Y189338D01*
X727145Y188846D01*
X726235Y187934D01*
X725741Y186744D01*
X725678Y186100D01*
X725741Y185456D01*
X726235Y184265D01*
X727145Y183354D01*
X728336Y182861D01*
X728980Y182798D01*
X754126D01*
Y177210D01*
Y176705D01*
X753739Y175771D01*
X753025Y175057D01*
X752091Y174670D01*
X721504D01*
X719296Y175109D01*
X717216Y175971D01*
X715344Y177222D01*
X713752Y178814D01*
X712501Y180686D01*
X711639Y182766D01*
X711200Y184974D01*
Y186100D01*
Y187226D01*
X711639Y189434D01*
X712501Y191514D01*
X713752Y193386D01*
X715344Y194978D01*
X717216Y196229D01*
X719296Y197091D01*
X721504Y197530D01*
X722630D01*
X751586Y197530D01*
X752091D01*
X753025Y197143D01*
D02*
G37*
G36*
Y171743D02*
X753739Y171029D01*
X754126Y170095D01*
Y169590D01*
Y164002D01*
X728980Y164002D01*
X728336Y163939D01*
X727145Y163445D01*
X726235Y162534D01*
X725741Y161344D01*
X725678Y160700D01*
X725741Y160056D01*
X726235Y158865D01*
X727145Y157954D01*
X728336Y157461D01*
X728980Y157398D01*
Y157398D01*
X754126Y157398D01*
Y151810D01*
Y151305D01*
X753739Y150371D01*
X753025Y149657D01*
X752091Y149270D01*
X751586D01*
Y149270D01*
X722630Y149270D01*
X721504D01*
X719296Y149709D01*
X717216Y150571D01*
X715344Y151822D01*
X713752Y153414D01*
X712501Y155286D01*
X711639Y157366D01*
X711200Y159574D01*
Y160700D01*
Y161826D01*
X711639Y164034D01*
X712501Y166114D01*
X713752Y167986D01*
X715344Y169578D01*
X717216Y170829D01*
X719296Y171691D01*
X721504Y172130D01*
X752091D01*
X753025Y171743D01*
D02*
G37*
G36*
Y146343D02*
X753739Y145629D01*
X754126Y144695D01*
Y144190D01*
Y138602D01*
X728980D01*
X728336Y138539D01*
X727145Y138046D01*
X726235Y137135D01*
X725741Y135944D01*
X725678Y135300D01*
X725741Y134656D01*
X726235Y133465D01*
X727145Y132554D01*
X728336Y132061D01*
X728980Y131998D01*
X754126D01*
Y126410D01*
Y125905D01*
X753739Y124971D01*
X753025Y124257D01*
X752091Y123870D01*
X751586D01*
Y123870D01*
X722630Y123870D01*
X721504D01*
X719296Y124309D01*
X717216Y125171D01*
X715344Y126422D01*
X713752Y128014D01*
X712501Y129886D01*
X711639Y131966D01*
X711200Y134174D01*
Y135300D01*
Y136426D01*
X711639Y138634D01*
X712501Y140714D01*
X713752Y142586D01*
X715344Y144178D01*
X717216Y145429D01*
X719296Y146291D01*
X721504Y146730D01*
X752091D01*
X753025Y146343D01*
D02*
G37*
%LPC*%
G36*
X326782Y478484D02*
X325490D01*
X324295Y477989D01*
X323381Y477075D01*
X322886Y475881D01*
Y474588D01*
X323381Y473393D01*
X324295Y472479D01*
X325490Y471984D01*
X326782D01*
X327977Y472479D01*
X328891Y473393D01*
X329386Y474588D01*
Y475881D01*
X328891Y477075D01*
X327977Y477989D01*
X326782Y478484D01*
D02*
G37*
G36*
X126884D02*
X125591D01*
X124397Y477989D01*
X123483Y477075D01*
X122988Y475881D01*
Y474588D01*
X123483Y473393D01*
X124397Y472479D01*
X125591Y471984D01*
X126884D01*
X128079Y472479D01*
X128993Y473393D01*
X129488Y474588D01*
Y475881D01*
X128993Y477075D01*
X128079Y477989D01*
X126884Y478484D01*
D02*
G37*
G36*
X226961Y478230D02*
X225667D01*
X224473Y477735D01*
X223559Y476821D01*
X223064Y475626D01*
Y474333D01*
X223559Y473139D01*
X224473Y472225D01*
X225667Y471730D01*
X226961D01*
X228155Y472225D01*
X229069Y473139D01*
X229564Y474333D01*
Y475626D01*
X229069Y476821D01*
X228155Y477735D01*
X226961Y478230D01*
D02*
G37*
G36*
X129540Y433839D02*
X128760Y433684D01*
X128098Y433242D01*
X127656Y432580D01*
X127501Y431800D01*
X127505Y431780D01*
Y424942D01*
X127660Y424162D01*
X128102Y423500D01*
X128764Y423058D01*
X129544Y422903D01*
X130324Y423058D01*
X130986Y423500D01*
X131428Y424162D01*
X131583Y424942D01*
Y431796D01*
X131428Y432576D01*
X130986Y433238D01*
X130986Y433238D01*
X130982Y433242D01*
X130320Y433684D01*
X129540Y433839D01*
D02*
G37*
G36*
X109610Y457739D02*
X108830Y457584D01*
X108168Y457142D01*
X107778Y456752D01*
X107336Y456090D01*
X107181Y455310D01*
Y447040D01*
Y442039D01*
X104110D01*
X103330Y441884D01*
X102668Y441442D01*
X102226Y440780D01*
X102071Y440000D01*
X102226Y439220D01*
X102527Y438770D01*
X102287Y437984D01*
X101966Y437500D01*
X94610D01*
Y432500D01*
X94610D01*
Y427500D01*
Y417500D01*
X94610D01*
Y408770D01*
X94610Y407500D01*
X94610Y406230D01*
Y397500D01*
X94610Y392539D01*
X94610Y391556D01*
X94610Y387500D01*
X101966D01*
X102287Y387016D01*
X102527Y386230D01*
X102226Y385780D01*
X102071Y385000D01*
Y380690D01*
X102226Y379910D01*
X102668Y379249D01*
X103625Y378292D01*
Y371800D01*
X103780Y371020D01*
X104222Y370358D01*
X106722Y367858D01*
X106722Y367858D01*
X107384Y367416D01*
X108164Y367261D01*
X109610D01*
X110390Y367416D01*
X111052Y367858D01*
X111494Y368520D01*
X111649Y369300D01*
X111494Y370080D01*
X111052Y370742D01*
X110390Y371184D01*
X109610Y371339D01*
X109009D01*
X107703Y372645D01*
Y379136D01*
X107703Y379137D01*
X107548Y379917D01*
X107106Y380578D01*
X107106Y380578D01*
X106149Y381535D01*
Y385000D01*
X105994Y385780D01*
X105694Y386230D01*
X105933Y387016D01*
X106254Y387500D01*
X113610D01*
X113610Y392289D01*
X113610Y393437D01*
X113610Y395992D01*
X114880Y396398D01*
X115507Y395771D01*
X116701Y395276D01*
X117994D01*
X119189Y395771D01*
X120103Y396685D01*
X120598Y397879D01*
Y399173D01*
X120103Y400367D01*
X119189Y401281D01*
X117994Y401776D01*
X116701D01*
X115673Y401350D01*
X115012Y401624D01*
X113610D01*
Y406230D01*
X113610Y407068D01*
X114594Y408192D01*
X115153Y408150D01*
X115317Y407326D01*
X115784Y406628D01*
X118338Y404074D01*
X119036Y403607D01*
X119860Y403443D01*
X124540D01*
X125363Y403607D01*
X126061Y404074D01*
X130218Y408230D01*
X131456D01*
X132651Y408725D01*
X133565Y409639D01*
X134060Y410834D01*
Y412127D01*
X133565Y413321D01*
X132651Y414235D01*
X131456Y414730D01*
X130163D01*
X128969Y414235D01*
X128055Y413321D01*
X127560Y412127D01*
Y411659D01*
X126186Y410285D01*
X125500Y410457D01*
X124855Y410750D01*
X124421Y411797D01*
X123507Y412711D01*
X122312Y413206D01*
X121870D01*
X119308Y415767D01*
X118610Y416234D01*
X117787Y416398D01*
X114508D01*
X114297Y416609D01*
X114264Y417867D01*
X114723Y418376D01*
X116262D01*
X117410Y418852D01*
X119467Y420909D01*
X122929D01*
X123582Y421039D01*
X124137Y421409D01*
X124507Y421964D01*
X124637Y422617D01*
Y427267D01*
X124507Y427920D01*
X124137Y428475D01*
X123582Y428845D01*
X122929Y428975D01*
X120407D01*
X119881Y430245D01*
X120103Y430467D01*
X120598Y431661D01*
Y432954D01*
X120103Y434149D01*
X119189Y435063D01*
X117994Y435558D01*
X116701D01*
X115507Y435063D01*
X114880Y434436D01*
X113610Y434842D01*
Y437500D01*
X110864D01*
X110568Y437946D01*
X110374Y438770D01*
X110662Y439058D01*
X111104Y439720D01*
X111259Y440500D01*
X111259Y440500D01*
Y447040D01*
Y454568D01*
X111494Y454920D01*
X111649Y455700D01*
X111494Y456480D01*
X111052Y457142D01*
X110390Y457584D01*
X109610Y457739D01*
D02*
G37*
G36*
X119773Y357580D02*
X118479D01*
X117285Y357085D01*
X116371Y356171D01*
X115876Y354977D01*
Y353684D01*
X116371Y352489D01*
X117285Y351575D01*
X118479Y351080D01*
X119773D01*
X120967Y351575D01*
X121881Y352489D01*
X122376Y353684D01*
Y354977D01*
X121881Y356171D01*
X120967Y357085D01*
X119773Y357580D01*
D02*
G37*
G36*
X319897Y354532D02*
X318604D01*
X317409Y354037D01*
X316495Y353123D01*
X316000Y351928D01*
Y350635D01*
X316495Y349441D01*
X317409Y348527D01*
X318604Y348032D01*
X319897D01*
X321091Y348527D01*
X322005Y349441D01*
X322500Y350635D01*
Y351928D01*
X322005Y353123D01*
X321091Y354037D01*
X319897Y354532D01*
D02*
G37*
G36*
X66940Y342594D02*
X65648D01*
X64453Y342099D01*
X63539Y341185D01*
X63044Y339991D01*
Y338698D01*
X63539Y337503D01*
X64453Y336589D01*
X65648Y336094D01*
X66940D01*
X68135Y336589D01*
X69049Y337503D01*
X69544Y338698D01*
Y339991D01*
X69049Y341185D01*
X68135Y342099D01*
X66940Y342594D01*
D02*
G37*
G36*
X211213Y343864D02*
X209919D01*
X208725Y343369D01*
X207811Y342455D01*
X207316Y341260D01*
Y339967D01*
X207811Y338773D01*
X208725Y337859D01*
X209919Y337364D01*
X211213D01*
X211430Y337454D01*
X214772Y334112D01*
X214682Y333895D01*
Y332602D01*
X215177Y331407D01*
X216091Y330493D01*
X217285Y329998D01*
X218578D01*
X219773Y330493D01*
X220687Y331407D01*
X221182Y332602D01*
Y333895D01*
X220687Y335089D01*
X219773Y336003D01*
X218578Y336498D01*
X217285D01*
X217068Y336408D01*
X213726Y339750D01*
X213816Y339967D01*
Y341260D01*
X213321Y342455D01*
X212407Y343369D01*
X211213Y343864D01*
D02*
G37*
G36*
X58812Y327100D02*
X57519D01*
X56325Y326605D01*
X55411Y325691D01*
X54916Y324496D01*
Y323204D01*
X55411Y322009D01*
X56325Y321095D01*
X57519Y320600D01*
X58812D01*
X60007Y321095D01*
X60921Y322009D01*
X61416Y323204D01*
Y324496D01*
X60921Y325691D01*
X60007Y326605D01*
X58812Y327100D01*
D02*
G37*
G36*
X50939D02*
X49646D01*
X48451Y326605D01*
X47537Y325691D01*
X47042Y324496D01*
Y323204D01*
X47537Y322009D01*
X48451Y321095D01*
X49646Y320600D01*
X50939D01*
X52133Y321095D01*
X53047Y322009D01*
X53542Y323204D01*
Y324496D01*
X53047Y325691D01*
X52133Y326605D01*
X50939Y327100D01*
D02*
G37*
G36*
X173367Y325576D02*
X172073D01*
X170879Y325081D01*
X169965Y324167D01*
X169470Y322972D01*
Y321679D01*
X169965Y320485D01*
X170879Y319571D01*
X172073Y319076D01*
X173367D01*
X174561Y319571D01*
X175475Y320485D01*
X175970Y321679D01*
Y322972D01*
X175475Y324167D01*
X174561Y325081D01*
X173367Y325576D01*
D02*
G37*
G36*
X132900Y343728D02*
X105351D01*
X105153Y343646D01*
X104937D01*
X103099Y342885D01*
X102947Y342733D01*
X102748Y342650D01*
X101342Y341244D01*
X101259Y341045D01*
X101107Y340892D01*
X100346Y339055D01*
Y338839D01*
X100264Y338641D01*
Y323791D01*
X100346Y323592D01*
Y323377D01*
X101107Y321539D01*
X101259Y321387D01*
X101342Y321188D01*
X102748Y319782D01*
X102947Y319699D01*
X103099Y319547D01*
X104937Y318786D01*
X105153D01*
X105351Y318704D01*
X132900D01*
X133099Y318786D01*
X133315D01*
X135153Y319547D01*
X135305Y319699D01*
X135504Y319782D01*
X136910Y321188D01*
X136993Y321387D01*
X137145Y321539D01*
X137906Y323377D01*
Y323592D01*
X137988Y323791D01*
Y338641D01*
X137906Y338839D01*
Y339055D01*
X137145Y340892D01*
X136993Y341045D01*
X136910Y341244D01*
X135504Y342650D01*
X135305Y342733D01*
X135153Y342885D01*
X133315Y343646D01*
X133099D01*
X132900Y343728D01*
D02*
G37*
G36*
X32905Y323290D02*
X31611D01*
X30417Y322795D01*
X29503Y321881D01*
X29008Y320686D01*
Y319394D01*
X29503Y318199D01*
X30417Y317285D01*
X31611Y316790D01*
X32905D01*
X34099Y317285D01*
X35013Y318199D01*
X35508Y319394D01*
Y320686D01*
X35013Y321881D01*
X34099Y322795D01*
X32905Y323290D01*
D02*
G37*
G36*
X25031D02*
X23737D01*
X22543Y322795D01*
X21629Y321881D01*
X21134Y320686D01*
Y319394D01*
X21629Y318199D01*
X22543Y317285D01*
X23737Y316790D01*
X25031D01*
X26225Y317285D01*
X27139Y318199D01*
X27634Y319394D01*
Y320686D01*
X27139Y321881D01*
X26225Y322795D01*
X25031Y323290D01*
D02*
G37*
G36*
X17156D02*
X15863D01*
X14669Y322795D01*
X13755Y321881D01*
X13260Y320686D01*
Y319394D01*
X13755Y318199D01*
X14669Y317285D01*
X15863Y316790D01*
X17156D01*
X18351Y317285D01*
X19265Y318199D01*
X19760Y319394D01*
Y320686D01*
X19265Y321881D01*
X18351Y322795D01*
X17156Y323290D01*
D02*
G37*
G36*
X410349Y414222D02*
X409055D01*
X407861Y413727D01*
X406947Y412813D01*
X406452Y411618D01*
Y410326D01*
X406947Y409131D01*
X407861Y408217D01*
X408078Y408127D01*
Y377608D01*
X397854Y367384D01*
X292862D01*
X291714Y366908D01*
X270378Y345572D01*
X269902Y344424D01*
Y320345D01*
X269685Y320255D01*
X268771Y319341D01*
X268276Y318146D01*
Y316854D01*
X268771Y315659D01*
X269685Y314745D01*
X270879Y314250D01*
X272173D01*
X273367Y314745D01*
X274281Y315659D01*
X274776Y316854D01*
Y318146D01*
X274281Y319341D01*
X273367Y320255D01*
X273150Y320345D01*
Y343751D01*
X293535Y364136D01*
X398526D01*
X399674Y364612D01*
X410850Y375788D01*
X411326Y376936D01*
Y408127D01*
X411543Y408217D01*
X412457Y409131D01*
X412952Y410326D01*
Y411618D01*
X412457Y412813D01*
X411543Y413727D01*
X410349Y414222D01*
D02*
G37*
G36*
X58812Y319226D02*
X57519D01*
X56325Y318731D01*
X55411Y317817D01*
X54916Y316623D01*
Y315329D01*
X55411Y314135D01*
X56325Y313221D01*
X57519Y312726D01*
X58812D01*
X60007Y313221D01*
X60921Y314135D01*
X61416Y315329D01*
Y316623D01*
X60921Y317817D01*
X60007Y318731D01*
X58812Y319226D01*
D02*
G37*
G36*
X50939D02*
X49646D01*
X48451Y318731D01*
X47537Y317817D01*
X47042Y316623D01*
Y315329D01*
X47537Y314135D01*
X48451Y313221D01*
X49646Y312726D01*
X50939D01*
X52133Y313221D01*
X53047Y314135D01*
X53542Y315329D01*
Y316623D01*
X53047Y317817D01*
X52133Y318731D01*
X50939Y319226D01*
D02*
G37*
G36*
X32905Y315416D02*
X31611D01*
X30417Y314921D01*
X29503Y314007D01*
X29008Y312812D01*
Y311520D01*
X29503Y310325D01*
X30417Y309411D01*
X31611Y308916D01*
X32905D01*
X34099Y309411D01*
X35013Y310325D01*
X35508Y311520D01*
Y312812D01*
X35013Y314007D01*
X34099Y314921D01*
X32905Y315416D01*
D02*
G37*
G36*
X25031D02*
X23737D01*
X22543Y314921D01*
X21629Y314007D01*
X21134Y312812D01*
Y311520D01*
X21629Y310325D01*
X22543Y309411D01*
X23737Y308916D01*
X25031D01*
X26225Y309411D01*
X27139Y310325D01*
X27634Y311520D01*
Y312812D01*
X27139Y314007D01*
X26225Y314921D01*
X25031Y315416D01*
D02*
G37*
G36*
X17156D02*
X15863D01*
X14669Y314921D01*
X13755Y314007D01*
X13260Y312812D01*
Y311520D01*
X13755Y310325D01*
X14669Y309411D01*
X15863Y308916D01*
X17156D01*
X18351Y309411D01*
X19265Y310325D01*
X19760Y311520D01*
Y312812D01*
X19265Y314007D01*
X18351Y314921D01*
X17156Y315416D01*
D02*
G37*
G36*
X58812Y311352D02*
X57519D01*
X56325Y310857D01*
X55411Y309943D01*
X54916Y308748D01*
Y307456D01*
X55411Y306261D01*
X56325Y305347D01*
X57519Y304852D01*
X58812D01*
X60007Y305347D01*
X60921Y306261D01*
X61416Y307456D01*
Y308748D01*
X60921Y309943D01*
X60007Y310857D01*
X58812Y311352D01*
D02*
G37*
G36*
X50939D02*
X49646D01*
X48451Y310857D01*
X47537Y309943D01*
X47042Y308748D01*
Y307456D01*
X47537Y306261D01*
X48451Y305347D01*
X49646Y304852D01*
X50939D01*
X52133Y305347D01*
X53047Y306261D01*
X53542Y307456D01*
Y308748D01*
X53047Y309943D01*
X52133Y310857D01*
X50939Y311352D01*
D02*
G37*
G36*
X104766Y309848D02*
X103473D01*
X102279Y309354D01*
X101364Y308439D01*
X100870Y307245D01*
Y305952D01*
X101364Y304757D01*
X102279Y303843D01*
X103473Y303348D01*
X104766D01*
X105961Y303843D01*
X106875Y304757D01*
X107370Y305952D01*
Y307245D01*
X106875Y308439D01*
X105961Y309354D01*
X104766Y309848D01*
D02*
G37*
G36*
X32905Y307542D02*
X31611D01*
X30417Y307047D01*
X29503Y306133D01*
X29008Y304939D01*
Y303645D01*
X29503Y302451D01*
X30417Y301537D01*
X31611Y301042D01*
X32905D01*
X34099Y301537D01*
X35013Y302451D01*
X35508Y303645D01*
Y304939D01*
X35013Y306133D01*
X34099Y307047D01*
X32905Y307542D01*
D02*
G37*
G36*
X25031D02*
X23737D01*
X22543Y307047D01*
X21629Y306133D01*
X21134Y304939D01*
Y303645D01*
X21629Y302451D01*
X22543Y301537D01*
X23737Y301042D01*
X25031D01*
X26225Y301537D01*
X27139Y302451D01*
X27634Y303645D01*
Y304939D01*
X27139Y306133D01*
X26225Y307047D01*
X25031Y307542D01*
D02*
G37*
G36*
X17156D02*
X15863D01*
X14669Y307047D01*
X13755Y306133D01*
X13260Y304939D01*
Y303645D01*
X13755Y302451D01*
X14669Y301537D01*
X15863Y301042D01*
X17156D01*
X18351Y301537D01*
X19265Y302451D01*
X19760Y303645D01*
Y304939D01*
X19265Y306133D01*
X18351Y307047D01*
X17156Y307542D01*
D02*
G37*
G36*
X110334Y304280D02*
X109041D01*
X107846Y303786D01*
X106932Y302871D01*
X106438Y301677D01*
Y300384D01*
X106932Y299189D01*
X107846Y298275D01*
X109041Y297780D01*
X110334D01*
X111529Y298275D01*
X112443Y299189D01*
X112937Y300384D01*
Y301677D01*
X112443Y302871D01*
X111529Y303786D01*
X110334Y304280D01*
D02*
G37*
G36*
X50939Y303478D02*
X49646D01*
X48451Y302983D01*
X47537Y302069D01*
X47042Y300875D01*
Y299582D01*
X47537Y298387D01*
X48451Y297473D01*
X49646Y296978D01*
X50939D01*
X52133Y297473D01*
X53047Y298387D01*
X53542Y299582D01*
Y300875D01*
X53047Y302069D01*
X52133Y302983D01*
X50939Y303478D01*
D02*
G37*
G36*
X34339Y288782D02*
X33941D01*
X33941Y288782D01*
X33782D01*
X33782Y288782D01*
X14429D01*
X14230Y288700D01*
X14015D01*
X13280Y288396D01*
X13128Y288243D01*
X12929Y288161D01*
X12366Y287598D01*
X12284Y287399D01*
X12132Y287247D01*
X11827Y286512D01*
Y286297D01*
X11745Y286098D01*
Y262124D01*
X11827Y261925D01*
Y261710D01*
X12132Y260975D01*
X12284Y260823D01*
X12366Y260624D01*
X12929Y260061D01*
X13128Y259979D01*
X13280Y259827D01*
X14015Y259522D01*
X14230D01*
X14429Y259440D01*
X34339D01*
X34538Y259522D01*
X34753D01*
X35488Y259827D01*
X35640Y259979D01*
X35839Y260061D01*
X36402Y260624D01*
X36484Y260823D01*
X36637Y260975D01*
X36941Y261710D01*
Y261925D01*
X37023Y262124D01*
Y286098D01*
X36941Y286297D01*
Y286512D01*
X36637Y287247D01*
X36484Y287399D01*
X36402Y287598D01*
X35839Y288161D01*
X35640Y288243D01*
X35488Y288396D01*
X34753Y288700D01*
X34538D01*
X34339Y288782D01*
D02*
G37*
G36*
X277253Y287222D02*
X275959D01*
X274765Y286727D01*
X273851Y285813D01*
X273356Y284618D01*
Y283326D01*
X273851Y282131D01*
X274765Y281217D01*
X275959Y280722D01*
X277253D01*
X278447Y281217D01*
X279361Y282131D01*
X279856Y283326D01*
Y284618D01*
X279361Y285813D01*
X278447Y286727D01*
X277253Y287222D01*
D02*
G37*
G36*
X63527Y303768D02*
X63527Y303768D01*
X63123D01*
X62924Y303686D01*
X62709D01*
X61962Y303377D01*
X61810Y303224D01*
X61611Y303142D01*
X61039Y302570D01*
X60957Y302371D01*
X60805Y302219D01*
X60495Y301472D01*
Y301257D01*
X60413Y301058D01*
X60413Y299183D01*
X60336Y298405D01*
X59721Y296921D01*
X58624Y295824D01*
X57140Y295209D01*
X56362Y295132D01*
X48697D01*
X48498Y295050D01*
X48283D01*
X47162Y294586D01*
X47010Y294434D01*
X46811Y294351D01*
X45954Y293494D01*
X45872Y293295D01*
X45719Y293143D01*
X45255Y292022D01*
Y291807D01*
X45173Y291608D01*
Y248690D01*
X45255Y248492D01*
Y248276D01*
X45951Y246596D01*
X46104Y246444D01*
X46186Y246245D01*
X47472Y244959D01*
X47671Y244876D01*
X47823Y244724D01*
X49504Y244028D01*
X49719D01*
X49918Y243946D01*
X111622D01*
X111821Y244028D01*
X112036D01*
X113717Y244724D01*
X113869Y244876D01*
X114068Y244959D01*
X115354Y246245D01*
X115436Y246444D01*
X115589Y246596D01*
X116285Y248276D01*
Y248492D01*
X116367Y248690D01*
Y291608D01*
X116285Y291807D01*
Y292022D01*
X115821Y293143D01*
X115668Y293295D01*
X115586Y293494D01*
X114729Y294351D01*
X114530Y294434D01*
X114377Y294586D01*
X113257Y295050D01*
X113042D01*
X112843Y295132D01*
X105178D01*
X104399Y295209D01*
X102916Y295824D01*
X101819Y296921D01*
X101204Y298405D01*
X101127Y299183D01*
Y301058D01*
X101045Y301257D01*
Y301472D01*
X100735Y302219D01*
X100583Y302372D01*
X100501Y302570D01*
X99929Y303142D01*
X99730Y303224D01*
X99578Y303377D01*
X98831Y303686D01*
X98616D01*
X98417Y303768D01*
X98013D01*
X63527Y303768D01*
D02*
G37*
G36*
X43573Y243788D02*
X42280D01*
X41085Y243293D01*
X40171Y242379D01*
X39676Y241185D01*
Y239891D01*
X40171Y238697D01*
X41085Y237783D01*
X42280Y237288D01*
X43573D01*
X44767Y237783D01*
X45681Y238697D01*
X46176Y239891D01*
Y241185D01*
X45681Y242379D01*
X44767Y243293D01*
X43573Y243788D01*
D02*
G37*
G36*
X35698D02*
X34406D01*
X33211Y243293D01*
X32297Y242379D01*
X31802Y241185D01*
Y239891D01*
X32297Y238697D01*
X33211Y237783D01*
X34406Y237288D01*
X35698D01*
X36893Y237783D01*
X37807Y238697D01*
X38302Y239891D01*
Y241185D01*
X37807Y242379D01*
X36893Y243293D01*
X35698Y243788D01*
D02*
G37*
G36*
X27824D02*
X26532D01*
X25337Y243293D01*
X24423Y242379D01*
X23928Y241185D01*
Y239891D01*
X24423Y238697D01*
X25337Y237783D01*
X26532Y237288D01*
X27824D01*
X29019Y237783D01*
X29933Y238697D01*
X30428Y239891D01*
Y241185D01*
X29933Y242379D01*
X29019Y243293D01*
X27824Y243788D01*
D02*
G37*
G36*
X19950D02*
X18657D01*
X17463Y243293D01*
X16549Y242379D01*
X16054Y241185D01*
Y239891D01*
X16549Y238697D01*
X17463Y237783D01*
X18657Y237288D01*
X19950D01*
X21145Y237783D01*
X22059Y238697D01*
X22554Y239891D01*
Y241185D01*
X22059Y242379D01*
X21145Y243293D01*
X19950Y243788D01*
D02*
G37*
G36*
X93864Y239724D02*
X92571D01*
X91377Y239229D01*
X90463Y238315D01*
X89968Y237120D01*
Y235828D01*
X90463Y234633D01*
X91377Y233719D01*
X92571Y233224D01*
X93864D01*
X95059Y233719D01*
X95973Y234633D01*
X96468Y235828D01*
Y237120D01*
X95973Y238315D01*
X95059Y239229D01*
X93864Y239724D01*
D02*
G37*
G36*
X251707Y317082D02*
X179320D01*
X179121Y317000D01*
X178906D01*
X176700Y316087D01*
X176548Y315934D01*
X176349Y315852D01*
X174661Y314164D01*
X174579Y313965D01*
X174427Y313813D01*
X173513Y311608D01*
Y311392D01*
X173431Y311194D01*
Y310000D01*
Y240000D01*
Y238806D01*
X173513Y238608D01*
Y238392D01*
X174427Y236187D01*
X174579Y236035D01*
X174661Y235836D01*
X176349Y234148D01*
X176548Y234066D01*
X176700Y233913D01*
X178906Y233000D01*
X179121D01*
X179320Y232918D01*
X251707D01*
X251906Y233000D01*
X252121D01*
X254326Y233913D01*
X254479Y234066D01*
X254677Y234148D01*
X256365Y235836D01*
X256448Y236035D01*
X256600Y236187D01*
X257513Y238392D01*
Y238608D01*
X257596Y238806D01*
Y240000D01*
Y310000D01*
Y311194D01*
X257513Y311392D01*
Y311608D01*
X256600Y313813D01*
X256448Y313965D01*
X256365Y314164D01*
X254677Y315852D01*
X254478Y315934D01*
X254326Y316087D01*
X252121Y317000D01*
X251906D01*
X251707Y317082D01*
D02*
G37*
G36*
X169303Y234390D02*
X168009D01*
X166815Y233895D01*
X165901Y232981D01*
X165406Y231786D01*
Y230494D01*
X165901Y229299D01*
X166815Y228385D01*
X168009Y227890D01*
X169303D01*
X170497Y228385D01*
X171411Y229299D01*
X171906Y230494D01*
Y231786D01*
X171411Y232981D01*
X170497Y233895D01*
X169303Y234390D01*
D02*
G37*
G36*
X93864Y231850D02*
X92571D01*
X91377Y231355D01*
X90463Y230441D01*
X89968Y229247D01*
Y227953D01*
X90463Y226759D01*
X91377Y225845D01*
X92571Y225350D01*
X93864D01*
X95059Y225845D01*
X95973Y226759D01*
X96468Y227953D01*
Y229247D01*
X95973Y230441D01*
X95059Y231355D01*
X93864Y231850D01*
D02*
G37*
G36*
X85990D02*
X84698D01*
X83503Y231355D01*
X82589Y230441D01*
X82094Y229247D01*
Y227953D01*
X82589Y226759D01*
X83503Y225845D01*
X84698Y225350D01*
X85990D01*
X87185Y225845D01*
X88099Y226759D01*
X88594Y227953D01*
Y229247D01*
X88099Y230441D01*
X87185Y231355D01*
X85990Y231850D01*
D02*
G37*
G36*
X78116D02*
X76824D01*
X75629Y231355D01*
X74715Y230441D01*
X74220Y229247D01*
Y227953D01*
X74715Y226759D01*
X75629Y225845D01*
X76824Y225350D01*
X78116D01*
X79311Y225845D01*
X80225Y226759D01*
X80720Y227953D01*
Y229247D01*
X80225Y230441D01*
X79311Y231355D01*
X78116Y231850D01*
D02*
G37*
G36*
X258456Y231342D02*
X257164D01*
X255969Y230847D01*
X255055Y229933D01*
X254560Y228738D01*
Y227446D01*
X255055Y226251D01*
X255969Y225337D01*
X257164Y224842D01*
X258456D01*
X259651Y225337D01*
X260565Y226251D01*
X261060Y227446D01*
Y228738D01*
X260565Y229933D01*
X259651Y230847D01*
X258456Y231342D01*
D02*
G37*
G36*
X168794Y208736D02*
X167502D01*
X166307Y208241D01*
X165393Y207327D01*
X164898Y206133D01*
Y204839D01*
X165393Y203645D01*
X166307Y202731D01*
X167502Y202236D01*
X168794D01*
X169989Y202731D01*
X170903Y203645D01*
X171398Y204839D01*
Y206133D01*
X170903Y207327D01*
X169989Y208241D01*
X168794Y208736D01*
D02*
G37*
G36*
X246264Y183844D02*
X244972D01*
X243777Y183349D01*
X242863Y182435D01*
X242368Y181241D01*
Y179947D01*
X242863Y178753D01*
X243777Y177839D01*
X244972Y177344D01*
X246264D01*
X247459Y177839D01*
X248373Y178753D01*
X248868Y179947D01*
Y181241D01*
X248373Y182435D01*
X247459Y183349D01*
X246264Y183844D01*
D02*
G37*
G36*
X232041D02*
X230748D01*
X229553Y183349D01*
X228639Y182435D01*
X228144Y181241D01*
Y179947D01*
X228639Y178753D01*
X229553Y177839D01*
X230748Y177344D01*
X232041D01*
X233235Y177839D01*
X234149Y178753D01*
X234644Y179947D01*
Y181241D01*
X234149Y182435D01*
X233235Y183349D01*
X232041Y183844D01*
D02*
G37*
G36*
X100990Y154900D02*
X73990D01*
Y144900D01*
X100990D01*
Y154900D01*
D02*
G37*
G36*
X115709Y145236D02*
X114416D01*
X113221Y144741D01*
X112307Y143827D01*
X111812Y142633D01*
Y141620D01*
X109431Y139239D01*
X100990D01*
Y142200D01*
X73990D01*
Y132200D01*
X100990D01*
Y135161D01*
X110276D01*
X111056Y135316D01*
X111718Y135758D01*
X114696Y138736D01*
X115709D01*
X116903Y139231D01*
X117817Y140145D01*
X118312Y141340D01*
Y142633D01*
X117817Y143827D01*
X116903Y144741D01*
X115709Y145236D01*
D02*
G37*
G36*
X87490Y126124D02*
X86342Y125648D01*
X85866Y124500D01*
X86342Y123352D01*
X86382Y123312D01*
X87530Y122836D01*
X88678Y123312D01*
X89154Y124460D01*
X88678Y125608D01*
X88638Y125648D01*
X87490Y126124D01*
D02*
G37*
G36*
X87490Y113424D02*
X86342Y112948D01*
X85866Y111800D01*
X86342Y110652D01*
X86382Y110612D01*
X87530Y110136D01*
X88678Y110612D01*
X89154Y111760D01*
X88678Y112908D01*
X88638Y112948D01*
X87490Y113424D01*
D02*
G37*
G36*
X113931Y121360D02*
X112638D01*
X111443Y120865D01*
X110529Y119951D01*
X110034Y118757D01*
Y117464D01*
X110529Y116269D01*
X111443Y115355D01*
X111660Y115265D01*
Y105575D01*
X108306Y102220D01*
X108089Y102310D01*
X106796D01*
X105601Y101815D01*
X104687Y100901D01*
X104192Y99706D01*
Y98413D01*
X104687Y97219D01*
X105601Y96305D01*
X106796Y95810D01*
X108089D01*
X109283Y96305D01*
X110197Y97219D01*
X110692Y98413D01*
Y99706D01*
X110602Y99924D01*
X114432Y103754D01*
X114908Y104902D01*
Y115265D01*
X115125Y115355D01*
X116039Y116269D01*
X116534Y117464D01*
Y118757D01*
X116039Y119951D01*
X115125Y120865D01*
X113931Y121360D01*
D02*
G37*
G36*
X100990Y104100D02*
X73990D01*
Y94100D01*
X100990D01*
Y104100D01*
D02*
G37*
G36*
Y78700D02*
X73990D01*
Y68700D01*
X100990D01*
Y78700D01*
D02*
G37*
%LPD*%
D10*
X110276Y137200D02*
X115062Y141986D01*
X87490Y137200D02*
X110276D01*
X129540Y431800D02*
X129544Y431796D01*
Y424942D02*
Y431796D01*
X109220Y455310D02*
X109610Y455700D01*
X109220Y447040D02*
Y455310D01*
X108720Y440000D02*
X109220Y440500D01*
Y447040D01*
X104110Y440000D02*
X108720D01*
X104110Y380690D02*
Y385000D01*
Y380690D02*
X105664Y379137D01*
Y371800D02*
Y378460D01*
X108164Y369300D02*
X109610D01*
X105664Y371800D02*
X108164Y369300D01*
X105664Y378460D02*
Y379137D01*
D14*
X107442Y99060D02*
X113284Y104902D01*
Y118110D01*
X398526Y365760D02*
X409702Y376936D01*
Y410972D01*
X292862Y365760D02*
X398526D01*
X87490Y124500D02*
X87530Y124460D01*
X87490Y111800D02*
X87530Y111760D01*
X104800Y425690D02*
X113524D01*
X117093Y429259D01*
Y432053D01*
X104110Y425000D02*
X104800Y425690D01*
X117093Y432053D02*
X117348Y432308D01*
X116486Y398526D02*
X117348D01*
X115012Y400000D02*
X116486Y398526D01*
X104110Y400000D02*
X115012D01*
X104110Y420000D02*
X116262D01*
X120904Y424642D02*
Y424942D01*
X116262Y420000D02*
X120904Y424642D01*
X210566Y340614D02*
X217932Y333248D01*
X271526Y344424D02*
X292862Y365760D01*
X271526Y317500D02*
Y344424D01*
D17*
X109610Y455700D02*
D03*
Y369300D02*
D03*
D18*
X104110Y385000D02*
D03*
Y390000D02*
D03*
X104110Y395000D02*
D03*
Y400000D02*
D03*
Y405000D02*
D03*
X104110Y410000D02*
D03*
Y415000D02*
D03*
X104110Y420000D02*
D03*
Y425000D02*
D03*
Y430000D02*
D03*
X104110Y435000D02*
D03*
Y440000D02*
D03*
D19*
X87490Y137200D02*
D03*
Y149900D02*
D03*
Y124500D02*
D03*
Y111800D02*
D03*
Y99100D02*
D03*
Y86400D02*
D03*
Y73700D02*
D03*
D20*
X129544Y424942D02*
D03*
X120904D02*
D03*
D21*
X838588Y1270D02*
G03*
X851288Y13970I0J12700D01*
G01*
Y105410D02*
G03*
X838588Y118110I-12700J0D01*
G01*
X838570Y431800D02*
G03*
X851270Y444500I0J12700D01*
G01*
Y538570D02*
G03*
X838570Y551270I-12700J0D01*
G01*
X13970D02*
G03*
X1270Y538570I0J-12700D01*
G01*
Y474980D02*
G03*
X13970Y462280I12700J0D01*
G01*
Y41800D02*
G03*
X1270Y29100I0J-12700D01*
G01*
Y13970D02*
G03*
X13970Y1270I12700J0D01*
G01*
Y363220D02*
G03*
X1270Y350520I0J-12700D01*
G01*
Y193294D02*
G03*
X12700Y181864I11430J0D01*
G01*
X767080Y118110D02*
X838588D01*
X13970Y363220D02*
X90330D01*
X13970Y462280D02*
X89830D01*
X12700Y181864D02*
X69392D01*
X13970Y41800D02*
X69456D01*
X851288Y13970D02*
Y105410D01*
X762000Y431800D02*
X838570D01*
X851270Y444500D02*
Y538570D01*
X13970Y551270D02*
X838570D01*
X1270Y474980D02*
Y538570D01*
Y13970D02*
Y29100D01*
Y193294D02*
Y350520D01*
X13970Y1270D02*
X838588D01*
D28*
X23970Y528570D02*
D03*
D29*
X104110Y410000D02*
X104499Y410389D01*
X112278D01*
X112643Y410754D01*
X116341D01*
X104110Y415000D02*
X104499Y414611D01*
X112278D01*
X112643Y414246D01*
X117787D01*
X121666Y409956D02*
Y410366D01*
X117787Y414246D02*
X121666Y410366D01*
X130424Y411480D02*
X130810D01*
X124540Y405595D02*
X130424Y411480D01*
X119860Y405595D02*
X124540D01*
X117305Y408150D02*
X119860Y405595D01*
X117305Y408150D02*
Y409790D01*
X116341Y410754D02*
X117305Y409790D01*
D30*
X717804Y135300D02*
D03*
Y414700D02*
D03*
Y186100D02*
D03*
Y160700D02*
D03*
Y236900D02*
D03*
Y211500D02*
D03*
Y389300D02*
D03*
Y363900D02*
D03*
Y338500D02*
D03*
Y313100D02*
D03*
Y287700D02*
D03*
Y262300D02*
D03*
D31*
X824960Y535320D02*
D03*
X812460Y510320D02*
D03*
X824960Y485320D02*
D03*
X812460Y460320D02*
D03*
Y110320D02*
D03*
X824960Y85320D02*
D03*
X812460Y60320D02*
D03*
X824960Y35320D02*
D03*
X812460Y10320D02*
D03*
X799960Y535320D02*
D03*
X787460Y510320D02*
D03*
X799960Y485320D02*
D03*
X787460Y460320D02*
D03*
Y110320D02*
D03*
X799960Y85320D02*
D03*
X787460Y60320D02*
D03*
X799960Y35320D02*
D03*
X787460Y10320D02*
D03*
X774960Y535320D02*
D03*
X762460Y510320D02*
D03*
X774960Y485320D02*
D03*
X762460Y460320D02*
D03*
Y110320D02*
D03*
X774960Y85320D02*
D03*
X762460Y60320D02*
D03*
X774960Y35320D02*
D03*
X762460Y10320D02*
D03*
X749960Y535320D02*
D03*
X737460Y510320D02*
D03*
X749960Y485320D02*
D03*
X737460Y460320D02*
D03*
X749960Y435320D02*
D03*
X737460Y110320D02*
D03*
X749960Y85320D02*
D03*
X737460Y60320D02*
D03*
X749960Y35320D02*
D03*
X737460Y10320D02*
D03*
X724960Y535320D02*
D03*
X712460Y510320D02*
D03*
X724960Y485320D02*
D03*
X712460Y460320D02*
D03*
X724960Y435320D02*
D03*
X712460Y110320D02*
D03*
X724960Y85320D02*
D03*
X712460Y60320D02*
D03*
X724960Y35320D02*
D03*
X712460Y10320D02*
D03*
X699960Y535320D02*
D03*
X687460Y510320D02*
D03*
X699960Y485320D02*
D03*
X687460Y460320D02*
D03*
X699960Y435320D02*
D03*
X687460Y310320D02*
D03*
X699960Y185320D02*
D03*
Y85320D02*
D03*
X687460Y60320D02*
D03*
X699960Y35320D02*
D03*
X687460Y10320D02*
D03*
X674960Y535320D02*
D03*
X662460Y510320D02*
D03*
X674960Y485320D02*
D03*
X662460Y460320D02*
D03*
X674960Y435320D02*
D03*
X662460Y410320D02*
D03*
X674960Y335320D02*
D03*
X662460Y310320D02*
D03*
X674960Y285320D02*
D03*
Y185320D02*
D03*
X662460Y160320D02*
D03*
Y60320D02*
D03*
X674960Y35320D02*
D03*
X662460Y10320D02*
D03*
X649960Y535320D02*
D03*
X637460Y510320D02*
D03*
X649960Y485320D02*
D03*
X637460Y460320D02*
D03*
X649960Y435320D02*
D03*
X637460Y410320D02*
D03*
X649960Y335320D02*
D03*
X637460Y310320D02*
D03*
X649960Y285320D02*
D03*
X637460Y260320D02*
D03*
X649960Y235320D02*
D03*
Y135320D02*
D03*
X637460Y60320D02*
D03*
X649960Y35320D02*
D03*
X637460Y10320D02*
D03*
X624960Y535320D02*
D03*
X612460Y510320D02*
D03*
X624960Y485320D02*
D03*
X612460Y460320D02*
D03*
X624960Y435320D02*
D03*
X612460Y410320D02*
D03*
X624960Y335320D02*
D03*
X612460Y310320D02*
D03*
X624960Y285320D02*
D03*
X612460Y260320D02*
D03*
X624960Y235320D02*
D03*
X612460Y160320D02*
D03*
X624960Y135320D02*
D03*
X612460Y60320D02*
D03*
X624960Y35320D02*
D03*
X612460Y10320D02*
D03*
X599960Y535320D02*
D03*
X587460Y510320D02*
D03*
X599960Y485320D02*
D03*
X587460Y460320D02*
D03*
X599960Y435320D02*
D03*
X587460Y410320D02*
D03*
X599960Y335320D02*
D03*
X587460Y310320D02*
D03*
X599960Y285320D02*
D03*
X587460Y260320D02*
D03*
X599960Y235320D02*
D03*
X587460Y210320D02*
D03*
Y160320D02*
D03*
X599960Y135320D02*
D03*
X587460Y60320D02*
D03*
X599960Y35320D02*
D03*
X587460Y10320D02*
D03*
X574960Y535320D02*
D03*
X562460Y510320D02*
D03*
X574960Y485320D02*
D03*
X562460Y460320D02*
D03*
X574960Y435320D02*
D03*
X562460Y410320D02*
D03*
X574960Y335320D02*
D03*
X562460Y310320D02*
D03*
X574960Y285320D02*
D03*
X562460Y260320D02*
D03*
X574960Y235320D02*
D03*
X562460Y210320D02*
D03*
Y160320D02*
D03*
X574960Y135320D02*
D03*
X562460Y60320D02*
D03*
X574960Y35320D02*
D03*
X562460Y10320D02*
D03*
X549960Y535320D02*
D03*
X537460Y510320D02*
D03*
X549960Y485320D02*
D03*
X537460Y460320D02*
D03*
X549960Y435320D02*
D03*
X537460Y410320D02*
D03*
X549960Y335320D02*
D03*
X537460Y310320D02*
D03*
X549960Y285320D02*
D03*
X537460Y260320D02*
D03*
X549960Y235320D02*
D03*
X537460Y210320D02*
D03*
Y160320D02*
D03*
X549960Y135320D02*
D03*
X537460Y60320D02*
D03*
X549960Y35320D02*
D03*
X537460Y10320D02*
D03*
X524960Y535320D02*
D03*
X512460Y510320D02*
D03*
X524960Y485320D02*
D03*
X512460Y460320D02*
D03*
X524960Y435320D02*
D03*
X512460Y410320D02*
D03*
X524960Y335320D02*
D03*
X512460Y310320D02*
D03*
X524960Y285320D02*
D03*
X512460Y260320D02*
D03*
X524960Y235320D02*
D03*
X512460Y210320D02*
D03*
Y160320D02*
D03*
X524960Y135320D02*
D03*
X512460Y60320D02*
D03*
X524960Y35320D02*
D03*
X512460Y10320D02*
D03*
X499960Y535320D02*
D03*
X487460Y510320D02*
D03*
X499960Y485320D02*
D03*
X487460Y460320D02*
D03*
X499960Y435320D02*
D03*
X487460Y410320D02*
D03*
X499960Y335320D02*
D03*
X487460Y310320D02*
D03*
X499960Y285320D02*
D03*
X487460Y260320D02*
D03*
X499960Y235320D02*
D03*
X487460Y210320D02*
D03*
Y160320D02*
D03*
X499960Y135320D02*
D03*
X487460Y60320D02*
D03*
X499960Y35320D02*
D03*
X487460Y10320D02*
D03*
X474960Y535320D02*
D03*
X462460Y510320D02*
D03*
X474960Y485320D02*
D03*
X462460Y460320D02*
D03*
X474960Y435320D02*
D03*
X462460Y410320D02*
D03*
X474960Y335320D02*
D03*
X462460Y310320D02*
D03*
X474960Y285320D02*
D03*
X462460Y260320D02*
D03*
X474960Y235320D02*
D03*
X462460Y210320D02*
D03*
Y160320D02*
D03*
X474960Y135320D02*
D03*
X462460Y60320D02*
D03*
X474960Y35320D02*
D03*
X462460Y10320D02*
D03*
X449960Y535320D02*
D03*
X437460Y510320D02*
D03*
X449960Y485320D02*
D03*
X437460Y460320D02*
D03*
X449960Y435320D02*
D03*
X437460Y410320D02*
D03*
X449960Y335320D02*
D03*
X437460Y310320D02*
D03*
X449960Y285320D02*
D03*
X437460Y260320D02*
D03*
X449960Y235320D02*
D03*
X437460Y210320D02*
D03*
Y160320D02*
D03*
X449960Y135320D02*
D03*
X437460Y60320D02*
D03*
X449960Y35320D02*
D03*
X437460Y10320D02*
D03*
X424960Y535320D02*
D03*
X412460Y510320D02*
D03*
X424960Y485320D02*
D03*
X412460Y460320D02*
D03*
X424960Y335320D02*
D03*
X412460Y310320D02*
D03*
X424960Y285320D02*
D03*
X412460Y260320D02*
D03*
X424960Y235320D02*
D03*
X412460Y210320D02*
D03*
Y160320D02*
D03*
X424960Y135320D02*
D03*
X412460Y60320D02*
D03*
X424960Y35320D02*
D03*
X412460Y10320D02*
D03*
X399960Y535320D02*
D03*
X387460Y510320D02*
D03*
X399960Y485320D02*
D03*
X387460Y460320D02*
D03*
X399960Y335320D02*
D03*
X387460Y310320D02*
D03*
X399960Y285320D02*
D03*
X387460Y260320D02*
D03*
X399960Y235320D02*
D03*
X387460Y210320D02*
D03*
Y160320D02*
D03*
X399960Y135320D02*
D03*
X387460Y60320D02*
D03*
X399960Y35320D02*
D03*
X387460Y10320D02*
D03*
X374960Y535320D02*
D03*
X362460Y510320D02*
D03*
X374960Y485320D02*
D03*
X362460Y460320D02*
D03*
X374960Y335320D02*
D03*
X362460Y310320D02*
D03*
X374960Y285320D02*
D03*
X362460Y260320D02*
D03*
X374960Y235320D02*
D03*
X362460Y210320D02*
D03*
Y160320D02*
D03*
X374960Y135320D02*
D03*
X362460Y60320D02*
D03*
X374960Y35320D02*
D03*
X362460Y10320D02*
D03*
X349960Y535320D02*
D03*
X337460Y510320D02*
D03*
X349960Y335320D02*
D03*
Y285320D02*
D03*
X337460Y260320D02*
D03*
X349960Y235320D02*
D03*
X337460Y210320D02*
D03*
Y160320D02*
D03*
X349960Y135320D02*
D03*
X337460Y60320D02*
D03*
X349960Y35320D02*
D03*
X337460Y10320D02*
D03*
X324960Y535320D02*
D03*
X312460Y510320D02*
D03*
Y460320D02*
D03*
Y310320D02*
D03*
X324960Y285320D02*
D03*
X312460Y260320D02*
D03*
X324960Y235320D02*
D03*
X312460Y160320D02*
D03*
X324960Y135320D02*
D03*
X312460Y60320D02*
D03*
X324960Y35320D02*
D03*
X312460Y10320D02*
D03*
X299960Y535320D02*
D03*
X287460Y510320D02*
D03*
X299960Y485320D02*
D03*
X287460Y460320D02*
D03*
X299960Y435320D02*
D03*
X287460Y160320D02*
D03*
X299960Y135320D02*
D03*
X287460Y60320D02*
D03*
X299960Y35320D02*
D03*
X287460Y10320D02*
D03*
X274960Y535320D02*
D03*
X262460Y510320D02*
D03*
X274960Y485320D02*
D03*
X262460Y460320D02*
D03*
Y160320D02*
D03*
X274960Y135320D02*
D03*
X262460Y60320D02*
D03*
X274960Y35320D02*
D03*
X262460Y10320D02*
D03*
X249960Y535320D02*
D03*
X237460Y510320D02*
D03*
Y160320D02*
D03*
X249960Y135320D02*
D03*
X237460Y60320D02*
D03*
X249960Y35320D02*
D03*
X237460Y10320D02*
D03*
X224960Y535320D02*
D03*
X212460Y510320D02*
D03*
X224960Y135320D02*
D03*
X212460Y60320D02*
D03*
X224960Y35320D02*
D03*
X212460Y10320D02*
D03*
X199960Y535320D02*
D03*
X187460Y510320D02*
D03*
X199960Y485320D02*
D03*
X187460Y160320D02*
D03*
X199960Y135320D02*
D03*
X187460Y60320D02*
D03*
X199960Y35320D02*
D03*
X187460Y10320D02*
D03*
X174960Y535320D02*
D03*
X162460Y510320D02*
D03*
X174960Y485320D02*
D03*
X162460Y410320D02*
D03*
X174960Y135320D02*
D03*
X162460Y60320D02*
D03*
X174960Y35320D02*
D03*
X162460Y10320D02*
D03*
X149960Y535320D02*
D03*
X137460Y510320D02*
D03*
Y260320D02*
D03*
X149960Y235320D02*
D03*
X137460Y210320D02*
D03*
X149960Y185320D02*
D03*
X137460Y60320D02*
D03*
X149960Y35320D02*
D03*
X137460Y10320D02*
D03*
X124960Y535320D02*
D03*
X112460Y510320D02*
D03*
X124960Y185320D02*
D03*
X112460Y60320D02*
D03*
X124960Y35320D02*
D03*
X112460Y10320D02*
D03*
X99960Y535320D02*
D03*
X87460Y510320D02*
D03*
X99960Y485320D02*
D03*
Y185320D02*
D03*
X87460Y60320D02*
D03*
X99960Y35320D02*
D03*
X87460Y10320D02*
D03*
X74960Y535320D02*
D03*
X62460Y510320D02*
D03*
X74960Y485320D02*
D03*
Y35320D02*
D03*
X62460Y10320D02*
D03*
X49960Y535320D02*
D03*
Y485320D02*
D03*
Y35320D02*
D03*
X37460Y10320D02*
D03*
X24960Y485320D02*
D03*
Y35320D02*
D03*
X12460Y10320D02*
D03*
X30226Y337058D02*
D03*
X66294Y339344D02*
D03*
X183642Y340614D02*
D03*
X172720Y322326D02*
D03*
X262883Y361435D02*
D03*
X248920Y327914D02*
D03*
X289306Y320675D02*
D03*
X290830Y303530D02*
D03*
X191008Y175006D02*
D03*
X213868Y180848D02*
D03*
X217932Y157734D02*
D03*
X96193Y178960D02*
D03*
X35052Y240538D02*
D03*
X27178D02*
D03*
X19304D02*
D03*
X42926D02*
D03*
X119126Y354330D02*
D03*
X168656Y231140D02*
D03*
X257810Y228092D02*
D03*
X326136Y475234D02*
D03*
X319250Y351282D02*
D03*
X276606Y283972D02*
D03*
X226314Y474980D02*
D03*
X245618Y180594D02*
D03*
X231394D02*
D03*
X126238Y475234D02*
D03*
X58166Y323850D02*
D03*
X50292D02*
D03*
Y315976D02*
D03*
X104120Y306598D02*
D03*
X58166Y308102D02*
D03*
X109688Y301031D02*
D03*
X58166Y315976D02*
D03*
X50292Y308102D02*
D03*
Y300228D02*
D03*
X168148Y205486D02*
D03*
X115062Y141986D02*
D03*
X93218Y236474D02*
D03*
X85344Y228600D02*
D03*
X93218D02*
D03*
X77470D02*
D03*
X160020Y232664D02*
D03*
X272288Y216662D02*
D03*
X59944Y220472D02*
D03*
X246126Y386588D02*
D03*
X113284Y118110D02*
D03*
X107442Y99060D02*
D03*
X420370Y404876D02*
D03*
X338328Y423164D02*
D03*
X280162Y423672D02*
D03*
X368808Y423164D02*
D03*
X399796Y415544D02*
D03*
X364998Y502158D02*
D03*
X330708Y319786D02*
D03*
X284988Y334518D02*
D03*
X330708D02*
D03*
X264414Y502666D02*
D03*
X260350Y415544D02*
D03*
X230378D02*
D03*
X200152Y415290D02*
D03*
X298958Y261874D02*
D03*
X274066Y303784D02*
D03*
X288544Y242062D02*
D03*
X330708Y207228D02*
D03*
X288544Y234342D02*
D03*
X271526Y281432D02*
D03*
X264922Y224028D02*
D03*
X258318Y219202D02*
D03*
X164846Y501904D02*
D03*
X109220Y447040D02*
D03*
X129540Y431800D02*
D03*
X105664Y378460D02*
D03*
X172720Y330708D02*
D03*
X157734Y252222D02*
D03*
X119126Y308102D02*
D03*
X117094Y242316D02*
D03*
X93980Y191516D02*
D03*
X32258Y312166D02*
D03*
Y320040D02*
D03*
Y304292D02*
D03*
X24384D02*
D03*
X16510D02*
D03*
Y312166D02*
D03*
Y320040D02*
D03*
X24384Y312166D02*
D03*
Y320040D02*
D03*
X117348Y432308D02*
D03*
Y398526D02*
D03*
X210566Y340614D02*
D03*
X217932Y333248D02*
D03*
X409702Y410972D02*
D03*
X271526Y317500D02*
D03*
X121666Y409956D02*
D03*
X130810Y411480D02*
D03*
M02*
