M48
;Layer_Color=9474304
;FILE_FORMAT=4:4
METRIC,LZ
;TYPE=PLATED
T01F00S00C0.3000
T02F00S00C0.5000
T03F00S00C2.0000
%
T01
X0056246Y0001032
X0058746
X0061246
X0063746
X0066246
X0068746
X0071246
X0073746
X0076246
X0078746
X0081246
X0082496Y0003532
X0079996
X0077496
X0074996
X0072496
X0069996
X0067496
X0064996
X0062496
X0059996
X0057496
X0058746Y0006032
X0061246
X0063746
X0066246
X0068746
X0071246
X0073746
X0076246
X0078746
X0081246
X0082496Y0008532
X0079996
X0077496
X0074996
X0072496
X0069996
X0071246Y0011032
X0073746
X0076246
X0078746
X0081246
X0064996Y0013532
X0062496
X0059996
X0057496
X0058746Y0016032
X0061246
X0066246
X0056246
Y0006032
X0053746
X0051246
X0048746
X0046246
X0043746
X0041246
X0038746
X0036246
X0033746
X0031246
X0028746
X0026246
X0023746
X0021246
X0018746
X0016246
X0017496Y0003532
X0019996
X0022496
X0024996
X0027496
X0029996
X0032496
X0034996
X0037496
X0039996
X0042496
X0044996
X0047496
X0049996
X0052496
X0054996
X0053746Y0001032
X0051246
X0048746
X0046246
X0043746
X0041246
X0038746
X0036246
X0033746
X0031246
X0028746
X0026246
X0023746
X0021246
X0018746
X0016246
X0017496Y0013532
X0019996
X0022496
X0024996
X0027496
X0029996
X0032496
X0034996
X0037496
X0039996
X0042496
X0044996
X0047496
X0049996
X0052496
X0054996
X0053746Y0016032
X0051246
X0048746
X0046246
X0043746
X0041246
X0038746
X0036246
X0033746
X0031246
X0028746
X0026246
X0023746
X00217932Y00157734
X0018746Y0016032
X00191008Y00175006
X00096193Y0017896
X00115062Y00141986
X00113284Y0011811
X00107442Y0009906
X0011246Y0006032
X0013746
X0014996Y0003532
X0012496
X0009996
X0007496
X0004996
X0002496
X0003746Y0001032
X0006246
X0008746
X0011246
X0013746
X0008746Y0006032
X0001246Y0001032
X00019304Y00240538
X00027178
X00035052
X00042926
X00059944Y00220472
X0007747Y002286
X00085344
X00093218
Y00236474
X00117094Y00242316
X0013746Y0026032
X0014996Y0023532
X0013746Y0021032
X0014996Y0018532
X0012496
X0009996
X0009398Y00191516
X0010412Y00306598
X00109688Y00301031
X00119126Y00308102
Y0035433
X00105664Y0037846
X00117348Y00398526
X00121666Y00409956
X0013081Y0041148
X0012954Y004318
X00117348Y00432308
X0010922Y0044704
X00126238Y00475234
X0009996Y0048532
X0007496
X0004996
X0002496
X0006246Y0051032
X0008746
X0011246
X0013746
X0014996Y0053532
X0012496
X0009996
X0007496
X0004996
X00050292Y0032385
X00058166
Y00315976
X00050292
Y00308102
X00058166
X00050292Y00300228
X00032258Y00304292
Y00312166
Y0032004
X00024384
X0001651
Y00312166
Y00304292
X00024384
Y00312166
X00030226Y00337058
X00066294Y00339344
X0017272Y00330708
Y00322326
X00183642Y00340614
X00210566
X00217932Y00333248
X0024892Y00327914
X00271526Y003175
X00274066Y00303784
X0029083Y0030353
X00289306Y00320675
X00284988Y00334518
X00330708
Y00319786
X0031246Y0031032
X0032496Y0028532
X0034996
X0037496
X0039996
X0042496
X0044996
X0047496
X0049996
X0052496
X0054996
X0053746Y0031032
X0051246
X0048746
X0046246
X0043746
X0041246
X0038746
X0036246
X0037496Y0033532
X0039996
X0042496
X0044996
X0047496
X0049996
X0052496
X0054996
X0053746Y0041032
X0051246
X0048746
X0046246
X0043746
X0042037Y00404876
X00409702Y00410972
X00399796Y00415544
X00368808Y00423164
X00338328
X0029996Y0043532
X00280162Y00423672
X0026035Y00415544
X00230378
X00200152Y0041529
X0016246Y0041032
X0017496Y0048532
X0019996
X00226314Y0047498
X0023746Y0051032
X0026246
X00264414Y00502666
X0027496Y0048532
X0029996
X00326136Y00475234
X0031246Y0046032
X0028746
X0026246
X0028746Y0051032
X0031246
X0033746
X0036246
X00364998Y00502158
X0037496Y0048532
X0039996
X0042496
X0044996
X0047496
X0049996
X0052496
X0054996
X0053746Y0051032
X0051246
X0048746
X0046246
X0043746
X0041246
X0038746
X0039996Y0053532
X0042496
X0044996
X0047496
X0049996
X0052496
X0054996
X0053746Y0046032
X0051246
X0048746
X0046246
X0043746
X0041246
X0038746
X0036246
X0037496Y0053532
X0034996
X0032496
X0029996
X0027496
X0024996
X0022496
X0019996
X0017496
X0018746Y0051032
X0021246
X0016246
X00164846Y00501904
X00246126Y00386588
X00262883Y00361435
X0031925Y00351282
X0034996Y0033532
X0036246Y0026032
X0038746
X0041246
X0043746
X0046246
X0048746
X0051246
X0053746
X0054996Y0023532
X0052496
X0049996
X0047496
X0044996
X0042496
X0039996
X0037496
X0034996
X0032496
X00330708Y00207228
X0033746Y0021032
X0036246
X0038746
X0041246
X0043746
X0046246
X0048746
X0051246
X0053746
X0054996Y0043532
X0052496
X0049996
X0047496
X0044996
X0033746Y0026032
X0031246
X00298958Y00261874
X00288544Y00242062
Y00234342
X00272288Y00216662
X00264922Y00224028
X0025781Y00228092
X00258318Y00219202
X00245618Y00180594
X00231394
X00213868Y00180848
X00168148Y00205486
X00168656Y0023114
X0016002Y00232664
X00157734Y00252222
X00271526Y00281432
X00276606Y00283972
X0057496Y0028532
X0059996
X0062496
X0064996
X0067496
X0068746Y0031032
X0066246
X0063746
X0061246
X0058746
X0056246
X0057496Y0033532
X0059996
X0062496
X0064996
X0067496
X0066246Y0041032
X0063746
X0061246
X0058746
X0056246
X0057496Y0043532
X0059996
X0062496
X0064996
X0067496
X0069996
X0072496
X0074996
X0076246Y0046032
X0078746
X0081246
X0082496Y0048532
X0079996
X0077496
X0074996
X0072496
X0069996
X0067496
X0064996
X0062496
X0059996
X0057496
X0058746Y0051032
X0061246
X0063746
X0066246
X0068746
X0071246
X0073746
X0076246
X0078746
X0081246
X0082496Y0053532
X0079996
X0077496
X0074996
X0072496
X0069996
X0067496
X0064996
X0062496
X0059996
X0057496
X0056246Y0051032
Y0046032
X0058746
X0061246
X0063746
X0066246
X0068746
X0071246
X0073746
X0063746Y0026032
X0061246
X0058746
X0056246
X0057496Y0023532
X0059996
X0062496
X0064996
X0067496Y0018532
X0069996
X0058746Y0021032
X0056246
T02
X00717804Y001353
Y001607
Y001861
Y002115
Y002369
Y002623
Y002877
Y003131
Y003385
Y003639
Y003893
Y004147
T03
X0002397Y0052857
M30
